<svg width="360" height="379" viewBox="0 0 360 379" fill="none" xmlns="http://www.w3.org/2000/svg">
<g clip-path="url(#clip0)">
<path d="M190.067 378.301L188.601 377.506L187.928 371.182L191.961 367.149C191.961 367.149 190.342 365.408 189.823 365.255C189.273 365.133 188.753 364.46 188.753 364.46H188.203C188.203 364.46 186.645 362.566 186.462 361.375C186.248 360.153 183.926 358.258 183.926 358.258L183.529 357.953L183.04 358.258L180.107 356.028L179.496 354.806L178.702 353.278L177.082 353.187L174.974 351.262L173.874 351.781L172.163 350.987L171.461 348.573L169.841 346.862L168.833 346.557C168.833 346.557 168.925 347.565 168.314 347.87C167.703 348.176 167.397 348.573 167.397 348.573C167.397 348.573 165.992 347.962 165.778 347.657C165.564 347.351 164.77 345.426 164.77 345.426H163.853C163.853 345.426 164.556 345.121 163.853 344.326C163.15 343.532 161.439 341.302 160.126 340.599C158.812 339.896 158.018 338.796 157.712 338.674C157.406 338.582 155.176 338.369 155.176 338.369C155.176 338.369 154.962 339.469 154.871 339.774C154.779 340.08 154.779 340.691 154.26 340.691C153.74 340.691 152.732 340.599 152.732 340.599L152.335 340.996L150.715 339.591C150.715 339.591 152.243 338.491 152.64 338.063C153.037 337.666 153.251 336.963 153.251 336.963L153.557 335.649L154.657 335.558C154.657 335.558 156.765 333.847 157.773 332.228C158.781 330.608 159.392 329.508 159.698 328.897C160.003 328.286 160.492 327.981 160.492 327.981H161.103L161.5 326.575L162.906 325.17C162.906 325.17 163.303 324.07 163.822 323.765C164.342 323.459 165.045 322.97 165.045 322.97L165.258 321.748H166.267L166.358 320.434H167.58L168.1 320.648L168.497 320.251L167.703 319.151L169.016 318.051L169.933 317.96L171.736 315.424L173.752 315.21L174.149 314.202L175.157 314.11L175.677 312.582L176.288 312.185H177.816L178.61 311.177L179.71 311.085L180.626 310.474L181.329 310.566C181.329 310.566 181.726 309.863 181.94 309.558C182.154 309.252 182.154 309.252 182.154 309.252L183.376 308.947L183.987 307.847L185.087 307.755L186.309 306.35L187.103 305.739C187.103 305.739 186.309 303.936 186.401 303.508C186.492 303.111 186.309 301.981 186.309 301.981L186.706 299.964L187.409 298.65L187.012 297.337L185.393 294.801L185.179 293.884L184.965 292.265L184.17 292.051L183.468 291.837L182.673 291.043L181.757 291.44L180.351 291.746V292.448L178.946 292.234L178.427 292.021L177.816 291.012L178.213 289.699L179.007 288.599L179.313 287.59L179.71 286.796C179.71 286.796 179.924 283.68 180.321 282.458C180.718 281.235 181.115 279.647 181.237 279.127C181.329 278.608 180.718 276.591 180.718 276.591L181.115 275.889L179.588 274.575H178.793L177.174 273.964L174.944 275.278L170.819 275.369V273.964L170.116 271.642L169.505 271.031L169.291 267.701L168.375 265.379L168.466 264.462L168.864 263.148L168.65 261.926L168.161 261.315L167.947 259.604L165.931 258.382L164.128 257.985L162.723 258.077L161.806 256.855L160.798 256.763C160.798 256.763 160.401 257.221 160.156 257.527C159.912 257.832 159.637 258.382 159.453 258.321C159.24 258.26 158.537 258.168 158.537 258.168L157.834 258.535C157.834 258.535 156.612 257.741 156.307 257.771C156.001 257.832 155.359 257.863 154.657 257.863C153.954 257.863 152.029 257.771 151.632 257.71C151.235 257.649 150.624 257.007 150.624 257.007C150.624 257.007 150.318 256.61 149.86 256.793C149.402 257.007 148.332 256.855 148.21 256.855C148.057 256.855 147.202 256.457 147.202 256.457C147.202 256.457 147.141 255.816 147.507 255.541C147.874 255.296 148.118 254.472 147.874 254.319C147.63 254.166 147.477 253.402 147.477 253.402L148.027 252.486L147.874 251.844L147.355 250.775L147.905 250.225L148.271 249.125L148.027 248.361L148.546 247.75L148.791 246.131C148.791 246.131 148.943 245.275 148.791 245.214C148.638 245.153 147.874 244.603 147.874 244.603L148.271 243.595C148.271 243.595 148.424 242.587 148.21 242.525C147.996 242.464 147.11 242.22 147.11 242.22L146.896 239.745L145.888 238.829L145.797 237.118L146.896 236.109C146.896 236.109 146.988 234.49 146.591 234.185C146.194 233.879 145.888 233.085 145.888 233.085L147.813 229.052L149.035 226.516L149.646 226.119L148.73 224.102L150.043 221.78L150.96 219.244L151.876 218.542L150.166 215.914L149.646 214.814C149.646 214.814 149.952 212.492 149.646 212.401C149.341 212.309 148.241 211.301 148.241 211.301L147.019 211.606L143.994 209.804C143.994 209.804 143.291 206.993 143.077 206.687C142.863 206.382 142.466 205.16 142.558 204.671C142.65 204.182 143.169 202.654 143.169 202.654L143.963 199.721L142.558 200.638L127.129 199.538L126.518 192.175L123.799 188.753L126.212 188.448L125.998 184.017C125.998 184.017 125.479 181.482 125.082 181.298C124.685 181.084 124.165 179.771 124.165 179.771L125.479 178.457L124.257 176.929L124.043 175.829L121.232 174.21L119.43 173.416L115.794 173.813H113.991H112.189L111.242 173.08L109.103 170.941L108.828 169.719L106.262 170.116L104.642 168.894L103.695 169.016L101.954 167.275L100.884 167L99.9372 165.38L98.9901 166.053L97.2486 164.83L95.9043 164.158L94.1628 163.364L93.0935 164.158L91.6269 164.555L89.3355 164.158L87.869 163.089L87.4718 161.347L85.4553 160.95L85.3331 160.278L83.8666 159.881V159.331L82.6445 158.934L82.0946 157.315L80.4753 156.642L80.8725 154.748L79.6504 153.679L79.7726 151.265L80.8419 149.646L79.2226 147.079V144.788L79.7726 144.116L80.0475 141.702L80.3225 139.014L78.581 137.792C78.581 137.792 78.306 139.014 77.9089 139.136C77.5117 139.258 75.3425 138.341 75.3425 138.341L72.9288 138.891L69.6902 139.686H67.3988L64.4352 142.649L61.6244 143.719L61.0744 144.513L58.1108 146.804L55.5444 147.079L53.528 148.546L51.7865 150.013L48.4257 151.357L48.1507 150.41L41.7042 149.738L36.6019 149.615L35.1354 150.41L33.1189 150.287L32.4467 149.34L31.3774 149.89L31.1024 138.464L31.4996 137.914L31.6218 136.447L31.8968 135.378L25.9696 140.633H16.5595L16.8344 139.166L16.0401 137.822L15.6429 136.6L7.69923 134.981L8.64636 133.636L9.59348 131.345L8.52415 130.001C8.52415 130.001 8.12696 128.992 7.57702 128.717C7.02707 128.442 6.56879 127.984 6.56879 127.984L6.23271 126.579C6.23271 126.579 5.28558 126.029 4.8884 125.845C4.49122 125.632 4.00238 124.287 4.00238 124.287L3.39133 123.401L3.45243 122.118L2.32199 121.324L2.93304 120.377L0 118.085L0.794365 117.352L0.73326 116.221L2.68862 115.946L2.47475 115.274L2.01646 113.93L2.13867 112.25L4.15514 110.233L5.62166 109.5L7.17984 108.889L7.9742 108.156L8.18807 107.361L7.45481 106.078L6.99652 105.009L7.3937 103.603L8.79912 101.923L9.80735 100.64L9.86846 98.226L10.3267 97.4317L10.449 95.9651L12.5265 95.293L13.993 93.8265L15.7345 92.3599L17.4149 92.2377L18.8814 90.6796L19.4925 90.0685L21.7839 90.0074L22.395 90.0685L23.0671 89.6713H25.0225L25.2975 89.0603L28.0472 88.6631L28.6582 88.1132L29.3304 87.3188L30.3997 86.6466L31.3469 86.7077L31.9579 87.3188L32.294 86.8605L34.6465 86.9216L34.9826 88.2048L35.6548 87.9909L36.5408 87.9298L37.0907 88.3881L37.4268 86.9827L37.7629 86.2494L42.2541 62.2963L41.8569 57.9273L40.7876 55.8497L40.5126 53.6194L36.8769 50.8697L36.3269 50.1364L36.5408 43.5982L38.4961 43.201L39.7793 42.315L40.2376 42.926L41.3681 41.9178L42.6513 42.8038L44.6066 42.8649L44.3317 42.315L44.0567 41.765L44.3928 41.154L44.4539 40.2679L43.7817 39.3819L43.6595 38.832H39.7488L39.3516 38.4959C39.3516 38.4959 39.0155 39.0458 38.8017 38.9542C38.5878 38.8931 38.0684 38.6792 38.0684 38.6792L38.4045 32.6909L39.8099 32.4771L40.146 32.141L41.6125 32.0799L42.0097 32.4771L53.4363 32.5382L52.367 31.8049L52.5808 31.0105L53.3141 30.0023L54.8723 31.2855L54.9945 31.8355H56.0638L56.3388 30.9494L57.347 29.819L58.3553 29.8801L58.8136 29.1468L60.2801 28.3525L61.1661 30.0329L61.716 30.98H62.4493L63.1215 32.3243L63.7325 35.7462L63.5186 36.4183L63.0603 37.0294L63.6714 37.9154L64.5574 37.7932L64.8935 37.396H66.0239L70.9429 41.5512L73.2343 41.3373C73.2343 41.3373 73.7843 40.7873 73.9676 40.7262C74.1815 40.6651 74.7009 40.0541 74.7009 40.0541C74.7009 40.0541 76.7173 39.5958 76.9923 39.5041C77.2673 39.443 77.7867 39.7791 77.7867 39.7791L78.0616 40.8484L77.2673 41.8567L77.3895 42.4066H78.5199L79.2532 41.2762L79.3754 40.2068L80.9947 40.1457L81.3918 38.4654L82.4612 38.1904L83.0722 37.3044L84.3554 36.4183L85.3637 37.0294L86.4941 35.5629L87.8384 34.9518L88.4495 34.4935L89.2438 35.4407L90.3132 34.4324L91.1075 33.4853V30.7967L92.9101 30.1245L93.7962 30.3995L95.4765 29.3302L97.2791 28.933L97.6763 27.3748V26.2444L94.3767 26.3055L93.5823 25.8472L91.2298 25.5722L91.9019 23.1586L89.6716 20.0727L89.4577 16.1926L90.0077 15.2455L86.7691 12.8318L84.6304 10.1432L84.7526 9.01274L85.9747 9.56269L86.8607 10.907L90.6187 10.4487L92.0241 12.679L92.5741 13.0151L93.3684 12.343H94.9877L95.2016 11.6097L97.0958 12.8318L97.218 11.9458L99.4484 12.0069L99.8456 13.3512L100.518 13.6873L101.312 15.0316L101.984 14.9094L102.381 14.1761L103.39 14.4511L103.267 11.7625L105.162 11.4875L106.048 10.3571L106.781 9.95987L108.156 10.6931L109.164 11.0903L109.622 10.5404L111.7 10.2654L112.769 9.13495H114.786L115.244 7.72954L116.588 7.60733L117.383 6.93518L119.063 6.81296L119.857 5.46866L120.53 4.85761L122.607 4.18545L123.218 3.05501L122.546 1.7718L121.996 0.977439L122.943 0.0303116L124.226 0.244179L124.563 0.977439L126.029 0.0303116L127.709 0.152522L128.993 1.49683L128.382 3.78827L128.443 4.7965L126.976 6.53799V7.33236H129.94L131.498 7.8823L131.834 8.49335L131.162 9.62379L132.231 11.3653L132.842 12.6485L131.712 14.8788L130.49 15.826L130.704 17.3841L130.49 19.1256L128.87 20.8671L129.268 24.3195L129.787 26.8554L131.009 27.5581L130.612 31.4994L132.231 32.0188L133.026 33.3325L135.439 35.6545L138.556 36.4489L138.861 37.7626L139.472 37.9765L140.48 36.9683L141.886 36.8766L142.589 37.396L142.802 35.1657L144.208 34.463L145.216 34.1574L146.835 34.8602L147.355 33.6381L150.593 33.027C150.593 33.027 151.113 33.3325 151.296 32.9353C151.51 32.5382 152.701 30.6134 152.701 30.6134L154.626 30.2162H156.154L158.079 31.4383L159.301 31.0411C159.301 31.0411 161.317 30.9494 161.714 30.9494C162.112 30.9494 163.731 31.5605 163.731 31.5605H165.35L166.144 30.8578V30.0634L164.922 28.4441L164.22 27.7414L165.136 27.0387L165.442 25.6333L165.839 25.2361L167.855 26.2444L171.277 26.0305L171.583 25.3278L174.608 24.9306L175.402 24.5334L176.318 26.061L177.724 26.1527L177.816 26.9471L179.038 27.5581L180.26 28.5663L182.185 28.7802L183.101 29.1774C183.101 29.1774 186.034 26.6415 186.34 26.7637C186.645 26.8554 187.959 27.5581 187.959 27.5581L189.181 27.0693L190.8 28.1692L192.511 28.658L193.917 28.2608L197.155 25.1445L197.247 23.9224L199.355 19.6756L200.76 17.4452C200.76 17.4452 204.793 12.4041 204.885 12.0069C204.977 11.6097 205.679 9.77656 205.679 9.77656L206.382 9.6849C206.382 9.6849 205.466 8.15728 206.382 7.97396C207.299 7.76009 208.185 8.49335 208.49 8.98219C208.796 9.47103 209.407 10.6931 209.59 11.3958C209.804 12.0985 209.682 14.3289 209.682 14.3289C209.682 14.3289 210.048 14.0234 210.201 13.5651C210.323 13.1068 210.476 12.7707 210.476 12.7707L210.812 12.8624C210.812 12.8624 210.843 15.6426 210.812 16.0093C210.782 16.3759 210.782 18.0563 210.782 18.2702C210.782 18.484 211.118 20.2561 211.118 20.2561L211.851 22.2725C211.851 22.2725 213.073 25.2972 213.287 25.7555C213.531 26.2138 213.867 26.6721 213.867 27.7414C213.867 28.8108 214.906 29.6662 215.12 30.1245C215.334 30.5828 216.098 31.866 216.342 32.0493C216.587 32.2326 217.992 32.0799 218.817 32.2326C219.672 32.3549 220.803 32.8437 220.956 32.9353C221.139 33.027 221.658 35.8378 221.536 36.4183C221.444 37.0294 221.383 37.2127 221.078 37.2738C220.772 37.3349 220.131 37.4877 220.131 37.4877L221.078 37.946C221.078 37.946 221.475 38.4959 221.475 38.7403C221.475 38.9847 220.711 39.6569 220.528 40.1457C220.314 40.6651 220.009 41.5206 219.764 41.6123C219.52 41.7039 218.114 41.765 217.962 41.7039C217.809 41.6428 217.564 41.0929 218.267 41.0623C218.97 41.0012 219.642 40.5429 219.642 40.2985C219.642 40.0541 219.489 39.5041 219.275 39.5347C219.061 39.5958 218.817 39.7486 218.42 39.7486C218.023 39.7486 217.87 40.2679 217.809 40.3902C217.748 40.5429 217.106 41.3067 216.953 41.6428C216.8 42.0094 216.006 43.1704 215.853 43.5676C215.701 43.9648 214.448 45.3702 214.387 45.5841C214.326 45.7979 214.631 46.3479 214.142 46.684C213.623 47.0506 213.073 47.3256 212.523 47.6311C211.973 47.9366 211.729 48.4255 211.27 48.7004C210.812 48.9449 209.468 49.4948 209.193 49.7698C208.949 50.0142 207.788 51.4196 207.788 51.4196C207.788 51.4196 208.154 51.8168 208.429 51.3585C208.735 50.9002 209.529 50.4419 209.682 50.4419C209.835 50.4419 210.384 51.2974 209.743 51.7557C209.101 52.214 207.635 52.8556 207.635 52.8556C207.635 52.8556 207.329 53.2528 206.688 53.711C206.046 54.1693 205.679 54.9331 205.679 54.9331C205.679 54.9331 208.46 52.9778 209.132 53.8027C209.804 54.5971 209.254 55.8192 209.254 56.0941C209.254 56.3691 208.796 57.3773 209.132 57.5607C209.468 57.7745 209.743 58.355 209.59 58.63C209.468 58.905 210.812 58.8439 210.812 58.8439C210.812 58.8439 209.743 57.1024 210.69 56.8885C211.637 56.6746 211.973 56.7663 211.973 56.3386C211.973 55.9414 211.087 56.1247 210.904 55.7275C210.69 55.3303 211.179 54.7193 211.301 54.3832C211.423 54.0471 211.973 54.5054 212.187 53.986C212.401 53.4361 211.576 53.986 211.729 53.4361C211.851 52.8861 212.615 52.55 212.523 52.214C212.462 51.8779 212.309 51.7557 211.79 52.2751C211.24 52.825 211.179 53.3444 210.843 53.2222C210.507 53.1 208.826 53.2833 209.376 52.825C209.926 52.3667 210.507 51.4807 210.782 51.4196C211.057 51.3585 211.851 51.5418 211.454 50.8697C211.057 50.1975 211.057 49.1282 212.248 48.9754C213.47 48.8532 214.54 48.2421 214.662 48.9143C214.784 49.5865 213.592 50.3197 213.592 50.3197C213.592 50.3197 214.326 50.6558 214.204 51.1141C214.081 51.5724 215.548 50.6558 216.159 50.0447C216.77 49.4337 216.373 48.7615 215.823 48.4255C215.273 48.0894 214.204 47.295 214.937 47.02C215.67 46.7451 216.006 47.1423 216.281 47.3561C216.556 47.57 216.22 47.0201 216.159 46.4701C216.098 45.9202 216.77 44.3925 217.381 43.5065C217.992 42.6205 218.511 42.6205 219.184 42.7121C219.856 42.7733 221.475 42.2539 220.467 43.4454C219.459 44.6675 216.984 45.248 218.725 45.523C220.467 45.7979 221.75 45.8591 222.422 45.4619C223.094 45.0647 224.164 44.1176 224.378 44.7897C224.591 45.4619 222.636 46.9284 222.575 47.4172C222.514 47.8755 222.178 48.6393 223.033 48.0283C223.919 47.4172 226.608 47.4172 226.516 48.1505C226.455 48.8838 226.638 49.617 225.05 49.892C223.43 50.167 222.819 49.1587 222.3 49.0976C221.75 49.0365 221.414 49.0976 221.017 49.0976C220.62 49.0976 220.558 49.6476 220.558 49.6476C220.558 49.6476 222.361 51.2057 224.591 50.9308C226.822 50.6558 227.005 50.1364 228.166 50.1364C229.296 50.1364 229.51 50.5947 231.191 50.6863C232.871 50.7474 234.949 50.8086 235.01 51.0224C235.071 51.2363 234.674 55.7886 234.124 57.0718C233.574 58.355 231.832 58.8744 231.893 59.4855C231.955 60.0965 231.618 61.5019 231.221 61.838C230.824 62.1741 230.335 63.7323 230.335 63.7323C230.335 63.7323 230.885 63.6101 231.282 63.3962C231.68 63.1823 233.757 60.3715 234.857 59.4855C235.926 58.5994 235.987 56.0636 237.087 55.4525C238.157 54.8415 239.501 54.0471 240.173 54.3221C240.845 54.5971 241.854 53.8638 242.526 54.1999C243.198 54.536 242.648 55.5442 243.748 55.3303C244.817 55.1165 245.703 53.8638 246.375 54.6582C247.047 55.4525 248.514 57.5607 250.347 56.7968C252.15 56.0636 251.966 56.8579 253.708 57.4079C255.449 57.9578 256.397 57.9578 257.191 58.63C257.985 59.3021 258.81 60.3104 259.757 60.7687C260.704 61.227 261.56 60.7076 261.774 60.7076C261.988 60.7076 263.179 60.8298 263.515 61.3186C263.851 61.7769 263.24 62.4491 263.79 62.4491C264.34 62.4491 265.073 61.6547 265.593 61.8991C266.143 62.1741 266.723 62.6324 266.815 62.1741C266.876 61.7158 265.929 61.1047 266.357 60.8298C266.754 60.5548 267.579 59.7604 267.579 60.4326C267.579 61.1047 267.457 61.227 267.976 61.6547C268.526 62.0519 270.39 62.8768 269.931 63.6101C269.473 64.3433 269.656 64.7405 270.603 65.2904C271.551 65.8404 272.223 68.3151 272.07 69.4456C271.948 70.576 271.459 71.2482 270.787 72.012C270.115 72.7452 269.779 74.7617 269.717 74.9756C269.656 75.1894 270.787 73.9673 271.337 74.0896C271.887 74.2118 271.551 72.623 272.895 71.7981C274.239 71.0038 275.125 70.3316 275.461 70.9121C275.797 71.5231 276.408 72.4703 276.867 71.9203C277.325 71.3704 277.997 70.2399 278.333 69.5678C278.669 68.8956 279.616 68.0096 279.678 68.9567C279.739 69.9039 279.555 70.6371 280.35 70.0872C281.144 69.5372 281.816 69.2928 282.977 70.0261C284.108 70.7593 286.613 72.0425 287.407 72.0425C288.202 72.0425 288.874 72.5925 289.485 72.9897C290.096 73.3868 293.793 73.448 295.076 73.6618C296.359 73.8757 295.29 74.4562 298.101 74.945C300.912 75.4033 306.228 74.6701 308.122 74.1507C310.016 73.6007 312.43 74.8228 313.713 75.2811C314.996 75.7394 318.082 78.428 319.029 78.978C319.976 79.5279 322.787 79.6501 324.009 80.9944C325.231 82.3387 327.828 84.4163 328.256 84.7524C328.653 85.0885 333.969 90.7407 334.978 91.199C335.986 91.6572 338.674 92.6044 338.888 93.0015C339.102 93.3987 340.63 93.7959 341.455 93.7959C342.249 93.7959 345.213 93.1849 346.832 94.0098C348.451 94.8042 350.07 94.6819 351.079 94.8958C352.087 95.1097 354.714 96.5762 354.898 96.9123C355.112 97.2484 356.578 100.884 356.792 101.159C357.006 101.434 358.259 104.52 358.35 105.864C358.411 107.208 359.97 113.197 360.031 114.755C360.092 116.313 360.092 122.026 359.969 122.485C359.847 122.943 357.342 131.101 357.006 131.559C356.67 132.017 352.912 136.936 352.24 137.547C351.568 138.158 349.551 138.555 349.429 139.289C349.307 140.022 345.396 145.888 345.06 146.163C344.724 146.438 339.408 149.065 339.408 149.065C339.408 149.065 338.338 151.54 337.33 154.168C336.322 156.795 334.092 160.889 333.847 161.286C333.572 161.684 328.256 167.214 328.256 167.214L326.973 168.833L326.24 167.152L324.62 166.755C324.62 166.755 323.826 167.366 323.612 167.764C323.398 168.161 323.887 168.497 324.162 168.497C324.437 168.497 325.445 168.1 325.445 168.1L325.506 169.047C325.506 169.047 324.284 169.933 324.04 170.116C323.765 170.33 322.084 173.935 322.084 173.935L322.023 177.174L322.359 177.724C322.359 177.724 322.757 178.854 322.634 179.068C322.512 179.282 321.076 184.506 321.076 184.506L321.871 185.728L322.268 195.627L322.665 196.086C322.665 196.086 322.329 197.033 322.207 198.224C322.084 199.446 320.251 209.468 320.19 210.262C320.129 211.056 320.19 214.081 320.19 214.081L318.968 215.028C318.968 215.028 316.341 218.786 315.668 220.283C314.996 221.75 314.996 223.522 314.996 224.866C314.996 226.21 315.791 229.296 315.791 229.296L314.996 231.038L313.652 233.176C313.652 233.176 311.758 234.124 311.513 234.918C311.238 235.712 309.375 240.692 309.375 240.692C309.375 240.692 306.808 244.175 306.411 244.328C306.014 244.45 303.6 249.308 303.6 249.308L301.461 251.997L302.806 252.669L303.478 255.48C303.478 255.48 302.684 256.274 302.011 257.099C301.339 257.893 297.978 259.39 297.184 259.665C296.39 259.94 294.893 262.751 294.893 262.751L294.496 264.218C294.496 264.218 291.532 265.165 291.013 265.165C290.463 265.165 279.586 265.44 279.586 265.44L278.517 266.387L275.278 265.44C275.278 265.44 273.536 265.837 272.987 266.112C272.437 266.387 270.42 267.059 270.42 267.059L271.764 267.609L269.198 268.678L267.304 270.298C267.304 270.298 263.362 271.581 263.362 271.886C263.362 272.192 262.568 273.292 262.874 273.414C263.179 273.506 263.974 272.497 264.096 273.017C264.187 273.536 264.493 274.819 263.79 275.553C263.088 276.255 259.971 274.331 258.352 274.636C256.733 274.942 254.319 275.858 252.791 276.958C251.264 278.058 249.858 277.478 248.545 279.066C247.231 280.686 241.976 284.81 241.181 285.727C240.387 286.643 240.265 287.04 239.379 288.14C238.462 289.24 236.751 290.951 236.568 290.462C236.354 289.943 235.346 289.24 234.949 289.851C234.551 290.462 234.154 291.073 234.429 291.073C234.735 291.073 235.346 291.287 235.346 291.868C235.346 292.479 233.94 297.734 233.543 298.223C233.146 298.742 232.535 299.323 232.535 299.323C232.535 299.323 233.849 298.314 233.849 299.323C233.849 300.331 232.535 302.439 232.932 303.447C233.329 304.455 234.643 306.777 234.154 308.091C233.635 309.405 234.154 311.116 234.154 311.116C234.154 311.116 234.857 309.894 235.163 310.81C235.468 311.727 235.56 314.538 234.857 314.354C234.154 314.141 233.452 313.254 233.238 314.752C233.024 316.279 231.924 321.015 231.832 321.504C231.741 322.023 230.732 323.428 229.113 324.04C227.494 324.651 223.553 329.386 223.064 330.608C222.544 331.83 221.444 334.244 220.253 336.872C219.031 339.499 218.023 339.591 217.534 342.615C217.014 345.64 213.806 350.895 211.179 353.217C208.551 355.539 203.724 358.044 202.899 359.083C202.105 360.091 201.799 360 200.18 361.802C198.561 363.605 199.08 366.538 198.377 367.943C197.675 369.349 195.658 371.365 194.955 372.679C194.253 373.993 193.245 376.009 192.236 376.315C190.953 376.59 190.067 378.301 190.067 378.301Z" fill="#11152C"/>
<g opacity="0.32" filter="url(#filter0_f)">
<circle cx="235" cy="268" r="18" fill="#3856E1"/>
</g>
<circle opacity="0.32" cx="235" cy="268" r="15" fill="#3856E1"/>
<circle opacity="0.56" cx="235" cy="268" r="12" fill="#3856E1"/>
<circle cx="235" cy="268" r="9" fill="#3856E1"/>
</g>
<defs>
<filter id="filter0_f" x="209" y="242" width="52" height="52" filterUnits="userSpaceOnUse" color-interpolation-filters="sRGB">
<feFlood flood-opacity="0" result="BackgroundImageFix"/>
<feBlend mode="normal" in="SourceGraphic" in2="BackgroundImageFix" result="shape"/>
<feGaussianBlur stdDeviation="4" result="effect1_foregroundBlur"/>
</filter>
<clipPath id="clip0">
<rect width="360" height="378.301" fill="white"/>
</clipPath>
</defs>
</svg>
