<svg width="256" height="348" viewBox="0 0 256 348" fill="none" xmlns="http://www.w3.org/2000/svg">
<g clip-path="url(#clip0)">
<path d="M77.1683 14.7306C76.8335 14.1726 76.6661 13.8378 76.1081 13.8378C75.9407 13.8378 75.7733 13.8936 75.4943 13.9494C74.7132 14.1168 74.7132 14.1168 73.7646 14.3958C73.5414 14.4516 73.4298 14.4516 73.374 14.4516C73.3182 14.4516 73.2624 14.4516 73.2066 14.4516C73.1508 14.4516 73.095 14.4516 73.0392 14.4516C72.5929 14.4516 72.3697 14.7306 72.0349 15.177V15.2328V15.2886C72.0349 15.3444 71.6443 16.2371 72.2023 17.2973C72.6487 18.1343 73.5972 18.2459 74.49 18.4132C74.8248 18.469 75.1596 18.5248 75.4943 18.5806C75.7175 18.6364 75.8849 18.6364 76.0523 18.6364C76.8335 18.6364 77.0009 18.0227 77.1125 17.5205C77.1683 17.2973 77.2241 17.0741 77.3357 16.7951C77.7263 15.8465 77.7263 15.6234 77.3357 15.0654C77.3357 14.9538 77.2799 14.8422 77.1683 14.7306Z" fill="#11152C"/>
<path d="M80.0696 16.293L79.4 17.2973C79.0095 17.8553 78.9537 17.9111 78.7863 18.1343C78.6747 18.2459 78.5073 18.4133 78.2283 18.7481C77.8935 19.1944 77.4471 19.1944 76.8891 19.2502C76.4986 19.306 76.0522 19.306 75.6058 19.5292L75.2152 19.6966L75.3826 20.0872C75.4384 20.143 75.6058 20.5336 76.3312 20.8684C76.4986 20.98 76.7217 21.0358 77.0007 21.0358C77.5029 21.0358 78.0051 20.8684 78.5631 20.6452C78.7305 20.5894 78.8979 20.5336 79.0653 20.4778C80.237 20.0872 80.1254 17.9111 80.1254 17.4647L80.0696 16.293Z" fill="#11152C"/>
<path d="M204.108 22.8213C204.164 22.8771 204.22 22.8771 204.276 22.9329C204.443 23.1561 204.722 23.2677 205.057 23.2677C205.447 23.2677 205.95 23.1003 206.173 23.0445L206.396 23.1003L206.563 22.8771L206.731 22.7097C207.177 22.1517 207.344 21.9285 207.902 21.5938C209.186 20.8126 209.632 20.0872 209.297 19.4177C209.242 19.3061 209.186 19.1387 209.13 18.9713C208.851 18.1901 208.405 17.1299 207.568 17.1299C207.4 17.1299 207.233 17.1857 207.121 17.2415C206.786 17.4089 206.396 17.5205 206.005 17.5763C205.28 17.7437 204.555 17.9111 204.22 18.5249C203.997 18.9155 203.941 19.4177 204.164 20.0314C204.276 20.422 204.22 20.7568 203.997 21.538C203.718 22.2633 203.718 22.5423 204.108 22.8213Z" fill="#11152C"/>
<path d="M74.9362 27.5641C74.8246 27.3967 74.713 27.2851 74.6014 27.1735C74.155 26.6155 73.9318 26.3923 73.6528 26.3923C73.0948 26.3923 73.0948 27.0619 73.0948 27.3409C73.0948 27.6199 73.039 27.8989 72.9274 28.1778C72.8158 28.68 72.5926 29.4054 73.6528 29.7402L73.9318 29.796C74.2666 29.9076 74.4898 29.9634 74.713 29.9634C75.3267 29.9634 75.5499 29.4054 75.6615 29.0148C75.8289 28.5126 75.7173 28.1778 75.5499 28.0105C75.4383 27.7315 75.1035 27.6199 74.9362 27.5641Z" fill="#11152C"/>
<path d="M71.8673 15.2328L70.9746 15.9582C70.7514 16.1814 70.5282 16.293 70.305 16.3488C69.6912 16.6278 69.3564 16.9067 69.468 18.1343C69.468 18.4133 69.5238 18.6365 69.5238 18.8597C69.5796 19.864 69.6354 20.5336 70.584 21.0358C71.142 21.3148 71.5326 21.538 71.9231 21.538C72.1463 21.538 72.7043 21.4264 72.7043 20.5336C72.7043 20.3662 72.7043 20.2546 72.7043 20.1988C72.7043 19.6408 72.6485 19.5292 72.2021 18.9155L72.0347 18.6365C71.3652 17.7437 71.6441 16.4046 71.6441 16.3488L71.8673 15.2328Z" fill="#11152C"/>
<path d="M76.8333 25.8901C77.0565 26.3923 77.2797 26.9503 77.9492 26.9503C78.1166 26.9503 78.284 26.8945 78.5072 26.8387C78.6188 26.7829 78.6746 26.7829 78.7862 26.7829C78.8978 26.7829 79.0094 26.7829 79.121 26.8387C79.2326 26.8387 79.3442 26.8945 79.4558 26.8945C80.2927 26.8945 80.3485 26.0017 80.4043 25.6112C80.4601 25.2206 80.5159 24.83 80.5717 24.4952C80.6833 23.7698 80.7949 23.3234 80.5159 22.9887C80.3485 22.8213 80.1253 22.7097 79.8464 22.7097C79.0652 22.7097 78.1724 23.5466 77.8376 23.9372C77.2797 23.9372 76.7775 23.993 76.4985 24.3836C76.2195 24.7742 76.4985 25.2764 76.5543 25.4438C76.7217 25.6112 76.7775 25.7785 76.8333 25.8901Z" fill="#11152C"/>
<path d="M76.9451 22.7655C76.9451 22.4307 76.6661 22.2075 76.6103 22.2075C76.2755 21.9285 75.6618 21.6495 75.2154 21.6495C74.8806 21.6495 74.7132 21.8727 74.7132 21.9285C74.6016 22.1517 74.6574 22.3749 74.8248 22.6539C74.9364 22.8213 74.9922 23.0445 75.048 23.2677C75.1038 23.5466 75.2154 24.0488 75.7176 24.0488C75.885 24.0488 76.1082 23.9372 76.3313 23.7698C76.7219 23.3793 76.9451 23.1003 76.9451 22.7655Z" fill="#11152C"/>
<path d="M254.717 160.474C254.103 159.247 252.875 157.126 253.489 155.899C254.103 154.671 253.489 152.718 251.983 153.165C250.476 153.611 249.248 152.551 248.356 152.105C247.798 151.826 247.017 151.212 246.459 150.71L246.905 150.542L246.403 150.096C246.738 149.817 247.184 149.371 247.463 148.98C248.021 148.199 248.021 147.92 247.519 146.469C247.407 146.078 247.351 145.744 247.296 145.465C247.128 144.684 247.017 143.902 245.901 143.623C244.952 143.4 244.84 142.898 244.561 141.726V141.615C244.338 140.778 243.892 140.331 243.501 139.885C243.222 139.606 242.943 139.327 242.72 138.936C242.274 138.155 242.385 138.044 243.278 137.151C244.115 136.314 245.398 134.473 245.231 133.189C245.175 132.91 245.119 132.687 245.119 132.464C245.008 131.85 244.952 131.571 245.231 131.013C245.287 130.901 245.398 130.734 245.454 130.567C246.068 129.507 247.017 127.665 245.733 126.717C244.227 125.601 243.724 124.708 244.171 124.094C244.673 123.425 244.785 123.09 244.617 122.811C244.561 122.643 244.394 122.532 244.171 122.532C244.003 122.476 243.836 122.364 243.78 122.197C243.78 122.197 243.836 122.141 243.892 122.141C244.003 122.03 244.227 121.918 244.338 121.695C244.617 121.304 244.506 120.691 244.338 120.244C244.059 119.63 243.557 119.184 243.055 119.072C242.943 119.072 242.776 119.017 242.609 119.017C242.051 118.961 240.544 118.738 240.488 118.347C240.432 118.012 240.265 117.622 240.098 117.287C239.874 116.785 239.651 116.171 239.54 115.501C239.484 114.888 239.149 114.497 238.926 114.162C238.647 113.772 238.479 113.604 238.758 113.102C239.205 112.265 239.428 111.986 239.874 111.484C240.042 111.316 240.209 111.149 240.377 110.87C241.158 109.977 240.99 109.475 240.711 108.694C240.656 108.582 240.6 108.471 240.6 108.359C240.321 107.578 240.488 106.685 240.935 106.406C241.102 106.239 241.214 106.072 241.214 105.793C241.214 105.067 240.153 104.007 239.261 103.337C238.926 103.058 238.424 102.891 237.81 102.612C236.806 102.221 235.578 101.775 235.132 100.994C234.908 100.548 234.741 100.157 234.629 99.8222C234.35 99.0968 234.127 98.483 233.234 98.204C232.732 98.0366 232.398 97.8134 232.007 97.5345C231.672 97.3113 231.282 97.0323 230.724 96.6975C229.608 96.1395 228.771 95.0236 228.771 94.9678L228.659 94.8004H228.436C228.436 94.8004 228.38 94.8004 228.268 94.8004C227.543 94.8004 226.985 94.633 226.818 94.4098C226.762 94.354 226.706 94.2424 226.762 94.075C226.874 93.6286 226.985 93.2938 227.097 93.0148C227.32 92.4569 227.543 92.0105 227.153 91.2293C226.483 89.8902 226.818 89.388 227.153 89.1648C228.771 88.1046 229.775 87.2677 230.277 86.6539C230.333 86.5423 230.445 86.4307 230.556 86.3191C231.505 85.2032 232.342 84.0872 232.342 83.1944C232.342 82.2459 232.174 80.1256 232.007 79.177C231.895 78.4516 231.951 78.1168 232.677 77.2241C233.123 76.6661 233.681 75.8291 233.625 75.048C233.569 74.6574 233.402 74.3226 233.067 74.0994C232.453 73.5972 232.286 72.8161 232.286 72.3139V71.9233H232.23C232.063 70.8631 231.282 68.4638 231.003 68.0175C230.891 67.7943 230.668 67.1247 230.445 66.5109C230.221 65.8971 230.054 65.2276 229.831 64.7254C229.719 64.5022 229.608 64.279 229.496 64C229.05 63.1073 228.603 62.1587 228.771 61.3217C229.05 60.2616 228.436 58.6992 228.101 57.6391C227.99 57.3601 227.934 57.1369 227.878 57.0253V56.9695V56.9137C227.878 56.9137 227.32 55.5746 227.208 54.626C227.153 54.0122 226.929 53.5658 226.706 53.1753L226.595 53.0079H226.371C226.204 53.0079 226.092 52.9521 225.981 52.9521C225.479 52.9521 225.088 53.1753 224.865 53.5658L224.753 53.6774C224.53 54.0122 224.474 54.1238 223.972 54.1796C223.749 54.2354 223.526 54.2354 223.247 54.2354C222.745 54.2354 222.242 54.1238 221.629 53.9564C221.405 53.9006 221.126 53.789 220.903 53.7332C220.234 53.5658 219.676 53.3984 219.285 53.0637C218.95 52.7847 218.56 52.6173 218.225 52.4499C217.89 52.2825 217.555 52.1151 217.221 51.8361C216.83 51.5571 216.774 51.2223 216.774 51.0549L216.83 50.9991C217.053 50.8318 217.053 50.776 217.667 50.776H217.946H218.169C218.783 50.776 219.118 50.7202 219.62 50.218C219.843 49.9948 219.955 49.7716 220.066 49.5484C220.234 49.2694 220.234 49.2136 220.568 49.1578C220.959 49.102 221.35 49.102 221.684 49.102C222.075 49.102 222.521 49.102 223.024 49.0462C223.303 49.0462 223.749 48.9904 224.251 48.9904C224.53 48.9904 224.809 48.9904 225.032 48.9904H225.479V48.544L225.311 45.8657V45.6984L225.2 45.5868C225.144 45.531 223.358 43.578 222.689 43.1317C222.466 42.9643 222.187 42.6295 221.852 42.2947C221.35 41.7925 220.792 41.1787 220.234 40.844C220.01 40.7324 219.843 40.565 219.676 40.4534C219.062 40.007 218.448 39.5606 217.221 39.2816C216.886 39.2258 216.663 39.17 216.439 39.17C215.714 39.0584 215.658 39.0584 215.044 38.1099C214.71 37.5519 214.431 37.0497 214.207 36.6033C213.817 35.8222 213.594 35.32 213.092 35.32C213.036 35.32 212.98 35.32 212.868 35.3758C212.366 35.5432 212.031 36.4359 211.864 37.2171C211.752 37.2171 211.529 37.1055 211.25 36.9381C210.804 36.6591 210.413 36.4917 210.023 36.4917C209.353 36.4917 208.795 36.8823 208.349 37.2729C207.568 37.9425 206.228 38.1099 205.559 38.1099C205.168 38.1099 205.001 38.2773 204.945 38.3889C204.722 38.7236 204.889 39.17 205.168 39.6722C204.945 39.5606 204.666 39.3374 204.331 39.0026C203.215 37.8867 203.104 37.2729 203.104 36.7149C203.104 36.5475 203.048 35.9896 202.211 35.9896C202.099 35.9896 201.932 35.9896 201.765 36.0453C201.653 36.0453 201.541 36.0453 201.43 36.0453C201.318 36.0453 201.318 36.0453 201.318 36.0453C201.095 35.9338 200.704 35.0968 200.537 34.7062C200.481 34.5388 200.37 34.3714 200.314 34.2598C200.425 34.3156 200.537 34.3714 200.649 34.483C201.039 34.7062 201.43 34.9852 201.876 34.9852C202.044 34.9852 202.267 34.9294 202.378 34.8736C202.881 34.5946 203.55 33.8692 203.662 33.2555C203.717 32.9207 203.606 32.6417 203.439 32.4185C203.327 32.3069 203.215 32.1953 203.16 32.0837L202.936 31.6931L203.104 31.6373L203.16 31.4699V31.4141V31.3583C203.215 31.191 203.271 31.0236 203.327 30.912C203.438 30.5214 203.494 30.4656 204.052 30.1866C204.331 30.0192 204.554 29.9076 204.722 29.8518C205.001 29.6844 205.057 29.6286 205.224 29.6286C205.224 29.6844 205.168 29.796 205.168 29.8518C205.168 29.9634 205.112 30.1866 205.224 30.354L205.336 30.5214H205.559C205.782 30.5214 205.949 30.354 206.228 29.9634C206.452 29.6844 206.786 29.2938 207.01 29.0706C207.01 29.0706 207.065 29.0706 207.065 29.0148L207.121 29.0706C207.233 29.238 207.4 29.4612 207.679 29.517C207.735 29.517 207.847 29.5728 207.902 29.5728C208.293 29.5728 208.739 29.2938 209.074 29.0148C209.241 29.238 209.297 29.517 209.353 29.6286C208.739 30.075 209.018 31.191 209.074 31.4141L209.13 31.5815L209.297 31.6373C209.353 31.6931 210.078 32.0837 210.636 32.0837C211.027 32.0837 211.306 31.8605 211.418 31.5257C211.585 30.8562 211.585 30.0192 211.418 29.517C211.585 29.4054 211.808 29.238 211.976 28.9032C212.366 28.1221 211.529 27.4525 210.748 26.8945C210.581 26.7829 210.469 26.6713 210.302 26.5597C209.967 26.2808 209.576 26.0576 209.13 25.8344L208.962 25.7786L208.795 25.8344C208.628 25.8902 208.516 25.8902 208.46 25.8902C208.405 25.8902 208.349 25.8902 208.181 25.6112L208.126 25.667L207.958 25.6112C207.791 25.5554 207.679 25.4438 207.512 25.2206L207.456 25.1648L207.4 25.109C207.344 25.109 207.344 25.0532 207.289 25.0532C207.121 24.9416 206.954 24.8858 206.731 24.8858C206.396 24.8858 206.173 25.0532 205.894 25.2206C205.726 25.3322 205.615 25.388 205.447 25.4438C205.391 25.4438 205.336 25.4996 205.28 25.4996C205.168 25.4996 205.057 25.4438 204.889 25.2764C204.778 25.1648 204.61 25.0532 204.443 24.9416C204.164 24.7742 204.164 24.4952 204.275 23.7141V23.6583C204.331 22.8771 204.052 22.6539 203.55 22.5423C203.494 22.5423 203.383 22.4865 203.327 22.4865C202.992 22.3749 202.769 22.3191 202.602 21.5379C202.49 21.1474 202.378 20.6452 201.876 20.6452C201.765 20.6452 201.709 20.6452 201.597 20.701C201.541 20.701 201.486 20.7568 201.43 20.7568C201.262 20.7568 201.039 20.422 200.983 19.8082C200.928 19.4176 200.872 18.8597 200.314 18.8597C200.202 18.8597 200.035 18.9155 199.923 18.9155C199.867 18.9155 199.756 18.9712 199.7 18.9712C199.533 19.027 199.365 19.0828 199.198 19.1386C199.365 19.027 199.477 18.8597 199.644 18.7481C199.812 18.5807 199.979 18.4133 200.091 18.3575C200.202 18.3017 200.481 18.1901 201.318 17.0741L201.43 16.9625V16.7951C201.43 16.3488 201.597 15.9582 201.988 15.5676C202.713 14.7864 202.546 13.8937 202.546 13.8379L202.49 13.5589L202.211 13.5031C202.211 13.5031 201.988 13.5031 201.653 13.5031C201.151 13.5031 200.425 13.5589 199.812 13.8937C199.421 14.061 199.086 14.2284 198.696 14.34C198.194 14.5074 197.691 14.6748 197.301 15.0096C196.631 15.5118 196.296 16.6277 196.241 16.7393L196.017 17.5205L196.743 17.2415L198.026 16.7951C198.082 17.0741 198.026 17.5205 197.747 18.0785C197.524 18.5249 197.412 18.9155 197.245 19.1944L197.078 19.6408L196.966 19.7524C196.91 19.8082 196.91 19.8082 196.854 19.8082C196.743 19.8082 196.631 19.7524 196.52 19.6966C196.408 19.6408 196.241 19.5292 196.017 19.5292C195.459 19.5292 195.292 20.143 195.236 20.3662C195.069 20.8684 195.069 21.4263 195.069 21.9285V21.9843V22.2075C195.069 22.3749 195.013 22.8213 194.901 22.9329C194.455 23.3793 194.009 23.9372 194.009 24.7184C194.009 25.3322 194.399 25.8344 194.957 25.8902L195.348 25.946V25.8344H195.404C195.404 25.8344 195.459 25.8902 195.515 25.946C195.738 26.1692 196.073 26.5039 196.854 26.5039C197.245 26.5039 197.747 27.1735 197.747 27.6757C197.747 27.7873 197.747 28.0105 197.301 28.0105C195.794 28.0105 195.013 28.1221 194.846 28.1779H194.511L194.455 28.5685C194.399 28.9032 194.399 29.1822 194.399 29.4612C194.399 30.4098 195.013 30.7446 195.515 31.0236L195.627 31.0794C195.738 31.1352 195.794 31.191 195.906 31.2467C196.352 31.4699 196.687 31.6931 196.966 32.0279C197.245 32.4743 197.58 32.6417 197.97 32.9207C198.138 33.0323 198.305 33.1439 198.528 33.3113C198.751 33.4787 198.975 33.5903 199.198 33.5903C199.7 33.5903 200.035 33.1439 200.37 32.6975C200.425 32.5859 200.537 32.4743 200.649 32.3627C200.704 32.3069 200.76 32.2511 200.816 32.1953C200.928 32.2511 201.095 32.3069 201.318 32.3069C201.374 32.3069 201.43 32.3069 201.486 32.3069C201.765 32.2511 202.099 32.1395 202.657 31.9721L202.434 32.2511L202.378 32.3627L202.323 32.4185C201.597 33.1997 200.537 33.6461 200.258 33.7019L199.533 33.8692C199.198 33.7019 198.751 33.7019 198.361 33.7019V33.5903C197.803 33.5345 197.412 33.4787 197.189 33.3671C196.185 33.0323 195.459 32.5859 195.292 32.1953C195.069 31.7489 194.567 30.633 194.12 30.075C194.064 29.9634 194.064 29.4054 194.399 28.4011L194.455 28.1779L194.288 28.0105C194.176 27.6199 193.73 27.5083 193.283 27.3409C192.502 27.0619 192.279 26.9503 192.335 26.7271C192.446 26.2808 192.335 26.0018 192.223 25.8344C192 25.5554 191.609 25.388 191.107 25.388H190.884L190.828 25.4996L190.438 25.3322C190.103 25.2206 189.712 25.109 189.377 25.109C189.21 25.109 189.043 25.109 188.875 25.1648C187.815 25.3322 185.583 25.4438 184.69 25.4438C184.411 25.4438 184.021 25.4438 183.519 25.4996C182.905 25.5554 182.235 25.5554 181.677 25.5554C180.952 25.5554 180.785 25.4996 180.729 25.4438C180.561 25.388 180.394 25.0532 180.227 24.83C179.948 24.4394 179.669 23.993 179.166 23.993C179.055 23.993 178.943 24.0488 178.832 24.1046C178.162 24.4394 177.604 25.2764 177.269 26.5039C177.046 27.3409 176.823 27.6199 176.377 28.2337C176.265 28.3453 176.209 28.5127 176.098 28.6801C175.428 29.6844 174.814 30.633 174.814 31.4699C174.814 31.9163 174.535 32.0837 174.033 32.4743C173.921 32.5301 173.866 32.5859 173.754 32.6975C173.308 33.0323 172.303 33.8692 171.522 34.483L170.741 35.0968C169.904 35.7664 169.234 37.0497 169.067 37.5519V37.6077C168.956 37.8867 168.956 37.9425 168.063 38.0541C167.728 38.1099 167.393 38.1099 167.058 38.1099C166.054 38.1099 164.938 38.1657 164.045 38.891C163.822 39.1142 163.599 39.2816 163.432 39.449C162.929 39.9512 162.595 40.1744 162.316 40.1744C162.26 40.1744 162.148 40.1744 162.037 40.1186C161.758 40.007 161.59 39.8954 161.367 39.728C161.032 39.449 160.642 39.1142 159.972 39.1142C159.805 39.1142 159.581 39.1142 159.358 39.17C158.856 39.2816 158.577 39.2816 158.354 39.2816C157.852 39.2816 157.517 39.3374 157.126 39.9512C156.959 40.2302 156.736 40.3976 156.513 40.6208C156.234 40.844 155.955 41.1229 155.899 41.4577L155.843 41.6251L155.899 41.7925C156.01 42.0715 156.122 42.5179 156.066 42.9643C155.955 42.6295 155.676 42.4621 155.397 42.2947C155.229 42.1831 155.062 42.1831 154.95 42.1831C154.671 42.1831 154.448 42.3505 154.337 42.5179C154.281 42.5737 154.169 42.6853 154.113 42.7411C153.611 43.1875 153.611 43.6338 153.667 44.0802C153.667 44.1918 153.667 44.2476 153.667 44.3592V44.5266L153.779 44.6382L154.002 44.8614L154.225 45.0846L154.504 44.9172C154.56 44.9172 154.727 44.8056 154.894 44.6382C154.783 44.7498 154.727 44.8614 154.615 45.0288L154.56 45.1404C154.504 45.252 154.392 45.4194 154.392 45.4194H154.337C154.281 45.4194 154.225 45.4194 154.113 45.4194C154.002 45.4194 153.834 45.4194 153.667 45.4194C152.607 45.4194 151.658 45.4194 150.765 46.4795C150.319 47.0375 149.928 47.8187 150.152 48.3766C150.263 48.6556 150.542 48.823 150.877 48.823C151.044 48.823 151.268 48.7672 151.491 48.7114C152.105 48.4882 152.272 48.3766 152.384 48.3766C152.384 48.3766 152.439 48.3766 152.551 48.3209C152.551 48.544 152.495 48.823 152.495 49.2694C152.495 49.381 152.495 49.4926 152.495 49.66C152.495 50.0506 152.495 50.776 152.384 50.8875C152.328 50.8875 152.216 50.8875 151.993 50.776C151.435 50.497 150.989 50.218 150.654 49.9948C150.263 49.7716 149.928 49.5484 149.538 49.381L148.757 49.102L148.478 48.9904L148.31 49.2694C148.087 49.5484 147.641 49.9948 147.418 49.9948C147.362 49.9948 147.25 49.939 147.194 49.7716C146.748 48.8788 147.194 48.3209 147.25 48.2651L147.752 47.7071L147.027 47.5955C146.357 47.4839 145.576 47.1491 145.52 46.9817C145.353 46.2563 144.014 46.0331 143.289 46.0331C142.786 46.0331 142.173 46.0889 141.782 46.4795C141.168 47.0933 139.104 48.544 138.434 48.823C138.267 48.8788 138.099 48.9346 137.988 48.9904C137.932 48.9346 137.82 48.7672 137.709 48.5998C137.262 47.8745 136.537 47.7071 135.867 47.5397C135.644 47.4839 135.365 47.4281 135.198 47.3165C134.919 47.2049 134.473 46.7027 134.249 46.0889C134.194 45.81 134.138 45.4752 134.305 45.1404C134.863 44.3034 135.365 43.9686 136.091 43.9686C137.207 43.9686 138.546 43.2433 138.769 42.2947C138.881 41.7367 139.271 41.5135 139.941 41.2345L140.108 41.1787C141.447 40.5092 142.731 39.7838 142.898 38.8352C143.065 37.9983 142.731 36.8823 142.507 36.1569C142.452 36.0454 142.452 35.878 142.396 35.8222C142.228 35.2642 142.228 33.2555 142.228 32.5859C142.228 32.4185 142.228 32.2511 142.228 32.0837C142.228 31.9721 142.228 31.8605 142.228 31.8047C142.396 31.9163 142.563 31.9721 142.731 31.9721C143.01 31.9721 143.233 31.8605 143.456 31.6373C143.735 31.3025 143.791 30.8562 143.735 30.4656C143.623 29.8518 143.623 29.8518 144.293 29.3496C144.516 29.1822 144.628 29.1822 144.628 29.1822C144.684 29.1822 144.739 29.238 144.795 29.2938C144.962 29.4054 145.13 29.6286 145.465 29.6844C145.688 29.7402 145.855 29.7402 145.967 29.796C146.357 29.8518 146.581 29.8518 146.915 30.1866C147.083 30.354 147.306 30.4656 147.529 30.4656C147.808 30.4656 148.031 30.2982 148.143 29.9634C148.31 29.517 148.143 28.7916 147.585 28.3453C147.194 28.0663 147.083 27.6199 146.915 27.2293C146.804 26.8945 146.692 26.5597 146.469 26.2808C146.357 26.1134 146.302 25.946 146.19 25.7786C146.023 25.2764 145.744 24.6068 144.683 24.3278C143.512 24.0488 143.065 23.8814 142.34 23.4351C142.061 23.2677 141.782 23.1561 141.503 23.1561C141.001 23.1561 140.61 23.5467 139.996 24.3278C139.439 24.9974 139.383 25.2764 139.327 25.667C139.327 25.8344 139.327 25.946 139.16 26.225C138.825 26.8945 138.881 27.2293 139.048 27.6199C139.104 27.7873 139.16 27.8989 139.16 28.1221V28.4569L139.494 28.5127C139.494 28.5127 139.662 28.5127 139.829 28.5127C140.164 28.5127 140.889 28.4569 141.503 27.9547C141.559 27.8989 141.615 27.8431 141.67 27.8431C141.726 27.9547 141.838 28.1221 141.949 28.3453C142.173 28.6243 141.726 29.2938 141.447 29.6286C141.391 29.6844 141.336 29.7402 141.336 29.8518C141.224 30.0192 141.168 30.1308 141.168 30.2982C140.945 30.2982 140.722 30.2982 140.554 30.2424C140.331 30.2424 140.108 30.1866 139.885 30.1866C139.606 30.1866 139.327 30.1866 139.048 30.2424C137.82 30.4656 136.816 30.8562 136.146 31.4141C135.867 31.6373 135.644 31.9163 135.365 32.2511C134.863 32.9207 134.249 33.7576 133.357 33.7576C133.301 33.7576 133.245 33.7576 133.189 33.7576C131.962 33.646 131.292 32.8649 130.846 32.3627C130.734 32.2511 130.678 32.1395 130.567 32.0837C130.009 31.5257 127.609 30.633 126.549 30.4656C125.88 30.354 125.322 29.9634 124.764 29.5728C124.541 29.4054 124.317 29.2938 124.094 29.1264C123.927 29.0148 122.588 28.2337 121.583 28.2337C121.081 28.2337 120.802 28.4569 120.69 28.6243C120.523 28.8474 120.132 29.0148 119.798 29.1264C119.519 29.238 119.24 29.3496 119.017 29.517C119.017 29.4612 118.961 29.4054 118.905 29.3496C118.514 28.7916 118.57 28.5685 118.57 28.5127C118.57 28.5127 118.57 28.4569 118.682 28.4569C118.961 28.3453 119.128 28.1779 119.128 27.8989C119.128 27.3409 118.459 26.7271 117.789 26.5039C117.677 26.4481 117.51 26.3923 117.398 26.3365C117.008 26.1692 116.617 26.0018 116.171 26.0018C115.892 26.0018 115.669 26.0576 115.39 26.1692C114.943 26.1692 113.437 26.2808 112.767 26.8945C112.321 27.3409 111.205 27.9547 110.424 27.9547C110.256 27.9547 110.145 27.9547 110.033 27.8989C109.977 27.8989 109.866 27.7873 109.866 27.7315C109.866 27.5641 110.256 27.1735 110.703 27.1177L110.87 27.0619C111.651 26.8945 112.879 26.6713 113.548 25.5554C114.106 24.6068 114.385 23.4351 114.385 22.0401C114.385 21.3148 114.441 20.8684 114.553 20.3104C114.609 20.0872 114.609 19.8082 114.664 19.5292C114.72 19.2502 114.72 18.8039 114.497 18.5249C114.274 18.2459 113.939 18.2459 113.716 18.1901C113.604 18.1901 113.548 18.1901 113.437 18.1343C113.269 18.0785 112.99 18.0227 112.767 17.9669C112.99 17.6879 113.158 17.2973 113.269 16.7393C113.437 15.6234 113.269 14.7306 112.767 13.8937C112.265 13.0567 111.316 12.4429 111.261 12.3871L110.647 11.9407V12.7219C110.647 12.7219 110.591 13.8379 110.145 13.8379C109.364 13.8379 108.694 13.5589 108.136 13.0567C107.466 12.3871 106.853 12.2197 105.848 11.9407L105.681 11.8849C104.9 11.6617 103.561 10.9364 103.114 10.6574V9.82042V9.09505L102.5 9.42984C102.445 9.48563 100.659 10.49 99.8779 11.1596C99.5431 11.4386 99.2641 11.8291 99.0409 12.1081C99.0409 12.1639 98.9851 12.1639 98.9851 12.2197C98.8736 11.8849 98.762 11.327 98.7062 10.9922L98.6504 10.6574H98.3156C98.2598 10.6574 97.1996 10.6574 96.3069 11.7175C95.9163 12.2197 95.4141 12.4987 95.0235 12.4987C94.9119 12.4987 94.6887 12.4429 94.5213 12.1639C94.2981 11.7733 94.2981 11.4944 94.2981 11.1596C94.2981 10.8248 94.3539 10.4342 94.0191 10.0994C93.517 9.59723 92.5126 9.09505 91.4525 9.09505C90.6155 9.09505 89.109 9.09505 88.4952 8.70446C88.3836 8.64867 88.272 8.53707 88.1604 8.48127C87.6024 8.14649 87.2118 7.8675 86.3191 7.8675H82.5248C82.3574 7.8675 82.0784 7.9233 81.7995 7.97909C81.4647 8.03489 81.0741 8.09069 80.6835 8.09069C80.2929 8.09069 80.0697 8.03489 79.9581 7.8675C79.6791 7.53271 79.2885 7.30952 78.898 7.30952C78.3958 7.30952 77.9494 7.58851 77.8936 7.58851L77.8378 7.64431L77.782 7.70011C77.782 7.70011 77.5588 8.03489 77.3356 8.42548L72.9834 8.31388C72.7044 8.31388 72.0906 8.20228 71.979 7.9233C71.8674 7.70011 71.8675 7.53271 71.8675 7.25372C71.8675 6.91894 71.8674 6.47256 71.7001 5.74718C71.3095 4.07325 71.5885 3.96166 71.5885 3.96166C71.5885 3.96166 71.6443 3.96166 71.7001 3.96166C71.7559 3.96166 71.8674 3.96166 71.9232 3.96166C72.0348 3.96166 72.1464 3.96166 72.258 3.96166C72.7602 3.96166 73.095 3.73847 73.374 3.29208C73.4856 3.06889 73.7646 2.8457 73.9878 2.67831C74.3783 2.39932 74.7131 2.06453 74.6573 1.67395C74.6015 1.39496 74.4341 1.22757 74.1552 1.06018C73.932 0.94858 73.7088 0.781187 73.5414 0.669591C73.1508 0.390603 72.816 0.167412 72.4254 0.167412C72.0906 0.167412 71.7559 0.334805 71.5327 0.725389C70.9747 1.61815 70.8631 2.45512 70.8631 2.73411L70.5841 3.68267C69.8587 5.02181 69.3566 6.13777 69.0218 7.8675C68.7986 9.20664 68.7986 10.3226 68.8544 11.2712C68.8544 11.5501 68.8544 11.8291 68.8544 12.0523C68.8544 12.3313 68.8544 12.6103 68.7986 12.8335C68.7428 13.7263 68.687 14.6748 69.4682 14.8422C69.6355 14.898 69.7471 14.898 69.8587 14.898C70.1935 14.898 70.3609 14.7306 70.4725 14.619C70.7515 14.2842 70.7515 13.7821 70.5841 12.6661L70.5283 12.4987C70.3051 11.2712 70.3051 11.2712 70.6399 10.5458L70.6957 10.3784L70.7515 10.2668C70.8631 9.98781 70.9747 9.70882 71.0863 9.48563C71.0863 9.54143 71.1421 9.59723 71.1421 9.59723C71.3095 10.0994 71.5327 10.7132 72.3138 10.7132C72.537 10.7132 72.7602 10.6574 73.095 10.5458C74.0436 10.211 74.211 10.0994 74.6015 9.82042C74.7131 9.76462 74.8247 9.65303 74.9921 9.59723C75.2153 9.48563 75.4943 9.42984 75.8291 9.42984C76.0523 9.42984 76.2755 9.42984 76.4987 9.48563C76.7219 9.48563 76.8892 9.54143 77.1124 9.54143C77.0566 9.82042 77.1124 10.0994 77.1682 10.3226C77.4472 11.1596 77.9494 12.3871 78.8422 13.1125C79.0096 13.2799 79.1769 13.3915 79.3443 13.4473C79.6791 13.6705 79.6791 13.6705 79.6233 14.2284C79.4559 15.5676 79.9023 16.6277 80.6835 16.7951C81.0183 16.8509 81.1299 17.5205 81.1299 17.9111C81.1299 18.3575 81.632 18.7481 82.2458 19.2502C82.5248 19.4734 82.8038 19.6966 82.9154 19.8082C82.9712 19.9198 83.0828 20.0314 83.1386 20.0872C83.3618 20.3104 83.3618 20.3662 83.0828 20.701C82.6364 21.2032 82.748 21.6495 82.8596 21.8727C83.027 22.2633 83.4734 22.4865 84.0314 22.4865C84.143 22.4865 84.2545 22.4865 84.3661 22.4307C84.3661 22.4865 84.3103 22.4865 84.3103 22.5423C83.9756 22.9887 84.0872 23.3793 84.143 23.7141C84.1988 24.0488 84.2545 24.272 84.0314 24.4952C83.8082 24.7742 83.6408 24.83 83.4734 24.9416C83.1944 25.109 82.8596 25.2764 82.6364 25.946C82.3574 26.7271 82.3574 27.3409 82.6364 27.7315C82.748 27.8989 83.027 28.1221 83.5292 28.1221C83.6408 28.1221 83.6966 28.1221 83.8082 28.1221C83.864 28.1221 83.9756 28.1221 84.0314 28.1221C84.2545 28.1221 84.5335 28.1779 84.7567 28.1779C84.9799 28.2337 85.2031 28.2337 85.4263 28.2337C86.0401 28.2337 86.4307 27.9547 86.5981 27.3409C86.8212 26.4481 87.1002 25.7786 87.3234 25.3322C87.3792 25.4438 87.4908 25.667 87.6024 26.0018C87.7698 26.3365 87.8256 26.8387 86.9886 27.3409C86.2075 27.8431 85.9843 28.1779 85.5379 28.8474L85.4821 28.959C85.3147 29.238 85.2589 29.3496 85.2031 29.4054H85.1473C85.0915 29.4054 85.0357 29.4054 84.9241 29.4054C84.8125 29.4054 84.6451 29.4054 84.4219 29.4054C84.0314 29.4054 83.585 29.3496 83.0828 29.3496C82.6364 29.3496 82.2458 29.3496 81.9668 29.4054C81.7436 29.4612 81.4089 29.4612 81.0741 29.4612C80.2371 29.4612 79.177 29.4612 78.2842 30.075L77.224 30.8562L76.6103 31.3025L77.2798 31.5815C77.3914 31.6373 78.061 31.9163 78.7306 32.0279C78.6748 32.0837 78.5632 32.1395 78.4516 32.2511C78.0052 32.5859 77.7262 32.5859 77.503 32.6417C77.224 32.6417 76.8892 32.6975 76.5545 33.1439C75.8849 34.0366 77.224 35.2642 77.503 35.4874H77.5588L77.7262 35.599C78.34 35.9896 78.5074 36.0453 78.5632 36.3243C78.6748 36.7149 78.9538 36.7149 79.0654 36.7149C79.2885 36.7149 79.4559 36.5475 79.6791 36.3801C79.9023 36.1569 80.1813 35.878 80.6277 35.6548C80.9067 35.5432 81.2415 35.4874 81.6879 35.4874C82.2458 35.4874 82.8596 35.599 83.0828 35.6548C83.1386 35.8222 83.306 36.2685 83.2502 37.0497C83.1386 37.8867 83.0828 37.9983 82.9154 38.2773C82.8038 38.4447 82.6922 38.612 82.5248 38.891C82.0226 39.8396 81.9668 40.3418 82.5806 41.1229C82.748 41.3461 82.8038 41.4577 82.8038 41.5693C82.8038 41.7367 82.8596 41.9041 83.027 42.2389C83.2502 42.7411 83.6966 43.0201 84.143 43.0201C84.5335 43.0201 84.9241 42.8527 85.3147 42.5179C85.4821 42.4063 85.5379 42.4063 85.5379 42.4063C85.5937 42.4621 85.7053 42.6853 85.7611 42.8527C85.8169 42.9643 85.8727 43.0759 85.9285 43.1317C86.0401 43.3549 86.1517 43.5222 86.2633 43.7454C86.4865 44.136 86.7096 44.5266 86.8212 44.8614C86.9886 45.5868 86.9886 46.0889 86.877 46.2563C86.877 46.2563 86.877 46.2563 86.8212 46.2563C86.7654 46.2563 86.7096 46.2563 86.5981 46.2005C86.3749 46.1447 86.1517 46.0331 85.9843 45.9773C85.4263 45.7542 85.0357 45.5868 84.6451 45.5868C84.4219 45.5868 84.1987 45.6426 83.9756 45.7542C83.864 45.81 83.7524 45.8658 83.585 45.9216C83.2502 46.0331 82.8596 46.2005 82.748 46.5353C82.6364 46.8701 82.8596 47.2049 83.027 47.4281C83.6408 48.1535 84.0313 48.7672 84.4777 49.7716C84.5893 49.9948 84.6451 50.218 84.7567 50.3854C85.0357 51.1107 85.2589 51.6687 85.8169 52.1709C86.3191 52.6731 86.877 53.1195 87.6582 53.1195C87.8814 53.1195 88.1046 53.0637 88.3278 53.0079C88.4394 52.9521 88.6068 52.9521 88.83 52.9521C89.1647 52.9521 89.4995 53.0079 89.8901 53.0637C90.3365 53.1195 90.7271 53.1753 91.1735 53.1753C91.3409 53.1753 91.4525 53.1753 91.5641 53.1753C92.4568 53.1753 94.0191 53.2868 94.5213 53.5658C94.7445 53.6774 94.9677 53.789 95.1909 53.9006C95.8047 54.1796 96.3627 54.347 96.6416 55.3514C96.809 55.9093 96.9764 56.3557 97.088 56.7463C96.6974 56.2999 96.1953 55.742 95.6931 55.4072C94.6329 54.626 93.5728 54.068 92.3452 54.1796C91.1177 54.347 89.8901 54.1796 88.83 54.9608C87.7698 55.742 86.3749 56.0209 84.7567 55.742C83.0828 55.463 82.0226 56.1883 81.1299 55.1282C80.2371 54.068 78.8422 52.1151 77.782 53.2868C76.7218 54.5144 75.9407 55.4072 75.8291 56.2999C75.6617 57.1927 75.0479 59.8152 74.4899 60.8753C73.8762 61.9355 74.3226 64.0558 74.9363 64.9486C75.5501 65.8413 75.8291 66.1761 75.8291 67.4037C75.8291 68.6312 75.8291 69.8588 75.8291 69.8588C75.8291 69.8588 75.3827 68.6312 74.7689 68.0175C74.1552 67.4037 74.7689 68.0175 73.5414 67.7385C72.3138 67.4595 72.3138 67.7385 71.5885 66.6783C70.8073 65.6181 70.1935 64.1116 69.1334 64.837C68.0732 65.6181 67.6268 65.4508 67.6268 66.5109C67.6268 67.5711 67.6268 68.3522 67.3478 69.0776C67.0688 69.8588 67.9616 70.5842 68.5754 69.6914C69.1892 68.7986 69.4682 69.524 69.6355 70.9189C69.8029 72.2581 69.6355 72.8719 68.8544 73.8204C68.0732 74.7132 67.3478 75.327 66.2877 74.2668C65.2275 73.2066 65.5065 72.1465 64.1674 72.1465C62.8282 72.1465 62.0471 70.3052 62.9398 70.0262C63.8326 69.7472 64.8927 70.6399 65.3391 69.7472C65.7855 68.8544 65.9529 68.2406 65.3391 67.1805C64.7253 66.1203 64.4464 64.7254 64 64.1674C63.5536 63.5536 62.326 64.1674 62.326 62.8283C62.326 61.4891 62.605 61.1543 61.5449 60.8753C61.5449 60.8753 60.3173 60.429 59.4246 60.429C58.5318 60.429 57.5832 59.9826 56.9695 60.5964C56.3557 61.2101 54.2354 60.8753 53.3426 61.3775C52.4498 61.8239 49.5484 63.0515 48.6556 62.6051C47.7628 62.1587 46.0889 61.7123 45.0287 61.9913C43.9686 62.2703 41.6809 61.9913 40.7881 62.8841C39.8954 63.7768 38.2214 65.0044 37.6076 65.8971C36.9939 66.7899 37.1613 67.2363 38.054 67.8501C38.9468 68.4638 38.6678 69.0776 37.2729 68.9102C35.9337 68.7428 35.9337 68.9102 35.5989 70.1378C35.3199 71.3653 35.3199 72.5929 34.8178 73.7646C34.3714 74.9922 34.0366 76.9451 35.7105 77.2799C37.3845 77.5589 39.9512 77.1125 40.7323 77.4473C41.5135 77.7263 40.8997 77.4473 40.7323 78.6748C40.5649 79.9024 40.7323 80.7951 40.1185 81.4089C39.5048 82.0227 40.3975 82.1901 40.2859 83.3618C40.1185 84.5894 39.6722 83.8082 39.3932 84.8684C39.1142 85.9285 39.2258 86.3749 39.5606 87.8814C39.8396 89.388 40.3417 91.6757 39.5606 93.0706C38.7794 94.4098 37.7192 97.0323 36.8265 98.0924C35.9337 99.1526 35.4873 101.106 35.5989 102.5C35.7663 103.895 35.1525 106.016 35.1525 106.574C35.1525 107.187 35.1525 109.029 34.0924 108.415C33.0322 107.801 32.2511 108.136 31.1909 107.801C30.1308 107.522 29.3496 106.908 28.6242 107.187C27.843 107.466 25.8901 107.02 25.8901 108.08C25.8901 109.14 25.7227 110.033 26.1691 110.368C26.6155 110.647 27.2293 110.982 26.3365 111.428C25.4437 111.874 25.2763 111.707 25.2763 112.656C25.2763 113.548 25.2764 114.943 26.0575 115.222C26.8387 115.501 28.7916 116.282 29.6844 116.561C30.5771 116.84 32.1395 117.343 32.2511 116.729C32.4185 116.115 33.3112 114.776 33.4786 115.948C33.646 117.175 34.5388 118.682 34.9852 118.961C35.4315 119.24 35.5989 120.802 34.9852 121.527C34.3714 122.309 33.646 124.429 33.925 124.875C34.0924 125.154 34.4272 125.378 34.6504 125.545C34.3714 125.768 33.925 126.047 33.2554 126.159C32.1395 126.326 31.9163 126.94 31.7489 127.442C31.6931 127.554 31.6373 127.665 31.6373 127.777C31.5815 127.888 31.5815 127.888 31.2467 127.944C30.9677 127.944 30.5771 128 30.2423 128.279C29.796 128.614 29.5728 129.172 29.4054 129.73C29.2938 130.065 29.1264 130.455 29.0148 130.567C28.68 130.901 28.401 130.901 27.4525 130.901C26.2249 130.901 25.6669 132.017 25.4437 132.52C25.3879 132.52 25.3321 132.52 25.2763 132.52C24.8858 132.52 24.6626 132.854 24.6068 132.91C24.3836 133.245 24.272 133.524 24.3278 133.803C24.3836 134.305 24.83 134.584 25.4437 135.031L25.7785 135.254C26.5597 135.756 27.1177 136.146 27.5083 136.649C27.6199 136.76 27.7314 136.872 27.7872 136.983C27.843 137.039 27.9546 137.151 27.9546 137.207C27.9546 137.207 27.9546 137.318 27.7872 137.597C27.6199 137.82 27.5083 138.044 27.4525 138.155C27.2293 138.49 27.0619 138.769 26.7271 139.439C26.4481 139.997 25.6669 140.61 25.3321 140.666C25.109 139.718 24.4394 139.55 24.0488 139.55C23.8256 139.55 23.6024 139.606 23.3234 139.662C22.6539 139.885 20.0872 140.833 19.5292 141.447C19.2502 141.726 18.6922 142.117 18.2458 142.117C18.0784 142.117 17.9668 142.061 17.8552 141.949C17.4089 141.391 16.7393 141.001 16.2371 141.001C15.9023 141.001 15.6233 141.168 15.5117 141.503C15.3444 141.949 15.6791 142.284 15.9581 142.563C16.1255 142.731 16.2929 142.954 16.2929 143.065C16.2929 143.121 16.2929 143.121 16.2929 143.121C16.2371 143.121 16.0139 143.01 15.6233 142.675C14.9538 142.117 14.061 141.503 13.0566 141.503C12.945 141.503 12.8335 141.503 12.7219 141.559C12.3871 141.615 12.1081 141.615 11.8849 141.615C11.4385 141.615 11.1037 141.503 10.9921 141.28C10.9363 141.112 10.8247 140.945 10.7689 140.722C10.5457 140.164 10.3226 139.494 9.70878 139.494C9.42979 139.494 8.59283 139.55 8.31384 140.052C8.25804 140.22 8.14644 140.499 8.42543 140.889C8.53703 141.001 8.64862 141.168 8.76022 141.28C8.92761 141.503 9.3182 141.949 9.42979 142.173C8.42543 142.173 8.20224 142.005 8.03485 141.615C7.86746 141.28 7.58847 141.057 7.19788 141.057C6.7515 141.057 6.30512 141.391 6.08193 141.894C5.85874 142.284 5.46815 142.452 4.57539 142.563C4.01741 142.675 3.68263 142.954 3.57103 143.344C3.45943 143.791 3.68263 144.349 4.2406 144.795C4.68699 145.186 4.85438 145.465 4.85438 145.632C4.85438 145.688 4.74278 145.744 4.68698 145.799C3.85002 146.134 3.45943 146.636 3.45943 146.692L2.90146 147.529L3.85002 147.362C3.85002 147.362 4.01741 147.306 4.2406 147.306C4.46379 147.306 4.79858 147.306 5.13337 147.473C5.63555 147.641 5.63555 147.976 5.63555 148.924C5.63555 149.873 5.80294 150.431 6.8073 150.821L7.08629 150.933C7.30948 151.044 7.70006 151.156 7.86746 151.268L7.81166 151.323C7.36528 151.658 7.03049 151.937 7.03049 152.328C7.03049 152.718 7.25368 153.053 7.75586 153.555C8.70442 154.504 9.03921 155.006 9.1508 155.62C9.2624 156.066 9.37399 156.289 9.54139 156.568C9.70878 156.847 9.87617 157.182 10.0436 157.74C10.0994 158.019 10.211 158.298 10.2668 158.521C10.5457 159.358 10.7689 160.14 10.3784 160.921C9.98777 161.702 10.0436 162.427 10.0994 162.985C10.1552 163.376 10.1552 163.711 10.0436 163.99C9.93197 164.324 9.82038 164.436 9.54139 164.603C9.2624 164.771 8.92761 165.05 8.42543 165.663C7.92325 166.333 7.58847 166.947 7.25368 167.449C6.97469 167.895 6.7515 168.342 6.47251 168.677C6.24932 168.956 5.18916 170.351 5.35656 171.299C5.41236 171.578 5.57975 171.857 5.80294 171.969C6.13773 172.136 6.47251 172.248 6.8073 172.248C7.08629 172.248 7.36528 172.192 7.64426 172.08L7.53267 172.136L7.86746 172.471C7.86746 172.471 7.97905 172.638 8.03485 172.806C7.86746 172.806 7.58847 172.861 7.25368 172.973L7.03049 173.085C6.36092 173.364 5.69134 173.587 5.24496 174.535C5.02177 174.982 4.96597 174.982 4.85438 175.038C4.68698 175.093 4.46379 175.205 4.12901 175.484C3.51523 175.986 3.18045 176.656 2.95726 177.214C2.90146 177.381 2.78986 177.548 2.73406 177.66C2.56667 177.604 2.23188 177.269 2.23188 177.046C2.23188 176.209 1.72971 176.153 1.56231 176.153C1.33912 176.153 1.06013 176.265 0.669548 176.544C0.0557732 176.99 0.278964 177.604 0.446357 178.051C0.557953 178.33 0.669548 178.664 0.669548 178.999C0.669548 179.222 0.669548 179.446 0.61375 179.669C0.557953 180.171 0.502155 180.673 0.781144 181.008C0.948537 181.175 1.17173 181.287 1.45072 181.287C1.56231 181.287 1.72971 181.287 1.8971 181.231C2.56667 181.064 2.95726 181.064 3.29204 181.008C3.57103 181.008 3.79422 181.008 4.01741 180.896C4.07321 180.896 4.07321 180.896 4.12901 180.896C4.18481 180.896 4.18481 180.896 4.18481 180.896C4.18481 180.896 4.18481 181.064 4.01741 181.343C3.62683 181.956 3.68263 182.403 3.85002 182.626C4.07321 183.072 4.63119 183.296 5.24496 183.296C5.46815 183.296 5.52395 183.351 5.52395 183.351C5.57975 183.407 5.57975 183.798 5.57975 184.133C5.57975 184.467 5.63555 184.746 5.69134 185.025C5.74714 185.304 5.80294 185.695 5.74714 185.806C5.74714 185.806 5.69134 185.862 5.63555 185.862C5.52395 185.862 5.46815 185.862 5.35656 185.862C5.18916 185.862 5.02177 185.862 4.79858 185.806C4.63119 185.806 4.46379 185.751 4.3522 185.751C4.2406 185.751 3.96161 185.751 3.73842 185.974C3.57103 186.141 3.45943 186.364 3.45943 186.699C3.45943 187.704 3.40364 187.871 3.01305 187.983C2.45508 188.094 2.34348 188.373 2.28768 188.596C2.23188 189.099 2.73406 189.433 3.23624 189.657C3.40364 189.712 3.51523 189.768 3.62683 189.824C3.68263 189.88 3.85002 189.88 3.85002 189.936C3.85002 189.936 3.85002 190.047 3.73842 190.438C3.51523 191.219 3.51523 191.721 3.73842 192.056C3.90582 192.335 4.18481 192.502 4.63119 192.614C4.74278 192.614 4.79858 192.67 4.91018 192.67C5.18916 192.67 5.41236 192.614 5.63555 192.558C5.80294 192.502 5.97033 192.446 6.08193 192.446C6.13773 192.446 6.19352 192.446 6.30512 192.614C6.58411 193.06 6.58411 193.172 6.6957 193.507C6.7515 193.674 6.8631 193.953 6.97469 194.344C7.14209 194.734 7.14209 194.957 7.14209 195.18C7.14209 195.738 7.25368 196.073 8.14644 196.408C8.42543 196.52 8.70442 196.575 8.98341 196.575C9.2066 196.575 9.42979 196.52 9.54139 196.52C9.59719 196.52 9.59719 196.52 9.65298 196.52C9.65298 196.52 9.70878 196.575 9.70878 196.631C9.82038 196.91 9.93197 197.133 10.0436 197.245C9.93197 197.357 9.70878 197.58 9.54139 197.691C9.09501 198.082 8.81602 198.194 8.59283 198.305C8.14644 198.473 7.92325 198.696 7.75586 199.421C7.47687 200.537 7.75586 200.928 8.20224 201.43C8.25804 201.541 8.36964 201.597 8.42543 201.709C8.53703 201.82 8.53703 201.932 8.59283 202.044C8.70442 202.267 8.87181 202.602 9.48559 202.602C9.70878 202.602 9.93197 202.546 10.3784 202.49C10.5457 202.434 10.6573 202.434 10.8247 202.434C11.5501 202.434 11.9407 202.936 12.3871 203.773C12.5545 204.108 12.7777 204.331 12.8893 204.499C13.1682 204.834 13.2798 204.945 13.0008 205.503C12.3871 206.675 12.1081 207.344 12.7219 208.349C12.7777 208.46 12.8893 208.572 12.945 208.684L13.1124 208.851L13.6146 209.297V209.242C13.7262 209.297 13.8378 209.409 13.8378 209.465C13.8378 209.465 13.8378 209.521 13.782 209.576L13.7262 209.632C13.3356 210.078 13.0566 210.469 12.7777 210.469C12.7219 210.469 12.6103 210.413 12.4987 210.357C12.2197 210.19 11.9407 210.078 11.6617 210.078C10.9921 210.078 10.4899 210.525 10.0994 211.418C9.87617 211.976 9.3182 212.143 8.76022 212.366C8.42543 212.478 8.09065 212.589 7.81166 212.813C7.08629 213.371 6.52831 214.487 7.08629 215.602C7.08629 215.658 7.14208 215.714 7.19788 215.826C7.03049 215.881 6.8631 215.993 6.58411 216.16C6.08193 216.551 5.97033 216.774 5.91454 217.221C5.91454 217.444 5.85874 217.667 5.69134 218.169C5.57975 218.504 5.41236 218.839 5.30076 219.174C4.85438 220.178 4.46379 221.182 4.96597 222.131C5.18916 222.577 5.41236 223.079 5.57975 223.582C5.85874 224.307 6.13773 225.032 6.52831 225.423C6.6957 225.59 6.8073 225.702 6.97469 225.813C7.42107 226.204 7.70006 226.427 7.81166 227.32C7.97905 228.659 8.53703 229.608 9.54139 230.221C9.76458 230.333 9.93197 230.5 10.0994 230.724C10.4899 231.114 10.8805 231.505 11.6059 231.505C11.7175 231.505 11.7733 231.505 11.8849 231.505C12.1639 231.449 12.3871 231.449 12.5545 231.449C12.6103 231.449 12.6103 231.449 12.6103 231.449C12.6103 231.505 12.6103 231.616 12.6103 231.895C12.6103 232.9 13.5588 233.514 15.0096 233.514C15.4559 233.514 15.9023 233.681 16.0139 233.848C16.1255 234.016 16.1255 234.183 16.0139 234.462C15.7907 234.964 15.7907 235.522 15.8465 235.969C15.8465 236.694 15.8465 237.029 15.4559 237.308C15.2328 237.419 15.0654 237.531 14.898 237.587C14.1726 237.977 13.7262 238.201 13.5588 239.261C13.503 239.484 13.503 239.707 13.503 239.874C13.4472 240.488 13.4472 240.767 12.945 241.269C12.1639 242.051 11.6617 242.72 11.4943 243.613C11.4385 243.836 11.3827 244.059 11.2711 244.282C11.1595 244.506 11.1037 244.785 10.9921 245.008L10.7689 246.012L11.3827 245.622C11.3827 245.733 11.4385 245.845 11.4385 245.956C11.7175 246.738 11.7175 248.97 13.1124 248.244C14.4516 247.463 14.4516 248.691 15.0654 249.025C15.6791 249.304 17.1857 249.918 16.9067 250.699C16.6277 251.48 17.0741 252.038 17.6879 252.373C18.3016 252.652 18.1342 252.82 17.6879 253.266C17.2415 253.712 17.5205 254.159 18.3016 255.107C19.0828 256 20.4219 256.949 20.4219 257.841C20.4219 258.734 20.8683 259.794 21.6495 259.515C22.4307 259.236 21.6495 259.794 21.4821 260.743C21.3147 261.636 21.7611 261.97 22.877 262.082C23.9372 262.249 23.7698 262.863 24.3836 262.863C24.9974 262.863 25.7227 261.803 25.6111 261.189C25.4437 260.575 24.7184 259.962 25.3321 259.85C25.9459 259.683 27.1735 259.236 27.8988 259.683C28.68 260.129 29.7402 259.85 30.1865 260.91C30.6329 261.97 30.6329 262.417 30.9677 263.365C31.2467 264.258 32.3069 264.258 32.3069 263.533C32.3069 262.752 32.9206 262.919 33.646 263.533C34.4272 264.146 36.2127 264.872 36.9939 264.425C37.775 263.979 37.8866 264.872 38.6678 264.146C38.9468 263.867 39.2258 263.533 39.5048 263.254L39.5606 263.812L40.1743 263.142C40.2859 263.031 40.3975 262.919 40.4533 262.807C40.7881 262.696 41.5135 262.473 41.9599 262.473C42.0715 262.473 42.1273 262.473 42.1273 262.473C42.3505 262.64 42.6852 262.64 43.02 262.696C43.6338 262.752 43.9128 262.863 43.9128 263.086C43.9686 263.31 43.9686 263.588 43.9128 263.867C43.9128 264.481 43.857 265.262 44.694 265.82C44.9729 265.988 45.2519 266.267 45.4751 266.434C45.8657 266.825 46.2005 267.048 46.5353 267.048C46.7585 267.048 46.9259 266.936 47.0933 266.769C47.1491 266.713 47.2049 266.657 47.2607 266.657C47.3165 266.657 47.428 266.713 47.428 266.825C47.5396 267.104 48.265 268.61 49.2694 268.61C49.4926 268.61 49.7158 268.554 49.8831 268.387C50.0505 268.276 50.2737 268.052 50.3295 268.052C50.3295 268.052 50.3853 268.108 50.4411 268.108C50.5527 268.164 50.6643 268.22 50.8317 268.276C50.9991 268.331 51.2223 268.387 51.3897 268.387C51.8919 268.387 52.2267 268.108 52.5614 267.885C52.7288 267.773 52.8404 267.718 52.952 267.606C53.0078 267.662 53.0636 267.718 53.1194 267.773C53.2868 267.997 53.51 268.331 53.9564 268.499C54.0122 268.555 54.1238 268.554 54.1796 268.61C54.5144 268.778 54.8491 268.889 55.2397 268.889C55.6303 268.889 55.9651 268.778 56.3557 268.443C56.6347 268.22 56.8021 268.164 56.9137 268.164C57.0811 268.164 57.3042 268.331 57.6948 268.61C58.1412 269.001 58.8108 269.28 59.3688 269.559C59.8151 269.782 60.2057 269.949 60.4847 270.173C60.5963 270.228 60.6521 270.284 60.7637 270.396C61.3217 270.842 61.9355 271.344 62.884 271.344C63.3304 271.344 63.9442 271.735 64.4464 272.181L64.279 272.405C63.4978 273.297 62.4376 274.525 62.0471 275.529C61.9355 275.864 61.8239 276.31 61.7123 276.757C61.4891 277.65 61.2101 278.765 60.6521 278.933C59.5362 279.268 58.9782 279.602 58.3086 280.439C57.8622 280.942 57.4716 281.723 57.1926 282.337C57.0253 282.671 56.9137 282.895 56.8021 283.062C56.5231 283.453 55.5187 284.457 54.7375 285.071C53.8448 285.796 52.6172 287.582 52.6172 289.311C52.6172 290.818 52.2267 291.766 51.3897 292.492C50.6643 293.106 50.7201 293.775 50.7201 294.445C50.7201 294.779 50.7201 295.114 50.6643 295.449C50.5527 295.951 50.4969 296.788 50.4969 297.681C50.4969 298.574 50.4411 300.024 50.2179 300.248L50.1621 300.303C49.5484 300.75 49.0462 301.14 48.7114 302.424C48.544 303.205 48.2092 303.651 47.7628 304.377C47.5396 304.711 47.3165 305.102 47.0375 305.548C46.6469 306.274 46.4237 306.832 46.2005 307.334C46.0331 307.78 45.8657 308.115 45.6983 308.394C45.1403 309.175 44.694 310.682 45.0287 312.077C45.2519 313.193 45.8099 314.085 46.1447 314.755C46.2563 314.922 46.3679 315.09 46.4237 315.257C46.6469 315.704 46.5353 316.317 46.0331 316.764C45.4193 317.378 45.0287 318.326 45.1403 319.051C44.8614 319.442 44.3034 320.391 44.5824 321.395C44.8056 322.12 44.8056 322.12 44.415 322.734C44.3592 322.846 44.3034 322.902 44.1918 323.069C43.578 324.017 43.4664 324.91 43.857 325.859C44.0244 326.249 43.9686 326.361 43.6896 326.807C43.578 326.975 43.5222 327.142 43.4106 327.365C43.0758 328.035 42.741 329.43 44.415 330.881C45.1961 331.55 45.2519 332.164 45.3077 332.61C45.3077 332.778 45.3077 332.945 45.3635 333.112C45.5309 333.559 46.0331 333.894 46.5911 333.894C47.0375 333.894 47.4838 333.615 47.7628 333.168C47.986 332.833 48.1534 332.666 48.265 332.61C48.265 332.722 47.986 333.057 47.8744 333.224C47.707 333.447 47.5396 333.67 47.3722 333.949C47.2049 334.284 47.2607 334.619 47.428 334.954C47.707 335.4 48.2092 335.679 48.823 335.679C49.1578 335.679 49.4926 335.623 49.8831 335.456C50.4411 335.233 51.1107 334.786 51.8361 334.396C52.7288 333.894 53.9006 333.224 54.2912 333.224C54.4028 333.28 54.5144 333.726 54.5702 333.949C54.7376 334.452 54.8491 335.065 55.4071 335.177C55.6861 335.233 56.2999 335.233 56.5789 335.233C57.1927 335.233 60.3731 335.177 61.6007 334.005C62.3818 333.224 64.4464 332.22 65.6739 332.22C66.0645 332.22 66.2877 332.331 66.3993 332.499C67.1246 334.173 68.5196 334.34 69.5239 334.34C70.1377 334.34 70.8631 334.284 71.8675 334.061L72.3138 334.005L72.2022 333.615C72.2022 333.503 72.0348 332.555 73.0392 332.108C73.2624 331.997 73.4856 331.941 73.7088 331.941C74.3783 331.941 74.9363 332.387 75.0479 332.554V332.889H75.4385C75.8849 332.889 76.7219 332.61 76.8893 331.494C76.945 331.215 77.0566 330.992 77.1682 330.825C77.3356 330.546 77.503 330.211 77.3914 329.876C77.2798 329.541 76.945 329.262 76.3313 328.983C75.8849 328.76 75.4943 328.704 75.2153 328.704C74.6015 328.704 74.3226 329.095 74.0994 329.374C73.9878 329.541 73.8762 329.709 73.7088 329.765C73.374 329.932 72.9834 330.044 72.5928 330.044C72.258 330.044 71.7559 329.932 71.3653 329.541C71.0863 329.207 70.9747 328.704 71.1421 328.258C71.2537 327.867 71.4769 327.589 71.7001 327.477C72.537 327.142 72.6486 326.305 72.7602 325.747C72.7602 325.636 72.816 325.524 72.816 325.412C72.8718 325.301 73.4298 325.189 73.7088 325.133C74.2668 325.022 74.8805 324.91 75.3827 324.575C75.6617 324.352 75.8849 324.352 75.9965 324.352C76.2755 324.352 76.3871 324.743 76.4429 325.078C76.5545 325.747 76.945 325.97 77.2798 325.97C77.7262 325.97 78.2284 325.524 78.3958 324.799C79.4559 325.245 80.2929 325.747 80.2929 325.97C80.0697 326.305 79.7349 326.473 79.4001 326.64C78.9538 326.863 78.4516 327.086 78.2842 327.756C78.1726 328.202 78.2842 328.481 78.3958 328.649C78.7864 329.207 79.7349 329.262 80.0139 329.262C80.2371 329.262 80.4603 329.262 80.6277 329.207H80.6835C80.8509 329.207 81.1299 329.374 81.3531 329.486C81.6321 329.653 81.911 329.82 82.19 329.82C82.469 329.82 82.748 329.653 82.8596 329.374C83.027 328.928 82.8596 328.314 82.4132 327.812C82.5248 327.867 82.6922 327.923 82.9154 328.091C84.0314 328.816 84.0313 329.262 83.9198 329.765C83.864 330.099 83.9198 330.434 84.143 330.657C84.3661 330.936 84.7009 331.104 85.1473 331.104C85.5937 331.104 86.0401 330.936 86.5423 330.657C87.5466 330.044 88.4952 329.709 89.3879 329.709C89.6669 329.709 89.8901 329.765 90.1691 329.82C91.5641 330.155 93.517 330.881 94.2981 331.327C94.5771 331.494 95.1351 331.662 95.7489 331.885C96.9206 332.276 99.1525 333.001 99.3757 333.559C100.547 336.293 101.496 337.632 102.445 337.744C102.612 337.744 102.779 337.8 102.891 337.8C103.84 337.8 104.621 337.353 105.458 336.795C105.569 336.739 105.681 336.684 105.792 336.684C106.239 336.684 106.741 337.186 106.908 337.297L107.132 337.576L107.411 337.409L108.471 336.739C108.806 336.851 109.419 337.018 109.922 337.018C110.312 337.018 110.591 336.907 110.758 336.684C110.926 336.405 110.982 336.07 110.982 335.791H111.037L110.982 335.289C110.982 335.289 110.982 335.289 110.982 335.233C111.093 334.619 111.428 333.67 111.707 333.447C111.819 333.391 111.986 333.336 112.153 333.336C112.377 333.336 112.6 333.447 112.711 333.559C112.711 333.615 112.823 333.726 112.767 333.949C112.544 334.786 112.711 335.289 112.935 335.512C113.158 335.791 113.548 335.958 113.995 335.958C114.106 335.958 114.218 335.958 114.33 335.902C114.497 335.902 114.664 335.847 114.887 335.791C115.445 335.679 116.171 335.568 116.673 335.568C116.896 335.568 117.008 335.623 117.008 335.623C117.064 335.735 117.175 335.958 117.231 336.181C117.398 336.628 117.622 337.186 118.068 337.632C118.682 338.246 119.575 338.525 120.188 338.525C120.3 338.525 120.411 338.525 120.523 338.469C120.69 338.581 121.081 339.139 121.193 339.697C121.248 339.864 121.248 340.199 121.081 340.366C120.579 340.868 120.356 341.482 120.411 342.04C120.467 342.487 120.746 342.877 121.193 343.156C121.527 343.379 121.974 343.435 122.42 343.435C123.369 343.435 124.15 342.989 124.373 342.319C124.429 342.152 124.485 342.152 124.541 342.152C124.596 342.152 124.708 342.208 124.819 342.319C124.931 342.431 125.043 342.71 124.931 343.156C124.875 343.491 124.82 343.826 124.764 344.105C124.596 344.886 124.541 345.444 124.206 345.667C123.759 346.002 123.592 346.504 123.759 346.895C123.871 347.285 124.262 347.508 124.708 347.508C124.875 347.508 125.043 347.508 125.21 347.453C125.322 347.397 125.433 347.397 125.545 347.341C126.772 347.006 128.781 346.448 129.395 344.942C129.953 343.547 131.069 342.542 131.571 342.431C132.185 342.263 132.408 341.65 132.687 341.036C132.799 340.757 132.91 340.478 133.022 340.255C133.412 339.641 133.524 338.413 133.301 337.576C133.189 337.186 132.966 336.907 132.743 336.795C132.296 336.572 132.073 336.46 132.352 335.623C132.408 335.4 132.464 335.177 132.52 334.954C132.743 335.177 132.966 335.4 133.245 335.456C133.524 335.512 133.859 335.512 134.194 335.512C134.975 335.512 136.258 335.344 136.593 334.396C136.649 334.228 136.76 334.005 137.151 334.005C137.43 334.005 137.765 334.117 138.099 334.284C138.49 334.507 139.048 334.731 139.606 334.954C140.22 335.177 140.833 335.4 141.112 335.623C141.447 335.902 141.894 336.014 142.34 336.014C142.842 336.014 143.4 335.847 144.014 335.456C144.181 335.4 144.293 335.344 144.46 335.344C144.795 335.344 145.018 335.512 145.074 335.679C145.13 335.847 144.907 336.07 144.795 336.181C144.572 336.349 144.07 336.739 144.237 337.186C144.404 337.632 145.018 337.688 145.632 337.688C145.799 337.688 145.911 337.688 146.078 337.688C146.19 337.688 146.302 337.688 146.413 337.688C147.027 337.688 147.529 338.804 147.697 339.362C147.697 339.418 147.697 339.473 147.752 339.529C147.864 340.087 148.087 341.203 149.873 341.203C149.984 341.203 150.152 341.203 150.263 341.203C151.547 341.092 153.109 340.534 154.392 340.087C154.671 339.976 154.95 339.92 155.173 339.808C155.118 339.976 155.118 340.143 155.118 340.255C155.173 340.478 155.285 340.757 155.676 340.98L155.899 341.092C156.178 341.259 156.401 341.371 156.68 341.371C157.126 341.371 157.405 341.036 157.852 340.422L158.019 340.199C158.633 339.306 158.968 338.86 159.581 338.86C159.637 338.86 159.693 338.86 159.805 338.86C160.809 339.027 161.423 339.139 161.423 339.139L161.925 339.25V338.692V337.8V336.684L161.311 337.409C161.479 336.07 161.534 335.958 162.427 335.958C162.706 335.958 163.041 335.958 163.32 336.014C163.655 336.014 163.99 336.07 164.324 336.07C164.882 336.07 165.663 336.014 166.166 335.623C166.724 335.177 166.556 334.731 166.5 334.452C166.389 334.228 166.333 334.061 166.724 333.559C167.449 332.61 168.119 332.499 169.179 332.387L169.513 332.331C169.625 332.331 169.737 332.331 169.848 332.331C170.183 332.331 170.574 332.387 170.964 332.387C171.411 332.443 171.913 332.499 172.359 332.499C173.252 332.499 173.866 332.331 174.312 331.941C175.205 331.215 177.772 330.378 178.832 330.378C178.887 330.378 178.943 330.378 178.999 330.378C179.445 330.434 180.003 330.546 180.506 330.602C181.064 330.657 181.566 330.769 182.012 330.825C182.459 330.881 182.793 330.936 183.128 330.936C183.463 330.936 183.798 330.881 184.244 330.825H184.3C184.802 330.769 185.193 330.657 185.304 330.323C185.472 329.988 185.248 329.597 184.802 328.816L184.635 328.537C183.909 327.421 183.686 327.031 184.3 326.417C184.635 326.082 184.914 325.691 185.193 325.412C185.472 325.078 185.695 324.743 185.918 324.631C185.918 324.966 185.806 325.691 185.639 326.082C185.583 326.194 185.416 326.528 185.583 326.863C185.639 326.975 185.806 327.142 186.141 327.142C186.476 327.142 186.978 326.975 187.815 326.64C188.596 326.361 189.433 326.138 190.159 326.138C190.828 326.138 191.163 326.305 191.275 326.473C191.386 326.64 191.498 326.863 191.609 327.086C192 327.868 192.502 328.816 193.339 329.095C193.507 329.151 193.618 329.207 193.73 329.262C194.064 329.374 194.343 329.486 194.678 329.486C195.18 329.486 195.571 329.262 196.073 328.704C196.241 328.481 196.408 328.314 196.575 328.091C197.133 327.365 197.468 326.975 198.417 326.863L198.751 326.807C199.198 326.752 199.588 326.696 199.867 326.696C200.314 326.696 200.593 326.807 200.816 327.031C200.983 327.198 201.095 327.421 201.207 327.7C201.43 328.146 201.653 328.76 202.434 329.095C202.602 329.151 202.657 329.207 202.713 329.262C202.657 329.318 202.546 329.43 202.434 329.541C202.323 329.597 202.267 329.709 202.155 329.82C201.876 330.099 201.765 330.434 201.876 330.881C202.044 331.606 202.881 332.443 203.829 332.778C204.331 332.945 204.778 333.391 205.224 333.894C205.782 334.452 206.34 335.065 207.065 335.233C208.293 335.512 208.293 335.512 209.074 335.679C209.186 335.679 209.297 335.735 209.353 335.735C209.911 335.735 210.19 335.344 210.413 335.01C210.525 334.842 210.636 334.675 210.804 334.507C211.362 333.949 211.027 333.336 210.86 333.001C210.748 332.778 210.636 332.61 210.636 332.387C210.636 332.108 210.581 331.885 210.525 331.662C210.413 331.104 210.302 330.657 210.86 330.044C210.971 329.932 211.027 329.82 211.139 329.709C211.92 328.816 212.645 328.035 211.808 326.64C211.641 326.417 211.529 326.138 211.362 325.803C210.804 324.743 210.19 323.404 208.962 323.404C208.628 323.404 208.237 323.515 207.847 323.794C207.568 323.962 206.786 324.52 206.507 324.52C206.452 324.464 206.284 324.129 206.228 323.85L206.173 323.683C205.949 323.125 206.061 322.957 206.34 322.567C206.507 322.343 206.731 322.009 206.954 321.507C207.065 321.228 207.289 320.837 207.568 320.502C208.237 319.554 209.074 318.326 208.126 316.875C207.735 316.262 207.456 315.704 207.233 315.201C206.786 314.253 206.396 313.472 205.67 313.193C204.889 312.914 204.275 312.133 204.108 311.24C203.941 310.235 203.215 309.956 202.49 309.622C202.211 309.51 201.932 309.398 201.653 309.231C201.151 309.008 200.816 308.617 200.704 308.227C200.593 307.892 200.649 307.446 200.928 307.055C201.151 306.609 201.486 306.441 201.876 306.218C202.323 305.939 202.881 305.66 203.327 304.935C203.662 304.377 203.829 303.874 203.885 303.484C203.996 303.038 204.052 302.926 204.331 302.814C204.499 302.759 204.722 302.703 205.001 302.703C205.112 302.703 205.28 302.703 205.391 302.703C205.503 302.703 205.615 302.703 205.726 302.703C205.894 302.703 206.396 302.703 206.675 302.312C207.01 301.866 208.572 300.136 209.688 299.745C210.469 299.466 211.585 299.187 212.589 298.964C213.036 298.853 213.482 298.741 213.873 298.685C215.1 298.406 219.397 295.895 219.787 294.277C219.955 293.552 219.955 292.994 219.955 292.492C219.955 291.99 219.955 291.599 220.066 291.153C220.345 290.092 220.68 289.2 220.68 289.2L220.736 289.088L220.68 288.976C220.513 288.53 220.122 287.247 220.122 286.689C220.122 286.633 220.122 286.577 220.122 286.521C220.289 286.466 220.513 286.354 220.847 286.131C221.405 285.74 221.573 285.517 221.684 285.294C221.74 285.182 221.796 285.071 221.963 284.903C222.131 285.126 222.41 285.405 223.024 285.629C223.581 285.852 224.084 285.963 224.53 286.075C225.088 286.187 225.534 286.298 225.813 286.521C225.981 286.633 226.148 286.856 226.371 287.079C226.818 287.582 227.264 288.084 227.766 288.084C227.934 288.084 228.101 288.028 228.268 287.916C228.715 287.582 228.826 287.191 228.994 286.8C229.105 286.521 229.217 286.187 229.44 285.852C229.608 285.573 229.775 285.461 229.942 285.35C230.333 285.071 230.668 284.792 230.835 283.731C230.947 283.285 231.058 282.839 231.17 282.504C231.449 281.611 231.672 280.774 231.282 280.105C231.17 279.881 231.058 279.714 230.947 279.602C230.724 279.323 230.668 279.212 230.724 278.375C230.779 278.04 230.835 277.705 230.835 277.482C230.947 276.757 231.058 276.199 230.668 275.418C230.556 275.194 230.445 274.971 230.333 274.748C230.054 274.246 229.887 273.855 229.552 273.353C229.105 272.739 228.38 271.568 228.268 271.177C228.157 270.898 227.934 270.731 227.599 270.731C227.432 270.731 227.264 270.786 227.097 270.842C226.874 270.898 226.65 270.954 226.371 270.954C226.316 270.954 226.204 270.954 226.148 270.954C225.479 270.842 225.088 270.452 224.642 269.391C224.084 268.164 222.856 267.773 221.796 267.494C221.684 267.439 221.573 267.439 221.461 267.439C220.847 267.439 220.624 267.997 220.457 268.331C220.457 268.387 220.401 268.499 220.345 268.554C220.289 268.554 220.289 268.499 220.234 268.443C219.229 267.55 218.169 267.215 217.667 267.048C217.667 266.881 217.723 266.657 217.779 266.49C217.946 265.932 218.113 265.262 217.89 264.76C217.555 263.923 215.491 261.524 214.542 261.301C213.873 261.189 212.143 261.133 211.585 261.133C211.306 260.91 210.86 260.352 210.748 259.962C210.525 258.957 209.297 258.009 208.572 257.562C208.181 257.339 208.07 257.004 207.902 256.614C207.791 256.335 207.679 256.056 207.456 255.833C206.842 254.996 206.228 254.27 205.615 253.657L205.447 253.489C204.722 252.708 203.439 251.48 201.82 251.48C201.597 251.48 201.318 251.536 201.095 251.592L200.816 251.648C200.091 251.815 199.533 251.983 199.142 251.983C198.807 251.983 198.528 251.871 198.361 251.369C197.859 249.974 196.185 248.356 194.79 248.356C194.678 248.356 194.622 248.3 194.622 248.3C194.343 248.021 194.343 246.961 194.343 246.291C194.343 245.845 194.343 245.51 194.288 245.231C194.12 244.338 193.283 243.892 192.837 243.78C192.558 242.943 191.777 240.656 191.498 240.265C191.33 239.986 191.051 239.874 190.772 239.707C190.326 239.484 190.326 239.428 190.326 239.316C190.438 238.703 190.772 237.14 189.712 236.861C188.875 236.638 187.815 236.192 187.536 235.801C187.09 235.187 186.978 235.02 187.369 234.462C187.927 233.793 188.931 233.179 188.931 233.179L190.27 232.398H188.764C188.764 232.398 188.652 232.398 188.596 232.342C188.541 232.286 188.541 232.063 188.652 231.728L188.708 231.561C189.098 230.5 189.266 230.054 189.935 229.217C190.382 228.659 190.828 228.045 190.661 227.376C190.549 226.985 190.214 226.65 189.601 226.427C188.596 226.037 188.541 225.813 188.541 225.813C188.541 225.813 188.541 225.702 188.708 225.59C188.987 225.311 189.098 224.921 188.987 224.586C188.82 224.028 188.038 223.526 187.146 223.358C186.42 223.247 186.197 223.079 185.583 222.577C185.416 222.41 185.193 222.242 184.914 222.075C184.411 221.684 183.965 221.461 183.575 221.294C182.961 221.015 182.57 220.792 182.347 220.289C181.956 219.397 181.398 219.118 180.896 218.895C180.729 218.783 180.506 218.727 180.394 218.616C180.282 218.504 180.171 218.281 180.171 218.002C180.115 217.555 180.282 217.109 180.45 216.942C180.84 216.551 181.008 215.77 180.84 215.156C180.673 214.654 180.282 214.375 179.78 214.263C179.278 214.208 179.055 214.04 178.832 213.873C178.609 213.705 178.33 213.538 177.883 213.371C177.604 213.259 177.437 213.092 177.381 212.868C177.381 212.645 177.493 212.478 177.772 212.31C178.051 212.199 178.274 211.92 178.33 211.641C178.553 210.971 178.162 210.134 177.995 209.855L177.939 209.744C178.218 209.576 178.609 209.353 178.943 209.353C179.557 209.353 179.39 210.581 179.836 211.194C180.282 211.808 181.175 211.473 181.677 211.976C182.124 212.422 181.845 212.757 181.677 213.203C181.51 213.65 182.124 213.371 182.291 213.984C182.459 214.598 183.072 216.886 183.798 214.598C184.579 212.31 184.69 211.083 185.137 210.804C185.583 210.525 185.918 209.576 185.918 208.963C185.918 208.349 187.146 207.902 187.592 207.735C188.038 207.568 188.373 206.675 188.652 206.061C188.931 205.447 192.725 204.722 193.339 204.834C193.953 205.001 193.953 204.834 195.18 203.941C196.408 203.048 197.636 202.881 199.254 203.773C200.928 204.666 200.481 204.834 200.481 204.834C200.481 204.834 202.155 204.555 202.602 203.16C203.048 201.82 202.434 201.486 202.769 200.593C203.048 199.7 203.662 200.593 204.443 200.314C205.224 200.035 205.67 199.7 206.563 200.035C207.456 200.314 208.237 199.868 208.237 198.528C208.237 197.189 208.851 195.794 209.465 196.073C210.078 196.408 210.971 197.301 211.139 196.52C211.306 195.738 211.306 195.292 211.92 194.567C212.534 193.786 212.701 192.893 212.701 192.893C212.701 192.893 212.534 193.786 213.315 194.399C214.096 195.013 214.542 195.459 214.989 195.013C215.435 194.567 215.602 194.734 216.216 193.786C216.83 192.893 216.83 192.558 216.83 191.833C216.83 191.051 216.384 189.991 217.109 190.159C217.89 190.326 218.337 190.438 219.397 189.88C220.457 189.266 220.903 189.712 221.684 189.712C222.466 189.712 222.577 189.266 223.637 188.931C224.697 188.652 224.865 189.21 225.758 188.931C226.65 188.652 227.264 188.652 226.985 187.871C226.706 187.09 226.985 185.751 228.826 185.304C230.668 184.858 230.779 185.583 232.174 184.691C233.513 183.798 234.741 183.017 235.69 182.57C236.582 182.124 235.411 182.291 236.471 181.343C237.531 180.45 237.866 180.729 239.037 180.45C240.265 180.171 241.493 179.222 239.819 178.609C238.145 177.995 237.866 177.827 237.866 177.269C237.866 176.656 236.973 176.823 236.638 176.377C236.359 175.93 236.359 175.93 236.638 174.87C236.917 173.81 236.806 173.81 237.977 173.977C239.205 174.145 239.205 174.145 239.819 174.759C240.432 175.372 240.711 175.54 241.325 174.591C241.939 173.698 242.553 173.698 243.166 174.312C243.78 174.926 245.287 175.372 245.622 175.986C245.901 176.6 245.901 177.493 245.454 178.106C245.008 178.72 245.454 179.613 246.514 178.999C247.575 178.385 247.854 179.78 247.296 180.506C246.682 181.287 247.017 181.901 248.077 182.012C249.137 182.18 250.532 182.626 250.811 183.072C251.09 183.519 252.652 183.24 252.764 181.845C252.931 180.45 252.931 179.557 253.824 178.497C254.717 177.437 254.605 175.595 255.051 174.535C255.498 173.475 257.172 168.453 256.725 167.561C256.279 166.668 256.725 165.44 257.004 164.38C256.279 163.376 255.33 161.702 254.717 160.474Z" fill="#11152C"/>
<path d="M117.956 31.7489C118.012 31.3583 118.012 31.0793 118.068 30.9678C118.068 30.9678 118.18 30.912 118.235 30.8562C118.124 31.1909 118.012 31.4699 117.956 31.7489Z" fill="#11152C"/>
<g opacity="0.32" filter="url(#filter0_f)">
<circle cx="147" cy="255" r="18" fill="#3856E1"/>
</g>
<circle opacity="0.32" cx="147" cy="255" r="15" fill="#3856E1"/>
<circle opacity="0.56" cx="147" cy="255" r="12" fill="#3856E1"/>
<circle cx="147" cy="255" r="9" fill="#3856E1"/>
</g>
<defs>
<filter id="filter0_f" x="121" y="229" width="52" height="52" filterUnits="userSpaceOnUse" color-interpolation-filters="sRGB">
<feFlood flood-opacity="0" result="BackgroundImageFix"/>
<feBlend mode="normal" in="SourceGraphic" in2="BackgroundImageFix" result="shape"/>
<feGaussianBlur stdDeviation="4" result="effect1_foregroundBlur"/>
</filter>
<clipPath id="clip0">
<rect width="256" height="347.341" fill="white"/>
</clipPath>
</defs>
</svg>
