<svg width="352" height="304" viewBox="0 0 352 304" fill="none" xmlns="http://www.w3.org/2000/svg">
<g clip-path="url(#clip0)">
<path d="M99.931 54.4923L99.5926 54.577L99.3387 54.7462L97.6464 56.0154L95.531 55.5077L93.2464 55.677L90.9618 55L90.3695 55.1693L90.031 56.1L89.6926 57.4539L88.3387 57.7923L87.4926 57.9616L86.731 58.3846L85.2926 59.0616L83.8541 58.3846L83.2618 58.0462L82.5849 58.1308L80.3849 58.0462L78.7772 56.6923L77.8464 56.1L76.7464 56.4385L76.1541 56.6077L75.4772 56.5231L73.0234 56.1846L70.9926 57.5385L69.8926 58.0462H68.708L68.2003 57.2846L68.4541 56.2693L68.5387 55.9308L68.3695 55.677L67.608 55.3385L67.4387 54.577L68.1157 53.3923L69.131 52.4616L69.7234 52.2077L70.231 51.8693L70.4849 50.7693L69.3849 50.4308L68.4541 50.0923L68.2003 49.1616L67.8618 48.2308L67.0157 48.3154L62.8695 49.4154L58.6387 49.7539L57.708 50.0923L56.9464 50.6846L55.508 52.377L53.5618 53.477L52.208 53.3077V51.8693L52.4618 50.6L52.3772 49.3308L52.208 48.7385L52.2926 48.2308L53.8157 46.2846L55.508 44.5077L55.8464 44.3385L56.1849 44.2539L56.8618 43.8308L57.1157 43.1539L56.608 42.8154L55.931 42.9846L54.7464 43.1539L54.0695 42.3077L54.408 41.2077L55.508 40.7846L56.7772 40.1923L57.5387 39.0077L56.5234 38.9231L55.5926 39.177L54.4926 39.0923L53.731 38.4154V37.2308L54.4926 36.3846L55.3387 35.6231L55.508 34.5231L55.6772 33.8462L56.1849 33.4231L56.608 32.7462L56.2695 31.9846L55.6772 31.7308L55.2541 32.2385L55.1695 32.4077L55.0849 32.4923L53.4772 32.6616C50.7695 36.3846 50.1772 33.4231 50.5157 30.6308L52.1234 28.6L52.7157 28.2616L52.631 27.6693L51.7849 27.077L50.7695 27.3308L50.2618 27.9231L49.4157 27.7539L48.9926 26.9077L49.5003 26.1462L49.7541 25.7231L49.4157 25.3L49.0772 24.6231L48.908 23.9462L49.1618 23.3539L48.908 22.8462L48.0618 22.7616L47.2157 23.1846L46.708 23.6923L46.2003 23.777L45.8618 23.1L46.031 22.3385L46.1157 21.7462L46.3695 21.3231L46.9618 20.3923L46.5387 19.5462V19.0385L46.8772 18.6154L48.5695 17.6L50.1772 16.5846L49.7541 16.4154L49.4157 16.5H48.908L48.4849 16.077V15.5693L48.8234 15.1462L49.1618 14.8923L49.5003 14.8077L52.1234 14.6385L54.5772 13.5385L54.2387 12.4385L55.3387 11.9308L56.6926 11.3385L57.3695 9.90003L57.9618 11.2539L58.9772 12.1L60.4157 12.1846L61.8541 12.0154L63.8849 11.7616L65.7464 10.9154L66.931 10.4923L67.5234 12.1L68.6234 10.4923L70.1464 11.0846L71.331 10.7462L72.3464 9.90003L72.1772 9.64618L71.9234 9.56157L71.5003 9.64618H71.0772L70.3157 9.47695L69.7234 9.05388L69.9772 8.54618L70.4849 8.03849L70.0618 7.86926L69.5541 8.03849L69.2157 8.12311L68.9618 7.95388L68.8772 7.27695L69.2157 6.76926L69.3849 5.83849L70.0618 5.3308L70.8234 5.24618L71.4157 4.82311L72.8541 3.89234L74.4618 3.1308L76.1541 2.0308L77.6772 0.761569L79.2003 0.169261L80.0464 1.43849L80.3003 1.77695L80.7234 1.69234L81.4849 1.18465L82.2464 0.846184L82.9234 0.169261L83.6849 3.05176e-05L84.6157 0.761569L84.7849 2.0308L84.8695 2.53849L85.1234 3.21542L85.8003 2.20003L86.9003 1.69234L88.0003 2.11542L88.8464 2.87695L89.3541 3.21542L89.8618 3.55388L91.131 4.48465L91.8926 5.75388L92.7387 7.36157L94.5157 7.70003L98.7464 7.5308L102.893 7.70003L106.531 8.29234L110.17 8.54618L114.823 8.37695L119.477 8.54618L120.493 8.46157L121.423 7.86926L123.285 6.76926L124.893 8.20772C127.939 10.9154 134.37 10.6616 138.516 12.2693C147.908 15.8231 158.485 15.9923 167.962 12.6923C167.285 13.3693 167.031 14.3846 167.2 15.3154C168.639 13.5385 171.093 12.6077 173.377 13.0308C174.477 13.2 175.323 15.0616 174.223 14.977C177.608 15.5693 180.993 16.5846 184.039 18.0231C185.139 14.8077 189.708 14.7231 192.839 15.9923C199.1 18.6154 202.316 19.8 208.662 17.8539L209.085 17.3462L209.423 16.7539L210.439 16.1616L211.454 16.7539L212.131 17.6L212.723 18.4462L213.823 19.7154L215.431 20.1385H216.362L217.039 19.6308L218.139 18.8693L219.493 19.0385L220.254 19.9693L220.17 21.1539L220 22.9308L219.239 24.5385L218.985 25.4693L219.577 26.2308L220.339 26.3154L220.677 25.6385L220.931 25.3L221.185 24.9616L221.523 24.5385H222.031L222.454 24.9616V25.5539L222.539 26.9923L223.808 27.5L226.685 28.177L229.393 29.1923L230.662 29.3616L231.931 29.0231L233.708 28.9385L234.639 30.4616L235.062 31.3923L235.823 32.1539L238.7 33.5923L241.831 33.9308L243.354 33.677H245.046L246.993 34.6077L248.346 36.1308L249.87 37.4846L251.731 36.8923L253.17 36.2154L254.693 35.6231L255.539 35.5385L256.131 35.877L257.316 36.6385L258.331 35.7077L258.67 35.5385L259.008 35.7077L260.446 36.3846L261.97 36.1308L263.069 36.0462H264.17L265.016 35.877V35.0308L264.508 33.4231L265.016 32.0693L266.708 31.6462L269.077 32.1539L271.446 33.0846L273.985 33.4231L275 33.5077L275.677 34.0154L277.285 35.1154L279.146 34.8616L281.093 35.1154L282.277 36.4693L282.954 38.2462L283.039 40.277L283.293 41.8L284.393 43.0693L285.662 43.1539L286.762 42.477L289.554 41.7154L292.346 42.477L293.531 42.5616L294.462 42.0539L295.223 41.7154L295.9 41.8V42.477L295.223 42.9L294.97 43.9154L295.562 44.7616L296.577 45.4385L297.677 44.9308L298.354 44.0846L299.285 43.4077L302.585 43.0693L305.377 44.5077L307.746 45.3539H310.116L310.539 45.1846L310.793 44.8462L312.485 42.6462L315.023 41.5462L317.393 40.7L319.846 41.6308L320.693 41.8H321.708L321.962 43.6616L323.908 44.5077L325.008 45.0154L325.093 46.2L324.246 47.3846H322.808L321.793 46.9616L320.862 47.3L320.523 48.4846L321.031 49.5846L321.962 50.9385L323.062 52.1231L324.077 55.2539L322.977 58.3L320.862 60.5846L318.662 62.7846L317.816 63.377L316.885 63.9693L315.616 64.3077L314.6 65.4923L314.008 66.1693L313.162 66.5923L308.931 68.4539L305.123 70.9923L302.585 73.1077L300.893 75.9846L299.539 77.5077L297.508 78.1846L291.923 79.7077L286.423 81.4846L283.546 82.3308L280.923 83.6846L278.808 84.8693L276.523 85.5462L273.985 86.9L272.039 89.0154L270.77 90.7923L269.416 92.4846L268.993 93.5846L270.008 94.177L270.77 94.3462L271.193 94.9385L271.446 95.277L271.785 95.5308L272.462 95.4462L272.885 95.7846L272.546 96.6308L271.785 97.1385L269.67 97.9846L267.47 98.577L266.623 98.8308L265.946 99.677L264.17 103.4L262.054 106.954L260.362 109.915L258.077 112.454L257.231 113.3L256.808 114.4L256.046 116.262L254.523 117.531L254.1 117.785L253.846 118.123L251.562 121.931L249.277 125.738V125.823V125.908L247.754 129.715L245.808 133.269L245.47 134.708L245.723 136.146L246.654 138.769L247.67 141.308L248.177 143.338L248.516 145.369L250.8 149.262L254.608 151.631L257.062 153.069L259.008 155.185V155.777L258.585 156.2L257.062 157.3L256.216 158.992L255.877 159.331L255.2 159.246H253.593L253 160.769L252.577 161.7L251.731 162.123L249.446 162.885L247.162 163.646L245.893 164.323L245.216 165.423L244.539 166.946L243.1 167.792L241.831 169.062L241.916 170.838L241.831 171.854L241.154 172.362L239.039 174.139L238.7 176.762L238.446 178.285L237.77 179.385L237.177 180.231L236.923 181.331L236.839 182.854L235.654 184.038L234.893 185.054L234.554 186.577L235.231 187.677L236.5 188.523L237.346 188.862L237.77 189.623L237.177 190.385L236.162 190.554L234.554 190.892L232.946 191.485L232.185 191.654L231.423 191.231L230.916 190.892L230.323 190.723L225.077 191.231L220.17 193.177L219.916 193.262L219.746 193.431L217.123 195.969L214.246 198L211.793 200.285L210.777 203.5L210.693 204.346L210.1 205.108L209.423 206.038L209.085 207.139L208.662 209.169L207.054 210.523L206.8 210.692L206.716 211.031L205.616 213.315L203.839 215.092L202.316 216.108L200.708 215.008L199.777 213.908L198.593 213.062L197.323 212.639L196.054 212.977L195.462 213.146L194.87 213.062H192.416L190.808 215.008L189.2 216.954L187.254 217.377L185.731 216.869L184.293 216.192L183.277 215.685L182.177 215.6H179.639H177.1L174.477 215.685L171.939 216.446L169.316 216.7L166.777 215.769L166.27 215.431L165.677 215.346H162.716L159.923 215.092H156.454L152.985 215.6L150.446 215.854L147.908 215.6L146.893 215.769L146.046 216.446L143.593 219.069L140.885 221.354L139.023 221.946L136.993 221.523L135.893 221.185L134.877 221.269L130.9 222.708L127.008 224.146L126.839 224.315L126.67 224.485L124.723 227.192L122.777 229.9L122.27 230.662L121.254 230.746L120.154 230.915L119.9 232.015L120.154 233.623L119.393 234.892L117.277 235.4L115.246 234.808L113.216 233.877L111.27 232.862L110.508 232.354L109.831 231.677L108.308 230.238L106.362 229.646L105.685 229.562L105.262 229.138L103.231 225.754L101.116 222.369L100.608 221.269L100.185 220.085L99.931 218.731L101.2 218.138L101.793 217.885L101.454 217.292L100.27 216.446L98.8311 216.023L97.1387 215.431L96.3772 213.062L96.8849 211.877L98.1541 211.369L98.5772 211.2L99.0003 211.031L96.1234 207.139L92.908 203.585L90.9618 202.062L88.8464 200.792L86.9849 199.862L85.208 198.762L83.2618 197.746L81.0618 197.408H78.2695L75.4772 197.069L74.631 197.577L73.8695 197.408L73.108 195.546L73.0234 193.515L73.1926 190.215L72.008 187.169L71.8387 186.662L72.0926 186.238L73.108 184.546L73.7003 182.685L74.7157 180.908L76.3234 179.639L78.3541 177.185L79.3695 174.223L79.9618 173.292L80.8926 173.377L81.7387 173.546L82.4157 172.869L83.1772 172.446L84.0234 172.785L85.4618 172.954L86.308 171.854L86.4772 171.262L86.9003 170.923L87.408 170.415V169.654L86.8157 168.046L85.1234 168.385L83.8541 168.554L83.008 167.623L81.3157 163.815L79.1157 160.262L78.9464 158.738L79.5387 157.385L80.3003 155.777L80.4695 153.915L80.808 152.646L81.9926 151.631L83.9387 150.023L86.0541 148.669L86.3926 148.415V148.077L86.2234 146.131L87.4926 144.692L88.2541 143.423L88.0003 141.9L87.1541 141.054L85.9695 140.969H84.7849L84.6157 139.615L84.3618 138.938L83.7695 138.6L82.9234 137.838L82.5849 136.738L82.2464 134.962L81.1464 133.523L80.808 132.677L81.0618 131.746L81.231 130.562L80.3003 129.885L79.6234 129.377V128.446L79.5387 127.6L78.9464 127.008L78.0157 125.738L77.2541 124.3L77.0849 123.962L77.1695 123.623L77.508 123.369L77.931 123.454L80.3849 124.046L82.9234 123.792H84.531L86.2234 124.131L88.6772 123.962L89.6926 121.762L90.1157 120.662L90.708 119.646L92.3157 116.262L92.0618 112.454L91.6387 111.608L90.8772 111.015L90.1157 109.915L89.9464 108.562L90.2003 107.8L91.0464 107.292L91.5541 107.038L92.0618 106.869L93.5003 106.277L94.6003 105.092L95.1926 103.485L95.0234 101.877L94.9387 100.692L95.6157 99.5923L96.208 98.7462L95.8695 97.7308L95.531 97.1385L95.6157 96.5462L96.0387 94.4308L95.6157 92.3154L95.4464 90.877L95.9541 89.5231L96.0387 89.1L95.7849 88.677L94.8541 86.477L93.9234 84.277L93.7541 83.6846L94.431 83.5154L96.631 83.3462L97.5618 81.2308L98.1541 80.5539L98.8311 80.0462L101.031 78.1L103.823 77.1693L104.585 76.7462L105.262 76.2385L106.531 74.8846L107.97 73.7846L108.393 73.3616L108.646 72.6846L109.408 70.9923L110.593 69.6385L111.185 68.5385L110.677 67.3539L108.393 65.4923L105.431 65.4077L103.739 64.6462V62.3616L104.162 59.7385L103.993 57.2L103.739 56.6923H103.146L102.47 56.8616L101.793 56.9462L99.931 56.6923V54.4923Z" fill="#11152C"/>
<path d="M37.2304 287.438L39.515 286.254V286.169L40.0227 285.238L39.6842 284.477H39.0919L38.2458 284.9H38.1611L37.7381 284.985L36.2996 284.815L35.3688 285.069L35.115 285.238L34.6919 285.492H34.6073L34.0996 285.662L33.6765 286.085L33.5073 286.508L32.915 287.1L32.6611 287.354L32.5765 287.438L31.5611 288.285H31.4765L30.6304 288.623L30.2919 288.792H30.2073L29.9535 288.877H29.7842H29.3611H29.0227L27.8381 289.131L26.4842 289.385L26.2304 289.469H25.8919L25.3842 289.385L24.5381 289.215L23.9458 289.554L23.5227 289.723H23.3535L23.0996 289.892V289.977V290.231L23.5227 290.569V290.654L23.7765 290.908H23.8611L23.9458 290.992L24.115 291.331V291.415L24.5381 292.262V292.854L24.6227 293.108L25.1304 293.785H25.215L25.6381 294.462V294.546L25.7227 294.715L26.5688 295.815L26.8227 296.154L27.0765 296.577L27.415 297L27.6688 298.015L27.8381 298.185L28.0073 298.269L29.0227 298.015L29.6996 297.677L30.5458 297.508L31.3919 297.169L32.1535 296.238L32.4919 295.731L32.915 295.138H32.9996L33.5073 294.631L33.5919 294.292L33.8458 293.362V293.277L34.1842 292.431L34.2688 292.346L34.4381 291.838L34.6073 291.5L34.9458 291.077V290.315L34.8611 290.146L35.4535 289.131L36.6381 288.031L36.8073 287.862L37.2304 287.438Z" fill="#11152C"/>
<path d="M88.2539 284.646V284.477V284.054L88.0001 281.6L87.8308 281.177L87.4924 280.838L87.3231 280.585L85.8001 280.669L84.7001 281.177L84.277 281.938L84.0231 283.038L83.9385 283.292L83.7693 284.223L83.6001 284.477L82.5001 286.338L82.3308 286.677L82.077 287.185L81.2308 288.877L81.0616 289.3L80.977 289.385L80.8924 289.638L80.5539 290.146L80.1308 291.077V291.162L80.0462 292.346V292.515L79.7924 292.854L79.2847 293.531L80.4693 293.7L81.1462 293.615L81.4001 293.7V293.192L82.1616 292.854L84.1077 292.092L87.4078 288.708L87.577 288.538H87.6616H87.577V287.862V287.269L87.9154 286.085L88.2539 285.069V284.646Z" fill="#11152C"/>
<path d="M55.5077 299.623L55.5923 299.2L55.6769 298.015L55.5077 297.508L54.9154 295.9L54.6615 295.223L54.9154 294.292L54.5769 293.869L54.1538 294.038V294.208L54.2385 294.462V294.631H52.9692L52.3769 294.462L51.1923 294.546L49.7538 294.208L49.3308 294.123H48.9923L48.5692 294.208L48.4 295.646L47.5538 296.915L47.1308 297.254L46.6231 297.592L46.2 297.846L46.1154 298.608L46.0308 299.708L46.1154 300.131L46.3692 300.808L46.5385 301.146L46.6231 301.231L46.7923 301.738L47.2154 301.992L47.5538 302.246L47.7231 302.585L48.3154 303.008L49.1615 303.685H49.2461L50.0923 303.769L50.4308 303.854L51.8692 303.6L53.2231 303.008L53.9 302.923L54.2385 302.669L55.5077 301.146L55.5923 300.892L55.4231 300.554L55.5077 299.623Z" fill="#11152C"/>
<path d="M90.0307 277.285L90.2846 276.946L91.3 276.692H91.3846H91.8923L92.1461 276.608L92.9923 276.015L93.2461 275.846L94.0923 275.762L94.6846 275.338L94.9384 275.169L95.1923 275L95.2769 274.915L95.7 274.238V274.154L95.8692 273.054L95.9538 272.969V272.462L95.8692 272.123V271.7L95.9538 271.531L96.2923 271.192H96.3769L96.5461 270.6L96.6307 270.346L96.4615 269.669L95.9538 269.246L95.1077 269.585L94.8538 270.092V270.177L94.6846 270.685L94.4307 271.446L93.5846 271.7L92.9077 271.531L92.7384 271.615L92.3153 271.785H92.2307L91.3 272.292L91.1307 272.462L90.2 272.8H89.7769L89.3538 272.969L89.2692 273.054H89.3538L88.5923 273.815L88.5077 273.9L88.1692 274.408L87.9153 275V275.931H88L87.9153 276.015V276.354L87.323 277.115L87.1538 277.369L87.5769 278.131H88.423L88.8461 278.215L89.1 278.3H89.3538L90.0307 277.285Z" fill="#11152C"/>
<path d="M2.03077 283.969L2.36923 284.562L2.87692 285.746L3.04615 286.423L3.63846 286.931L3.89231 287.015H3.97692L4.4 286.423L4.73846 285.746L4.90769 285.408L5.58462 284.054V283.969V283.462L5.5 283.038L5.41538 282.785L5.5 281.769L5.75385 281.346L6.00769 281.092L6.09231 280.669L5.66923 280.162L5.5 279.654L5.07692 278.723L4.82308 278.554L4.31538 278.3L3.97692 278.385L2.45385 278.3H2.28462H2.03077L1.86154 278.385L1.69231 278.469L1.43846 278.554L1.35385 278.723L1.60769 279.146L0.592308 279.992L0.253846 279.908L0 280.162L0.0846154 280.585L0.592308 281.008L1.35385 282.531L1.43846 282.785L2.03077 283.969Z" fill="#11152C"/>
<path d="M17.2616 293.7L15.9078 294.377L14.8078 295.562L14.7231 296.238L14.8078 296.577L15.9924 297.677L16.6693 297.592H16.8385L17.7693 297.423L17.9385 297.338L18.6155 296.831L18.9539 296.408L19.2924 295.9V295.815V295.223V295.138L18.7001 294.462L18.5308 294.377H18.3616L18.1078 294.123L17.6847 293.869L17.2616 293.7Z" fill="#11152C"/>
<path d="M307.577 160.685C307.492 160.6 307.238 160.515 307.408 160.346C307.492 160.177 307.661 160.262 307.831 160.346C307.831 160.262 307.831 160.177 307.831 160.092C307.915 159.838 308.169 159.754 308.254 159.5C308.508 159.162 308.761 158.823 309.1 158.485C309.185 158.4 309.269 158.315 309.438 158.231C309.608 158.231 309.777 158.062 309.946 158.062C310.2 158.146 310.369 157.977 310.538 157.808C310.708 157.638 310.877 157.554 311.131 157.554C311.046 157.469 310.961 157.469 310.961 157.3C310.961 157.131 311.131 157.046 311.3 156.962C311.638 156.962 311.808 156.623 311.977 156.454C312.061 156.454 311.977 156.454 311.977 156.454C312.654 156.538 313.161 156.2 313.754 155.946C313.754 155.946 313.754 155.946 313.838 155.946C314.261 156.031 314.261 156.031 314.346 155.608H314.431C314.769 155.608 315.108 155.523 315.277 155.185C315.361 155.1 315.446 155.015 315.615 154.931C315.785 154.762 316.038 154.846 316.292 154.762C316.377 154.762 316.546 154.762 316.631 154.762C317.138 154.762 317.561 154.677 318.069 154.508C318.323 154.423 318.577 154.423 318.831 154.338C319.085 154.254 319.254 154.169 319.508 154.085C319.677 154 319.846 153.915 320.015 153.915C320.185 153.915 320.354 153.746 320.523 153.746L320.608 153.831L320.523 153.746C320.608 153.662 320.692 153.577 320.777 153.577C320.861 153.577 320.861 153.577 320.946 153.577C321.2 153.746 321.369 153.492 321.538 153.492C321.538 153.408 321.454 153.408 321.454 153.408C321.454 153.323 321.454 153.323 321.538 153.323C321.708 153.238 321.792 153.323 321.877 153.492C321.792 153.746 321.877 153.915 322.046 154.085C321.961 154.254 321.708 154.254 321.623 154.423C321.454 154.508 321.285 154.592 321.031 154.592C320.777 154.677 320.608 154.762 320.523 155.015C320.438 155.1 320.438 155.1 320.354 155.185C320.269 155.269 320.185 155.269 320.1 155.354C320.015 155.439 319.846 155.439 319.761 155.354C319.677 155.269 319.592 155.354 319.508 155.438C319.508 155.523 319.508 155.523 319.508 155.608C319.508 156.285 319.508 156.285 320.1 156.369C320.354 156.454 320.608 156.369 320.861 156.285C321.031 156.2 321.115 156.2 321.285 156.2L321.877 156.454C321.877 156.285 321.961 156.2 322.131 156.369C322.215 156.539 322.131 156.708 322.131 156.792C322.131 156.877 322.131 156.877 322.131 156.962C322.131 157.046 322.046 157.131 321.961 157.215C321.961 157.3 321.877 157.3 321.792 157.385C321.708 157.469 321.538 157.554 321.454 157.554C321.369 157.554 321.285 157.639 321.2 157.639C321.115 157.639 321.115 157.638 321.031 157.554L320.946 157.639C320.946 157.723 320.861 157.723 320.861 157.723C320.777 157.723 320.692 157.723 320.692 157.808H320.608C320.438 157.892 320.354 157.977 320.354 158.146C320.269 158.738 320.438 159.162 320.692 159.669C320.861 159.838 321.031 160.008 321.2 160.177C321.285 160.262 321.369 160.262 321.454 160.346C321.538 160.431 321.623 160.431 321.708 160.431C321.792 160.431 321.792 160.515 321.877 160.515C322.131 160.685 322.469 160.769 322.808 160.769C322.977 160.769 323.146 160.769 323.315 160.769C323.485 160.769 323.654 160.769 323.823 160.769C324.161 160.769 324.5 160.854 324.838 160.685C325.008 160.6 325.177 160.515 325.261 160.346C325.431 160.177 325.6 160.008 325.685 159.838C325.685 159.754 325.769 159.754 325.854 159.669C326.108 159.585 326.361 159.415 326.615 159.669H326.785C327.038 159.669 327.208 159.838 327.377 159.923C327.8 160.177 328.138 160.431 328.561 160.6H328.646C328.815 160.685 328.9 160.6 329.069 160.6C329.154 160.6 329.238 160.6 329.238 160.685C329.238 160.685 329.323 160.769 329.323 160.854C329.154 161.023 329.154 161.277 329.238 161.531V161.615C329.069 161.869 328.985 162.123 329.069 162.377C329.154 162.715 329.323 163.054 329.069 163.392C328.9 163.731 328.815 164.069 328.561 164.408C328.392 164.577 328.223 164.662 328.054 164.746C327.969 164.831 327.8 164.831 327.715 164.915C327.377 165.254 327.377 165.592 327.461 166.015C327.546 166.185 327.546 166.354 327.377 166.438L327.292 166.523C327.038 166.777 326.869 166.946 326.615 167.2C326.446 167.285 326.361 167.539 326.192 167.623H326.108C326.023 167.623 325.938 167.623 325.938 167.454C325.854 167.708 325.685 167.877 325.685 168.131C325.177 168.808 324.923 169.485 324.585 170.246C324.585 170.5 324.5 170.754 324.5 171.092C324.415 171.431 324.415 171.769 324.331 172.108C324.331 172.108 324.331 172.192 324.246 172.192C323.908 172.108 323.823 172.362 323.738 172.615C323.738 172.785 323.654 172.954 323.569 173.123C323.485 173.292 323.485 173.377 323.4 173.546C323.315 173.631 323.231 173.715 323.146 173.715L322.808 174.139C322.808 174.223 322.723 174.308 322.638 174.308C322.554 174.308 322.469 174.223 322.385 174.223C322.385 174.308 322.469 174.392 322.385 174.477C322.385 174.477 322.3 174.477 322.3 174.562C322.215 174.562 322.131 174.562 322.131 174.731C322.046 174.985 321.792 174.985 321.623 175.154C321.369 175.408 321.115 175.577 320.777 175.746C320.608 175.831 320.354 175.915 320.185 176.085C320.015 176.254 319.846 176.339 319.677 176.508C319.423 176.677 319.169 176.931 319 177.185C318.915 177.269 318.915 177.354 318.831 177.438C318.661 177.523 318.577 177.692 318.323 177.692C318.238 177.692 318.238 177.692 318.154 177.608C317.985 177.438 317.9 177.185 317.731 177.015C317.646 176.846 317.561 176.677 317.392 176.508C317.308 176.339 317.138 176.254 316.969 176.254C316.715 176.169 316.546 175.915 316.461 175.662C316.461 175.492 316.377 175.408 316.377 175.239C316.377 175.154 316.377 174.985 316.292 174.985C315.954 174.815 315.7 174.562 315.446 174.477C315.277 174.392 315.023 174.477 314.854 174.562C314.6 174.646 314.346 174.646 314.008 174.646C313.923 174.646 313.838 174.646 313.838 174.646C313.5 174.646 313.246 174.562 312.908 174.562C312.569 174.562 312.231 174.562 311.892 174.392C311.723 174.308 311.554 174.308 311.385 174.139C311.385 173.885 311.469 173.546 311.469 173.292L311.215 172.869C311.131 172.869 311.046 172.785 310.961 172.7C310.877 172.615 310.792 172.531 310.708 172.362C310.538 172.108 310.369 172.023 310.115 171.938C310.031 171.769 310.031 171.515 309.946 171.346C309.946 171.177 309.861 171.092 309.777 171.008C309.692 170.923 309.608 170.923 309.608 170.754C309.608 170.585 309.608 170.5 309.692 170.331C309.692 170.246 309.777 170.077 309.861 169.992C309.861 169.908 309.946 169.823 310.031 169.739C310.031 169.654 310.115 169.654 310.115 169.569C310.2 169.231 310.031 168.977 309.777 168.723C309.692 168.638 309.608 168.554 309.523 168.469C309.1 167.962 308.508 167.708 307.915 167.454C307.661 167.369 307.408 167.454 307.154 167.538C306.9 167.623 306.646 167.792 306.392 167.877L306.308 167.962C306.223 168.046 306.054 168.131 305.969 168.131C305.8 168.215 305.631 168.3 305.461 168.385C305.377 168.469 305.292 168.554 305.208 168.554C305.123 168.638 305.038 168.808 304.954 168.977C304.869 169.146 304.869 169.231 304.785 169.4C304.785 169.485 304.785 169.569 304.7 169.654C304.7 169.738 304.615 169.823 304.531 169.908C304.446 169.908 304.361 169.908 304.277 169.908C304.192 169.908 304.277 169.654 304.192 169.908C304.192 169.992 304.108 169.992 304.023 169.992C303.769 170.077 303.685 170.162 303.854 170.415C303.854 170.5 303.854 170.5 303.854 170.585C303.685 170.669 303.431 170.754 303.261 170.669C303.092 170.585 303.092 170.415 303.092 170.246C303.092 170.077 303.177 169.823 303.008 169.654C302.923 169.569 303.008 169.4 303.008 169.231C303.092 169.062 303.008 168.892 302.923 168.723C302.923 168.723 302.923 168.808 302.838 168.808H302.754C302.669 168.723 302.585 168.639 302.5 168.639L302.415 168.554C302.415 168.469 302.415 168.385 302.246 168.385C302.077 168.385 302.077 168.469 301.992 168.554H301.908C301.738 168.469 301.654 168.385 301.485 168.385C301.4 168.3 301.315 168.385 301.231 168.385C301.231 168.385 301.146 168.385 301.061 168.385C300.808 168.3 300.554 168.385 300.385 168.554C300.3 168.554 300.3 168.554 300.215 168.554L300.131 168.469C300.046 168.385 300.046 168.215 299.961 168.131C299.877 167.877 299.623 167.708 299.454 167.538C299.2 167.115 299.285 166.608 299.285 166.1C299.285 165.931 299.369 165.762 299.454 165.592C299.454 165.508 299.538 165.508 299.623 165.508C299.708 165.508 299.792 165.508 299.877 165.508C300.131 165.508 300.3 165.339 300.3 165.085C300.385 165 300.469 164.915 300.554 164.915C300.808 165 300.977 164.746 301.231 164.662C301.4 164.577 301.231 164.492 301.231 164.408C301.315 164.239 301.485 164.238 301.738 164.154C301.823 164.154 301.908 164.154 301.908 164.154C302.161 164.323 302.331 164.069 302.415 163.9H302.5C302.838 163.9 302.838 163.9 302.754 163.562C302.754 163.477 302.838 163.392 302.923 163.308C303.008 163.308 303.008 163.308 303.092 163.308C303.261 163.392 303.346 163.308 303.346 163.054C303.346 162.969 303.346 162.885 303.346 162.8C303.431 162.546 303.6 162.462 303.769 162.292C303.938 162.208 304.108 162.123 304.277 162.038C304.7 162.038 305.123 161.785 305.461 161.531C305.546 161.531 305.631 161.7 305.8 161.615C305.8 161.531 305.631 161.446 305.631 161.362C305.631 161.277 305.715 161.192 305.885 161.108C306.054 161.192 306.138 161.023 306.308 160.938C306.561 160.854 306.223 160.685 306.308 160.6C306.308 160.431 306.392 160.346 306.561 160.262C306.731 160.177 306.815 160.262 306.9 160.346L307.577 160.685Z" fill="#11152C"/>
<path d="M279.569 198.592V198.677C279.484 198.846 279.315 198.931 279.146 198.931C278.977 199.1 278.723 199.015 278.554 198.931C278.469 198.846 278.384 198.846 278.215 198.846H278.13C278.046 198.592 277.877 198.592 277.623 198.592C277.623 198.592 277.538 198.592 277.538 198.508C277.538 198.423 277.707 198.338 277.707 198.254C277.369 198.338 277.115 198.254 276.777 198.169C276.438 198.085 276.184 197.915 275.846 198C275.761 198 275.677 197.915 275.592 197.915C275.507 198 275.592 198.085 275.592 198.085C275.423 198.338 275.169 198.338 275 198.423C274.661 198.423 274.492 198.169 274.323 198C274.323 197.746 274.323 197.492 274.492 197.323C274.661 197.069 274.661 196.815 274.323 196.646C274.323 196.477 274.323 196.392 274.407 196.308C274.577 196.138 274.83 196.308 275 196.138C275.084 196.054 275.169 196.054 275.169 195.969C275.169 195.885 275.254 195.885 275.254 195.8C275.338 195.715 275.338 195.631 275.507 195.546H275.592V195.631C275.592 195.546 275.592 195.546 275.507 195.462C275.677 195.292 275.761 195.462 275.761 195.546C275.761 195.631 275.761 195.8 275.93 195.885C275.846 195.8 275.761 195.715 275.846 195.631C275.846 195.546 275.93 195.631 276.015 195.631C276.269 195.969 276.607 196.308 276.777 196.731V196.815C276.777 196.9 276.692 196.985 276.861 196.985C276.861 197.154 277.03 197.323 276.777 197.408C276.777 197.408 276.777 197.323 276.692 197.323C276.692 197.323 276.692 197.408 276.777 197.408C276.946 197.492 277.2 197.408 277.369 197.408C277.623 197.577 277.792 197.577 278.13 197.577C278.384 197.577 278.723 197.577 278.977 197.577C278.977 197.577 279.061 197.577 279.061 197.662C279.146 197.662 279.23 197.746 279.23 197.746C279.569 197.746 279.654 197.915 279.654 198.254C279.569 198.423 279.569 198.508 279.569 198.592Z" fill="#11152C"/>
<path d="M338.969 151.8C339.392 151.715 338.8 151.546 339.054 151.462C338.884 151.377 338.969 151.292 339.054 151.208C339.054 151.123 339.138 150.954 339.138 150.954C339.054 150.869 338.969 150.869 338.8 150.954C338.8 150.869 338.8 150.785 338.8 150.785C338.8 150.7 338.884 150.615 338.884 150.531L338.969 150.446C339.054 150.362 339.138 150.446 339.223 150.531C339.307 150.615 339.392 150.785 339.477 150.615C339.561 150.531 339.392 150.446 339.392 150.362C339.392 150.277 339.308 150.192 339.308 150.108C339.477 150.023 339.646 150.023 339.731 149.938C340.069 149.685 340.492 149.769 340.831 149.6C341 149.6 341.084 149.6 341.254 149.685C341.507 149.854 341.761 149.938 342.1 149.769C342.354 149.769 342.608 149.685 342.861 149.685C343.623 149.6 344.469 149.515 345.231 149.6C345.484 149.6 345.654 149.515 345.907 149.431C346.246 149.431 346.5 149.769 346.754 149.938C347.007 150.108 347.261 150.362 347.431 150.615C347.515 150.785 347.684 150.785 347.854 150.785C348.954 151.631 350.054 152.392 350.984 153.323C351.069 153.492 350.9 153.492 350.815 153.577C350.984 153.746 351.238 153.746 351.407 153.746C351.577 153.746 351.746 153.831 351.831 153.915C351.915 154.169 352 154.423 352 154.677C352 154.677 352 154.762 351.915 154.762C351.915 154.762 351.831 154.677 351.831 154.762C352.084 155.015 351.831 155.354 351.831 155.692C351.831 155.862 351.831 155.946 351.915 156.115C351.915 156.538 351.915 157.046 351.915 157.469C351.915 157.554 351.915 157.638 351.915 157.723C351.915 157.977 351.831 158.146 351.577 158.231C351.323 158.231 350.984 158.315 350.731 158.315C350.477 158.315 350.307 158.315 350.138 158.231L350.054 158.146C349.969 157.808 349.631 157.892 349.461 157.723C349.377 157.723 349.292 157.723 349.208 157.638C349.208 157.638 349.208 157.554 349.123 157.554C349.208 157.469 349.292 157.385 349.377 157.385C349.123 157.638 348.869 157.3 348.531 157.385C348.277 157.3 348.023 157.131 347.769 156.962C347.515 156.792 347.346 156.623 347.092 156.538C346.923 156.369 346.669 156.285 346.5 156.115C345.738 155.608 344.977 155.1 344.215 154.592C344.046 154.508 343.877 154.423 343.708 154.338C343.454 154.169 343.115 154.169 342.777 154.169C342.523 154.169 342.269 154.169 342.015 154.169C341.931 154.169 341.761 154.169 341.677 154.254C341.507 154.338 341.254 154.423 341.084 154.423C341 154.423 340.831 154.423 340.746 154.508C340.661 154.508 340.492 154.508 340.407 154.592C340.154 154.592 339.984 154.508 339.815 154.423C339.646 154.338 339.392 154.338 339.308 154.169C339.308 154.085 339.308 154 339.392 153.915C339.308 153.577 339.308 153.154 339.477 152.815C339.731 152.477 339.731 152.477 339.223 152.308C339.223 152.054 338.969 152.054 338.969 151.8Z" fill="#11152C"/>
<path d="M270.261 191.146H270.177C270.008 191.062 270.008 190.977 269.923 190.808C269.923 190.723 269.923 190.723 269.923 190.723H270.008C269.923 190.638 269.838 190.131 269.838 189.962C269.838 189.877 270.008 190.046 269.923 189.877C269.923 189.792 269.923 189.792 269.923 189.708C270.008 189.708 270.092 189.538 270.177 189.708C270.177 189.538 270.092 189.369 270.008 189.2C270.008 189.031 270.092 188.862 270.092 188.692C270.092 188.523 269.838 188.354 270.008 188.185C270.008 188.185 270.092 188.185 270.092 188.1C270.346 188.1 270.515 188.015 270.769 188.1C270.854 188.1 271.023 188.1 271.108 187.931C271.192 187.846 271.277 187.846 271.361 187.762H271.446C271.531 187.762 271.615 187.762 271.7 187.762C271.869 187.762 271.954 187.677 271.954 187.508C271.954 187.338 271.954 187.169 271.869 187C271.869 186.831 271.869 186.662 271.785 186.577C271.785 186.323 271.785 186.154 271.785 185.9C271.785 185.815 271.785 185.731 271.785 185.646C271.869 185.477 271.954 185.308 272.123 185.223C272.546 184.969 272.885 184.715 273.138 184.377L273.223 184.292C273.392 184.292 273.392 184.292 273.308 184.123C273.308 184.038 273.392 183.954 273.477 183.954C273.561 183.954 273.731 183.954 273.815 184.038C273.9 184.123 274.069 184.038 274.154 183.954C274.323 183.785 274.577 183.7 274.746 183.869C274.831 183.869 274.831 183.869 274.915 183.869C275 183.869 275.085 183.954 275.254 183.954C275.338 183.954 275.423 183.869 275.338 183.869C275.169 183.7 275.338 183.615 275.423 183.531C275.761 183.277 276.1 183.108 276.523 183.023C276.608 183.023 276.692 182.938 276.777 182.938C277.2 183.108 277.538 182.854 277.792 182.6C278.046 182.515 278.3 182.515 278.469 182.685C278.723 182.938 279.061 182.938 279.315 183.023C279.654 183.023 279.908 183.192 280.161 183.531C280.161 183.615 280.161 183.7 280.161 183.7C280.077 183.954 280.161 184.208 280.246 184.462C280.246 184.546 280.331 184.715 280.331 184.885C280.246 185.223 280.331 185.477 280.331 185.815C280.246 185.9 280.246 185.9 280.161 185.9C280.077 185.9 280.077 185.9 279.992 185.985C279.992 186.069 279.908 186.154 279.823 186.238C279.654 186.408 279.654 186.577 279.569 186.746C279.485 187.085 279.485 187.338 279.146 187.508C279.061 187.508 278.977 187.592 278.892 187.592C278.808 187.592 278.638 187.592 278.638 187.762C278.638 187.846 278.554 187.846 278.469 187.846C278.215 187.931 278.131 188.1 278.131 188.269C278.046 188.438 278.046 188.608 277.792 188.692C277.623 188.692 277.538 188.777 277.538 188.862C277.454 189.031 277.369 189.2 277.2 189.2C277.115 189.2 276.946 189.285 276.946 189.2C276.946 189.031 277.031 188.946 277.2 188.946C277.031 188.946 276.946 189.031 276.946 189.2C277.031 189.454 276.861 189.623 276.692 189.623C276.777 189.623 276.946 189.538 276.861 189.792C276.692 189.962 276.438 190.046 276.269 190.3C276.185 190.385 276.1 190.385 276.015 190.3C275.761 190.046 275.592 190.215 275.423 190.3C274.915 190.3 274.746 190.554 274.915 191.062C275 191.231 274.831 191.4 274.831 191.485C274.831 191.569 274.746 191.569 274.746 191.654C274.661 191.823 274.661 191.992 274.577 192.162C274.577 192.246 274.577 192.246 274.577 192.246C274.492 192.754 274.408 192.754 273.985 192.5C273.985 192.5 273.985 192.415 273.9 192.415C273.985 192.246 273.815 192.331 273.731 192.246C273.561 192.162 273.392 191.992 273.223 191.823C273.054 191.654 272.885 191.569 272.631 191.654C272.546 191.738 272.461 191.654 272.377 191.654C272.292 191.654 272.208 191.654 272.208 191.654C272.123 191.654 272.123 191.654 272.038 191.654L271.954 191.569C271.954 191.485 271.954 191.315 271.869 191.231V191.146C271.785 190.892 271.7 190.977 271.615 191.062H271.531C271.361 191.062 271.192 191.146 271.108 191.146C271.023 191.231 271.023 191.315 270.938 191.4C270.685 191.654 270.6 191.4 270.431 191.315C270.431 191.231 270.346 191.231 270.261 191.146C270.261 191.146 270.177 191.146 270.177 191.062C270.431 191.062 270.346 191.062 270.261 191.146Z" fill="#11152C"/>
<g opacity="0.32" filter="url(#filter0_f)">
<circle cx="176" cy="118" r="18" fill="#3856E1"/>
</g>
<circle opacity="0.32" cx="176" cy="118" r="15" fill="#3856E1"/>
<circle opacity="0.56" cx="176" cy="118" r="12" fill="#3856E1"/>
<circle cx="176" cy="118" r="9" fill="#3856E1"/>
</g>
<defs>
<filter id="filter0_f" x="150" y="92" width="52" height="52" filterUnits="userSpaceOnUse" color-interpolation-filters="sRGB">
<feFlood flood-opacity="0" result="BackgroundImageFix"/>
<feBlend mode="normal" in="SourceGraphic" in2="BackgroundImageFix" result="shape"/>
<feGaussianBlur stdDeviation="4" result="effect1_foregroundBlur"/>
</filter>
<clipPath id="clip0">
<rect width="352" height="303.854" fill="white"/>
</clipPath>
</defs>
</svg>
