<svg width="360" height="346" viewBox="0 0 360 346" fill="none" xmlns="http://www.w3.org/2000/svg">
<g clip-path="url(#clip0)">
<path d="M352.681 344.447H352.376V344.6H352.529L352.681 344.752V344.6H352.529V344.447H352.681ZM352.529 345.515L352.376 345.667L352.681 345.82V345.667L352.529 345.515ZM360 314.257L359.848 313.647L359.39 312.427L359.238 311.817V311.055V310.597L359.39 310.14L359.543 309.682L359.238 308.92V307.853V305.87L359.085 305.26L358.78 304.651L358.018 303.583L358.475 304.498V304.651V305.108L357.865 304.803L357.713 304.651L357.56 304.346L357.408 304.041V303.888L357.255 303.736L357.408 303.431V303.278V303.126V302.821H357.255L357.103 302.668V302.516V302.363V302.211L357.255 302.058V300.991V300.534V300.076L358.018 297.027V295.959L357.56 292.91L357.713 292.3L357.408 291.995L357.255 291.537V291.233L357.408 290.928V291.233L356.95 290.928L356.798 290.775L356.493 290.318L356.036 290.47H354.968L354.511 290.775L354.358 291.233V291.842L354.511 292.452L354.816 292.757V293.062V293.215V293.367V293.52L354.206 294.13L354.053 294.282L353.901 294.587V294.892L354.053 295.197V295.502L353.443 296.417L353.748 296.874L354.053 297.484L354.206 298.094L354.053 298.704L354.206 299.466L353.901 300.381L352.986 301.906H352.834L352.529 301.296L352.376 300.991L352.224 300.839L352.071 300.686L351.614 300.381L350.394 300.076H350.089L349.784 299.924H349.174L348.564 300.076L348.412 300.229L347.039 301.753L346.887 302.363L346.125 302.821L343.38 303.431L341.855 304.193H340.94L341.093 304.498L340.94 304.956L340.788 305.413L340.483 305.718L340.178 305.87L339.873 305.718L339.568 305.413L339.416 305.26L338.958 305.565V305.26L338.806 305.108V305.413L338.958 305.718L338.806 306.48L338.958 306.785L338.501 306.938L338.043 307.09L337.738 307.395L337.586 308.31V308.462V308.615H337.891L338.043 308.767L337.891 309.072L337.586 309.53V310.292L337.281 310.445L336.518 310.597L336.366 310.75V310.902L336.213 311.055V311.207V311.512L336.061 311.665L335.756 311.512L335.604 311.665L335.299 311.817H335.451L335.146 311.665V311.969V312.274L335.299 312.579L335.451 312.884L335.299 313.189L336.366 312.732H336.823L337.433 313.189L336.671 313.647L336.518 313.799V314.104V314.257H336.671L336.976 313.952L337.128 314.104V314.257V314.409L338.043 314.867L338.348 315.172V315.476H338.196H338.043L337.891 315.629L337.586 315.781L336.671 315.934L336.366 316.086L336.213 316.239L336.061 316.391H335.451H335.146V316.696L335.299 316.849L335.604 317.001L335.756 317.154L335.604 317.459L335.909 317.611L336.061 317.916L335.909 318.221L335.604 318.374V318.526H336.213V318.831L335.909 319.136L335.756 319.288H335.451H335.604H335.909L336.061 319.441L336.213 319.593V319.746L336.061 320.051H336.671L337.281 320.203L337.738 320.508L337.891 320.966L338.043 321.118L338.806 320.966H338.958L339.111 321.271L339.568 322.185L339.873 322.49L340.025 322.643V323.1H339.873L339.263 323.405L339.111 323.558L338.653 323.71L338.196 324.015L337.891 324.32L338.196 324.473L337.891 325.083L337.433 325.235L336.213 325.388L336.976 326.15L337.128 326.607L336.823 327.217L336.976 327.675L337.281 327.37L337.738 327.217H338.806L339.263 327.065L340.178 326.607H340.635H340.788L340.94 326.76L341.093 326.912L341.245 327.217L341.55 327.37V327.522L341.245 327.827V327.98L340.94 328.437H341.093V328.59L341.245 328.742L341.093 328.895L340.178 329.199H340.483L340.635 329.352L340.788 329.504L340.94 329.809L340.178 330.267L339.72 330.419H339.111V330.724L339.416 330.877V331.182L339.263 331.487L339.111 331.792L338.806 331.944L338.043 332.097L337.738 332.249H338.043L338.348 332.401H338.653H338.958L338.806 332.706V332.859H339.416L340.483 332.401H341.093L340.94 333.011L341.245 333.316L341.855 333.469H342.465L343.99 333.926H344.6L344.295 334.231L343.99 334.384L343.837 334.689L343.685 335.146L343.075 335.451L341.703 336.061L341.245 335.909L340.94 336.366L340.788 336.976L340.635 337.433L341.093 337.586V337.738L340.94 338.348L341.093 338.501L341.398 338.653L341.703 338.806H342.008L342.16 338.958L342.465 339.111V339.263L342.16 339.415L342.313 339.568H342.618H342.77H342.922L343.075 339.72V339.873V340.025L343.685 340.178L343.837 340.33L344.142 340.483L344.447 340.635L344.905 340.483L345.515 340.635L346.125 340.788L346.429 340.94L346.582 341.245L346.734 341.093H347.039V341.245L347.192 341.398L347.954 340.788L348.259 340.635V340.788L347.954 341.245L348.259 341.55L348.869 341.855L349.327 342.16H349.174L349.022 342.313L348.717 343.227L349.327 343.532L350.089 343.685L350.394 343.837L351.004 344.447L351.309 344.6L351.766 344.447L351.919 344.142L352.071 343.685L352.224 343.075L352.376 342.617L352.071 342.77L351.614 343.075L351.309 343.227V343.075L351.461 342.922L351.614 342.617L351.461 342.313L351.309 342.16V341.855H351.766L352.376 341.398L352.681 341.245L352.529 340.94L352.834 340.788L352.986 340.483L352.834 340.178L352.529 340.025V339.873V339.568V339.415V339.263L352.986 339.111L353.139 338.806L353.291 338.501L353.596 338.348L354.053 338.196L354.358 337.891L354.663 337.433V336.976L354.511 336.671L353.901 336.823L353.139 337.128L352.834 336.976L352.986 336.671L353.139 336.366V336.061H353.443H353.748L354.053 336.213L354.358 336.366V335.909V335.756H354.511H354.663L354.968 335.604L355.121 335.299V334.689H355.273L355.426 334.384L355.731 334.079L355.883 333.926L356.036 333.774V333.621V331.182L355.731 328.895L356.036 326.607V325.388L356.188 325.083L356.493 324.778L358.17 322.338L358.628 321.576L358.78 321.118L359.39 320.508L359.543 320.203V319.898V319.288V318.983L359.39 318.221L360 314.257ZM80.9657 84.3202V84.1677L80.8132 84.0152V84.1677V84.3202H80.9657ZM284.676 289.098H284.219L283.914 289.25L283.761 289.555L283.304 289.708L283.151 290.013V290.318H283.304L283.456 290.165L283.914 290.013L284.219 289.403L284.371 289.25H284.828V289.098L284.676 288.945V289.098ZM69.5299 162.541L68.615 162.084L68.1576 161.931L67.7001 162.084L67.3952 162.389L67.7001 162.999H69.6823L70.2922 163.151L69.9873 162.694L69.5299 162.541ZM73.1893 154.003L72.8844 153.698L72.122 153.24L71.817 152.935V152.478L71.9695 152.02V151.563L71.3596 151.258H70.9022H69.5299L69.9873 151.868L70.4447 153.24L70.7497 153.85L71.3596 153.545L71.9695 154.003L72.4269 154.765L72.7319 155.527L73.1893 155.832L73.3418 155.375V154.612L73.1893 154.003ZM2.13469 98.9581L1.98221 98.8056L1.52478 98.5006L0.914867 98.6531L0 99.263V99.568L0.609911 99.4155H0.914867L1.06734 99.7205H0.914867V100.025L1.3723 99.8729L2.59212 99.263V98.9581H2.13469ZM89.6569 179.619L89.8094 179.466V179.314L89.6569 179.161L89.5044 179.009L89.047 178.856L87.6747 179.161V179.314L87.9797 179.466L89.047 180.534L89.352 180.686L90.7243 180.381L93.1639 181.906L94.2313 182.058H94.3837L94.5362 182.211L94.8412 182.058H94.9936H95.2986L94.9936 181.449L94.5362 180.839L93.9263 180.534L91.4867 180.076L91.0292 179.924H91.3342V179.619L90.7243 179.771L89.9619 180.076H89.352L88.8945 179.314H89.1995L89.6569 179.619ZM278.424 290.165L278.272 290.318H278.119H277.967V290.47L277.662 290.623H277.052L276.747 290.775V290.928L277.357 291.233L277.662 291.385L277.967 291.233L278.272 291.08L278.577 290.775V290.318L278.424 290.165ZM49.7077 140.737L49.4028 140.584L48.4879 139.67V139.517L47.878 139.06L46.8107 138.45H46.5057L46.2008 138.297H46.0483L45.8958 138.602V138.755L46.0483 139.212L46.2008 139.822L46.3532 140.432V141.042L46.8107 141.347L48.183 141.652L50.1652 141.804L50.7751 141.652V141.042L50.4701 140.737H49.7077ZM95.4511 188.31L95.1461 188.005H94.8412L94.5362 188.158L94.2313 188.005L93.6214 187.395L92.859 186.785L92.0966 186.328L91.3342 186.175L91.9441 187.395L92.249 188.158V188.462L92.0966 188.767L92.554 189.377L93.1639 189.987L93.6214 190.292L94.9936 191.969L95.2986 192.427L95.4511 192.884L95.756 194.104L96.2135 194.257L96.5184 193.647L96.8234 192.732L96.9759 191.207V190.902L96.8234 190.597H96.061L95.9085 190.292L96.061 189.987V189.682L95.756 189.377V189.072V188.615L95.4511 188.31ZM324.015 80.2033L320.203 78.0686H319.746L318.374 78.2211L316.391 77.6112H316.086L315.477 77.9161L315.172 78.0686H315.019L314.409 77.9161H314.104H313.799L313.494 78.0686H313.189H312.884L312.732 77.9161L312.427 77.4587L312.274 77.3062L311.665 77.0013L310.597 76.8488L309.987 76.5438L309.682 76.0864L309.225 75.1715L308.92 74.8666V74.7141V74.5616L309.072 74.4091L308.92 73.7992L308.463 73.6468H307.395L307.243 73.1893H306.785L306.175 73.3418L305.718 73.4943L305.565 73.6468L305.413 74.2567L305.26 74.4091L305.108 74.5616H304.498H304.346L304.193 74.7141L303.888 75.1715L303.736 75.324H303.583L302.973 75.0191H300.839L300.534 74.8666L300.076 74.7141L299.161 73.9517H299.009L298.704 74.1042V74.2567V74.4091V74.5616L297.942 75.0191L297.332 74.5616L297.027 73.4943V72.122H296.569L295.044 71.2071H294.74H293.977L292.91 70.9022H292.605L292.452 71.3596L292.605 71.9695L292.757 72.5794L292.3 73.1893H291.995L291.08 72.8844H290.013L289.708 72.7319L289.403 72.2745V71.817L289.555 71.3596L289.403 70.7497H289.25L288.945 70.9022H288.793V70.7497V70.4447V70.2922V70.1398L288.64 69.3774L288.488 69.2249L288.183 69.0724L288.03 68.9199V68.7675V68.4625V68.31L286.353 66.7853L285.896 66.3278L285.743 65.8704L285.896 65.5654H286.353V65.2605V64.9555L285.133 63.7357L284.981 63.4307V63.2783V62.9733L284.828 62.6684L284.371 62.2109L282.084 61.1436H281.779L281.626 61.2961L281.169 61.601H280.864H280.712H280.254L279.644 61.2961L278.424 60.3812L277.814 60.0762H277.052L275.68 60.2287L275.832 60.5337H275.222H275.07L274.917 60.8386V61.1436V61.2961L274.612 61.4485L274.307 61.7535L274.003 61.906L271.868 62.0584L271.41 62.2109L271.105 61.1436L270.648 60.6861L269.123 60.3812L268.513 60.0762L268.056 59.6188L267.294 58.5515H266.989L266.379 58.2465H266.074L265.921 58.399L265.616 58.8564L265.464 59.0089L264.854 58.8564L264.396 58.5515L263.787 58.399L263.177 58.7039L262.872 59.1614V59.4663V59.6188H262.719H262.567H262.262L261.499 59.3138L261.194 59.4663H261.042L260.737 59.7713L260.432 60.0762L259.975 60.3812L259.822 60.5337L259.365 60.3812L259.212 60.0762V59.9238V59.6188V59.3138V58.8564L259.06 58.5515L257.992 56.4168H257.687L256.925 56.1118H256.773L256.62 55.9593H256.468L256.315 56.1118V56.2643L256.163 56.4168H256.01L255.705 56.2643L255.553 56.1118V55.9593V55.8069V55.1969L255.705 55.0445V54.892L255.553 54.2821L255.095 53.6722L254.638 53.2147H254.333H254.18L253.723 53.3672L252.961 53.5197L252.351 53.3672L251.893 53.0623L251.741 52.9098L251.436 52.6048L250.826 51.69L250.368 51.08L250.064 50.7751H249.911L249.301 50.6226L248.844 50.3177L247.929 49.4028L247.471 49.2503H247.166H246.861L246.404 49.4028L245.794 49.5553H245.337H245.184H244.879H244.574L244.422 49.2503V47.878V47.7255L244.117 47.2681V47.1156V46.8107L244.269 46.5057V46.3532V46.2008L244.422 45.8958V45.7433V45.5908V45.2859V45.1334V44.8285L244.117 44.2185L243.507 43.9136L243.05 43.7611L242.745 43.3037L242.897 42.6938L243.507 41.0165L243.812 40.4066V39.9492V39.6442V39.3393V39.1868L243.964 38.8818L244.269 38.1194H244.422L244.727 38.4244V37.967V37.662L244.879 36.8996V36.2897L244.574 35.9847L243.812 36.1372L243.507 35.9847L243.355 35.3748L242.745 35.6798L240.152 38.2719L240 38.5769V39.0343V39.1868V39.3393V39.4917V39.6442L239.848 40.1016L239.695 40.864L239.543 41.4739L239.39 41.7789L239.238 41.9314H239.085L238.018 42.0839L237.255 42.5413L234.663 43.7611L233.901 43.9136L230.699 42.9987L230.089 42.8462L229.327 42.9987L228.107 43.1512H227.802L226.429 42.3888H226.582V42.0839V41.9314V41.6264V41.3215H226.429L226.582 40.864L226.734 40.5591L226.887 40.4066L227.192 40.1016L227.344 39.9492L227.802 39.6442L227.954 39.4917L228.259 39.3393L228.564 39.1868V38.8818L228.412 38.5769V38.4244V38.2719L227.954 36.5947L227.649 36.4422H227.344L226.887 36.5947H226.734L226.582 36.4422V35.8323V35.6798L226.887 34.7649L227.039 34.155L227.192 33.3926L227.344 33.0877L227.649 32.7827L228.259 32.3253L228.412 32.0203V31.8678V31.7154L228.259 31.4104L227.954 31.1055L227.802 30.953L227.649 30.8005L227.344 30.648L227.039 30.8005V31.1055V31.2579H226.887V31.4104L226.582 31.2579H226.429L225.972 30.1906L225.82 29.8856L225.362 29.4282L225.057 29.2757L224.905 29.1233L224.142 28.2084L223.685 28.0559H223.38H223.075L222.008 28.5133L221.398 28.6658H221.093H220.94H220.788L220.483 28.5133L220.178 28.3609L220.025 28.2084L219.568 27.9034L218.501 27.751L217.433 27.9034H217.281H217.128L216.976 28.0559L216.518 28.8183V29.1233V29.2757L216.366 29.4282V29.7332L215.451 28.9708L215.299 27.446V25.6163L215.146 24.0915L214.689 23.3291L214.231 22.8717L213.621 22.5667L213.011 22.4142H211.487H211.334L211.029 22.2618L211.182 21.8043V21.4994L211.029 21.3469H210.877H210.572H210.267H210.114L209.962 21.4994V21.6518L209.809 21.8043H209.657L209.352 21.9568L208.437 22.2618L208.285 22.4142H208.132H207.675L207.217 22.2618L206.15 21.6518L205.845 21.3469L205.54 20.8895L205.388 20.432V19.2122L204.778 17.0775L204.473 16.0102L204.625 15.7052L204.778 15.4003L204.625 15.0953L204.473 14.4854L204.32 14.1804L204.015 14.028H203.71L203.558 13.723L203.405 13.2656L203.253 13.1131L202.795 12.3507L202.338 11.8933L201.881 11.7408H201.728L200.508 12.1982L199.746 12.3507L199.593 12.5032L198.526 12.8081L198.221 12.9606L197.916 13.1131L197.764 13.418L197.459 13.723L197.154 14.3329L196.696 15.0953L196.391 15.4003H196.239H196.086H195.934L194.257 14.6379L194.104 14.4854L193.952 14.3329L193.494 13.723V13.5705L193.342 13.418L193.037 12.6557L192.884 12.3507V12.1982L192.122 11.5883L191.97 11.2834V10.9784L191.817 10.8259L191.36 10.6734H191.207H190.75H190.597L190.292 10.521H190.14L189.987 10.3685V10.216L189.835 9.91105L189.682 9.75858L189.53 9.6061V9.45362V9.14867L189.682 8.69123V8.38628L189.072 7.62389L188.767 6.70902L188.92 6.40407L189.072 6.25159L189.377 5.94663L189.53 5.79415V5.64168V4.87929L189.072 4.26938L188.158 3.35451L188.005 2.59212V2.28717L187.7 0.914867V0.762389L187.548 0L187.243 0.304956L186.175 0.762389L184.193 1.3723L182.668 1.21982H182.516L182.211 1.3723L178.094 2.7446L174.13 3.04956L173.215 3.50699L172.757 3.35451L168.03 5.33672L167.268 6.09911L166.506 7.01398L166.048 7.47141L165.591 7.62389H164.981L164.828 7.77637L164.219 8.2338V8.38628V8.99619L164.524 10.3685L164.676 11.2834L164.524 12.0457L164.676 12.8081L164.066 14.3329L163.914 15.0953V15.8577L164.219 17.5349L164.371 19.3647L164.524 19.9746L165.133 21.0419L164.371 21.6518L164.219 23.1766V25.0064L163.761 26.2262V26.5311L165.133 27.5985V27.9034L164.219 27.751L163.761 28.8183L163.456 30.3431V31.5629L163.761 31.8678L164.828 32.3253L165.133 32.7827L165.286 33.2402L165.591 33.5451L166.048 33.6976H166.506V34.0025H165.896L166.048 34.3075L166.201 34.46H166.353H166.658V34.7649L166.353 34.9174H166.201L163.761 33.6976L162.846 33.8501L161.931 34.9174L161.321 36.8996L161.169 37.2046L160.864 37.5095L159.492 39.0343L156.29 41.6264L155.375 42.6938L154.765 42.8462L154.155 43.3037L144.091 46.5057H141.957L140.432 47.2681L139.517 47.878L138.602 48.183L135.553 50.0127L135.248 50.3177L132.046 51.8424L131.741 52.1474H131.436L130.216 53.2147L129.911 53.6722L128.844 57.0267L127.624 59.3138V59.6188V60.0762V60.3812L127.929 60.6861L128.081 60.8386L128.234 61.1436L128.691 61.4485L129.301 61.601H129.759H130.216L132.046 62.2109L134.028 62.5159L136.01 62.2109L137.687 61.1436L137.23 61.7535L136.773 62.2109L135.858 62.5159L129.759 63.8882L128.081 65.108L127.471 66.0229L127.319 66.1753L126.709 66.3278L125.947 66.9377L124.879 67.5476L120.915 68.4625L120.457 69.0724L118.17 67.7001L116.95 67.3952L116.188 66.9377L115.731 66.7853H114.053L112.986 66.3278L112.376 66.1753L111.461 66.6328H110.851L109.784 66.1753L105.667 65.8704L102.77 64.803L99.568 64.6506L99.1105 64.803L98.6531 65.2605L98.5006 65.7179L98.8056 66.0229V66.3278L98.3482 66.4803L98.0432 66.3278L97.7382 66.0229L97.5858 65.8704H97.2808L97.1283 66.0229H96.9759L96.8234 65.7179V65.5654L96.9759 65.413L97.1283 65.108V64.6506L96.9759 63.8882L96.6709 63.2783L94.8412 60.9911L94.5362 59.9238L94.0788 59.3138L93.7738 58.5515L93.9263 57.6366L94.0788 57.4841L94.2313 57.3316H94.6887V57.1792V56.8742L94.8412 56.5692L95.4511 56.1118L95.2986 55.5019L94.6887 54.2821L94.5362 53.6722L94.8412 53.3672L94.6887 53.2147L91.6391 52.6048H91.1817L90.1144 52.9098L89.8094 53.3672L89.1995 54.2821L88.8945 54.587L88.2846 54.892H87.9797L87.5222 54.7395H87.2173L86.9123 54.587L86.6074 54.892L86.3024 55.0445L86.1499 54.892V54.7395V54.587V54.4346H85.845L83.8628 53.9771L82.338 53.6722L81.7281 53.5197H81.5756H81.2706H81.1182V53.3672L80.9657 52.9098L80.8132 52.7573L80.6607 52.6048L79.8984 52.7573L79.5934 52.6048L79.2884 52.2999L78.9835 52.1474L78.3736 52.2999L78.2211 52.6048V53.2147L78.0686 54.1296L79.136 54.587L80.0508 54.7395L80.2033 55.0445L80.3558 55.3494L80.5083 55.8069L80.6607 56.4168V57.0267L80.5083 58.2465L80.3558 58.5515L79.5934 59.1614L79.4409 59.6188L79.5934 59.7713L80.2033 60.5337L80.5083 60.9911L80.6607 61.2961V61.4485V61.601L80.9657 62.2109V62.5159V62.8208V63.4307L80.8132 64.6506V65.108L80.9657 65.413H81.2706L81.5756 65.2605L81.8806 65.108V65.2605V65.413V65.7179L82.338 66.0229L82.9479 66.6328L83.4053 66.9377L83.7103 66.3278H83.8628L84.1677 67.0902V67.2427H83.7103L83.8628 67.8526L84.1677 68.31L84.9301 68.9199H84.7776L84.6252 69.0724L84.9301 69.5299L85.3876 70.9022L85.6925 71.3596L85.845 70.5972H86.3024L86.9123 70.9022L87.5222 71.0546V71.2071L86.9123 71.0546H86.4549L86.3024 71.3596V72.122L86.4549 72.8844L86.6074 73.6468L86.7598 74.2567L86.9123 74.1042L87.2173 74.4091L86.7598 74.7141H86.6074L86.4549 75.1715L86.3024 75.629V76.0864L86.4549 76.3913H86.7598L86.6074 76.8488V77.3062V78.2211V78.526L86.7598 78.831L86.9123 78.9835V78.831L87.0648 78.2211L87.5222 77.9161H88.1321L88.5896 78.0686V78.2211L87.9797 77.9161L87.6747 78.0686L87.5222 78.6785L87.2173 80.8132V80.9657L87.5222 81.1182L87.6747 81.2706V81.5756L87.8272 82.338L87.5222 82.033L87.3698 82.338L87.2173 84.1677L87.0648 84.6252L86.7598 84.9301L86.4549 85.0826V85.3875L87.0648 85.54L87.3698 86.1499L87.5222 87.0648V88.1321L87.8272 89.047L88.7421 89.8094L88.8945 90.7243L89.047 90.8767L89.352 91.0292L90.2668 91.3342L90.4193 91.4866V91.6391V91.9441V92.0966H90.5718L90.7243 91.9441V91.7916L91.6391 91.9441L92.249 92.249L92.7065 92.859L91.7916 92.554L89.047 93.0114L87.0648 92.7065L86.6074 92.859L85.3876 93.4689L83.4053 93.7738H81.5756L80.5083 93.4689L79.8984 92.859V91.9441L80.5083 90.8767L80.3558 90.5718V90.4193V90.2668V90.1143L77.9161 90.5718L78.0686 90.8767H77.1537L77.0013 91.0292V91.3342V91.6391V91.7916L76.5438 91.9441L76.2389 92.0966L76.0864 92.4015V92.7065L76.3914 93.1639L76.8488 94.2312L77.1537 94.3837H77.3062L77.6112 94.5362L77.7637 94.6887L77.9161 95.1461L77.6112 94.9936V94.8412L77.4587 94.6887H77.3062L77.4587 95.2986L77.7637 96.061L77.6112 96.3659L78.3736 96.8234L77.6112 97.2808L77.3062 97.5858L77.4587 96.8234L77.3062 96.3659L76.6963 95.4511V95.2986L76.8488 94.9936L76.5438 94.8412L76.2389 94.3837L76.0864 94.0788V93.6213L75.629 92.7065V92.554L74.5616 92.7065L73.1893 93.0114L73.3418 93.6213L73.4943 93.9263L73.6468 94.0788L73.3418 93.7738H73.0368L72.7319 93.9263L72.4269 94.3837L72.7319 94.5362V94.8412L72.4269 94.9936L72.2745 94.8412L72.122 94.3837V93.7738V94.2312L71.9695 94.5362L71.817 94.8412L71.6646 94.9936V94.5362V94.0788L71.5121 93.7738L71.2071 93.6213V93.4689L71.0546 92.554L70.9022 92.4015L70.2922 92.7065L69.8348 93.1639L69.3774 93.4689L68.615 93.1639L69.2249 92.4015L69.3774 92.249L69.5299 92.0966L69.6823 91.9441L69.8348 91.7916V91.4866H69.5299L69.2249 91.3342L69.0724 91.0292V90.5718L68.615 91.3342L68.0051 91.9441L67.2427 92.4015L66.6328 92.7065L66.4803 92.249H65.8704L64.803 92.554L65.2605 92.859H65.5654V93.0114L65.2605 93.4689L63.5832 94.5362H63.1258L62.9733 94.6887L62.6684 94.9936L62.0585 95.9085L61.601 96.3659L61.1436 96.5184H60.2287L60.0762 96.8234V97.2808V97.5858L59.7713 97.2808L59.4663 97.1283L59.3139 96.9758L59.0089 96.8234H58.8564L59.0089 96.6709L59.1614 96.5184L59.3139 96.2135V95.9085L57.9416 95.1461L57.3316 94.6887L57.0267 94.5362L56.8742 94.3837V94.2312V94.0788V93.9263V93.7738V93.4689L56.4168 92.249L54.892 90.8767L54.7395 90.5718L54.4346 89.9619L53.9771 89.6569L53.6722 89.352V89.047H53.8246L54.1296 88.8945V88.5896V88.4371V88.1321L53.3672 87.9797H52.1474L51.5375 87.6747V87.3698H51.2325V87.0648L51.69 86.7598L51.8424 86.6074H52.1474V86.4549L52.2999 86.1499L51.8424 85.9975H51.5375H51.2325L50.9276 86.1499L50.4701 85.9975L50.0127 86.7598L49.4028 88.4371H49.2503V88.1321L49.7077 87.5222L49.8602 87.2173L50.1652 86.3024L50.3177 85.9975L50.0127 85.6925V85.3875L50.1652 85.0826V84.6252L50.0127 84.3202L49.7077 84.1677L49.4028 84.3202L48.9454 84.9301L48.6404 84.7776L48.4879 85.0826L47.878 85.3875L47.1156 86.3024L46.9632 86.6074V87.0648L46.6582 86.9123V86.7598V86.6074L46.9632 86.3024L47.1156 85.6925V84.9301L46.9632 84.3202L46.6582 84.1677L45.8958 85.0826H45.7433H45.5909L45.2859 85.2351L43.1512 85.9975L42.9987 86.1499L42.6938 86.4549L42.5413 86.6074H42.2363H41.6264V86.4549V86.3024V86.1499L41.7789 85.9975H41.474L40.5591 85.54H39.7967V85.3875H39.6442L39.4917 85.6925L38.8818 86.6074L38.2719 86.9123L38.1194 87.2173L38.2719 87.8272L39.0343 88.8945L39.3393 89.047L37.967 89.352V89.6569V90.2668L38.1194 91.1817L37.8145 91.3342H37.0521L36.5947 91.0292V90.4193L35.6798 90.7243H35.3748L35.0699 90.5718L34.6125 89.9619H34.3075H33.2402L32.7827 89.8094L32.4778 89.352V89.8094V89.9619L32.3253 90.1143L32.0203 89.9619L31.8679 90.4193L31.7154 91.1817L31.8679 91.7916L31.5629 91.4866V91.3342V91.1817H31.4104L31.5629 91.9441L31.7154 92.249L31.8679 92.4015L31.7154 92.7065L31.8679 93.0114L31.7154 93.3164L31.4104 92.859L30.648 92.4015L30.3431 91.9441V91.7916H30.4956L30.648 91.6391L30.1906 91.4866H29.5807L28.8183 92.249L28.9708 91.7916V91.4866L28.8183 91.1817L28.5133 91.0292V90.7243H28.6658V90.5718L28.3609 90.4193V90.2668L28.5133 89.9619V89.6569L28.3609 89.5044L27.446 89.8094L26.9886 89.9619L26.6836 90.1143H26.3787L26.5311 90.4193V90.7243L26.3787 90.8767L26.2262 91.0292H26.0737L25.9212 90.8767L25.7687 90.7243H25.6163L25.4638 90.8767L25.0064 90.5718H24.3964L23.7865 90.7243L23.3291 90.8767L22.8717 91.1817L22.4142 91.6391L22.2618 91.9441L22.7192 92.0966V92.4015H22.4142L21.9568 92.249H21.6518H21.4994L20.737 92.7065H20.2795L20.432 91.9441L19.9746 91.4866H19.3647L18.7548 91.7916L18.1449 92.249L17.3825 92.4015V92.7065H17.5349L17.8399 92.859H17.23L16.3151 93.3164L15.8577 93.4689H14.028V93.6213L14.1804 93.7738V93.9263V94.0788V94.2312L14.7903 94.5362H14.3329L13.2656 94.2312L12.9606 94.3837L13.1131 94.8412L13.723 95.6036L13.418 95.756L12.6557 95.2986L12.1982 95.1461L11.4358 95.2986L10.9784 95.4511L10.521 95.756H10.6734L10.3685 95.6036L10.0635 95.4511L9.6061 96.061L8.99619 97.1283L8.69123 98.1957L9.30114 98.6531V98.8056L8.99619 99.1105L8.69123 99.568L8.53875 100.33V101.093L8.99619 102.16V102.618H8.53875L8.69123 103.38L8.99619 103.685L9.30114 103.837H10.521L10.6734 103.685V103.38V103.075V102.922L11.1309 103.075L12.1982 103.532L12.6557 103.685H13.1131L13.8755 103.38L15.0953 103.075L16.6201 102.16L17.3825 101.855L19.0597 101.55L19.5172 101.398L20.2795 100.94L20.737 100.788L18.2973 102.008L17.9924 102.16L16.6201 103.837V103.99H16.925L17.23 103.837L17.5349 103.685L17.6874 103.532L17.8399 103.837V103.99L18.4498 103.837L19.2122 103.227L19.5172 103.38V103.227L19.6696 103.075V102.922H19.8221V103.227V103.532L20.1271 103.38L20.737 102.922H21.1944L20.737 103.38L20.5845 103.532L20.432 103.685V103.837L20.1271 103.99L19.9746 104.142L19.8221 104.6H20.8895H21.0419L21.1944 104.905L21.4994 105.057L21.8043 104.905L21.9568 104.6L22.1093 105.057L22.4142 105.21H23.1766V105.515L21.1944 105.972L20.5845 105.82H20.8895H21.0419L21.1944 105.667L19.5172 105.82L18.4498 106.125H18.1449H17.8399L17.6874 105.972L17.5349 105.82L17.3825 105.667L15.2478 105.82L14.4854 105.21L14.7903 103.837L14.4854 103.685L14.1804 103.99L13.723 105.21V105.515V105.82L13.418 105.972H13.1131L12.9606 105.82H12.8081L12.5032 105.972V106.277V106.734H14.028H14.3329L14.4854 107.039V107.192L14.3329 107.344L14.1804 107.802V108.107L14.3329 108.412L14.6379 108.869L14.4854 109.174L14.1804 109.936L14.7903 109.784L15.2478 109.022L15.5527 108.259L15.8577 107.649L16.4676 107.497L17.8399 108.259L18.4498 108.107V108.412V108.564L18.6023 108.717L18.7548 108.869L19.8221 109.174L20.1271 109.479L20.2795 110.241L20.432 110.546L20.737 111.004L20.8895 111.461L20.5845 112.529L20.432 112.834L20.1271 112.986L18.7548 112.529L10.8259 114.358H10.6734V113.596H10.521V113.748V113.901V114.053L10.3685 114.358V114.663L10.216 114.816L10.0635 114.968L11.8933 115.426H12.8081H13.2656L13.723 116.188L14.028 116.036L14.3329 115.731L14.6379 115.578L14.9428 115.731L17.0775 117.408L18.1449 118.933L18.6023 119.543L18.7548 120.61L19.0597 121.525V122.135V122.44H18.7548H18.4498L18.2973 122.592V122.745V123.202V123.507L21.8043 123.659L22.4142 123.507L22.7192 123.355L23.6341 122.592V122.287H23.0241V121.982V121.83V121.677L22.7192 121.372V120.915L23.0241 120.762L23.4816 121.525L23.6341 121.22L23.939 121.067L24.244 120.915H24.5489V120.762L24.244 120.457L24.3964 120.152L24.244 119.543L24.5489 119.085L24.7014 119.695L24.8539 120.305L25.1588 120.762L25.4638 120.915H25.7687L26.0737 121.067L26.8361 121.677L26.9886 121.372H27.141H27.2935L27.5985 121.22L27.446 121.525V121.677H27.2935H27.141L27.5985 121.83L28.2084 121.22L28.3609 120.61L28.0559 119.848L28.6658 120L29.2757 120.457L29.7332 121.067V121.525L30.0381 121.677H30.1906H30.4956V122.135V122.287L30.648 122.44L30.8005 122.592L31.2579 123.507V123.659H31.7154L32.3253 123.507H32.9352L33.2402 123.812L34.46 123.05L34.6125 123.202L34.9174 123.659L35.3748 123.812H36.2897H36.4422L36.7471 124.117L36.8996 124.269H37.0521H37.662L38.5769 124.422H38.8818L39.1868 124.269V124.574L39.3393 124.727L39.6442 125.032L39.9492 125.794L40.7116 126.709L40.864 126.861L41.169 127.014L43.1512 126.557V126.252L42.9987 126.099L42.8463 125.947L42.6938 125.794L43.1512 125.642L43.9136 125.184L44.5235 124.574L45.1334 123.964V124.269L44.8285 124.574V125.032L44.5235 125.794H44.371H43.9136V125.947V126.252V126.404H43.7611V126.709L44.8285 126.861L45.2859 127.014L45.7433 127.319V127.471L44.8285 127.166H44.371L43.9136 127.319H44.5235L45.5909 127.624L46.2008 127.776L46.9632 128.691L47.1156 128.844L47.4206 128.691V128.386L47.2681 128.081L47.5731 127.929L47.2681 127.471V127.319L47.5731 127.166L47.7255 126.861L47.878 126.709L48.183 126.861V126.709H48.3355L48.183 126.252L48.0305 125.794L47.878 125.489L47.5731 125.337H47.878L48.183 125.489H48.4879L48.6404 125.032H48.7929V126.099H48.9454L49.2503 125.947L49.4028 125.794V126.404V126.557V126.709L47.7255 128.081L47.4206 129.149V129.606V129.759L47.7255 129.911L48.0305 130.064L48.3355 130.216L48.6404 130.673L48.9454 131.131L49.0978 131.741V132.656V133.113L48.7929 133.571V134.028V134.333L49.0978 135.4H49.2503L49.4028 135.248L49.8602 135.4H50.1652L49.7077 134.79L49.4028 133.875L49.2503 132.808L49.5553 131.588H49.4028L49.2503 131.436H49.0978L49.2503 130.978H49.5553L49.8602 131.131L50.1652 131.283L50.0127 131.436L49.8602 131.588L50.1652 131.741H50.6226L51.385 131.283L51.5375 131.436H51.69H51.9949L51.69 131.131L51.8424 130.673H51.9949L52.1474 131.283L52.2999 131.741L52.6048 131.893L52.7573 131.741L52.4524 131.131L52.7573 131.436L53.0623 131.741L53.2147 132.046L53.3672 131.893L53.6722 132.198V132.351V132.198V132.046V131.741L53.3672 131.436V131.283L53.0623 130.826V130.521V129.606V129.301L52.9098 128.844V128.539H53.0623V128.996L53.2147 129.301L53.3672 129.454H53.6722L53.3672 129.606V129.911V130.216L53.5197 130.673H53.6722L53.8246 130.521H54.1296V130.826H53.9771V131.131L54.892 130.978L55.3494 130.826L55.6544 130.368L55.8069 130.064L57.0267 129.911L57.6366 129.606L57.3316 129.454L58.094 129.606L58.399 129.759L58.7039 130.216L58.094 130.064L57.6366 129.911L58.8564 130.673L59.0089 130.826H59.3139H59.4663L59.6188 130.673L59.3139 130.368L59.6188 130.216L59.7713 130.064V129.759L59.4663 129.606V129.454L60.0762 130.216L59.9238 130.826L59.0089 132.198L59.1614 132.503L58.7039 132.656H57.9416L57.3316 132.503L57.0267 132.046L56.7217 132.656V132.961L56.5692 132.656H56.4168H56.2643L56.1118 132.808H55.9593L55.6544 132.046H54.892L54.587 132.351L54.892 132.656V132.808H55.0445H55.197L55.5019 132.961L55.6544 133.113L56.1118 133.875V134.028L56.4168 134.333L56.7217 134.485H57.0267H57.4841L58.7039 134.028H59.1614L59.9238 134.333L60.2287 134.18V133.266L60.3812 133.418H60.6861H61.2961V133.113L61.1436 132.961H60.9911H60.8386L61.2961 132.808H61.601H61.906L62.2109 132.503L62.5159 133.113L62.2109 133.571L61.7535 133.875H61.4485L61.7535 134.18H61.906L62.0585 134.028L62.2109 133.875H63.1258L63.8882 133.571H64.1931H64.4981L66.4803 134.333H66.9377L67.5476 134.18L68.0051 134.333H67.5476L66.6328 134.638L65.108 134.79L64.803 135.095L65.108 135.553L64.9555 136.315L65.2605 136.468H65.7179L66.1754 136.773L65.8704 137.23L66.3278 137.382H66.9377H67.3952L67.0902 137.535L66.1754 137.992L66.0229 138.297L65.8704 138.145H66.0229V137.992L65.5654 137.687L65.413 137.535H65.108L63.1258 138.755L64.1931 139.365L64.4981 139.975V141.042H64.6506L64.803 140.737V140.584L64.6506 140.28H64.803L64.9555 140.127L65.2605 140.584L65.8704 141.042L66.0229 141.499L65.5654 141.957L64.9555 142.109L64.0407 141.652H63.4307V141.804L65.7179 143.024H66.4803V142.872V142.719L66.6328 142.414L66.7853 142.262H66.9377H67.2427H67.7001L68.1576 142.414L68.7675 143.177L69.0724 143.482L69.5299 143.634H69.9873L70.4447 143.482L71.0546 142.872L71.817 142.719L72.122 142.414L72.2745 142.262L72.4269 142.109L72.5794 141.804L73.3418 141.347L76.6963 141.042L77.6112 141.347L77.9161 141.652L78.2211 141.804H78.831L79.4409 141.957L80.3558 142.414L81.1182 143.177L81.8806 144.091L82.338 144.396L83.4053 144.549L83.8628 144.854H82.4905L81.8806 144.549L81.2706 143.939H80.8132L79.7459 143.787L78.6785 143.024V142.719H79.2884L78.9835 142.414L78.831 142.262H78.526H78.2211L78.3736 142.567H77.9161L76.6963 142.262L76.5438 142.109L76.3914 141.804H76.2389H76.0864L75.9339 141.957L73.6468 142.262L73.0368 142.567L72.8844 142.872L72.7319 143.329V143.787V144.244V144.854L73.0368 145.464V145.921V146.531V146.836L72.8844 146.989L71.6646 146.836L71.5121 146.989L71.2071 147.294L70.9022 147.598L71.6646 147.903L74.5616 148.361L76.0864 149.123L76.3914 149.428L76.5438 149.886L76.8488 150.496V151.105L76.3914 151.41L76.2389 152.173L75.7814 153.393L75.4765 154.003L74.5616 154.612L74.2567 155.07L74.4091 155.527L73.7992 155.985L73.6468 156.29V157.052V157.662L73.7992 158.272L73.9517 158.882L74.2567 159.187L74.8666 159.339L75.629 159.949L77.0013 161.321L77.7637 162.846L77.9161 162.999H78.3736L78.831 163.151L79.136 163.456L79.4409 164.371L79.7459 164.676L80.0508 164.981L80.5083 165.438L80.6607 165.896L80.8132 166.353L80.9657 166.811L81.4231 166.963L81.2706 167.573L81.8806 170.165L82.1855 170.47L82.338 170.623L82.4905 170.47V170.165L82.338 169.555V169.25L82.643 169.708L82.9479 170.47L83.1004 170.775L83.4053 170.928L84.1677 171.08L84.9301 171.842L86.3024 171.995L86.6074 172.3L86.4549 172.757L87.0648 172.91H88.7421L89.352 173.062L89.8094 173.52L90.2668 174.13L90.4193 175.044L90.7243 175.807H91.3342L92.7065 175.349L93.0114 175.502L93.4689 175.959L94.2313 176.417H94.3837L94.6887 176.569L95.1461 177.179L95.6036 177.789L96.2135 177.942V176.874L97.1283 176.264H98.1957L98.8056 177.027V177.484L98.9581 177.789V178.094L98.8056 178.551L97.1283 179.619L96.8234 180.076L96.9759 180.686L96.6709 180.839L96.5184 181.144L96.366 181.449V181.753L96.6709 182.058H96.8234H96.9759L97.2808 182.211H97.5858H97.7382V182.363V182.516V182.668H97.8907H98.0432L98.6531 183.126L98.3482 183.431V183.583L98.5006 183.736L98.6531 183.888H98.8056L99.1105 184.041H99.263V184.498L99.4155 184.956V185.26L99.568 185.565L100.025 185.718L100.178 185.87L100.33 186.023V186.175V186.328L100.025 186.938L99.7205 187.243H99.4155L98.9581 186.938L99.263 188.158L99.1105 189.072L99.568 189.377L99.4155 189.53L99.1105 189.835L98.9581 189.987L99.1105 190.14L99.263 190.445L99.4155 190.75V191.055L99.263 191.512L99.1105 191.665H98.8056H98.6531L98.1957 191.817L98.0432 192.122L97.8907 192.274L97.7382 192.427L97.5858 192.579L97.2808 192.732L97.4333 193.037L97.5858 193.494L97.7382 193.952V194.409L97.8907 194.714L98.5006 195.476L100.635 197.306L101.093 197.916L99.4155 197.154L99.1105 196.849L98.8056 196.696L97.2808 194.867H96.8234L95.2986 195.324V195.781L94.8412 198.221L95.2986 198.374L96.2135 198.221L96.6709 198.526L96.9759 198.983L97.2808 199.288L97.7382 199.593L98.1957 199.746L98.9581 200.051L100.33 201.423L101.093 201.728L101.245 201.881L101.398 202.49V202.643L104.905 205.235L105.972 206.607L106.582 207.522L107.039 208.437L107.802 210.572L108.107 211.944L109.022 218.653L109.327 219.72L109.784 220.635L110.699 221.245L111.766 221.55L112.834 222.008L113.443 223.075L112.834 222.618L112.224 222.313L111.614 222.16H110.851L111.309 222.465L111.919 223.075L112.224 223.837L111.919 224.752L112.071 225.21V226.125L112.224 226.582L111.919 226.277L111.766 225.667L111.614 224.905V224.142V223.532V223.227L111.461 222.77L111.309 222.465L110.546 222.008L109.632 221.093L108.869 220.025L107.954 218.043V217.586L107.497 214.384L107.192 213.164V212.402L106.887 211.334L106.125 210.267L103.075 206.912L102.77 206.76L101.703 206.15L100.025 204.93L99.8729 204.625L99.568 204.168V204.015V203.863V203.71V203.558V202.948V202.795L99.263 202.643L98.8056 202.795L98.5006 203.405L97.5858 205.083L97.4333 205.54L96.9759 212.859L95.9085 218.348L94.3837 235.426L94.5362 234.968L94.6887 234.206L94.9936 232.681L96.061 231.004L96.2135 230.699V230.546V230.394L96.366 230.241H96.5184H96.6709L96.8234 230.394H96.9759L97.2808 230.546L99.1105 232.224L99.4155 232.681H99.1105L99.7205 233.291V233.901L99.263 234.206L98.3482 234.358L96.8234 234.053H96.2135L95.756 234.663L95.2986 236.188V236.645V236.798L94.6887 237.713V238.018L94.9936 238.933V239.39L94.8412 241.525L94.2313 246.252L92.554 255.858L91.6391 260.28L91.0292 262.262L89.9619 267.751L89.352 269.733L89.1995 270.801L88.8945 272.02L88.7421 272.478L87.5222 273.545L87.2173 273.85L87.0648 274.155L86.6074 275.222L86.4549 275.527L85.9975 275.832L85.3876 276.137L84.7776 276.29L82.643 276.595L82.1855 276.747L82.033 277.052L81.7281 276.747L81.5756 277.662V278.729L82.338 279.034L82.643 279.492L82.7954 280.102L82.9479 280.407H83.1004L83.4053 280.254H84.0152L84.4727 280.102H84.7776L85.2351 280.254L85.54 280.407V280.559V280.712V281.017L85.6925 281.626L85.845 281.779L86.1499 281.931H86.4549H86.7598L86.9123 281.779L87.0648 281.474L87.2173 280.864L87.5222 280.712H87.9797L88.7421 280.864L89.8094 281.474H90.1144L90.4193 281.321H90.7243L91.4867 282.084L91.6391 283.304L91.3342 284.676L91.0292 285.743L90.7243 286.201L89.6569 287.268L89.352 287.573L89.6569 288.335L90.1144 288.793L90.7243 289.098L91.3342 289.25H92.0966L92.554 289.098L92.7065 288.64V287.726L92.859 287.116L93.3164 286.658L93.7738 286.506L94.3837 286.658L93.7738 287.116L93.6214 287.573V288.03L94.0788 288.488L94.5362 288.793L95.9085 289.098L96.8234 289.555L97.7382 290.165L98.6531 290.013L98.9581 290.165L99.263 290.47L99.4155 290.623L100.33 290.775L100.635 291.233L100.94 291.537L101.855 292.147L102.77 292.452L104.752 292.605L106.582 292.3L107.192 292.452L107.649 293.672V293.977L107.497 294.13V294.282L107.649 294.587L107.954 294.892H108.107H108.412H108.717L109.632 295.349L110.089 295.654L111.004 296.874V297.027V297.179V297.332H111.156H111.309H111.461L111.614 297.484V297.942L111.766 298.094H111.919L112.376 297.789H112.529V297.027H113.138L114.511 297.637H115.273L115.883 297.332L117.103 296.417L117.255 296.569L117.408 296.417L117.56 296.112L117.713 295.807L118.018 296.112L119.543 297.027L119.848 297.637L120.457 297.789L121.22 297.637L121.677 297.484V298.094L121.83 298.704L122.135 299.161L122.592 299.466L122.745 299.619V299.924V300.076L123.05 300.229L123.355 300.381L123.507 300.534L123.659 300.686L123.812 300.839L124.727 301.144L125.489 300.991L127.471 300.229L128.996 300.076L129.454 299.771H129.911L131.131 300.076L131.588 300.229L132.046 301.144L132.351 301.601H132.656L133.418 300.686L133.875 300.229L134.333 300.076L134.943 300.686V300.839V301.144L135.095 301.296L135.553 301.449H136.01L136.925 301.144L137.382 301.296L140.432 301.144L141.347 301.296L141.652 301.144L141.804 300.839V300.381L141.652 299.924L141.347 299.619L141.042 299.466L141.194 299.161L141.347 299.009L141.499 298.856L141.194 298.551L141.499 297.637V296.874L141.652 296.417L142.262 296.264H142.872H143.329L144.244 296.569L144.701 296.722H145.159H145.616L146.684 297.332L147.446 297.637L147.598 297.789L148.056 298.246L148.208 298.399L148.513 298.246L148.666 298.094H148.971H149.276L149.581 298.399L149.733 298.551L151.868 298.704L152.325 298.856L152.783 299.314L152.935 299.771L153.24 300.229L153.545 300.686L154.003 300.991H154.155L155.07 300.686H158.119L158.729 300.839L158.577 301.296L158.729 301.449H159.034L159.187 301.601L159.644 302.363L160.102 302.973L160.559 304.041L160.864 304.498L161.321 304.346L161.779 302.973H162.541L163.304 302.668H163.609L164.981 303.583L165.286 303.736L168.03 304.041L167.726 304.651L168.183 304.956L168.793 305.108L169.098 305.565H168.488L168.03 306.023L167.726 306.48V307.243V307.395L168.183 307.548L169.708 307.7L170.165 307.853L171.537 308.767L172.147 308.92H172.605L172.91 309.072L173.215 309.682L173.52 310.902L173.825 311.36L174.282 311.817L174.587 311.969H174.892H175.502L175.807 311.817L176.112 311.665L176.569 311.207L177.179 310.75L177.332 310.597L177.484 310.14L177.637 309.987L178.094 309.835L179.161 309.987L180.686 309.53L181.449 309.377L182.211 309.682L182.516 309.987L183.888 310.597L184.651 310.75H184.956L185.108 311.36L185.565 311.817L186.023 312.122L186.48 312.274L186.938 312.579L187.243 312.732H187.395L187.548 312.579L187.853 311.969L188.005 311.817H188.463L189.53 312.274L189.987 312.427H190.597V312.274L190.292 311.969L190.14 311.36L190.292 311.055L191.36 310.292L191.817 310.14H192.274L193.189 310.292H193.647L193.952 309.987L194.714 309.225L195.019 308.92H195.476H195.934H196.391L197.154 308.31L198.069 308.615L198.526 308.31H198.679H199.441H199.593L199.746 308.615L199.898 308.92L200.203 309.225L200.508 309.377L200.966 309.53H201.576H202.186L203.863 309.225V308.158L203.1 307.09L201.423 305.413L201.118 304.803L200.813 302.363V301.906V301.753L200.661 301.601H200.356H200.203L200.051 301.296L199.898 300.991V300.686L200.203 300.381L200.508 300.839L200.661 300.991V300.686L200.966 299.009V298.399V297.789L200.813 297.179L200.661 296.874L200.356 296.722L199.746 296.569H199.288L199.136 296.417L198.983 296.264L198.831 295.807L198.679 295.654L199.593 294.587L199.898 294.435L200.051 294.282V293.52L200.203 293.367H200.508L200.813 293.52H200.966L201.423 293.215L201.271 292.91L200.661 292.3L200.356 291.842V291.385L200.508 290.928H201.118L200.813 291.537L200.661 291.842L200.813 292.147L201.118 292.3L201.271 291.995L201.423 291.69L201.576 291.537L201.728 291.385V290.928L201.881 290.013V289.708L202.338 289.25L202.49 288.793L202.338 288.488L201.881 288.183L201.423 287.726L201.271 286.811L201.423 286.506L201.728 286.353H202.338L202.49 286.506L202.186 286.811L201.728 287.116V287.268L202.033 287.421L202.186 287.573L202.338 287.726H202.49L203.1 286.658L203.253 286.201L203.558 285.896L204.168 285.438L204.32 285.133L204.625 284.523L204.778 284.219L205.235 283.761L208.59 281.169L209.504 280.712L210.114 280.559L211.182 281.017L211.639 280.864L213.621 278.424L214.536 277.814L217.281 276.29L222.16 272.325V272.02L221.398 272.325L220.635 272.935L219.263 274.307L218.043 275.375L217.281 275.832H216.518V275.68L218.501 274.765L218.806 274.307V273.85L218.958 273.545L220.635 272.173L221.245 271.715L222.77 271.258L223.837 270.496L224.6 270.191L225.972 270.038L225.667 270.496L225.362 270.801L224.905 270.953L224.447 271.105L223.227 271.258L222.77 271.41L222.465 271.868L223.227 271.41L224.752 271.258L226.125 271.41L226.734 271.868V272.02L227.192 273.85L227.344 274.155L227.497 274.307L228.107 274.612L228.717 274.765L236.341 275.07L237.408 275.222L238.018 275.68V276.29L237.865 277.052L237.713 277.662V277.967L238.323 278.272L239.39 278.577L242.897 278.729L243.812 278.424L243.202 277.814L242.44 277.205L241.83 276.442L241.525 275.375V272.935L241.372 272.63L240.61 271.41L241.067 271.715L241.372 272.173L241.677 272.783L241.83 273.24V273.85V275.832L242.287 276.747L243.202 277.51L244.269 278.119L245.184 278.424L245.032 277.814L244.727 277.662L244.574 277.51L244.727 277.052L245.032 276.9L245.642 276.747L245.794 276.595L246.404 276.29L247.776 277.052L248.234 276.9L248.844 277.052L249.301 276.595L249.606 275.832L249.301 274.917L248.996 274.612L248.691 274.46L248.386 274.155L248.234 273.545V273.24L248.386 272.783L248.539 272.325L248.691 272.173L248.844 272.325L249.149 272.783V272.935H249.759H249.911L250.521 273.088L250.673 273.24V273.545L250.826 274.003L251.436 274.612L252.046 274.765L252.808 274.46L253.571 274.003V274.765L253.266 275.527L252.808 276.137L252.351 276.442L251.588 276.595H249.454L248.691 277.052L248.386 277.662L248.539 278.424L249.149 279.034L249.759 279.187H251.283L251.588 279.034L252.656 279.187L255.858 278.424L256.468 278.882V280.559L256.62 280.712L256.773 280.864L256.925 281.017H257.078V281.321V281.474L256.925 282.084L256.773 282.389V282.694L256.925 282.999L257.23 283.151H257.992L258.297 283.304L258.755 283.151H259.365H259.975L260.28 283.304L260.432 283.456L260.737 283.304L261.042 283.151L261.499 282.846L261.652 282.999L262.262 283.761L262.414 283.914L262.719 284.066L262.872 284.219H263.024H263.177H263.329V284.066V283.914H263.482H264.701L265.159 284.219L265.006 284.828L265.921 285.286L266.379 285.438H266.989L267.141 285.591V286.048L267.294 286.201H267.751H267.903L268.056 286.353L267.294 286.811L267.141 287.116L267.294 287.573L267.446 287.726L268.666 288.183H269.276L269.581 288.03V287.573L269.733 287.268H270.191L270.953 287.421V287.116L270.496 286.963L269.886 286.353L269.428 286.201L270.191 285.896L270.648 285.743H271.105L270.953 285.896V286.201V286.353L271.563 286.048H272.325L273.088 286.201L273.545 286.506L273.698 286.658L275.527 286.811L275.68 286.963V287.268L275.527 287.878L275.375 288.03H274.46V288.183L274.917 288.335H276.595L277.052 288.183V288.03H276.9H276.747L276.442 287.878L276.747 287.116V286.506L276.9 286.048L277.51 285.743H277.814H279.492H279.644L279.949 285.896H280.254L280.407 286.048L280.559 286.353V286.658V286.811H281.474L281.779 286.658L281.474 286.048L281.626 285.743V285.286L281.779 284.828L282.084 284.676H282.846L283.304 284.371L283.914 284.219H284.219H284.828H285.133L285.438 283.914L285.743 283.456L286.201 283.151H286.811L286.963 283.304L287.116 283.609V283.914L287.268 284.066H287.421L287.878 283.914H288.03L287.878 283.456L288.945 282.694L289.098 282.541V282.389L288.945 282.236L288.793 282.084V281.931V281.626V281.474L288.945 281.321V281.169L289.098 280.559V280.407L286.811 280.559H286.658V280.254L286.963 279.949L287.573 279.644L288.03 279.492L288.183 279.187L288.335 278.882L288.64 278.424L288.945 278.119L289.403 277.967L289.555 277.814L289.708 276.747L289.86 276.137L290.165 275.527L290.47 275.222L290.928 275.527L291.537 275.68H292.757V275.527L292.91 275.222L293.062 275.07V275.222L293.215 275.375H293.367H293.52H293.672L293.825 275.222V274.765V274.612H293.977H294.13L295.044 273.088V272.935V272.325L295.349 271.868L295.654 271.563L296.112 271.258L296.417 270.953L297.027 271.258L297.637 271.105L298.247 270.801L298.856 270.648V270.801V271.105L299.009 271.258H299.314L299.466 271.105V268.971L299.619 268.666L299.771 268.513L299.924 268.208L300.076 267.903L300.534 267.751H300.839L301.144 267.598L301.296 267.446L301.601 267.294L302.058 266.531L302.363 266.226L302.668 266.379H302.821L304.041 266.226L303.888 266.531V266.684H304.346V266.379V265.921L304.498 265.616L304.956 265.464V265.006L305.26 264.549L305.718 264.396L306.328 264.701L306.48 264.396L306.785 264.244H306.938H307.09H307.243L307.395 264.091V263.939V263.482V263.329H307.548H307.7L308.005 263.177L307.548 261.499L307.395 260.584L307.7 259.822L308.767 258.602L309.225 257.84L310.597 256.773L311.055 256.163L311.207 255.705L311.512 254.943L311.665 254.485L311.97 254.18L312.274 253.875L312.579 253.571V252.961L312.274 252.198L311.665 251.588L311.36 250.978L311.665 249.911L310.902 249.759L309.835 250.368H309.225L304.956 251.588H303.888H303.583L303.431 251.436L303.278 251.131L303.126 250.826L302.821 250.673L302.211 250.521L301.753 250.368L299.161 248.691L298.094 248.386L296.722 247.624L296.417 247.471H296.112L295.807 247.624H295.502L295.197 247.471L295.044 247.166L294.892 246.861V246.557L294.74 246.252L294.587 245.947L294.13 245.642L293.825 245.337L293.672 245.032L293.367 244.269L293.062 243.964L292.452 243.355V243.202L292.3 242.897V242.745V242.592L292.605 241.525L292.757 241.22L293.52 240.762L292.91 240.152L292.147 239.39L291.69 238.475V237.408L291.995 236.95L293.215 236.036L294.13 234.511L294.435 234.206L294.13 233.443L294.282 232.681L294.74 232.071L295.349 231.766H295.807L296.722 232.071H297.179L297.027 231.614L296.264 230.241L296.112 229.936L295.959 229.022L295.807 228.259L295.959 227.649V227.344V227.192V227.039L295.502 226.582L294.282 226.125H293.825L292.605 226.429L292.147 226.277L290.47 225.362L289.555 224.6L289.098 223.837V221.855L288.945 220.788L288.335 220.33L287.421 220.178L287.268 220.025L286.963 219.568V219.263V218.806L286.506 218.501L286.048 217.891L286.353 217.433L286.811 217.128L287.573 216.671H287.878H288.335H288.64L288.793 216.518L289.25 216.213L289.403 216.061L290.318 216.213L291.233 216.671L292.147 216.976L292.91 216.518V216.366L292.757 216.213L292.605 216.061L292.757 215.756L292.91 215.604H293.52H293.672L293.977 215.299L294.435 214.536L294.74 214.231L295.654 213.774L296.569 213.469L296.722 213.621L297.027 213.926H297.179L297.332 213.774L297.789 212.859L298.399 212.249V211.639L298.094 210.877L297.942 209.809L298.094 209.657L299.009 208.742L299.466 207.827L299.619 207.217V206.76L299.466 206.607L298.399 206.15L298.094 205.845L297.942 205.388L297.789 204.93L297.637 204.625L296.569 203.863L295.349 203.253L295.197 202.795L295.044 201.423L294.892 201.118L294.74 200.661V200.356V200.051L295.044 199.441V199.288L294.892 198.831L294.587 198.679L293.825 198.526L293.52 198.221L293.062 197.611L292.757 197.459L292.147 197.306L291.537 196.849L290.928 196.086L290.623 194.714V194.104V195.172L290.775 194.562L291.08 194.104L291.537 193.952L292.3 193.799V193.647L292.452 193.494L292.605 193.342L292.91 193.494H293.062H293.672L294.282 193.342L294.74 193.037L295.349 192.579L295.654 191.969L295.807 191.512L295.959 191.055L296.264 190.75L296.569 190.597L296.417 190.292L296.264 189.987L296.112 189.377L295.807 188.615L295.654 188.31L295.502 188.158L293.825 186.328L293.367 186.023L293.215 186.175L293.062 186.328L292.757 186.48H292.605L292.452 186.328V185.718V185.413V185.108L292.605 184.956L292.757 184.651L292.91 184.346V184.041L292.605 183.736L290.623 183.278L290.47 182.668L290.775 181.449L291.233 180.229L292.147 178.551L291.537 177.637L290.623 176.722L290.165 175.959L290.318 175.502L290.928 174.74L291.08 174.13V173.52L290.928 173.215L290.623 173.062L286.963 172.147H285.286L283.609 172.452L281.474 173.825L280.712 173.977H279.949L279.187 174.282L278.424 175.044L277.814 175.959L277.357 176.722L277.205 177.179V177.484L277.51 178.094V178.246L277.814 178.856L277.967 179.009L278.272 179.161L278.729 179.009H278.882L279.034 179.771L278.424 180.381L276.747 181.449L275.527 182.973L274.765 183.431L273.85 183.126H272.783L271.715 183.431L271.105 183.736L271.41 182.973L271.563 182.668L271.715 182.363L271.258 181.753L270.953 181.296L271.105 180.839L271.715 180.534L273.088 179.771H273.393H273.545H273.698L274.307 179.619V179.314V178.399L274.46 177.332V177.027L275.375 175.197V174.74L275.07 174.13L274.765 173.672L273.393 172.91L273.698 172.605V171.842V171.69V171.537V171.385V171.233L273.85 171.08L274.155 170.775L275.07 169.25L275.985 168.183L275.375 167.573L275.222 167.116L275.527 166.658L278.729 163.609L280.559 162.694L280.864 162.541L281.474 161.779L282.236 161.321L282.541 161.169L282.846 160.864L282.999 160.559V159.949L282.846 159.797L282.694 159.644V159.492V159.339L282.999 158.119L283.151 157.814L283.304 157.51V157.052V156.595L282.999 155.985V155.68L283.304 154.46L284.524 153.85L287.116 153.088L288.793 151.868L289.403 151.105L289.098 150.496L289.403 149.886L289.555 149.733L290.165 149.581V149.428H290.318L290.623 149.276V148.666L291.385 148.361L293.062 146.836L293.52 146.074L294.282 145.311L295.959 144.091V143.177L296.112 142.414L296.569 141.957H296.722H296.874L297.179 141.499L297.332 141.347H297.637L297.789 141.194L297.942 140.737L297.637 140.432L297.332 140.127L297.027 139.822L296.569 139.975L293.672 140.28L293.825 139.822L294.13 139.212L294.435 138.755L295.044 138.45V137.84L295.654 137.687L295.959 137.535L296.264 137.23L296.569 136.925L296.417 136.468L296.112 136.01V135.553L296.569 135.4L296.874 135.248H297.027H297.332L297.637 135.4L298.247 135.553L299.466 135.4L300.076 135.553L300.381 135.705H300.686H301.449L300.991 136.773L301.144 137.382L301.601 137.687L302.363 137.84V137.992V138.145L302.516 138.297L302.668 138.45H302.821L303.736 137.992L304.346 137.84L306.023 137.992L306.785 137.687L307.243 137.077V136.773V136.62L307.09 136.468V136.315L306.938 136.163V136.01L307.243 135.858L307.548 136.01L307.853 136.163H308.158L308.463 135.858V135.553L308.31 135.248V135.095V134.943L308.463 134.79H308.767H309.072V134.638V134.333L308.615 134.028L309.682 133.113L310.292 132.808L311.055 132.503L311.207 132.198V132.046V131.741L311.055 131.588L310.902 131.436L310.75 131.283L310.14 130.216L309.835 129.759L309.53 129.606L309.377 129.454V128.996V128.234V128.081L309.835 127.624L309.987 127.319V126.709L309.682 125.489V125.032L309.987 123.812L310.14 123.659L310.445 123.507V123.05L310.292 122.44V121.982L311.055 120.457L311.207 120.305L311.36 120.152L311.512 119.848V119.085L311.665 118.628L312.274 117.865L312.579 117.408V116.341L311.512 114.511V112.986L311.665 112.224L311.817 111.614L311.97 111.309L312.122 111.156L312.274 110.851V110.394L312.427 109.936L313.952 107.802L314.257 107.344L314.409 106.734V105.972L314.562 105.21L315.019 104.905L315.477 104.6L315.781 103.99V103.532L315.629 103.075L315.477 102.618V102.16V101.703L315.629 100.788L315.781 100.33L315.934 100.025L316.086 99.7205L316.239 99.4155V98.6531L316.391 98.3482L316.696 98.0432L317.306 97.5858V97.2808L317.001 96.5184V95.2986L317.306 94.0788L318.374 92.4015L318.679 92.249L319.136 92.0966L319.441 91.7916L320.051 91.0292L320.356 90.8767L320.661 90.5718L320.966 90.2668L321.118 89.9619V89.1995L321.271 88.8945L321.423 88.7421H322.186H322.338L322.49 88.5896V88.4371V88.1321L322.643 87.9797L322.795 87.8272V87.6747H322.948L323.863 87.2173L324.015 87.0648L324.32 86.6074L325.388 83.5578L326.15 82.033L326.607 81.4231L326.455 81.1182L324.015 80.2033ZM174.74 309.377H174.435L173.977 309.225L173.672 308.92V308.462L173.825 307.853L174.13 307.7L174.282 308.005L174.587 308.615L174.74 309.377Z" fill="#11152C"/>
<g opacity="0.32" filter="url(#filter0_f)">
<circle cx="191" cy="80" r="18" fill="#3856E1"/>
</g>
<circle opacity="0.32" cx="191" cy="80" r="15" fill="#3856E1"/>
<circle opacity="0.56" cx="191" cy="80" r="12" fill="#3856E1"/>
<circle cx="191" cy="80" r="9" fill="#3856E1"/>
</g>
<defs>
<filter id="filter0_f" x="165" y="54" width="52" height="52" filterUnits="userSpaceOnUse" color-interpolation-filters="sRGB">
<feFlood flood-opacity="0" result="BackgroundImageFix"/>
<feBlend mode="normal" in="SourceGraphic" in2="BackgroundImageFix" result="shape"/>
<feGaussianBlur stdDeviation="4" result="effect1_foregroundBlur"/>
</filter>
<clipPath id="clip0">
<rect width="360" height="345.82" fill="white"/>
</clipPath>
</defs>
</svg>
