<svg width="354" height="226" viewBox="0 0 354 226" fill="none" xmlns="http://www.w3.org/2000/svg">
<g clip-path="url(#clip0)">
<path d="M0.185175 154.31C0.185175 150.605 1.85239 146.9 4.44583 144.306C5.55731 143.195 6.85403 142.269 7.78026 140.972C9.07698 138.934 9.26222 136.526 9.44747 134.118C10.3737 120.965 13.7081 107.998 19.0803 95.9573C20.5622 92.8081 22.9704 89.1032 26.4901 89.4737C31.4917 90.0294 33.8999 98.5507 38.7163 97.0687C29.0835 94.4753 24.2671 81.1376 30.195 72.9868C30.936 72.0606 31.8622 70.9491 33.1589 70.7638C37.0491 69.6524 42.6065 75.2097 44.2737 71.5048C45.5704 73.7278 47.2376 75.9507 49.2753 77.8032C51.1278 75.9507 50.3868 72.2458 47.9786 71.1343C50.7573 70.2081 53.1655 68.1704 54.6475 65.7622C50.5721 65.5769 46.4967 65.5769 42.236 65.3917C41.1245 65.3917 39.8278 65.2065 39.0868 64.4655C37.9753 63.354 38.3458 61.5015 38.9016 60.2048C40.3835 55.5737 41.8655 50.9425 43.3475 46.3114C44.4589 42.9769 45.5704 39.4573 47.6081 36.6786C52.2393 30.5655 60.5753 28.8983 67.059 24.8228C71.3196 22.0442 74.654 18.154 78.9147 15.7458C83.1753 13.3376 89.1032 12.2261 92.9934 15.3753C97.6245 19.2655 96.6983 26.4901 95.4016 32.2327C94.6606 35.1966 93.9196 38.3458 91.6967 40.3835C86.8803 44.6442 79.2852 41.3097 72.9868 42.9769C74.0983 44.4589 74.4688 46.3114 74.0983 47.9786C77.0622 44.6442 82.4344 43.7179 86.3245 45.9409C87.6212 49.2753 87.436 53.1655 85.954 56.3147C86.8803 54.4622 87.9917 52.4245 88.918 50.572C92.4376 53.536 94.8458 57.6114 95.5868 62.2425C95.7721 57.6114 91.3262 53.9065 91.3262 49.2753C91.3262 45.0147 94.8458 41.6802 97.8098 38.531C100.774 35.3819 103.182 30.5655 100.959 27.0458C119.113 23.7114 131.154 5.37203 149.123 0.926129C152.087 0.185145 155.606 -0.185347 158.2 1.48187C159.497 2.22285 160.608 3.51957 161.905 3.51957C163.387 3.51957 164.498 2.22285 165.98 2.0376C167.833 1.66711 169.685 2.96383 171.167 4.26055C176.169 8.52121 181.17 12.9671 186.172 17.2278C187.469 18.3392 188.766 19.4507 189.507 20.9327C191.729 25.1933 189.136 30.195 186.543 34.2704C183.023 39.8278 178.392 46.1261 171.723 45.9409C168.574 45.9409 163.572 45.7556 164.128 48.9048C165.61 48.5343 167.277 48.1638 168.759 47.7933C168.574 50.0163 168.388 52.4245 168.203 54.6474C169.315 53.1655 171.538 52.9802 172.834 54.2769C177.651 48.7196 182.467 43.3474 187.284 37.7901C188.395 36.4933 189.692 35.1966 191.359 35.0114C192.841 34.8261 194.323 35.7524 195.62 36.6786C200.251 39.6425 205.623 41.495 211.18 42.0507C212.662 42.236 214.329 42.236 215.626 41.6802C216.738 41.1245 217.664 40.013 218.59 39.272C223.036 35.9376 229.705 38.9015 233.225 43.1622C236.744 47.4228 238.967 52.795 242.857 56.6851C245.821 59.4638 249.341 61.131 253.046 62.7983C257.862 65.0212 263.605 67.2442 268.051 64.4655C269.903 63.354 271.2 61.6868 272.867 60.3901C277.869 56.4999 286.205 58.1671 289.539 63.5392C290.651 65.3917 291.206 67.6147 292.503 69.2819C295.097 72.9868 299.913 74.0983 304.174 75.5802C310.102 77.8032 315.659 81.5081 319.92 86.1392C315.844 85.213 313.251 90.3999 313.436 94.4753C313.621 98.5507 307.879 100.218 307.508 104.849C306.582 109.851 326.033 106.331 316.215 115.408C313.436 117.075 311.954 109.851 305.656 113.741C303.062 115.223 300.654 117.446 297.69 118.002C295.282 118.372 292.874 117.446 290.466 116.705C281.759 114.111 272.497 115.964 263.79 117.816C244.339 121.892 224.703 125.967 207.105 135.229C204.141 136.711 201.177 138.564 197.843 138.193C194.508 138.008 191.359 134.488 192.47 131.524C194.508 130.413 196.361 129.487 198.398 128.375C199.695 125.597 194.879 123.188 192.47 124.856C189.877 126.708 189.507 130.228 189.507 133.192C186.172 133.377 183.393 136.711 183.764 139.861C187.839 136.156 198.584 139.49 196.546 142.454C194.138 143.936 189.136 148.567 186.357 147.826C184.69 146.159 183.579 143.751 182.652 145.788C181.726 147.456 182.467 149.493 182.467 151.531C182.467 153.383 181.17 155.792 179.133 155.421C177.836 155.051 177.28 153.754 176.539 152.643C174.687 150.42 171.167 150.234 168.203 150.975C165.425 151.716 162.646 153.198 159.682 153.383C155.051 153.569 149.308 150.975 146.159 154.31C146.344 152.087 145.047 149.864 143.01 148.938C140.972 148.011 138.379 148.567 136.897 150.049C135.97 151.161 135.229 152.643 133.933 153.198C132.636 153.939 130.598 152.643 131.339 151.346C133.562 151.531 135.229 148.752 134.859 146.529C134.303 144.306 132.451 142.639 130.413 141.528C129.116 140.787 127.079 140.231 125.967 141.343C125.411 141.898 125.226 142.639 125.041 143.38C124.115 145.788 122.077 147.641 119.669 148.382C116.149 144.677 111.888 141.528 107.257 139.305C107.998 137.082 110.962 136.711 113.185 137.638C115.223 138.564 117.075 140.231 119.298 140.602C121.521 140.972 124.485 139.305 123.744 137.082C122.818 134.303 118.187 135.044 116.705 132.636C116.334 131.895 116.149 131.154 115.964 130.413C115.593 129.302 114.667 128.561 113.741 127.82C111.518 125.967 109.48 124.115 107.257 122.077C106.331 122.077 105.59 121.336 105.59 120.41C105.59 119.854 105.961 119.483 106.146 118.928C107.443 115.593 103.367 111.703 100.033 113C96.6983 114.297 96.6983 120.039 100.033 121.521C100.774 121.892 101.7 121.892 102.626 122.262C105.405 123.003 107.628 125.411 108.369 128.19C107.072 129.672 104.664 128.19 102.811 127.264C98.736 125.411 93.9196 127.079 89.659 125.597C85.954 124.3 82.0639 120.41 78.5442 122.262C77.618 122.818 76.877 123.559 76.136 124.115C73.5425 125.782 69.2819 123.929 68.7262 120.965C67.6147 120.595 66.6885 121.892 66.5032 123.188C66.318 124.3 66.5032 125.782 65.577 126.523C65.0212 126.893 64.4655 126.893 63.7245 126.893C62.2426 126.893 60.7606 127.079 59.4639 127.079C58.9081 127.079 58.3524 127.079 57.9819 126.708C57.2409 125.967 58.3524 124.856 58.5376 123.929C58.9081 122.447 57.4262 120.78 55.9442 121.151C56.3147 122.818 56.4999 124.485 56.1294 125.967C55.5737 127.449 54.0917 128.931 52.4245 128.561C51.6835 128.375 51.1278 127.82 50.5721 127.449C48.7196 125.782 47.0524 123.744 45.7557 121.521C44.459 122.633 45.1999 124.67 46.1262 125.967C47.2376 127.264 48.5344 128.561 48.7196 130.228C48.9048 132.821 45.7557 134.674 43.1622 134.118C40.754 133.377 38.7163 131.339 37.0491 129.302C35.7524 127.82 34.2704 126.152 34.4557 124.115C34.6409 121.521 37.4196 119.483 36.6786 117.075C35.5671 119.113 34.2704 120.965 32.6032 122.447C30.195 120.41 31.4917 116.52 32.9737 113.556C30.195 116.52 25.5639 117.446 21.8589 115.964C24.6376 121.521 27.6016 126.893 30.3803 132.451C32.0475 135.6 33.3442 140.416 30.195 142.083C29.2688 142.639 28.1573 142.639 27.6016 143.565C27.0458 144.306 27.0458 145.418 26.6753 146.344C25.3786 149.493 20.9327 148.938 17.7835 150.42C15.9311 151.346 14.6344 153.013 12.9671 154.124C11.2999 155.236 8.52124 155.236 7.59501 153.383C7.03927 152.272 7.40977 150.605 6.29829 150.049C5.37206 149.493 4.07534 150.234 3.5196 151.346C2.96386 152.457 2.59337 153.569 1.66714 154.31C1.29665 154.495 0.926158 154.68 0.555667 154.495C0.370421 154.31 -0.185317 154.124 0.185175 154.31Z" fill="#11152C"/>
<path d="M5.5572 155.421C7.59491 157.644 6.29819 161.164 7.22442 163.943C8.15065 166.721 11.1146 169.129 10.1884 171.908C10.0031 172.279 10.0031 172.649 9.63261 172.834C9.26212 173.205 8.52114 173.02 8.15065 172.834C6.11294 172.279 3.88999 171.352 1.85229 170.426C1.1113 170.056 0.185073 169.129 0.740811 168.388C1.29655 167.647 2.77852 168.388 3.33425 167.647C3.70474 167.092 3.14901 166.351 2.59327 165.98C2.03753 165.61 1.29655 165.239 1.1113 164.684C1.1113 164.128 1.29655 163.757 1.66704 163.202C2.59327 162.09 3.70474 160.608 4.63097 159.311C5.00147 158.941 5.18671 158.57 5.18671 158.015C5.18671 157.459 4.63097 156.903 4.63097 156.347C4.44573 155.792 5.18671 155.051 5.5572 155.421Z" fill="#11152C"/>
<path d="M37.7898 148.011C44.6439 142.269 51.8685 136.897 60.0193 133.562C61.316 133.006 62.9833 132.451 64.28 133.006C64.6505 133.192 65.021 133.377 65.2062 133.747C65.3915 134.303 64.8357 135.044 64.28 135.415C62.057 137.452 60.3898 140.046 59.2783 143.01C59.2783 143.38 59.2783 143.565 59.2783 143.936C59.6488 145.418 62.4275 145.233 62.798 146.715C63.7242 146.529 63.3537 144.862 63.7242 143.936C63.9095 143.565 64.28 143.38 64.4652 143.195C66.3177 141.898 67.6144 140.046 67.9849 137.823C68.5406 137.823 68.9111 138.193 69.2816 138.564C71.1341 140.416 72.9865 142.454 74.839 144.306C75.0242 144.492 75.2095 144.677 75.3947 144.677C75.58 144.677 75.7652 144.677 75.9505 144.492C77.0619 143.751 77.9882 142.454 78.3587 141.157C78.3587 140.972 78.3587 140.787 78.3587 140.602C78.1734 139.861 77.2472 139.861 76.5062 140.231C75.7652 140.416 75.0242 140.787 74.6537 140.231C74.4685 140.046 74.4685 139.675 74.4685 139.305C74.4685 137.823 73.9128 136.341 72.9865 135.229C72.4308 134.674 71.8751 134.118 71.6898 133.377C71.5046 132.08 72.8013 130.969 74.098 130.969C75.3947 130.969 76.5062 131.524 77.8029 131.895C79.8406 132.636 82.0636 133.192 84.4718 133.192C85.7685 133.192 87.2505 133.192 88.1767 133.933C89.8439 135.229 89.4734 138.008 90.9554 139.49C91.6964 140.416 92.9931 140.787 94.1046 141.343C95.7718 142.269 96.8833 144.121 97.2537 145.974C97.2537 146.159 97.2537 146.529 97.2537 146.715C97.0685 147.085 96.698 147.085 96.3275 147.085C93.7341 147.27 91.1406 147.456 88.7324 147.641C88.1767 147.641 87.2505 148.197 87.621 148.567C87.8062 148.752 87.9914 148.752 88.1767 148.938C89.1029 149.308 89.8439 150.42 89.2882 151.346C88.7324 152.272 87.2505 152.272 86.6947 153.198C86.5095 153.569 86.5095 153.939 86.5095 154.124C86.139 155.051 84.657 154.865 83.7308 154.31C82.8046 153.754 81.6931 153.198 80.7669 152.643C79.4701 151.716 78.3587 150.79 77.0619 150.234C75.7652 149.493 74.098 149.308 72.8013 149.864C74.098 152.087 75.7652 153.939 77.6177 155.606C78.1734 156.162 78.9144 156.903 78.7292 157.644C78.3587 158.385 77.2472 158.57 76.5062 158.57C74.2833 158.756 72.4308 160.423 70.3931 161.72C69.0964 162.461 67.4292 163.016 66.1324 162.275C65.2062 161.72 64.8357 160.608 64.28 159.497C63.539 157.829 62.798 156.162 61.8718 154.495C60.7603 152.643 59.0931 150.79 56.8701 150.975C56.4996 150.975 55.9439 151.161 55.7587 151.531C55.5734 151.902 55.5734 152.457 55.5734 152.828C56.1292 155.792 57.9816 158.57 59.2783 161.349C60.5751 164.128 61.5013 167.462 60.2046 170.426C59.6488 171.538 58.9078 172.464 58.1669 173.39C55.9439 175.984 53.721 178.762 51.498 181.356C50.9423 182.097 50.3865 182.652 49.6455 183.023C48.9046 183.393 47.9783 183.579 47.2374 183.208C46.4964 182.838 46.3111 181.541 46.8669 180.985C47.4226 180.429 48.7193 180.8 48.9046 181.541C50.2013 181.17 50.9423 179.688 50.9423 178.392C50.757 177.095 49.8308 175.798 48.9046 175.057C47.7931 174.131 46.6816 173.575 45.3849 172.834C44.6439 172.464 43.9029 171.723 43.9029 170.797C43.9029 170.241 44.2734 169.87 44.4587 169.5C45.7554 167.462 45.7554 164.684 44.4587 162.646C43.1619 160.423 40.7537 159.126 39.8275 156.718C39.0865 154.495 39.6423 151.531 37.9751 150.049C37.6046 149.679 37.0488 149.308 37.0488 148.752C37.4193 148.567 37.6046 148.382 37.7898 148.011Z" fill="#11152C"/>
<path d="M111.888 159.867C112.815 159.867 113.556 158.756 113.37 157.829C113.185 156.903 112.444 156.162 111.518 155.792C110.592 155.421 109.665 155.236 108.739 154.68C108.369 154.495 107.813 154.31 107.443 154.125C106.887 154.125 106.516 154.125 106.146 154.495C105.775 154.866 105.775 155.421 105.961 155.977C106.146 156.533 106.516 156.903 107.072 157.088C108.183 158.015 109.48 158.756 110.777 159.497C110.962 159.497 111.333 159.867 111.888 159.867Z" fill="#11152C"/>
<path d="M103.738 173.02C102.627 173.39 101.33 173.761 100.218 173.946C99.4774 174.131 98.9217 174.316 98.3659 174.872C97.8102 175.428 97.6249 176.169 97.8102 176.725C97.9954 177.466 98.3659 178.021 99.1069 178.206C101.515 177.095 104.664 177.28 106.702 175.613C107.072 175.243 107.443 174.687 107.443 174.131C107.443 173.39 106.702 172.834 105.961 172.649C105.22 172.649 104.479 172.834 103.738 173.02Z" fill="#11152C"/>
<path d="M113.185 177.836C113.741 177.466 113.741 176.539 113.741 175.798C113.741 175.057 113.741 174.316 113.37 173.575C113 172.834 112.444 172.279 111.703 172.279C110.962 172.279 110.221 172.649 109.851 173.205C109.48 173.761 109.295 174.502 108.924 175.243C108.739 175.798 108.554 176.354 108.924 176.91C109.48 177.651 110.777 177.28 111.703 177.836C111.888 178.021 112.074 178.207 112.444 178.207C112.815 178.207 113.185 177.651 113.37 177.28" fill="#11152C"/>
<path d="M116.89 177.465C115.964 177.28 115.408 176.169 115.038 175.428C114.667 174.502 114.297 173.39 113.741 172.464C113.741 172.279 113.556 171.908 113.741 171.723C113.741 171.538 114.112 171.352 114.297 171.352C115.593 170.982 117.261 171.167 118.372 172.093C118.743 172.464 119.113 173.02 119.484 173.39C121.151 175.428 123.744 176.539 125.782 178.206C126.893 179.133 127.82 180.244 128.005 181.726C128.005 181.911 128.005 182.282 127.82 182.282C127.634 182.467 127.634 182.467 127.449 182.467C126.338 182.652 125.226 182.652 124.3 182.097C123.559 181.726 123.189 181.17 122.633 180.429C121.521 178.947 120.039 177.465 118.187 177.651C117.816 177.465 117.261 177.651 116.89 177.465Z" fill="#11152C"/>
<path d="M119.298 181.911C117.261 182.652 115.038 182.467 113 182.467C112.444 182.467 111.888 182.282 111.703 181.911C111.333 181.541 111.518 180.985 111.703 180.615C111.888 180.244 112.444 180.059 112.815 179.874C113.556 179.503 114.297 179.318 115.038 179.133C116.334 178.762 117.631 178.577 118.743 179.133C119.298 179.318 119.854 179.688 120.039 180.244C120.224 180.8 120.224 181.356 119.854 181.726C119.854 181.726 119.669 181.911 119.298 181.911Z" fill="#11152C"/>
<path d="M108.369 180.244C108.925 180.615 109.11 181.356 108.925 182.097C108.925 182.652 108.739 183.393 108.184 183.764C107.998 183.949 107.628 183.949 107.443 183.949C106.702 184.134 105.775 184.134 105.22 183.579C104.664 183.023 104.664 181.911 104.108 181.356C103.923 181.17 103.552 180.985 103.367 180.8C103.182 180.615 102.997 180.244 103.367 179.874C103.182 179.688 103.552 179.688 103.738 179.688C104.293 179.688 105.034 179.503 105.405 179.874C105.59 180.059 105.59 180.059 105.59 180.244C105.961 180.615 106.516 180.615 107.072 180.429C107.443 180.244 107.813 179.874 108.369 180.244Z" fill="#11152C"/>
<path d="M81.3227 191.359C81.5079 191.544 81.6932 191.544 82.0637 191.729C82.8046 191.915 83.5456 191.174 84.1014 190.618C84.4719 190.247 85.0276 189.877 85.5833 189.692C86.1391 189.507 86.6948 189.692 87.0653 190.247C87.4358 190.803 87.2506 191.359 87.4358 191.915C87.8063 192.841 89.103 193.026 89.6587 192.47C89.844 192.285 90.0292 192.1 90.3997 192.1C90.7702 192.1 90.9555 192.47 90.9555 192.841C90.9555 193.211 90.9555 193.397 90.9555 193.767C91.1407 194.323 91.6964 194.693 92.2522 195.064C93.1784 195.62 93.7342 196.731 93.9194 197.843C93.9194 198.028 93.9194 198.213 93.9194 198.213C93.7342 198.584 93.1784 198.584 92.6227 198.584C91.6965 198.584 90.7702 198.769 89.844 198.954C88.9178 199.139 87.8063 198.954 86.8801 198.954C83.7309 198.769 80.3965 198.584 77.2473 198.584C76.6915 198.584 75.9506 198.584 75.3948 198.213C74.8391 197.843 74.4686 197.102 74.8391 196.546C75.0243 196.175 75.5801 195.99 75.9505 195.805C76.8768 195.249 77.803 194.693 78.3587 193.767C78.7292 193.211 79.0997 192.47 79.6555 192.1C80.026 191.359 80.7669 190.988 81.3227 191.359Z" fill="#11152C"/>
<path d="M128.561 200.251C128.931 199.88 129.117 199.325 129.117 198.769C129.117 197.843 129.117 196.916 129.117 195.99C129.117 195.434 129.117 194.693 128.746 194.138C128.19 193.211 126.894 192.841 125.782 193.026C124.671 193.211 123.559 193.767 122.448 194.138C122.077 194.138 121.892 194.323 121.522 194.138C120.781 193.952 120.41 193.397 119.854 193.026C118.372 191.915 115.964 192.285 114.853 193.767C114.667 193.952 114.482 194.138 114.297 194.323C113.741 194.508 113.556 193.582 113.741 193.026C113.926 191.544 113.741 189.877 113.371 188.395C113.371 188.21 113.185 187.839 113 187.654C112.63 187.469 112.074 187.654 111.889 188.025C111.704 188.395 111.704 188.765 111.704 189.321C111.889 191.915 111.703 194.508 111.333 197.102C111.333 197.472 111.333 197.843 111.518 198.213C111.704 198.398 111.889 198.584 112.074 198.769C112.815 199.325 112.63 200.621 113.185 201.362C113.371 201.547 113.556 201.733 113.741 201.733C114.112 201.733 114.482 201.547 114.667 201.177C116.335 199.325 118.928 197.472 121.336 198.213C122.448 198.584 123.374 199.325 124.485 199.51C125.041 199.695 125.597 199.51 126.153 199.695C127.079 200.066 127.82 200.621 128.561 200.251Z" fill="#11152C"/>
<path d="M90.3995 212.477C90.2142 212.847 89.6585 213.033 89.288 213.033C88.9175 213.033 88.3618 213.033 87.9913 213.033C87.2503 213.218 86.6946 213.774 86.1388 214.329C85.5831 214.885 84.8421 215.256 84.1011 215.07C83.5454 214.885 83.1749 214.329 82.9896 213.774C82.8044 213.033 82.6191 212.292 82.6191 211.551C82.6191 211.18 82.6191 210.81 82.8044 210.624C83.3601 210.069 84.1011 210.439 84.8421 210.439C85.5831 210.439 86.1388 209.883 86.5093 209.328C86.8798 208.772 86.8798 208.031 86.8798 207.29C88.1765 207.475 89.288 207.846 90.5847 208.402C90.9552 208.587 91.5109 208.772 91.6962 209.142C92.0667 209.513 92.0667 210.069 91.6962 210.439C91.3257 210.81 90.77 210.624 90.5847 210.995C90.3995 211.365 90.5847 211.921 90.3995 212.477Z" fill="#11152C"/>
<path d="M99.1066 222.48C98.5508 223.221 98.1803 224.148 98.1803 225.074C98.1803 225.259 98.1803 225.444 97.9951 225.629C97.8098 225.815 97.6246 226 97.2541 226C95.4016 226.185 93.5492 225.259 92.9934 223.592C92.8082 223.221 92.8082 222.851 92.4377 222.48C92.2525 222.295 92.0672 222.295 91.882 222.11C91.5115 221.925 90.9557 221.554 90.5852 221.369C90.0295 220.813 89.659 219.887 90.0295 219.146C90.2148 218.775 90.7705 218.59 91.141 218.59C92.0672 218.22 92.9934 218.034 93.9197 217.849C94.2902 217.849 94.6607 217.664 94.8459 217.849C95.4016 218.034 95.5869 218.775 96.1426 219.146C96.5131 219.331 97.0688 219.146 97.4393 219.331C97.9951 219.331 98.5508 219.702 99.1066 220.072C99.2918 220.257 99.477 220.443 99.6623 220.628C100.033 221.184 99.477 221.925 99.1066 222.48Z" fill="#11152C"/>
<path d="M160.053 165.98C159.682 165.61 159.497 165.054 159.127 164.684C157.83 162.831 155.607 162.275 153.754 161.164C151.532 160.052 149.864 158.385 148.382 156.348C149.123 155.607 150.05 155.607 150.976 155.607C155.977 155.607 160.238 158.941 165.24 159.867C169.871 160.793 174.872 159.867 178.948 162.275C178.577 163.387 177.095 163.387 176.354 164.313C175.984 164.684 175.799 165.239 175.799 165.795C175.058 168.018 173.761 170.241 171.723 171.538C169.686 172.649 166.722 172.464 165.054 170.797C164.499 170.241 164.128 169.5 163.572 168.944C162.461 167.648 160.979 167.092 160.053 165.98Z" fill="#11152C"/>
<path d="M173.39 158.2C172.649 158.941 171.538 158.941 170.426 158.941C168.944 158.941 167.277 158.941 165.795 158.571C164.869 158.2 163.943 157.83 163.016 157.644C162.646 157.459 162.09 157.459 161.72 157.274C161.349 157.089 160.979 156.718 161.164 156.348C162.461 155.792 163.202 154.495 164.313 153.754C165.425 153.013 166.721 152.828 168.018 152.828C168.389 152.828 168.759 152.828 169.13 153.013C169.685 153.198 170.056 153.754 170.241 154.31C170.982 155.607 171.908 156.718 173.02 157.83C173.205 158.015 173.205 158.015 173.205 158.2C173.575 158.015 173.575 158.015 173.39 158.2Z" fill="#11152C"/>
<path d="M144.862 200.251C144.862 199.325 144.307 198.584 143.751 198.028C143.195 197.472 142.454 196.916 141.713 196.361C140.602 195.249 139.861 193.952 138.749 192.841C138.194 192.285 137.453 191.915 136.897 192.285C136.526 192.47 136.526 193.026 136.526 193.397C136.526 194.879 137.267 196.175 138.194 197.102C139.12 198.213 140.417 198.954 141.528 199.695C142.269 200.251 143.195 200.807 144.121 200.807C144.307 200.807 144.492 200.807 144.677 200.621C144.862 200.436 144.862 200.436 144.862 200.251Z" fill="#11152C"/>
<path d="M182.281 185.061C182.837 185.061 183.207 185.802 183.393 186.543C183.763 187.284 184.504 188.025 185.245 188.025C186.357 187.839 186.727 186.543 186.357 185.616C185.986 184.69 185.245 183.949 184.504 183.023C183.763 182.097 183.022 180.985 182.466 179.874C183.763 179.688 185.245 178.947 186.357 178.206C186.542 178.021 186.912 177.836 186.912 177.466C187.098 176.725 186.542 175.984 185.801 175.984C185.06 175.984 184.319 176.354 183.763 176.725C183.207 177.095 182.652 177.651 181.911 177.836C181.355 178.021 180.614 177.836 180.058 177.466C179.503 177.095 179.132 176.539 178.762 176.169C178.206 175.798 177.465 175.613 177.094 176.169C176.539 176.725 177.28 177.651 177.835 178.206C178.021 178.392 178.021 178.392 178.206 178.577C178.391 179.318 176.909 179.688 177.094 180.429C177.835 180.615 178.576 180.8 179.317 181.17C180.058 181.541 180.429 182.282 180.429 183.023C180.429 183.208 180.429 183.579 180.244 183.579C180.058 183.764 179.873 183.764 179.688 183.579C178.762 183.393 178.021 183.208 177.28 182.838C176.909 182.652 176.539 182.467 176.168 182.467C175.798 182.467 175.427 182.467 175.242 182.838C175.057 183.393 175.612 183.949 175.983 184.32C177.465 185.431 178.762 187.098 179.503 188.951C179.688 189.321 179.873 189.877 180.244 189.692C180.429 189.692 180.614 189.506 180.799 189.321C181.17 188.766 181.355 188.025 181.355 187.284C181.355 186.728 181.17 186.357 181.17 185.802C181.355 185.616 181.725 185.061 182.281 185.061Z" fill="#11152C"/>
<path d="M196.175 29.6392C198.028 28.5277 200.251 27.4163 202.288 28.1573C203.214 28.3425 203.955 28.8982 204.696 29.454C206.734 30.9359 208.772 32.6032 210.995 33.5294C212.292 34.0851 213.774 34.6409 214.885 35.5671C215.996 36.6786 216.182 38.531 215.07 39.4572C214.329 40.013 213.218 40.013 212.292 39.8277C209.328 39.272 206.549 38.531 203.77 37.4195C200.436 36.3081 196.916 34.4556 195.619 31.3064C195.434 30.9359 195.434 30.5654 195.619 30.195C195.619 30.0097 195.99 29.8245 196.175 29.6392Z" fill="#11152C"/>
<path d="M277.128 37.7901C278.98 37.6049 281.018 36.4934 282.685 37.4196C283.796 38.1606 284.167 39.6426 284.352 41.1245C284.537 42.6065 284.723 44.2737 284.908 45.7557C284.908 46.1262 284.908 46.4967 284.723 46.6819C284.352 47.0524 283.982 47.0524 283.426 46.8672C281.759 46.6819 280.277 46.4967 278.609 46.4967C273.423 47.0524 268.977 51.3131 263.79 51.6835C262.864 51.6835 261.752 51.6836 260.826 51.1278C260.085 50.7573 259.529 50.0163 259.159 49.4606C258.047 47.7934 256.936 46.1262 256.195 44.2737C256.195 45.0147 256.009 45.7557 256.009 46.4967C254.157 46.6819 252.49 45.1999 251.008 44.0885C248.229 41.8655 245.08 39.8278 241.56 38.7163C240.449 38.3458 239.152 38.1606 238.041 37.4196C237.114 36.6786 236.373 35.3819 236.744 34.2704C237.114 33.3442 238.226 32.9737 239.152 32.418C240.264 32.0475 241.19 31.4917 242.301 31.1213C242.672 30.936 243.228 30.7508 243.598 30.7508C244.154 30.7508 244.709 30.936 245.265 31.1213C248.044 32.2327 250.637 33.3442 253.046 34.8262C254.342 35.5672 255.454 36.4934 256.936 37.0491C261.382 38.7163 266.383 35.5672 271.2 36.3081C273.237 37.0491 275.09 37.9754 277.128 37.7901Z" fill="#11152C"/>
<path d="M257.307 52.795C256.381 53.1655 255.455 52.9802 254.714 52.4245C253.973 51.8688 253.417 50.9425 253.047 50.2016C252.491 49.4606 251.935 48.5343 251.194 47.9786C250.453 47.6081 249.527 47.2376 249.527 46.4966C250.638 46.1261 251.75 46.6819 252.676 47.2376C254.714 48.3491 256.751 49.4606 257.678 51.4983C257.863 51.8688 258.048 52.2393 257.863 52.6098C257.678 52.6098 257.492 52.6098 257.307 52.795Z" fill="#11152C"/>
<path d="M300.84 43.718C302.136 45.0147 303.989 45.2 305.841 45.2C306.582 45.2 307.508 45.2 308.249 45.0147C308.99 44.8295 309.731 44.2737 310.102 43.718C310.658 42.6065 310.102 41.495 309.546 40.3836C308.25 37.6049 306.953 34.8262 305.471 32.0475C305.1 31.3065 304.545 30.3803 303.618 30.195C303.063 30.0098 302.507 30.195 302.136 30.5655C301.025 31.1213 299.913 31.677 299.172 32.418C298.802 32.7885 298.431 32.9737 298.246 33.5295C297.876 34.2704 298.061 35.0114 298.061 35.7524C298.431 37.6049 298.802 39.2721 299.358 41.1245C299.728 41.8655 300.099 42.977 300.84 43.718Z" fill="#11152C"/>
<path d="M324.365 68.541C326.959 67.9852 329.367 69.6524 331.96 69.4672C333.627 69.2819 335.109 68.541 336.406 67.8C339.555 66.318 342.89 65.3918 346.039 63.7246C349.003 62.0574 351.782 59.2787 352.152 55.759C352.337 54.6475 352.152 53.536 352.337 52.4246C352.523 50.7573 353.449 49.4606 353.819 47.7934C354.19 45.5705 353.264 43.1623 352.523 40.9393C351.967 39.4573 351.411 37.9754 350.114 37.0492C349.373 36.3082 348.447 35.9377 347.521 35.5672C344.742 34.0852 342.334 32.2328 340.111 30.0098C339.185 29.0836 338.259 28.1573 337.147 27.7869C336.221 27.4164 335.109 27.6016 334.183 27.7869C331.96 28.1573 329.737 28.5278 327.514 29.0836C326.773 29.2688 325.847 29.4541 325.106 29.0836C324.55 28.8983 324.18 28.5278 323.624 28.3426C322.327 27.9721 321.031 28.8983 319.919 29.6393C318.067 30.7508 316.029 31.4918 313.991 31.4918C313.25 31.4918 312.509 31.4918 312.139 32.0475C311.398 32.6032 311.583 33.9 311.768 34.8262C312.509 38.9016 311.954 43.1623 311.398 47.2377C311.398 47.6082 311.213 48.1639 311.027 48.5344C310.472 49.6459 308.99 49.8311 307.878 49.6459C306.767 49.4606 305.47 49.0901 304.359 49.2754C303.618 49.4606 302.877 49.8311 302.691 50.5721C302.691 50.9426 302.691 51.3131 302.877 51.6836C304.173 56.5 306.952 61.1311 310.842 64.4655C311.213 64.836 311.768 65.2065 312.139 65.0213C312.509 64.836 312.695 64.6508 312.695 64.2803C313.436 62.4278 312.324 60.3901 310.842 59.0934C309.36 57.7967 307.508 56.8705 306.396 55.3885C306.211 55.2032 306.026 54.8328 306.026 54.6475C306.026 53.9065 306.767 53.3508 307.508 52.9803C309.546 52.2393 311.954 52.4246 314.177 52.6098C315.288 52.6098 316.214 52.7951 317.141 53.1655C319.734 54.4623 320.475 57.7967 322.698 59.6492C323.624 60.3901 324.736 61.1311 324.55 62.4278C324.55 62.7983 324.18 63.3541 323.809 63.7246C323.068 64.6508 322.513 65.3918 321.772 66.318C321.401 66.8737 320.846 67.4295 320.105 67.6147C318.623 67.9852 317.141 66.1328 315.659 66.318C315.473 67.6147 316.955 68.541 317.882 69.4672C318.993 70.5787 319.734 71.8754 320.66 73.1721C321.587 74.2836 323.068 75.3951 324.55 75.0246C325.106 74.0983 324.365 72.9869 323.624 72.0606C323.068 71.1344 322.513 69.8377 323.254 69.0967C323.809 68.7262 323.995 68.541 324.365 68.541Z" fill="#11152C"/>
<g opacity="0.32" filter="url(#filter0_f)">
<circle cx="152" cy="85" r="18" fill="#3856E1"/>
</g>
<circle opacity="0.32" cx="152" cy="85" r="15" fill="#3856E1"/>
<circle opacity="0.56" cx="152" cy="85" r="12" fill="#3856E1"/>
<circle cx="152" cy="85" r="9" fill="#3856E1"/>
</g>
<defs>
<filter id="filter0_f" x="126" y="59" width="52" height="52" filterUnits="userSpaceOnUse" color-interpolation-filters="sRGB">
<feFlood flood-opacity="0" result="BackgroundImageFix"/>
<feBlend mode="normal" in="SourceGraphic" in2="BackgroundImageFix" result="shape"/>
<feGaussianBlur stdDeviation="4" result="effect1_foregroundBlur"/>
</filter>
<clipPath id="clip0">
<rect width="353.82" height="226" fill="white"/>
</clipPath>
</defs>
</svg>
