<svg width="360" height="220" viewBox="0 0 360 220" fill="none" xmlns="http://www.w3.org/2000/svg">
<g clip-path="url(#clip0)">
<path d="M19.4495 21.3079C20.0502 21.5895 19.8062 22.6783 20.4257 22.9036C20.8387 23.0538 21.1016 22.622 21.6272 22.6971C22.3406 22.791 22.9038 23.7484 23.0915 24.5369C23.4107 25.8698 22.6034 26.5269 23.0164 27.5407C23.2981 28.2541 23.9739 28.592 24.3118 28.761C25.2129 29.2303 26.1328 29.174 27.5784 29.0426C28.8738 28.9299 28.7799 28.761 29.437 28.8173C30.7699 28.9111 30.8075 29.5682 32.4032 30.0188C33.5296 30.3379 33.7549 30.0563 35.7637 30.4881C36.5897 30.6571 36.5334 30.7134 36.9652 30.7697C38.5609 31.0138 39.7812 30.5069 40.5697 30.2816C41.452 30.0376 42.8037 30.2065 45.5259 30.5444C49.1867 30.995 52.2468 31.7835 56.8275 32.985C57.203 33.0789 57.5222 33.1727 57.7287 33.2103L58.3294 27.9725L61.2769 13.3291L62.9852 7.58444L30.9201 -6.10352e-05C30.845 0.11258 30.7511 0.243995 30.676 0.412956C30.4883 0.788426 30.3944 1.0888 30.432 1.42673C30.4508 1.53937 30.4883 1.83974 30.6948 2.12135C30.9764 2.49682 31.258 2.4405 31.3707 2.70332C31.4833 2.98493 31.2392 3.17266 31.0891 3.62323C30.8075 4.54313 31.3519 5.40671 31.2392 5.44426C31.1641 5.4818 30.9013 5.10633 30.7511 4.69332C30.6197 4.2803 30.676 4.05502 30.5822 4.03624C30.4132 3.9987 29.9626 4.637 30.1128 5.10633C30.1692 5.29407 30.3006 5.33162 30.4883 5.53812C30.5822 5.63199 31.1642 6.21397 31.2205 6.81472C31.2956 7.49057 30.676 7.69708 30.8262 8.26028C30.9389 8.71085 31.3519 8.71085 31.4458 9.14264C31.5208 9.53688 31.2017 9.83726 30.7699 10.4756C30.5446 10.8135 30.0565 11.4893 29.7749 12.2215C29.3056 13.4418 29.6059 14.1927 29.0803 14.4931C28.7987 14.6433 28.3857 14.6245 28.2543 14.4368C27.9914 14.0613 28.9677 13.1789 28.686 12.7096C28.5359 12.4655 28.1979 12.6345 27.86 12.3154C27.5221 11.9962 27.3907 11.3955 27.5972 11.02C27.6911 10.851 27.7849 10.8886 28.1979 10.5507C28.5734 10.2503 28.7987 10.0813 28.855 9.81848C28.9301 9.51811 28.7799 9.38669 28.686 8.89858C28.5359 8.07255 28.7611 7.56566 28.5734 7.49057C28.4044 7.41547 28.2543 7.80972 27.8225 7.84727C27.5033 7.88481 27.1278 7.73462 27.034 7.4718C26.9401 7.22774 27.1654 7.05878 27.0528 6.87104C26.9213 6.62699 26.3769 6.70208 26.1704 6.72085C25.6447 6.7584 25.0252 6.53312 23.7862 6.08256C22.5096 5.61322 22.5096 5.16265 20.2755 3.62323C19.3368 2.98493 18.7549 2.66578 18.4169 2.42172C18.2668 2.66578 18.079 3.09757 17.8162 4.03624C17.5346 5.03124 17.3093 5.8385 17.5909 6.68331C17.835 7.45302 18.1729 7.32161 18.3982 8.01623C18.7549 9.08632 17.9664 9.49933 17.9664 11.1326C17.9664 12.259 18.3606 12.2778 18.248 13.3104C18.1541 14.1552 17.8537 14.6245 18.1353 15.0751C18.4357 15.5256 19.0928 15.5632 19.074 15.7321C19.0552 15.9011 18.3606 15.7697 18.0602 16.1639C17.835 16.4643 17.9101 16.9712 18.1166 17.2903C18.4169 17.7597 18.8863 17.647 19.0552 17.985C19.3556 18.6045 18.3606 19.8248 18.0227 19.7121C17.7599 19.6183 17.9664 18.7734 17.7223 18.7171C17.4783 18.6608 16.9338 19.393 16.8587 20.2378C16.8212 20.632 16.8963 20.801 16.9526 21.2515C16.9714 21.383 16.9714 21.5332 16.9714 21.7397C17.084 21.796 17.1967 21.8148 17.3281 21.8335C18.2292 21.9462 18.8487 21.0075 19.4495 21.3079Z" fill="#11152C"/>
<path d="M29.6252 8.14767C29.7566 8.52314 29.5313 8.61701 29.6064 9.08634C29.6815 9.51813 29.9819 10.0062 30.2447 9.98747C30.4888 9.9687 30.6389 9.51813 30.6577 9.19898C30.6765 8.91738 30.5826 8.52314 30.3386 8.42927C30.1696 8.37295 30.057 8.48559 29.9819 8.4105C29.8317 8.27908 30.1884 7.92239 30.0757 7.4906C30.0006 7.17145 29.719 7.07758 29.7754 6.92739C29.8505 6.73966 30.2635 6.8523 30.3761 6.64579C30.5075 6.42051 30.2635 5.95117 29.9631 5.89485C29.6064 5.83853 29.2497 6.40173 29.1371 6.79598C29.0995 6.92739 29.0432 7.07758 29.0807 7.28409C29.1558 7.6971 29.4938 7.75343 29.6252 8.14767Z" fill="#11152C"/>
<path d="M28.5924 11.0388C28.6675 11.2265 28.8552 11.433 29.0805 11.433C29.3809 11.4143 29.5499 11.02 29.6062 10.7947C29.7 10.3254 29.4184 9.87483 29.3434 9.8936C29.287 9.91238 29.3621 10.2128 29.1932 10.3066C29.0617 10.3817 28.9491 10.2503 28.7989 10.3066C28.5924 10.4005 28.4798 10.7572 28.5924 11.0388Z" fill="#11152C"/>
<path d="M31.2395 62.4219L49.9192 66.552L53.2984 52.2842C53.336 51.8711 53.4298 51.3267 53.6739 50.6884C54.162 49.4118 54.8378 48.8862 54.6126 48.4356C54.3873 47.9663 53.5612 48.2854 53.0731 47.7222C52.6226 47.1778 52.7727 46.1828 53.1107 45.5257C53.7302 44.3054 54.8378 44.4368 55.8892 42.9537C56.2646 42.4281 56.0957 42.4656 56.5838 41.602C57.7853 39.5182 58.8178 39.3868 59.4373 37.7159C59.6439 37.1527 59.9442 36.3642 59.5688 35.801C59.1933 35.2566 58.4423 35.388 58.0669 34.7309C57.8228 34.2991 57.973 33.9424 57.9355 33.4731C57.9167 33.2666 57.8791 33.0225 57.7665 32.7597L57.729 33.1352C57.5224 33.0789 57.2221 33.0038 56.8278 32.9099C52.2283 31.7084 49.1682 30.9199 45.5262 30.4693C42.8228 30.1314 41.4523 29.9625 40.57 30.2065C39.7627 30.4318 38.5612 30.9387 36.9655 30.6946C36.5337 30.6383 36.6088 30.582 35.764 30.413C33.7552 29.9812 33.5299 30.2628 32.4035 29.9437C30.8077 29.5119 30.7702 28.8361 29.4373 28.7422C28.799 28.7046 28.8741 28.8548 27.5787 28.9675C26.1331 29.0989 25.232 29.1552 24.3121 28.6859C23.9742 28.5169 23.3171 28.179 23.0167 27.4656C22.6037 26.4518 23.411 25.7947 23.0918 24.4618C22.9041 23.6921 22.3597 22.7347 21.6275 22.622C21.1018 22.5469 20.8578 22.9975 20.426 22.8285C19.8065 22.6032 20.0318 21.5144 19.4498 21.2328C18.849 20.9512 18.2295 21.8711 17.3096 21.7584C17.1782 21.7397 17.0655 21.7021 16.9529 21.6646C16.9341 21.9837 16.8966 22.4531 16.7464 23.1477C15.8453 27.428 14.2495 30.6008 14.2495 30.6008C13.6488 31.8023 13.6863 31.5207 13.1231 32.6283C11.3772 36.1014 11.8465 37.0776 10.4948 40.194C9.12434 43.3667 8.4485 44.9437 6.8903 46.1828C6.40219 46.577 5.51983 47.1778 5.31332 48.2103C5.12559 49.1865 5.72634 49.5432 5.59493 50.726C5.44474 52.0026 4.65625 52.0589 4.65625 53.1665C4.65625 54.0489 5.14436 54.3868 5.257 55.1002L16.0142 58.4231L31.2395 62.4219Z" fill="#11152C"/>
<path d="M51.4399 147.485C51.6652 147.147 51.9656 146.508 51.7215 146.208C51.4587 145.87 50.8204 146.246 50.445 145.87C50.2948 145.72 50.2572 145.513 50.3135 144.406C50.3699 143.43 50.3886 142.923 50.445 142.81C50.8204 141.965 51.5526 142.04 52.0407 141.158C52.3035 140.67 52.1158 140.595 52.3223 139.694C52.4725 139.055 52.8855 137.291 54.0119 136.878C54.5751 136.671 54.9881 136.915 55.4199 136.54C55.7203 136.277 55.8142 135.92 55.8517 135.657L55.1008 134.681L54.7816 132.747L53.5614 130.457L53.4675 128.805L25.4386 87.4469L31.4837 62.4782L31.2209 62.4218L16.0143 58.4794L5.25712 55.1565C5.2759 55.3067 5.29467 55.4944 5.25712 55.6822C5.18203 56.3768 4.88165 56.358 4.67514 57.1653C4.35599 58.4419 5.01307 58.8361 4.86288 60.0564C4.73146 61.1452 4.16826 61.0514 3.49241 62.7598C2.85411 64.3931 3.26713 64.7498 2.62883 65.5758C1.82157 66.6647 0.882895 66.3831 0.282143 67.3217C-0.337382 68.2792 0.0380876 69.5182 0.394784 70.7573C1.27714 73.7235 2.92921 74.5308 2.51619 75.9763C2.23459 76.9338 1.4461 76.8399 1.27714 77.91C1.12695 78.8487 1.65261 79.3931 1.38978 80.6697C1.27714 81.1766 1.18327 81.1578 1.10818 81.552C0.920442 82.4344 1.22082 83.3731 3.26713 86.7335C3.98052 87.9163 4.2809 88.3293 4.16826 88.9488C4.01807 89.9063 3.06062 90.4695 3.26713 90.8074C3.41732 91.0514 3.96175 90.7135 4.58128 90.9576C5.67014 91.3706 5.78278 93.1165 6.1207 93.079C6.42108 93.0414 6.15825 91.6334 6.85287 91.2204C7.15325 91.0327 7.35976 91.2204 8.71145 91.5396C10.1382 91.8775 10.5325 91.8399 10.9643 92.2717C11.2646 92.5909 11.5462 93.1353 11.3961 93.323C11.0018 93.8111 8.12947 91.5959 7.45362 92.2717C7.28466 92.4407 7.34098 92.7223 7.41608 93.2855C7.69768 95.069 8.54249 95.8762 8.27966 96.1766C8.05437 96.4207 7.15325 96.1578 6.66514 95.5571C6.15825 94.9376 6.28967 94.1491 6.15825 94.1491C5.87665 94.1491 5.70769 95.726 5.67014 96.7961C5.65137 97.885 5.57627 100.269 6.72146 100.814C7.07815 100.983 7.24711 100.814 7.60381 101.058C8.27966 101.49 8.42984 102.428 8.3923 103.066C8.37352 103.311 8.29843 104.137 7.77277 104.399C7.3973 104.587 7.17202 104.324 6.89042 104.474C6.38353 104.756 6.43985 106.089 6.85287 107.178C7.22834 108.192 7.64136 108.248 8.33598 109.299C9.36852 110.914 8.76777 111.327 9.70644 112.866C10.7202 114.575 11.8091 114.687 11.8278 115.795C11.8278 116.715 11.1145 117.184 11.4148 117.879C11.6777 118.48 12.2784 118.292 12.6351 118.817C13.2922 119.85 11.4336 121.258 11.7903 123.473C11.8466 123.849 11.978 124.525 12.5037 124.919C13.1044 125.369 13.5738 124.975 14.719 125.219C15.958 125.482 15.8829 126.026 17.4599 126.515C18.4924 126.834 18.774 126.665 19.2997 127.059C19.8817 127.51 19.7878 127.923 20.3322 128.805C20.5388 129.143 21.346 130.476 22.6977 130.983C23.9743 131.471 24.8379 130.889 25.2321 131.452C25.5325 131.884 25.1383 132.297 25.4386 133.461C25.5513 133.874 25.6827 134.343 26.0206 134.456C26.4149 134.606 26.6965 134.155 27.147 134.137C27.8792 134.099 28.3673 135.188 29.3248 136.765C30.9956 139.487 31.6339 139.6 31.709 140.82C31.7653 141.646 31.4837 141.815 31.4837 143.204C31.4837 144.274 31.6339 145.157 31.7653 145.72L32.0657 146.227L50.3323 148.029L50.1634 148.329C50.6327 148.198 51.1208 147.954 51.4399 147.485Z" fill="#11152C"/>
<path d="M15.2823 129.087C15.0758 129.255 15.2072 130.006 15.639 130.25C15.8079 130.344 15.883 130.288 16.5964 130.326C17.1596 130.344 17.3661 130.401 17.3849 130.326C17.4037 130.307 17.4037 130.213 16.7842 129.781C15.9769 129.255 15.47 128.918 15.2823 129.087Z" fill="#11152C"/>
<path d="M13.048 128.899C12.9353 129.087 13.3296 129.518 13.6487 129.744C13.7614 129.819 14.2119 130.119 14.4184 129.95C14.5874 129.819 14.5499 129.481 14.4372 129.274C14.1744 128.73 13.1794 128.655 13.048 128.899Z" fill="#11152C"/>
<path d="M23.8431 136.108C23.6553 136.239 23.9181 136.878 24.0308 137.084C24.3312 137.685 24.9131 138.248 25.176 138.117C25.3825 138.004 25.3262 137.478 25.3262 137.459C25.1947 136.558 24.0871 135.92 23.8431 136.108Z" fill="#11152C"/>
<path d="M22.6601 140.294C22.5287 140.388 22.6976 140.895 22.9417 141.233C23.2796 141.721 23.8804 142.059 24.0306 141.946C24.1432 141.834 23.8804 141.346 23.7302 141.12C23.3923 140.632 22.829 140.182 22.6601 140.294Z" fill="#11152C"/>
<path d="M54.2751 124.318C54.4065 123.642 54.5004 123.736 54.613 123.098C54.8008 121.859 54.4065 121.483 54.6506 120.47C54.6881 120.357 54.9885 119.137 55.5893 119.062C55.8896 119.024 56.0023 119.324 56.6218 119.531C57.1662 119.719 57.2789 119.531 57.7107 119.681C58.593 119.963 58.7432 120.939 59.175 120.901C59.3627 120.883 59.6256 120.676 59.8884 119.737L60.7895 111.89L68.7119 70.119L49.9384 66.552L31.5216 62.4782L25.4766 87.4469L53.4866 128.786V128.861C54.0123 128.242 54.2188 127.697 54.2751 127.284C54.4253 126.327 54.0123 125.745 54.2751 124.318Z" fill="#11152C"/>
<path d="M95.2761 117.729L114.181 119.869L143.092 121.99L144.838 88.0665L99.2373 83.6735L95.0508 117.691L95.2761 117.729Z" fill="#11152C"/>
<path d="M95.0506 117.691L99.2371 83.6735L86.396 82.4344L87.5224 73.3105L68.6738 70.1941L60.7514 111.89L60.7139 112.19L64.8628 113.11L95.0506 117.691Z" fill="#11152C"/>
<path d="M64.8633 113.11L60.7143 112.19L59.8507 119.719C59.5879 120.657 59.3439 120.883 59.1374 120.883C58.7056 120.92 58.5742 119.944 57.673 119.662C57.26 119.531 57.1474 119.7 56.5842 119.512C55.9646 119.306 55.852 119.005 55.5516 119.043C54.9509 119.118 54.6505 120.338 54.6129 120.451C54.3689 121.465 54.7631 121.84 54.5754 123.079C54.4815 123.717 54.3689 123.623 54.2375 124.299C53.9746 125.726 54.3877 126.308 54.2375 127.266C54.1624 127.679 53.9746 128.242 53.449 128.843L53.5429 130.401L54.7631 132.691L55.0823 134.625L55.8332 135.601C55.7957 135.864 55.683 136.221 55.4014 136.483C54.9696 136.859 54.5566 136.615 53.9934 136.821C52.867 137.234 52.454 138.999 52.3038 139.637C52.0973 140.538 52.285 140.614 52.0222 141.102C51.5341 142.003 50.8019 141.909 50.4265 142.754C50.3701 142.866 50.3514 143.373 50.295 144.349C50.2387 145.457 50.2575 145.664 50.4265 145.814C50.8019 146.189 51.4402 145.814 51.703 146.152C51.9471 146.471 51.6467 147.109 51.4214 147.428C51.0835 147.898 50.6142 148.142 50.1824 148.254L49.9571 148.63L49.2062 148.893L49.1123 149.813L74.7194 164.418L89.0248 166.333L95.0323 117.616L64.8633 113.11Z" fill="#11152C"/>
<path d="M194.118 122.572L194.475 108.117L193.686 104.268C193.067 103.817 192.598 103.367 192.222 102.954C191.603 102.278 190.608 101.189 190.945 100.513C191.077 100.232 191.358 100.232 191.603 99.7999C191.884 99.3118 191.94 98.5796 191.603 98.298C191.321 98.0539 190.964 98.3168 190.439 98.2041C189.819 98.0727 189.406 97.5283 189.162 97.059L144.443 95.7448L143.092 121.84L151.615 122.441L194.118 122.572Z" fill="#11152C"/>
<path d="M114.181 119.869L95.276 117.729L95.0507 117.691L89.0244 166.408L95.5576 167.272L96.1208 163.498L107.178 164.944V162.635L133.33 164.231L134.7 149.399L135.639 126.252L136.334 126.271L136.221 121.483L114.181 119.869Z" fill="#11152C"/>
<path d="M196.033 137.516L195.282 133.067L195.414 129.687L194.456 126.496L194.118 122.741V122.572L151.615 122.441L143.092 121.84V121.99L136.221 121.483L136.333 126.271L157.81 127.059L156.815 135.751L156.872 143.505L158.993 145.382C159.275 145.175 159.65 144.969 159.988 145.063C160.345 145.175 160.363 145.495 160.739 145.626C161.265 145.814 161.659 145.326 161.922 145.495C162.278 145.72 161.678 146.621 162.053 147.184C162.541 147.954 164.062 146.903 165.808 147.747C166.577 148.123 167.103 148.724 167.629 148.498C167.929 148.367 167.873 148.085 168.192 147.935C168.868 147.597 169.957 148.442 170.445 148.818C171.459 149.606 171.346 149.925 171.89 150.075C172.923 150.357 173.674 149.193 174.387 149.568C174.819 149.794 174.631 150.226 175.138 150.751C175.814 151.446 177.147 151.69 177.766 151.183C178.442 150.639 178.179 149.324 178.386 149.306C178.536 149.287 178.517 149.925 178.949 150.376C179.419 150.864 179.963 150.714 181.146 150.883C183.004 151.145 183.53 151.84 184.093 151.446C184.656 151.052 184.375 150.132 184.9 149.944C185.351 149.775 185.633 150.413 186.402 150.376C187.078 150.357 187.172 149.831 187.904 149.756C188.58 149.681 188.636 150.094 189.462 150.188C190.57 150.319 191.002 149.662 191.772 149.944C192.053 150.038 192.41 150.282 192.71 150.883L196.409 152.009L196.033 137.516Z" fill="#11152C"/>
<path d="M201.797 184.299C202.098 183.661 202.605 183.717 202.886 183.079C203.187 182.347 202.623 182.009 202.849 180.864C202.98 180.151 203.224 180.169 203.224 179.644C203.205 178.78 202.548 178.536 202.567 177.86C202.586 177.222 203.187 177.109 203.656 176.396C204.519 175.044 204.144 172.622 203.055 171.177C202.586 170.576 202.041 170.219 201.891 169.337C201.779 168.699 202.004 168.548 201.854 167.985C201.61 167.084 200.859 166.953 200.352 166.145C199.882 165.395 199.957 164.587 200.014 163.742C200.014 163.649 199.864 160.72 199.544 154.881C199.488 153.849 199.394 152.422 198.794 152.253C198.287 152.103 197.855 152.929 197.141 152.854C196.672 152.816 196.278 152.384 195.978 151.84L192.767 150.864C192.467 150.263 192.11 150.019 191.829 149.925C191.059 149.644 190.608 150.301 189.519 150.169C188.693 150.075 188.618 149.662 187.961 149.737C187.229 149.813 187.135 150.338 186.459 150.357C185.69 150.395 185.408 149.756 184.957 149.925C184.432 150.113 184.713 151.033 184.15 151.427C183.606 151.821 183.061 151.127 181.203 150.864C180.039 150.695 179.476 150.845 179.006 150.357C178.574 149.906 178.593 149.287 178.443 149.287C178.218 149.306 178.481 150.62 177.824 151.164C177.204 151.671 175.871 151.427 175.195 150.732C174.688 150.207 174.876 149.756 174.444 149.55C173.712 149.174 172.98 150.319 171.947 150.057C171.422 149.925 171.534 149.587 170.502 148.799C170.014 148.423 168.925 147.578 168.249 147.916C167.93 148.067 167.986 148.348 167.686 148.48C167.179 148.705 166.635 148.104 165.865 147.729C164.119 146.884 162.598 147.935 162.11 147.165C161.753 146.602 162.354 145.701 161.979 145.476C161.697 145.307 161.322 145.776 160.796 145.607C160.42 145.476 160.402 145.157 160.045 145.044C159.688 144.95 159.313 145.157 159.05 145.363L156.929 143.486L156.872 135.732L157.867 127.04L135.715 126.233L134.776 149.381L133.405 164.212L107.254 162.616V164.906L108.324 165.038C109.281 165.582 109.676 166.164 109.863 166.615C110.089 167.197 109.957 167.46 110.258 167.835C110.783 168.455 111.515 168.042 112.135 168.642C112.661 169.149 112.285 169.6 112.848 170.332C113.318 170.933 113.693 170.745 114.444 171.44C115.045 172.003 114.951 172.266 115.495 172.904C116.04 173.542 116.34 173.486 117.542 174.293C118.987 175.269 119.738 175.758 119.964 176.621C120.17 177.391 119.776 177.654 120.114 178.442C120.433 179.193 120.902 179.212 121.165 179.906C121.428 180.582 121.071 180.845 121.034 181.84C120.996 183.173 121.541 184.9 122.573 185.276C123.005 185.426 123.249 185.257 123.681 185.539C124.188 185.876 124.037 186.271 124.45 186.721C125.145 187.491 126.046 186.984 126.853 187.791C127.266 188.223 127.022 188.373 127.473 188.918C127.942 189.481 128.581 189.706 129.82 190.176C129.932 190.213 130.327 190.345 131.153 190.589C132.091 190.87 132.26 190.908 132.448 190.814C132.805 190.607 132.561 190.138 132.936 189.5C133.293 188.918 133.668 188.993 134.194 188.355C134.4 188.11 134.457 187.942 134.776 187.191C135.752 184.919 135.884 184.788 136.052 184.675C136.653 184.318 136.972 184.769 137.93 184.356C138.643 184.055 138.643 183.736 139.15 183.586C139.995 183.342 140.352 184.112 141.647 184.487C143.374 184.975 144.313 184.055 145.308 184.825C145.665 185.107 145.571 185.257 146.078 185.914C146.828 186.871 147.486 187.153 148.199 187.697C149.945 189.012 150.752 190.964 151.128 191.846C151.541 192.841 151.559 193.311 152.16 194.287C152.592 195 152.874 195.207 153.099 195.864C153.474 196.934 153.061 197.216 153.437 197.798C154.019 198.699 155.239 198.398 155.577 199.243C155.765 199.731 155.389 199.938 155.596 200.539C155.802 201.158 156.253 201.121 156.966 201.928C157.717 202.791 157.492 203.129 158.186 203.674C158.768 204.124 159.05 203.993 159.425 204.462C159.745 204.875 159.97 205.551 159.707 206.039C159.482 206.452 159.031 206.471 159.031 206.715C159.031 207.053 159.914 207.053 160.176 207.635C160.402 208.085 159.989 208.386 159.989 209.024C159.97 210.038 160.984 210.151 161.697 211.559C162.392 212.929 161.979 213.924 162.767 214.337C163.218 214.581 163.462 214.3 164.081 214.6C164.832 214.957 164.72 215.482 165.339 215.82C166.259 216.327 166.972 215.407 167.874 215.895C168.587 216.29 168.625 217.153 169.319 217.228C169.62 217.247 169.77 217.116 170.108 217.247C170.483 217.397 170.502 217.679 170.783 217.716C171.14 217.773 171.29 217.378 171.685 217.378C172.079 217.378 172.36 217.754 172.511 217.942C173.506 219.143 175.533 220.007 176.021 219.612C176.284 219.387 175.965 218.937 176.284 218.561C176.753 218.017 177.861 218.486 178.011 218.167C178.124 217.923 177.542 217.66 177.11 216.796C176.866 216.308 176.979 216.252 176.716 215.539C176.322 214.487 176.059 214.544 175.834 213.793C175.627 213.06 175.871 212.985 175.627 211.859C175.496 211.239 175.421 210.92 175.158 210.601C175.026 210.432 174.895 210.338 174.876 210.151C174.839 209.85 175.083 209.662 175.345 209.287C175.439 209.156 175.815 208.611 175.927 207.973C176.021 207.466 175.852 207.41 175.871 206.602C175.871 206.377 175.89 205.927 176.04 205.382C176.303 204.387 176.716 204.274 176.678 203.655C176.641 203.317 176.509 203.054 176.228 202.585C175.871 201.965 175.589 201.796 175.665 201.665C175.834 201.327 177.786 202.191 178.03 201.74C178.105 201.627 177.955 201.534 177.955 201.214C177.955 200.914 178.086 200.764 178.631 199.957C179.044 199.356 179.063 199.318 179.175 199.206C179.569 198.886 179.832 198.999 180.208 198.811C181.109 198.323 181.034 196.765 181.334 196.765C181.484 196.765 181.428 197.178 181.728 197.347C182.123 197.572 182.799 197.253 183.155 196.821C183.287 196.671 183.531 196.39 183.493 196.052C183.437 195.507 182.686 195.188 182.761 195.075C182.817 194.982 183.287 195.282 183.568 195.075C183.812 194.906 183.681 194.456 183.869 194.4C184.038 194.343 184.131 194.662 184.451 194.7C184.864 194.775 185.145 194.287 185.389 194.4C185.615 194.512 185.427 195 185.671 195.151C185.915 195.32 186.422 194.925 187.191 194.475C187.191 194.475 187.98 194.005 188.787 193.649C190.083 193.067 190.289 193.386 191.303 192.879C191.922 192.579 192.805 192.128 193.049 191.283C193.293 190.513 192.899 189.725 193.218 189.556C193.349 189.481 193.443 189.612 193.687 189.631C194.438 189.706 195.396 188.786 195.339 188.054C195.32 187.81 195.189 187.81 194.832 187.153C194.476 186.515 194.307 186.196 194.401 185.933C194.457 185.745 194.795 185.576 195.452 185.238C196.334 184.806 196.484 184.806 196.578 184.881C196.822 185.05 196.766 185.538 196.766 185.595C196.672 186.289 195.996 186.44 195.996 186.928C195.996 187.284 196.372 187.679 196.766 187.716C197.386 187.791 197.592 186.947 198.7 186.477C199.244 186.252 199.244 186.421 200.033 186.214C200.896 185.97 201.178 185.67 201.797 185.313C201.61 185.032 201.628 184.656 201.797 184.299Z" fill="#11152C"/>
<path d="M231.854 176.077L232.06 173.167L218.393 173.73L218.318 169.769L221.847 163.987C221.754 163.799 221.678 163.536 221.678 163.217C221.716 162.503 222.242 162.128 222.073 161.734C222.016 161.602 221.904 161.452 221.547 161.358C221.247 160.194 221.172 159.988 221.172 159.988C220.871 159.124 220.59 159.012 220.364 158.43C220.177 157.96 220.026 157.209 220.308 156.12L207.11 156.74L199.582 156.477C199.845 161.302 199.976 163.742 199.976 163.818C199.92 164.644 199.826 165.451 200.314 166.221C200.821 167.028 201.572 167.14 201.816 168.06C201.966 168.624 201.741 168.774 201.854 169.412C202.023 170.276 202.567 170.651 203.018 171.252C204.125 172.679 204.501 175.119 203.618 176.471C203.168 177.184 202.567 177.278 202.529 177.935C202.511 178.611 203.168 178.855 203.187 179.719C203.187 180.244 202.943 180.226 202.811 180.939C202.605 182.065 203.168 182.422 202.849 183.154C202.586 183.793 202.06 183.736 201.76 184.375C201.591 184.731 201.591 185.088 201.628 185.445C201.816 185.332 202.023 185.238 202.285 185.125C203.205 184.731 203.994 184.6 204.595 184.525C205.665 184.375 206.491 184.412 207.035 184.431C207.73 184.468 208.668 184.525 209.795 184.881C211.391 185.37 211.484 185.895 212.761 186.083C213.643 186.214 213.512 185.97 214.882 186.008C216.741 186.083 217.642 186.59 218.318 186.027C218.356 185.989 218.712 185.689 218.637 185.426C218.581 185.257 218.356 185.201 217.886 185.05C216.572 184.619 216.478 184.393 216.459 184.318C216.403 184.13 216.497 183.924 216.61 183.811C216.685 183.736 216.872 183.642 217.68 183.849C218.28 183.999 218.618 184.093 219.031 184.356C219.782 184.825 219.595 185.163 220.12 185.426C221.078 185.933 222.129 185.069 222.598 185.614C222.805 185.839 222.786 186.196 222.786 186.252C222.786 186.721 222.448 186.89 222.467 187.266C222.486 187.66 222.88 187.942 223.011 188.054C223.537 188.43 223.894 188.223 224.983 188.392C226.09 188.58 226.372 188.918 226.86 188.692C227.142 188.561 227.104 188.411 227.648 187.81C228.249 187.134 228.643 186.684 229.169 186.684C229.545 186.684 229.958 186.89 230.183 187.191C230.502 187.604 230.295 187.998 230.615 188.242C230.84 188.411 231.215 188.392 231.459 188.242C231.797 188.035 231.929 187.604 231.854 187.303C231.76 186.984 231.478 186.89 231.516 186.665C231.535 186.534 231.647 186.515 231.779 186.365C232.06 186.027 231.835 185.726 232.023 185.407C232.21 185.069 232.774 184.844 233.224 184.994C233.468 185.069 233.75 185.294 233.825 185.595C233.9 185.914 233.675 186.083 233.787 186.252C233.9 186.44 234.219 186.327 234.839 186.421C235.346 186.496 235.721 186.646 235.928 186.74C236.247 186.89 236.585 187.022 236.904 187.341C237.035 187.472 237.298 187.735 237.429 188.167C237.617 188.749 237.429 189.237 237.523 189.256C237.655 189.293 237.918 188.035 238.387 187.998C238.856 187.96 239.269 189.068 239.476 188.993C239.626 188.937 239.382 188.317 239.682 188.054C239.908 187.866 240.227 187.998 240.377 187.791C240.433 187.697 240.452 187.566 240.396 187.303C240.339 187.134 240.058 186.083 239.138 185.745C238.725 185.595 238.575 185.726 237.974 185.707C237.167 185.67 236.603 185.388 235.515 184.806C234.595 184.318 233.525 183.755 233.618 183.286C233.656 183.136 233.806 182.967 233.956 182.948C234.294 182.91 234.463 183.53 234.782 183.511C235.045 183.492 235.026 183.079 235.364 182.76C236.003 182.159 237.073 182.779 237.373 182.328C237.58 182.009 237.317 181.296 236.904 181.052C236.716 180.939 236.528 180.958 236.434 180.789C236.341 180.601 236.472 180.47 236.434 180.226C236.378 179.925 236.096 179.606 235.834 179.606C235.27 179.587 234.951 181.033 234.463 180.977C234.313 180.958 234.219 180.808 234.2 180.77C234.088 180.582 234.125 180.338 234.257 180.038C234.294 179.963 234.332 179.888 234.369 179.813L233.581 178.123L231.854 176.077Z" fill="#11152C"/>
<path d="M220.758 153.961C220.608 153.548 220.214 153.098 220.382 152.591C220.495 152.272 220.72 152.216 220.758 151.896C220.796 151.521 220.476 151.333 220.251 150.958C219.782 150.169 219.988 148.855 220.627 148.273C221.133 147.804 221.753 147.973 221.884 147.578C221.997 147.203 221.471 146.996 221.377 146.396C221.246 145.495 222.204 144.65 222.504 144.387C223.311 143.674 223.612 143.955 224.006 143.448C224.757 142.472 223.743 141.271 224.513 140.388C224.982 139.844 225.752 139.863 225.827 139.318C225.864 138.999 225.602 138.83 225.695 138.511C225.808 138.135 226.202 138.06 226.503 137.816C226.841 137.553 227.16 136.99 227.066 135.695L226.503 134.568L228.061 133.949L229.056 129.95L225.245 129.894L225.433 128.767L226.803 127.397L225.996 125.707L194.438 126.496V126.533L195.395 129.725L195.264 133.104L196.014 137.553L196.39 152.065L195.921 151.915C196.221 152.46 196.615 152.891 197.085 152.929C197.798 153.004 198.23 152.178 198.737 152.328C199.337 152.497 199.431 153.924 199.488 154.956C199.525 155.482 199.544 156.008 199.563 156.477L207.091 156.74L220.195 156.12C220.889 155.05 220.908 154.393 220.758 153.961Z" fill="#11152C"/>
<path d="M241.146 136.971L230.126 138.023L226.277 137.985C226.033 138.135 225.77 138.248 225.677 138.53C225.583 138.849 225.846 139.018 225.808 139.337C225.733 139.881 224.963 139.844 224.494 140.407C223.724 141.289 224.738 142.491 223.987 143.467C223.593 143.974 223.292 143.692 222.485 144.406C222.185 144.669 221.227 145.513 221.359 146.415C221.453 147.034 221.978 147.241 221.866 147.597C221.734 147.991 221.133 147.823 220.608 148.292C219.969 148.874 219.763 150.188 220.232 150.976C220.458 151.352 220.777 151.54 220.739 151.915C220.702 152.216 220.476 152.291 220.364 152.61C220.195 153.117 220.589 153.567 220.739 153.98C220.889 154.412 220.871 155.069 220.195 156.12H220.307C220.026 157.228 220.176 157.96 220.364 158.43C220.608 159.012 220.889 159.124 221.171 159.988C221.171 159.988 221.246 160.213 221.546 161.358C221.903 161.452 222.016 161.602 222.072 161.734C222.222 162.128 221.697 162.503 221.678 163.217C221.659 163.536 221.753 163.799 221.847 163.987L218.317 169.769L218.392 173.73L232.06 173.167L231.853 176.077L233.599 178.01L234.388 179.7C234.707 179.08 235.176 178.667 235.214 178.63C236.133 177.823 237.053 177.372 237.504 177.184C238.518 176.734 239.025 176.508 239.7 176.527C240.264 176.527 240.583 176.677 241.165 176.49C241.672 176.339 241.765 176.114 242.179 176.114C242.61 176.114 242.779 176.377 243.023 176.471L241.071 163.987L241.146 136.971Z" fill="#11152C"/>
<path d="M266.058 167.291L266.434 164.906L265.439 162.278L266.565 158.279L265.495 157.341L265.251 156.158L264.256 154.712L260.633 141.327L259.319 138.135L259.225 135.263L241.165 136.971L241.108 163.987L243.061 176.471C243.136 176.508 243.23 176.508 243.324 176.508C243.831 176.452 243.849 175.814 244.356 175.758C244.826 175.701 245.051 176.208 245.52 176.114C245.783 176.058 245.952 175.851 246.046 175.739C246.722 174.875 246.102 173.692 246.534 173.448C246.816 173.298 247.398 173.599 247.454 173.936C247.491 174.181 247.191 174.274 247.153 174.65C247.116 175.082 247.51 175.438 247.623 175.532C247.942 175.833 248.148 175.776 248.261 176.02C248.43 176.396 247.998 176.715 248.13 176.959C248.28 177.203 249.031 177.166 249.894 176.846L250.045 174.162L247.979 172.528L247.923 171.083L267.26 169.074L267.279 169.093L267.204 168.192L266.058 167.291Z" fill="#11152C"/>
<path d="M313.011 206.077C313.292 205.513 313.461 204.856 313.123 202.115C312.861 199.994 312.748 198.943 312.41 197.948C311.884 196.314 311.171 195.188 310.533 194.156C309.744 192.916 309.688 193.067 308.224 191.002C307.961 190.645 306.909 189.143 305.745 187.097C304.563 185.013 304.488 184.525 304.582 184.468C304.694 184.393 305.032 184.9 305.257 184.806C305.577 184.694 305.464 183.567 305.295 182.854C304.807 180.883 303.342 180.676 301.371 178.348C301.165 178.104 300.245 176.565 298.386 173.467C297.147 171.421 297.053 171.196 296.941 170.839C296.584 169.731 296.603 168.905 295.852 168.342C295.777 168.286 295.702 168.229 295.627 168.192L289.769 167.741L290.389 169.675L290.332 171.609H288.962L289.018 170.294L269.118 171.421L267.241 169.037L247.904 171.045L247.961 172.491L250.026 174.124L249.876 176.809C250.27 176.659 250.683 176.471 251.058 176.208C251.302 176.058 251.49 175.87 251.884 175.532C253.292 174.312 253.668 173.599 254.193 173.711C254.437 173.768 254.663 173.993 254.663 174.199C254.682 174.687 253.499 175.082 253.536 175.176C253.555 175.232 254.006 175.138 254.531 174.913C255.264 174.612 255.282 174.443 255.864 174.218C256.653 173.899 256.747 174.162 257.329 173.843C257.911 173.542 258.192 173.11 258.436 173.223C258.624 173.298 258.568 173.542 258.755 173.636C259.018 173.749 259.244 173.336 259.694 173.298C260.182 173.261 260.652 173.711 260.595 173.861C260.52 174.049 259.6 173.58 258.849 174.068C258.699 174.162 258.399 174.406 258.436 174.556C258.549 174.913 260.22 174.105 261.909 174.725C263.036 175.138 263.749 176.002 263.937 175.833C264.031 175.739 263.918 175.457 263.805 175.269C263.618 174.988 263.392 175.007 263.242 174.744C263.13 174.537 263.111 174.256 263.205 174.199C263.374 174.087 263.674 174.669 264.237 174.725C264.8 174.781 265.251 174.274 265.307 174.331C265.382 174.425 264.463 175.082 264.594 175.457C264.744 175.87 266.058 175.758 266.077 175.889C266.077 175.983 265.551 176.002 265.514 176.171C265.458 176.433 266.697 176.508 266.997 177.297C267.26 177.992 266.734 178.498 267.016 178.855C267.429 179.4 269.362 179.118 270.752 178.067C271.897 177.203 272.178 176.189 273.267 176.114C273.68 176.077 274.056 176.208 274.356 175.926C274.713 175.607 274.488 175.194 274.769 174.706C275.163 173.993 276.421 173.599 277.247 173.955C278.017 174.293 278.055 175.157 278.843 175.251C279.256 175.307 279.35 175.082 279.688 175.176C280.289 175.363 280.176 176.077 280.927 176.734C281.453 177.184 281.734 177.053 281.941 177.447C282.241 178.029 281.79 178.686 282.053 178.893C282.26 179.043 282.504 178.686 282.992 178.705C283.217 178.705 283.499 178.799 284.682 179.888C285.508 180.657 285.545 180.77 285.827 180.845C286.54 181.033 287.103 180.545 287.366 180.826C287.554 181.014 287.31 181.239 287.441 181.671C287.667 182.441 288.718 182.704 288.624 182.985C288.586 183.098 288.418 183.042 288.342 183.173C288.173 183.455 288.812 183.999 289.112 184.581C289.413 185.163 289.3 185.614 289.168 186.871C288.962 188.73 288.849 189.894 289.112 191.208C289.244 191.865 289.488 192.992 290.182 193.179C290.445 193.254 290.802 193.179 290.877 193.01C291.027 192.691 290.088 192.278 290.032 191.415C290.013 191.189 290.07 190.814 290.276 190.72C290.483 190.626 290.802 190.851 290.971 191.058C291.309 191.49 291.177 192.072 291.29 192.09C291.44 192.109 291.59 191.34 291.853 191.321C292.06 191.321 292.304 191.753 292.304 192.203C292.304 192.729 291.928 192.86 291.459 193.686C291.29 193.987 290.727 195 291.065 195.413C291.271 195.676 291.684 195.545 291.797 195.808C291.909 196.07 291.553 196.296 291.647 196.596C291.778 196.972 292.454 196.84 292.66 197.272C292.811 197.572 292.548 197.779 292.698 198.117C292.829 198.436 293.092 198.417 293.486 198.699C294.294 199.281 294.219 199.975 294.801 200.107C295.063 200.163 295.401 200.088 295.533 199.881C295.739 199.544 295.232 198.924 295.326 198.849C295.401 198.793 295.608 199.149 295.889 199.131C296.209 199.112 296.359 198.642 296.453 198.68C296.603 198.736 296.133 199.731 296.434 200.783C296.49 200.989 296.678 201.609 297.11 201.721C297.504 201.834 297.898 201.458 297.992 201.552C298.105 201.684 297.541 202.191 297.673 202.435C297.786 202.604 298.142 202.453 298.405 202.641C298.705 202.848 298.649 203.317 298.668 203.711C298.705 204.612 299.081 205.701 299.7 206.246C299.963 206.471 300.433 206.621 301.39 206.884C302.385 207.166 302.986 207.203 303.23 207.672C303.361 207.935 303.249 208.067 303.418 208.33C303.68 208.743 304.075 208.611 304.469 208.912C305.145 209.437 304.75 210.357 305.37 210.733C305.67 210.92 305.802 210.714 306.478 210.883C307.135 211.033 307.792 211.408 307.754 211.596C307.717 211.746 307.135 211.784 306.722 211.728C306.065 211.652 305.745 211.371 305.614 211.521C305.483 211.652 305.595 212.047 305.821 212.31C306.177 212.741 306.816 212.816 307.285 212.741C307.754 212.666 307.735 212.478 308.393 212.234C309.162 211.953 309.256 212.159 309.782 211.896C310.458 211.559 310.514 211.089 311.04 211.07C311.265 211.052 311.565 211.146 311.678 211.352C311.791 211.559 311.659 211.821 311.434 212.234C310.852 213.267 310.476 213.736 310.533 213.774C310.589 213.849 311.321 213.398 311.922 212.629C312.11 212.366 313.142 211.033 312.692 210.019C312.541 209.681 312.391 209.756 312.204 209.362C311.866 208.63 312.128 207.804 312.316 207.259C312.617 206.696 312.842 206.358 313.011 206.077Z" fill="#11152C"/>
<path d="M294.575 155.201C294.05 154.281 294.125 153.267 293.167 152.572C292.36 151.99 291.928 152.441 291.252 151.915C290.032 150.976 291.008 149.231 289.713 147.935C289.187 147.41 288.925 147.578 287.873 146.715C287.291 146.227 287.122 145.964 286.522 145.307C285.151 143.824 284.344 142.979 283.105 142.397C282.297 142.022 281.847 142.022 281.265 141.458C280.983 141.177 280.927 141.027 280.326 139.956C279.2 137.966 278.956 137.722 278.637 137.61C277.998 137.366 277.792 137.816 276.985 137.647C275.746 137.384 274.694 135.939 274.957 135.113C275.126 134.606 275.652 134.625 275.933 133.986C276.046 133.742 276.065 133.48 276.065 133.236L263.824 134.813L259.206 135.244L259.3 138.117L260.614 141.308L264.237 154.694L265.232 156.139L265.476 157.322L266.547 158.261L265.42 162.259L266.415 164.888L266.04 167.272L267.166 168.154L267.241 169.055L269.1 171.421L289 170.294L288.943 171.609H290.314L290.37 169.675L289.751 167.741L295.608 168.192C295.345 168.042 295.139 167.985 294.763 167.647C294.632 167.535 293.806 166.784 294.012 166.258C294.087 166.07 294.219 166.089 294.463 165.864C294.876 165.432 295.063 164.625 294.763 164.212C294.5 163.836 293.937 163.874 293.937 163.686C293.937 163.536 294.313 163.536 294.369 163.311C294.463 162.992 293.824 162.597 293.918 162.428C293.975 162.334 294.2 162.466 294.463 162.391C295.007 162.222 295.139 161.208 295.139 161.152C295.214 160.495 294.913 160.438 295.007 159.838C295.101 159.143 295.57 158.655 295.401 158.505C295.326 158.43 295.157 158.542 295.026 158.448C294.819 158.317 294.819 157.904 294.951 157.829C295.082 157.754 295.27 158.017 295.42 157.941C295.589 157.866 295.627 157.51 295.533 157.209C295.42 156.815 295.12 156.627 295.176 156.552C295.232 156.477 295.608 156.796 295.852 156.665C295.927 156.627 295.983 156.552 296.021 156.477C295.27 156.102 294.838 155.632 294.575 155.201Z" fill="#11152C"/>
<path d="M306.741 134.231L300.639 130.851L293.505 131.659L291.534 129.744L282.391 130.251L276.234 133.217L276.083 133.236C276.102 133.48 276.065 133.742 275.952 133.986C275.67 134.625 275.126 134.606 274.976 135.113C274.713 135.939 275.745 137.384 277.003 137.647C277.792 137.816 278.017 137.366 278.655 137.61C278.975 137.722 279.219 137.966 280.345 139.956C280.946 141.027 281.002 141.177 281.284 141.458C281.866 142.022 282.316 142.022 283.123 142.397C284.381 142.979 285.17 143.824 286.54 145.307C287.16 145.964 287.31 146.227 287.892 146.715C288.943 147.578 289.206 147.41 289.732 147.935C291.046 149.231 290.051 150.995 291.271 151.915C291.947 152.441 292.398 151.99 293.186 152.572C294.144 153.267 294.068 154.281 294.594 155.201C294.857 155.632 295.27 156.102 296.04 156.477C296.134 156.271 296.134 155.989 296.002 155.82C295.814 155.595 295.42 155.689 295.401 155.614C295.383 155.52 295.965 155.463 296.528 155.069C296.715 154.938 297.11 154.656 297.128 154.281C297.128 154.074 297.035 154.037 296.941 153.717C296.828 153.323 296.791 152.741 297.035 152.61C297.26 152.478 297.56 152.91 297.823 152.798C298.048 152.704 298.161 152.272 298.03 151.953C297.861 151.502 297.354 151.596 297.072 151.145C296.734 150.601 296.997 149.775 297.147 149.756C297.279 149.737 297.279 150.301 297.767 150.976C298.011 151.314 298.33 151.784 298.762 151.746C299.25 151.709 299.719 151.033 299.607 150.488C299.532 150.113 299.194 149.888 299.1 149.831C298.537 149.475 297.917 149.644 297.898 149.55C297.879 149.475 298.424 149.212 299.1 149.231C299.888 149.231 300.132 149.587 300.752 149.475C301.165 149.381 301.559 149.118 301.54 148.93C301.503 148.705 300.902 148.742 300.752 148.367C300.658 148.142 300.752 147.841 300.902 147.804C301.109 147.729 301.277 148.254 301.672 148.367C302.348 148.536 303.493 147.41 303.324 146.659C303.192 146.058 302.254 145.795 302.31 145.664C302.366 145.551 303.061 145.983 303.756 145.776C304.525 145.551 305.013 144.65 305.257 144.18C305.577 143.599 305.652 143.148 306.065 143.017C306.29 142.941 306.609 142.979 306.703 142.791C306.759 142.679 306.665 142.585 306.722 142.435C306.797 142.284 306.947 142.303 307.06 142.172C307.266 141.946 307.097 141.496 307.06 141.383C306.834 140.782 306.346 140.595 306.421 140.445C306.478 140.294 306.966 140.557 307.341 140.369C307.848 140.125 307.698 139.318 307.961 138.342C308.205 137.422 308.731 136.784 309.2 136.258L306.741 134.231Z" fill="#11152C"/>
<path d="M267.804 132.372C268.292 131.884 268.95 132.09 269.363 131.49C269.776 130.908 269.344 130.457 269.682 129.856C270.132 129.068 271.108 129.575 272.441 128.786C273.756 128.016 273.493 127.097 274.826 126.59C275.408 126.364 275.839 126.402 276.196 125.97C276.515 125.576 276.328 125.313 276.628 124.656C276.684 124.525 277.229 123.342 278.073 123.286C278.58 123.248 278.712 123.68 279.144 123.605C279.801 123.492 279.744 122.46 280.514 122.159C281.134 121.915 281.434 122.478 282.016 122.215C282.466 122.028 282.485 121.596 283.199 120.282C283.574 119.587 283.649 119.55 283.818 119.212C284.006 118.836 284.194 118.311 284.269 117.616L283.255 117.729L282.279 118.442L240.395 122.797L240.526 124.543L230.07 125.238L229.882 127.66L229 129.931H229.056L228.061 133.93L226.503 134.55L227.066 135.676C227.16 136.971 226.841 137.535 226.503 137.797C226.428 137.854 226.352 137.891 226.277 137.948L230.126 137.985L263.824 134.794L267.448 134.324C267.279 133.217 267.523 132.672 267.804 132.372Z" fill="#11152C"/>
<path d="M326.659 115.044C326.509 114.406 325.965 113.58 325.383 113.636C324.989 113.674 324.745 114.087 324.726 114.124C324.369 114.744 324.82 115.513 324.613 115.626C324.519 115.682 324.332 115.532 324.238 115.419C323.9 115.006 324.275 114.537 324.012 114.03C323.843 113.711 323.468 113.429 323.168 113.467C322.792 113.523 322.792 114.011 322.285 114.218C322.022 114.331 321.853 114.237 321.553 114.237C320.445 114.237 319.826 115.419 319.469 115.213C319.244 115.1 319.507 114.706 319.281 113.974C319.056 113.26 318.643 113.129 318.643 112.585C318.643 112.134 318.925 111.702 319.056 111.721C319.188 111.74 319.15 112.134 319.375 112.754C319.544 113.26 319.751 113.842 320.126 113.936C320.521 114.03 320.671 113.505 321.797 112.904C321.966 112.81 322.191 112.716 322.548 112.51C323.337 112.059 323.374 111.909 323.374 111.852C323.449 111.421 322.567 110.951 322.623 110.876C322.679 110.782 323.806 111.59 324.181 111.289C324.369 111.139 324.313 110.689 324.181 110.388C324.069 110.144 323.9 109.956 323.712 109.825L317.16 112.021L299.945 115.908L284.25 117.635C284.175 118.348 283.987 118.855 283.8 119.23C283.631 119.568 283.555 119.587 283.18 120.301C282.448 121.633 282.429 122.047 281.997 122.234C281.415 122.478 281.115 121.934 280.495 122.178C279.726 122.478 279.782 123.511 279.125 123.623C278.693 123.699 278.58 123.267 278.055 123.304C277.229 123.361 276.666 124.562 276.609 124.675C276.309 125.332 276.497 125.595 276.177 125.989C275.821 126.421 275.389 126.402 274.807 126.608C273.474 127.097 273.737 128.016 272.423 128.805C271.109 129.575 270.114 129.087 269.663 129.875C269.325 130.457 269.757 130.926 269.344 131.508C268.931 132.09 268.274 131.903 267.786 132.391C267.485 132.672 267.26 133.236 267.429 134.362L276.196 133.236L282.354 130.269L291.497 129.762L293.468 131.677L300.602 130.87L306.703 134.249L309.106 136.296C309.2 136.183 309.294 136.089 309.388 135.995C310.026 135.338 310.758 134.587 311.866 134.343C313.011 134.08 314.138 134.437 314.325 134.005C314.4 133.799 314.231 133.63 314.344 133.311C314.475 132.991 314.795 132.86 314.945 132.766C315.883 132.222 315.17 130.551 316.165 129.143C316.691 128.392 317.198 128.448 317.385 127.716C317.573 126.984 317.273 126.214 317.348 126.214C317.404 126.195 317.479 126.984 317.892 127.115C318.324 127.266 319.056 126.74 319.15 126.195C319.188 125.933 319.075 125.707 319.169 125.632C319.319 125.52 319.544 125.858 319.863 125.82C320.333 125.764 320.352 125.013 320.858 124.863C321.271 124.75 321.459 125.144 321.91 125.069C322.342 124.994 322.398 124.6 322.886 124.093C323.75 123.173 324.519 123.492 324.989 122.685C325.345 122.084 325.233 121.389 325.139 121.371C325.007 121.333 324.876 122.291 324.332 122.422C323.825 122.553 323.28 121.859 323.092 122.009C322.942 122.14 323.205 122.628 323.055 122.722C322.924 122.816 322.736 122.535 322.435 122.516C322.022 122.516 321.947 123.042 321.328 123.379C320.821 123.642 320.389 123.868 319.995 123.699C319.357 123.436 319.225 122.272 319.469 122.14C319.713 122.009 320.126 122.966 320.821 122.948C321.76 122.91 322.679 121.07 322.229 120.47C322.116 120.319 321.853 120.263 321.309 120.188C320.352 120.019 320.089 120.169 319.544 119.981C318.887 119.756 318.399 119.23 318.455 119.099C318.587 118.855 320.577 120 321.178 119.362C321.534 118.986 321.234 118.179 321.384 118.142C321.553 118.104 321.835 119.23 322.191 119.212C322.379 119.212 322.36 118.93 322.604 118.836C323.149 118.573 323.843 119.719 324.519 119.531C324.951 119.418 325.139 118.855 325.27 118.498C325.646 117.428 325.214 116.508 325.533 116.358C325.758 116.245 326.021 116.696 326.303 116.583C326.716 116.433 326.81 115.645 326.659 115.044Z" fill="#11152C"/>
<path d="M232.322 122.741C232.51 121.99 232.623 120.77 232.172 120.545C231.928 120.432 231.759 120.695 231.365 120.676C230.652 120.62 229.882 119.719 229.863 118.836C229.844 118.048 230.426 117.766 230.276 116.959C230.257 116.827 230.22 116.79 229.863 116.152C229.037 114.669 228.887 114.331 228.455 114.124C228.155 113.974 227.892 113.955 227.704 113.936C226.014 113.749 223.536 112.172 223.255 110.313C223.18 109.75 223.311 109.281 223.499 108.567C223.874 107.215 224.475 106.727 224.287 105.845C224.25 105.695 224.137 105.15 223.687 104.85C222.823 104.249 221.715 105.225 220.964 104.625C220.664 104.381 220.401 103.855 220.401 103.367C220.401 102.973 220.589 102.597 220.401 102.428C220.289 102.334 220.101 102.353 220.063 102.372C219.369 102.466 216.872 101.058 215.426 98.3731C215.088 97.7348 214.619 96.6835 214.412 95.2567L214.6 92.666L212.911 90.6384L199.243 91.0139L186.064 91.7273L186.815 94.074L188.693 96.1015L188.937 97.1153H189.143C189.406 97.5846 189.8 98.1103 190.42 98.2605C190.964 98.3731 191.302 98.1103 191.584 98.3543C191.922 98.6359 191.865 99.3681 191.584 99.8562C191.34 100.288 191.058 100.288 190.927 100.57C190.589 101.245 191.584 102.334 192.203 103.01C192.56 103.423 193.048 103.874 193.668 104.324L194.456 108.173L194.1 122.628V122.797L194.419 126.515L225.977 125.726L226.784 127.416L225.414 128.786L225.226 129.913L228.981 129.969L229.863 127.697L230.051 125.276L230.802 125.219C231.872 124.205 232.21 123.229 232.322 122.741Z" fill="#11152C"/>
<path d="M87.2788 73.2542L87.5229 73.3105L86.3965 82.4344L132.241 86.8462L134.682 52.5094L91.7094 47.5908L87.2788 73.2542Z" fill="#11152C"/>
<path d="M88.8369 49.8999C88.3112 50.0501 88.3487 51.1014 87.579 51.3455C87.0722 51.5145 86.8656 51.0827 85.8894 50.8386C84.7442 50.557 84.5002 51.0076 82.8857 50.8386C81.8343 50.726 81.8343 50.5195 81.196 50.5945C80.0884 50.726 79.5627 51.4018 79.1873 51.1578C78.9995 51.0263 78.9995 50.6133 78.9995 49.7873C79.0183 48.6797 79.1497 48.6046 79.0559 48.2854C78.8306 47.3843 77.7042 47.5157 76.803 46.5958C75.9395 45.7322 75.8644 44.5119 75.733 42.8974C75.5828 40.7572 76.0709 39.5557 75.6015 39.3304C75.0008 39.0301 74.0246 40.945 72.6541 40.7009C72.0909 40.607 71.5652 40.1377 71.3963 39.6308C71.2085 39.0488 71.5089 38.5232 71.8281 37.8849C71.8281 37.8849 72.3349 36.8711 73.3299 34.1865C74.2874 31.6145 73.9682 31.0138 73.8368 30.8073C73.5364 30.3755 73.2548 30.5444 72.5227 30.0563C71.3963 29.3242 70.8894 28.1978 70.2135 26.7334C69.6128 25.438 69.8756 25.5695 69.4626 24.8561C68.5615 23.3354 67.604 23.204 67.3975 22.0964C67.2661 21.3642 67.6603 21.2328 67.7167 20.219C67.7918 18.8485 67.0971 18.3229 66.778 17.1589C66.3274 15.5444 67.1347 14.8122 67.8481 11.5832C67.9983 10.9074 68.1672 9.94991 68.2986 8.80472L62.9294 7.52812L61.221 13.2728L58.2736 27.9162L57.7292 32.7785C57.8418 33.0413 57.8981 33.2666 57.8981 33.4919C57.9169 33.9424 57.7667 34.3179 58.0295 34.7497C58.405 35.388 59.1559 35.2566 59.5314 35.8198C59.9069 36.3642 59.6065 37.1715 59.4 37.7347C58.7805 39.4055 57.7479 39.537 56.5464 41.6208C56.0583 42.4656 56.2273 42.4468 55.8518 42.9725C54.8005 44.4556 53.6741 44.3054 53.0733 45.5445C52.7542 46.2015 52.5852 47.1965 53.0358 47.741C53.5051 48.3042 54.3499 47.985 54.5752 48.4544C54.8005 48.9049 54.1246 49.4306 53.6365 50.7072C53.3925 51.3455 53.2986 51.8899 53.2611 52.3029L49.8818 66.5708L68.6553 70.1378L68.6366 70.2129L87.2411 73.2917L90.9395 51.9275C89.8882 50.2003 89.2311 49.7873 88.8369 49.8999Z" fill="#11152C"/>
<path d="M137.122 18.1727L117.748 16.3517L93.023 13.3479C91.0893 13.1226 89.1556 12.8222 87.2407 12.4655L71.8652 9.64952L68.317 8.82349C68.1856 9.98744 68.0167 10.9261 67.8665 11.602C67.1719 14.831 66.3458 15.5444 66.7964 17.1777C67.1155 18.3417 67.8102 18.8673 67.7351 20.2378C67.6787 21.2515 67.2845 21.383 67.4159 22.1151C67.6224 23.2228 68.5799 23.3542 69.481 24.8748C69.894 25.5882 69.6312 25.4568 70.2319 26.7522C70.9078 28.2165 71.4147 29.3429 72.5411 30.0751C73.2733 30.5632 73.5549 30.3942 73.8552 30.826C74.0054 31.0325 74.3058 31.6333 73.3483 34.2053C72.3534 36.8899 71.8465 37.9036 71.8465 37.9036C71.5273 38.5419 71.2269 39.0864 71.4147 39.6496C71.5836 40.1565 72.0905 40.607 72.6725 40.7197C74.0242 40.9637 75.0192 39.0488 75.6199 39.3492C76.0893 39.5745 75.5824 40.776 75.7514 42.9162C75.864 44.5307 75.9579 45.751 76.8214 46.6146C77.7226 47.5345 78.849 47.403 79.0743 48.3042C79.1494 48.6233 79.0179 48.6984 79.0179 49.8061C79.0179 50.6321 79.0179 51.0451 79.2057 51.1765C79.5812 51.4206 80.1068 50.7447 81.2144 50.6133C81.8527 50.5382 81.8527 50.7447 82.9041 50.8574C84.5186 51.0263 84.7626 50.5758 85.9078 50.8574C86.884 51.1014 87.0906 51.5144 87.5974 51.3643C88.3484 51.1202 88.3296 50.0877 88.8553 49.9187C89.2495 49.8061 89.9066 50.2191 90.9954 51.9087L91.7464 47.6096L134.719 52.5282L137.122 18.1727Z" fill="#11152C"/>
<path d="M180.92 46.0701C180.939 45.6196 180.845 45.1502 180.77 44.6997C179.85 39.8186 179.306 38.6358 179.137 36.3079C179.081 35.4819 179.006 34.6371 178.949 33.811C178.799 31.7835 178.78 31.4831 178.63 30.995C178.236 29.5682 177.748 29.6996 177.372 28.423C177.147 27.6345 177.26 27.3529 177.316 24.7997C177.335 23.5982 177.353 22.7534 177.316 21.9274C177.278 21.2328 177.203 20.3129 176.997 19.2052L158.392 19.4681L137.141 18.1727L135.301 43.9675L162.278 45.5069L180.92 46.0701Z" fill="#11152C"/>
<path d="M168.944 70.5883L171.666 73.0289L175.796 72.2779L180.114 73.9675L180.527 75.3756L181.484 75.3943L181.466 75.3192L180.583 73.0101L181.578 70.4381L180.771 68.9362L180.827 67.0026L181.578 66.5708L181.146 51.1202C179.213 49.8624 178.837 49.1302 178.95 48.6796C179.1 48.1164 180.02 48.1352 180.583 47.3092C180.827 46.9337 180.921 46.5395 180.921 46.1264L162.279 45.5632L135.302 44.0238L133.48 69.3305L159.444 70.8511L168.944 70.5883Z" fill="#11152C"/>
<path d="M188.937 97.0777L188.693 96.064L186.816 94.0552L186.065 91.7085L186.102 91.6898L185.577 90.2066L185.333 87.9538L185.089 86.6397L184.525 84.3118L184.206 83.2605L181.484 75.3756H180.508L180.114 73.9676L175.796 72.2779L171.666 73.0289L168.943 70.5883L159.463 70.8699L133.48 69.3305L132.241 86.8462L144.838 88.0665L144.444 95.7448L188.937 97.0777Z" fill="#11152C"/>
<path d="M214.469 65.6697L214.094 62.8912C211.954 62.1403 210.996 61.1077 210.527 60.2629C210.076 59.4556 209.795 58.3668 208.931 58.1603C208.368 58.0101 207.88 58.3292 207.467 57.9725C207.129 57.6722 207.298 57.2779 206.941 57.0339C206.566 56.771 206.134 57.0902 205.627 57.0339C204.745 56.9212 204.125 55.6822 203.9 54.8749C203.299 52.7535 204.951 51.9087 204.463 49.8061C204.087 48.2291 203.036 48.1164 203.149 47.0276C203.299 45.4318 205.627 45.5445 206.378 43.5545C207.054 41.7898 205.702 40.4756 206.659 38.7672C206.885 38.373 207.166 38.0726 207.448 37.8473C207.448 37.6596 207.467 37.5094 207.467 37.4906C207.673 35.6508 209.363 34.9938 213.793 31.2578C215.37 29.9249 215.389 29.831 216.365 29.0989C218.506 27.5031 219.876 26.9399 219.763 26.4894C219.669 26.189 219.012 26.3204 217.041 26.0763C214.563 25.7572 213.925 25.3442 212.686 25.7384C212.123 25.9262 212.104 26.0576 211.259 26.3392C210.245 26.6771 209.457 26.9212 208.725 26.6208C208.086 26.3392 208.293 25.9449 207.354 25.2128C207.016 24.9499 206.002 24.1239 205.195 24.443C204.801 24.5932 204.726 24.9124 204.444 24.8748C204.069 24.7997 204.106 24.1802 203.543 23.8798C203.186 23.6921 202.98 23.8611 202.736 23.6358C202.435 23.373 202.623 23.035 202.379 22.7534C202.116 22.4343 201.609 22.5282 200.652 22.6032C198.775 22.7347 198.925 22.5282 198.38 22.7159C197.198 23.0914 197.122 23.8798 196.278 23.8611C195.564 23.8611 195.546 23.2979 194.532 22.9975C193.368 22.6596 192.936 23.2415 191.997 22.8098C191.228 22.4531 190.89 21.7584 190.815 21.5707C190.364 20.6133 190.646 19.7309 190.702 19.5244L189.97 18.0601L189.951 16.8022L187.923 15.8072L188.092 19.0738L176.979 19.224C177.185 20.3317 177.279 21.2516 177.298 21.9462C177.335 22.7722 177.316 23.6358 177.298 24.8185C177.241 27.3717 177.129 27.6533 177.354 28.4418C177.729 29.7184 178.199 29.587 178.612 31.0138C178.762 31.5019 178.781 31.8023 178.931 33.8298C178.987 34.6558 179.062 35.5006 179.119 36.3267C179.288 38.6358 179.832 39.8373 180.752 44.7184C180.921 45.582 181.071 46.5207 180.564 47.2904C180.001 48.1164 179.081 48.0977 178.931 48.6609C178.818 49.1114 179.194 49.8436 181.127 51.1014L181.559 66.1953L206.772 65.6884L214.469 65.6697Z" fill="#11152C"/>
<path d="M215.408 92.084C215.596 91.5396 215.239 90.9764 215.596 90.5821C215.896 90.2442 216.291 90.4507 216.61 90.1128C216.891 89.7936 216.704 89.4557 216.779 88.7986C216.929 87.6159 217.717 87.4845 217.623 86.696C217.548 85.9638 216.835 85.87 216.76 85.1003C216.685 84.4056 217.21 83.8237 217.417 83.5984C218.525 82.3781 219.707 83.0164 220.965 82.0965C222.411 81.0264 222.899 78.6234 222.167 77.7598C221.716 77.2342 221.003 77.5158 220.496 76.7836C220.139 76.2579 220.289 75.8074 219.782 75.3944C219.463 75.1127 219.276 75.2066 218.994 74.9438C218.543 74.5308 218.6 73.9676 218.506 73.5358C218.112 71.8462 215.108 71.8649 214.939 70.5508C214.826 69.6872 216.046 69.1803 215.784 68.2792C215.671 67.8849 215.389 67.8286 214.995 67.3217C214.582 66.7773 214.376 66.1953 214.301 65.6884H206.829L181.616 66.1953L181.635 66.552L180.884 66.9838L180.827 68.9175L181.635 70.4194L180.64 72.9913L181.522 75.3005L184.282 83.2417L184.601 84.3118L185.164 86.6209L185.408 87.9351L185.652 90.1879L186.178 91.6898L199.319 90.9951L212.986 90.6197L214.676 92.6472L214.657 92.8162C215.089 92.5909 215.314 92.3093 215.408 92.084Z" fill="#11152C"/>
<path d="M236.81 72.0902C236.941 71.358 237.11 70.6634 236.735 69.5558C236.566 69.0113 236.453 68.9926 236.153 68.1102C235.928 67.4344 235.59 66.4769 235.533 65.5382C235.402 63.5107 236.603 63.3042 236.416 61.4081C236.303 60.2066 235.759 59.7748 236.115 58.9863C236.434 58.2729 237.204 57.935 237.073 57.4281C236.998 57.1653 236.772 57.1653 236.585 56.8649C236.284 56.358 236.528 55.7197 236.754 55.1002C236.754 55.1002 237.204 53.8987 237.73 52.378C238.349 50.6321 238.068 50.7447 238.556 49.6934C238.894 48.9612 239.288 48.3417 239.082 48.1164C238.931 47.9662 238.593 48.0789 238.537 48.0977C237.523 48.4168 237.73 49.9375 236.528 51.7022C236.453 51.8148 235.946 52.3405 234.97 53.4106C233.487 55.0063 233.374 55.0814 233.281 55.0251C232.924 54.8561 233.168 52.6784 234.444 51.6083C234.745 51.3642 234.989 51.2704 235.289 50.8761C235.665 50.388 235.627 50.0689 235.815 49.4869C235.458 49.0927 235.102 48.567 234.876 47.8912C234.463 46.5958 235.026 45.8824 234.407 45.0376C233.881 44.3242 233.168 44.0426 232.154 43.6859C231.065 43.2916 230.502 43.2729 229.301 43.0288C227.085 42.597 227.179 42.2966 224.269 41.6208C222.673 41.2641 221.885 41.0764 221.359 41.0951C220.815 41.1327 220.308 41.2266 219.707 40.945C219.576 40.8886 219.2 40.6821 218.618 39.9124C218.374 39.5745 218.074 39.1051 217.792 38.4668C217.454 38.617 217.079 38.7485 216.704 38.8799C216.065 39.0864 214.676 39.5369 214.357 39.0864C214.188 38.8423 214.488 38.5419 214.601 37.6408C214.638 37.3404 214.751 36.214 214.338 36.0075C214.056 35.8761 213.719 36.2328 212.836 36.7209C212.142 37.0964 211.973 37.0588 211.128 37.4343C208.988 38.3542 208.387 39.2553 207.861 38.9737C207.504 38.786 207.448 38.1665 207.448 37.7722C207.167 37.9975 206.885 38.2979 206.66 38.6921C205.702 40.4005 207.054 41.7147 206.378 43.4794C205.608 45.4694 203.299 45.3567 203.149 46.9525C203.036 48.0413 204.088 48.154 204.463 49.731C204.951 51.8336 203.299 52.6784 203.9 54.7998C204.125 55.6071 204.764 56.8461 205.627 56.9588C206.134 57.0151 206.566 56.6959 206.941 56.9588C207.279 57.2028 207.11 57.5971 207.467 57.8974C207.861 58.2541 208.349 57.935 208.931 58.0852C209.795 58.3104 210.076 59.3993 210.527 60.1878C210.996 61.0326 211.954 62.0651 214.094 62.8161L214.469 65.5946H214.263C214.357 66.0827 214.545 66.6834 214.958 67.2279C215.352 67.7347 215.633 67.7911 215.746 68.1853C216.009 69.0864 214.789 69.6121 214.901 70.4569C215.07 71.7335 217.905 71.7523 218.431 73.3105L226.184 73.6109L236.81 72.0902Z" fill="#11152C"/>
<path d="M219.726 41.0201C220.308 41.3017 220.833 41.189 221.378 41.1702C221.903 41.1327 222.692 41.3204 224.288 41.6959C227.198 42.3718 227.104 42.6721 229.319 43.1039C230.539 43.348 231.103 43.3667 232.173 43.761C233.186 44.1365 233.9 44.4181 234.425 45.1127C235.045 45.9763 234.482 46.6897 234.895 47.9663C235.101 48.6421 235.477 49.1678 235.833 49.562C235.871 49.4306 235.927 49.2992 235.984 49.149C236.415 48.154 236.716 48.3042 236.979 47.4781C237.223 46.6897 236.96 46.4456 237.317 45.8073C237.579 45.3192 237.805 45.3192 238.011 44.7935C238.236 44.2116 238.18 43.6671 238.274 43.6671C238.387 43.6671 238.405 44.2116 238.762 44.3805C239.044 44.5119 239.363 44.3617 239.457 44.3054C240.283 43.9112 240.208 42.7848 240.715 42.7097C240.959 42.6909 241.24 42.9162 241.297 43.1415C241.372 43.6108 240.339 43.9487 240.433 44.4744C240.47 44.6809 240.677 44.9062 240.884 44.9062C241.278 44.9249 241.465 44.174 242.292 42.8786C242.761 42.1465 242.986 41.771 243.23 41.6396C244.169 41.1139 244.995 41.9587 246.046 41.4143C246.609 41.1327 246.422 40.8699 247.079 40.4381C247.867 39.8936 249.2 39.5557 250.045 40.1002C250.627 40.4756 250.571 40.9825 251.228 41.189C251.547 41.2829 252.073 41.3392 252.392 41.0576C252.88 40.6258 252.467 39.8373 252.842 39.612C253.18 39.3868 253.631 39.95 254.551 40.1565C255.602 40.4005 256.916 40.1002 257.047 39.5745C257.16 39.1052 256.372 38.2604 255.602 38.204C255.151 38.1665 254.813 38.4105 254.626 38.2228C254.494 38.0726 254.607 37.8661 254.626 37.5282C254.663 36.7585 254.175 35.8573 253.631 35.7447C253.236 35.6508 253.086 36.0451 252.486 35.97C252.091 35.9137 252.016 35.7259 251.716 35.7822C251.34 35.8573 251.303 36.2328 250.965 36.2704C250.702 36.2891 250.665 36.0826 250.308 36.0263C249.97 35.97 249.876 36.1389 249.651 36.1014C249.2 36.0263 248.806 35.3317 248.919 34.7873C249.012 34.2804 249.519 34.1114 249.444 33.9237C249.35 33.6984 248.506 33.7172 247.736 33.9988C246.853 34.3179 246.947 34.6558 246.253 34.8248C245.352 35.0501 244.995 34.5244 244.188 34.8811C243.887 35.0125 243.812 35.1439 243.305 35.3692C242.836 35.557 242.686 35.5382 242.367 35.6696C241.691 35.9137 240.996 36.4769 240.639 37.1903C240.358 37.791 240.414 38.2979 240.17 38.3354C239.926 38.373 239.795 37.8473 239.382 37.8098C239.044 37.7722 238.95 38.0914 238.631 38.0726C238.199 38.0351 238.161 37.4343 237.711 37.209C237.129 36.9087 236.641 37.6033 235.815 37.6033C234.782 37.6033 234.613 36.5332 232.942 35.4256C232.323 35.0125 230.896 34.0739 229.713 34.5057C228.812 34.8436 228.512 35.801 228.343 35.7072C228.118 35.5945 228.624 34.149 229.131 33.0601C229.751 31.7084 230.089 31.0326 230.821 30.7134C231.572 30.3943 232.266 30.6383 232.398 30.3192C232.492 30.0751 232.173 29.6433 231.816 29.4368C231.009 28.9675 229.676 29.3242 228.85 30.0939C227.873 30.995 228.211 31.8961 227.235 32.4406C226.597 32.7785 226.146 32.5908 225.846 33.0225C225.452 33.5857 225.977 34.3367 225.602 34.6558C225.339 34.8811 225.02 34.562 224.457 34.6746C223.443 34.8623 223.462 36.1765 222.448 36.4581C221.735 36.6646 221.34 36.1202 220.683 36.4205C220.195 36.6458 219.951 37.1527 219.801 37.5657C219.801 37.5657 218.975 38.0914 217.867 38.5607C218.149 39.199 218.449 39.6684 218.693 40.0063C219.219 40.7572 219.576 40.945 219.726 41.0201Z" fill="#11152C"/>
<path d="M267.523 75.3192C267.354 75.2066 267.167 75.1127 266.923 75.0376C266.059 74.756 265.684 75.0939 265.458 74.7936C265.12 74.3618 265.909 73.5545 266.622 71.7335C266.66 71.6208 266.641 71.6772 267.542 68.7297C267.936 67.4531 268.237 66.4769 268.725 66.4581C268.819 66.4581 268.837 66.4957 269.307 66.6646C269.908 66.9087 270.208 67.0213 270.321 67.0026C270.903 66.8711 271.409 64.731 270.565 62.9663C270.095 62.0088 269.739 62.1778 269.138 61.164C268.18 59.5495 268.894 58.7047 268.068 56.9587C267.936 56.6959 266.923 54.612 265.571 54.6308C265.139 54.6308 264.82 54.8561 263.205 56.5269C261.272 58.5357 260.765 59.2303 260.296 59.0989C259.845 58.9487 259.545 58.1039 259.732 57.4468C260.014 56.4331 261.347 56.4143 261.591 55.3254C261.704 54.8373 261.459 54.6308 261.685 54.1427C261.929 53.617 262.304 53.5795 262.548 53.1102C262.699 52.8473 262.717 52.5845 262.586 51.6083C262.398 50.1627 262.285 49.4306 262.06 48.9237C261.553 47.8911 260.84 47.3842 261.046 47.0463C261.197 46.7835 261.722 46.99 261.872 46.7459C262.098 46.3705 261.328 45.169 260.145 44.5682C258.662 43.8173 257.799 44.6058 256.653 43.7046C256.147 43.3104 256.034 42.9162 255.414 42.7284C254.776 42.5407 254.588 42.8411 253.875 42.6533C253.086 42.428 252.974 41.9399 252.429 42.015C252.016 42.0713 251.923 42.3717 251.416 42.3717C251.021 42.3717 250.759 42.184 250.665 42.2778C250.59 42.3717 250.815 42.5595 250.871 42.8223C251.04 43.5732 249.82 44.1177 249.97 44.7935C250.083 45.2441 250.759 45.4506 250.683 45.6571C250.627 45.8073 250.214 45.7134 250.158 45.8636C250.064 46.1076 250.871 46.577 250.796 46.7272C250.759 46.8023 250.496 46.7835 250.308 46.6709C250.045 46.5207 250.026 46.3142 249.895 46.2766C249.67 46.2391 249.313 46.7459 249.106 47.3467C248.787 48.3605 249.351 49.3742 248.938 49.6371C248.787 49.7309 248.693 49.6183 248.487 49.7122C247.905 49.9938 248.168 51.4581 248.055 51.4769C247.961 51.4769 247.586 50.5006 247.68 49.2241C247.755 48.3041 248.036 47.7222 247.886 47.6471C247.755 47.572 247.304 48.0413 247.041 48.567C246.666 49.3179 246.91 49.6746 246.591 49.9938C246.103 50.4255 245.352 49.9187 245.014 50.3129C244.732 50.6508 245.202 51.1202 244.958 51.796C244.732 52.4343 244.188 52.3592 243.925 52.9037C243.55 53.7109 244.545 54.2553 244.488 55.4381C244.432 56.8461 242.968 57.2028 243.155 58.3104C243.305 59.1552 244.225 59.3617 244.188 60.2253C244.15 60.7698 243.775 60.8261 243.718 61.4644C243.681 61.9525 243.887 62.2529 244.338 63.154C244.62 63.7172 244.864 64.3179 245.145 64.8812C245.953 66.4769 246.347 67.2654 246.459 67.5658C247.154 69.2554 246.722 70.945 246.328 72.5407C246.084 73.5357 245.127 75.0564 243.193 78.0789L252.354 77.4782L267.523 75.3192Z" fill="#11152C"/>
<path d="M233.73 118.949C234.031 118.893 234.312 118.968 234.669 119.043C236.002 119.343 236.528 120.094 236.884 119.888C237.11 119.756 237.091 119.381 237.072 118.817C237.034 117.729 236.678 117.391 236.79 116.94C236.884 116.546 237.354 116.077 238.912 115.776L238.63 114.518L239.513 112.641L239.362 109.637L242.122 105.751L242.084 103.179L241.014 101.865L240.77 92.7598L239.381 78.492C238.931 78.0414 238.78 77.6284 238.33 76.7273C237.166 74.3806 237.053 74.7748 236.847 74.0051C236.64 73.2166 236.715 72.6346 236.809 72.0714L226.183 73.6484L218.43 73.348C218.449 73.3856 218.467 73.4419 218.467 73.4795C218.561 73.9112 218.505 74.4745 218.956 74.8875C219.237 75.1503 219.425 75.0564 219.744 75.338C220.232 75.751 220.101 76.2016 220.457 76.7273C220.964 77.4594 221.678 77.1778 222.128 77.7035C222.86 78.5671 222.372 80.9701 220.927 82.0402C219.669 82.9601 218.486 82.3218 217.379 83.5421C217.172 83.7673 216.646 84.3493 216.721 85.0439C216.797 85.8136 217.51 85.9075 217.585 86.6397C217.679 87.4282 216.89 87.5596 216.74 88.7423C216.665 89.3994 216.853 89.7373 216.571 90.0565C216.271 90.3944 215.858 90.1879 215.558 90.5258C215.201 90.92 215.558 91.4833 215.37 92.0277C215.276 92.2717 215.069 92.5346 214.563 92.7598L214.394 95.1629C214.6 96.5896 215.069 97.641 215.407 98.2793C216.853 100.964 219.35 102.372 220.044 102.278C220.101 102.278 220.27 102.24 220.382 102.334C220.57 102.503 220.382 102.879 220.382 103.273C220.382 103.761 220.645 104.287 220.946 104.531C221.696 105.132 222.804 104.155 223.668 104.756C224.118 105.056 224.231 105.601 224.268 105.751C224.456 106.633 223.874 107.122 223.48 108.473C223.273 109.187 223.142 109.675 223.236 110.219C223.517 112.097 225.977 113.674 227.685 113.842C227.873 113.861 228.136 113.88 228.436 114.03C228.868 114.256 229.018 114.575 229.844 116.058C230.201 116.696 230.22 116.734 230.257 116.865C230.407 117.672 229.825 117.954 229.844 118.742C229.863 119.625 230.633 120.526 231.346 120.582C231.722 120.62 231.89 120.376 232.116 120.451C232.435 119.869 232.961 119.08 233.73 118.949Z" fill="#11152C"/>
<path d="M244.376 111.533C245.051 111.852 245.164 112.434 245.633 112.416C246.384 112.378 246.478 110.82 247.323 110.67C248.093 110.538 248.825 111.702 249.144 111.477C249.388 111.308 248.938 110.67 249.275 110.069C249.538 109.6 250.177 109.318 250.721 109.374C251.19 109.431 251.209 109.675 251.754 109.806C252.242 109.919 253.03 109.919 253.387 109.487C253.8 108.98 253.162 108.436 253.481 107.61C253.575 107.366 253.668 107.291 255.133 106.07C256.034 105.319 256.128 105.244 256.222 105C256.56 104.193 255.978 103.648 256.316 103.217C256.672 102.766 257.423 103.179 258.531 102.898C259.319 102.71 259.901 102.259 260.277 101.903L259.488 100.457L259.62 99.6497L256.991 76.8024L252.373 77.4594L243.212 78.0602C243.212 78.0602 243.212 78.0789 243.193 78.0789C242.78 78.7172 242.367 79.3743 241.635 79.5057C240.621 79.6935 239.663 78.736 239.438 78.5295C239.419 78.5107 239.401 78.492 239.401 78.492L240.79 92.7598L241.034 101.865L242.104 103.179L242.142 105.751L239.382 109.637L239.532 112.641L239.494 112.716C240.227 112.434 240.902 112.172 241.522 111.946C243.043 111.421 243.719 111.233 244.376 111.533Z" fill="#11152C"/>
<path d="M275.727 116.02L280.627 111.102C280.552 111.026 280.476 110.97 280.383 110.895C278.562 109.318 277.886 109.093 277.191 107.929C277.003 107.61 276.834 107.272 276.44 106.671C275.67 105.526 275.408 105.526 275.22 104.944C274.882 103.911 275.558 103.423 275.126 102.822C274.694 102.203 273.887 102.522 273.343 101.79C272.967 101.264 273.136 100.814 272.873 100.72C272.31 100.532 271.446 102.691 270.583 102.541C270.17 102.466 270.245 101.94 269.738 101.734C268.837 101.339 267.879 102.653 266.978 102.24C266.64 102.071 266.753 101.865 266.321 101.621C265.533 101.133 264.951 101.734 264.256 101.396C263.336 100.964 263.693 99.6122 262.811 99.2742C262.379 99.1053 262.116 99.3869 261.027 99.5558C260.464 99.6497 259.976 99.6497 259.582 99.6497V99.7248L259.45 100.532L260.239 101.978C259.844 102.353 259.262 102.785 258.493 102.973C257.385 103.254 256.615 102.841 256.277 103.292C255.939 103.724 256.521 104.268 256.184 105.075C256.09 105.301 255.977 105.394 255.095 106.145C253.63 107.366 253.536 107.441 253.443 107.685C253.123 108.511 253.762 109.055 253.349 109.562C253.011 109.994 252.204 109.994 251.715 109.881C251.171 109.75 251.152 109.487 250.683 109.449C250.157 109.393 249.5 109.656 249.237 110.144C248.899 110.745 249.35 111.383 249.106 111.552C248.787 111.759 248.073 110.595 247.285 110.745C246.44 110.895 246.346 112.453 245.595 112.491C245.126 112.528 245.032 111.928 244.337 111.608C243.68 111.308 243.005 111.496 241.484 112.04C240.864 112.266 240.17 112.528 239.456 112.81L238.612 114.612L238.893 115.87C237.316 116.17 236.866 116.64 236.772 117.034C236.659 117.485 237.016 117.822 237.053 118.911C237.072 119.475 237.091 119.85 236.866 119.981C236.509 120.188 235.983 119.437 234.65 119.137C234.294 119.062 234.012 118.986 233.712 119.043C232.942 119.174 232.416 119.944 232.097 120.62C232.116 120.62 232.135 120.62 232.153 120.638C232.604 120.864 232.51 122.084 232.304 122.835C232.172 123.323 231.834 124.299 230.802 125.294L240.508 124.656L240.376 122.91L271.897 119.643L275.483 117.503L275.727 116.02Z" fill="#11152C"/>
<path d="M277.078 102.916C277.229 102.597 276.984 102.184 277.266 101.827C277.51 101.527 277.811 101.677 278.017 101.452C278.468 100.945 277.397 99.875 277.735 98.5984C277.829 98.2042 278.111 97.641 278.524 97.5659C279.068 97.472 279.575 98.3356 279.744 98.2229C279.932 98.1103 279.181 97.1904 279.406 96.1954C279.444 96.064 279.782 95.6322 280.495 94.7311C281.04 94.0364 281.302 93.7361 281.715 93.6422C282.016 93.5859 282.091 93.6985 282.372 93.6422C282.954 93.5296 283.255 92.8913 283.536 92.3656C284.456 90.7135 284.794 91.0327 285.188 90.0189C285.583 89.0051 285.113 89.0239 285.376 86.8274C285.545 85.3819 285.827 84.7999 285.47 83.9738C285.226 83.4106 284.944 83.2792 284.944 82.885C284.944 82.3405 285.545 81.8712 286.24 81.5145L283.818 69.1615C282.842 69.7811 282.11 70.1378 280.683 71.114C279.782 71.7147 279.35 72.0339 279.031 72.2967C277.285 73.8174 277.153 74.9438 275.877 75.3005C275.145 75.507 275.088 75.1503 274.206 75.4131C273.023 75.751 272.929 76.4457 271.934 76.5395C271.183 76.6146 270.902 76.2392 270.282 76.5208C269.832 76.7273 269.606 77.084 269.325 76.9901C269.156 76.9338 269.006 76.7273 269.043 76.5771C269.137 76.2204 270.245 76.3893 270.339 76.0702C270.376 75.8825 270.095 75.5821 269.794 75.5445C269.381 75.4694 269.25 75.92 268.78 75.9951C268.292 76.0702 268.048 75.6572 267.485 75.3193L256.953 76.8211L259.581 99.5934C259.976 99.6122 260.464 99.5934 261.027 99.4995C262.116 99.3306 262.379 99.049 262.81 99.2179C263.674 99.5559 263.336 100.908 264.256 101.339C264.951 101.658 265.533 101.077 266.321 101.565C266.753 101.827 266.64 102.034 266.978 102.184C267.879 102.597 268.818 101.302 269.738 101.677C270.245 101.903 270.17 102.409 270.583 102.485C271.446 102.635 272.31 100.476 272.873 100.663C273.136 100.757 272.967 101.208 273.342 101.734C273.887 102.466 274.694 102.147 275.126 102.766C275.239 102.935 275.276 103.085 275.276 103.254C276.515 103.386 276.947 103.179 277.078 102.916Z" fill="#11152C"/>
<path d="M300.658 89.3806L298.875 89.4182L298.255 90.7886L297.185 90.8449L294.97 93.248L293.956 88.5358L287.873 89.7185L286.259 81.5333C285.545 81.9087 284.963 82.3593 284.963 82.9037C284.963 83.2792 285.245 83.4294 285.489 83.9926C285.846 84.8374 285.564 85.4194 285.395 86.8462C285.132 89.0427 285.602 89.0239 285.207 90.0377C284.813 91.0515 284.494 90.7323 283.555 92.3844C283.274 92.91 282.955 93.5296 282.391 93.661C282.11 93.7173 282.035 93.6046 281.734 93.661C281.321 93.7361 281.058 94.0364 280.514 94.7498C279.819 95.6322 279.463 96.0827 279.425 96.2142C279.181 97.1904 279.932 98.1103 279.763 98.2417C279.594 98.3543 279.087 97.4908 278.543 97.5846C278.13 97.6597 277.848 98.2229 277.754 98.6172C277.416 99.8938 278.486 100.983 278.036 101.471C277.829 101.696 277.529 101.546 277.285 101.846C277.003 102.203 277.247 102.616 277.097 102.935C276.966 103.198 276.553 103.404 275.295 103.311C275.276 103.742 274.995 104.193 275.239 104.963C275.426 105.526 275.689 105.526 276.459 106.69C276.853 107.291 277.022 107.61 277.21 107.948C277.904 109.112 278.58 109.337 280.401 110.914C280.476 110.989 280.552 111.045 280.645 111.12C282.429 112.697 282.748 113.336 283.48 113.223C284.231 113.11 284.4 112.322 285.395 112.228C286.259 112.134 286.503 112.679 287.047 112.472C287.948 112.134 287.723 110.463 288.587 110.219C289.037 110.088 289.262 110.52 289.769 110.313C290.22 110.125 290.239 109.731 290.746 109.562C291.083 109.449 291.14 109.6 291.459 109.525C292.06 109.356 292.567 108.586 292.585 107.873C292.585 107.328 292.304 107.215 292.304 106.709C292.304 106.051 292.754 105.62 293.055 105.244C294.181 103.874 294.482 102.034 294.744 100.326C294.895 99.3493 294.913 98.467 295.157 98.4482C295.42 98.4107 295.514 99.4432 296.321 99.8562C296.791 100.082 297.467 100.1 297.823 99.7624C298.067 99.5183 298.086 99.1616 298.105 98.4482C298.142 97.303 297.898 96.8149 298.142 96.6084C298.48 96.3643 299.119 96.9651 299.456 96.7023C299.719 96.4958 299.419 96.0452 299.644 95.482C299.87 94.8812 300.376 94.9563 300.996 94.3556C301.916 93.4545 302.01 92.1028 302.028 91.8775C302.104 90.8449 301.728 90.3381 301.991 90.1503C302.254 89.9438 302.779 90.3944 304.469 91.1829C305.652 91.7461 305.971 91.8024 306.159 91.6522C306.497 91.3894 306.196 90.676 306.253 90.2442L302.854 88.3668L300.658 89.3806Z" fill="#11152C"/>
<path d="M310.908 97.059C310.777 96.7774 310.796 96.5145 310.871 95.9701C311.002 94.8062 311.622 94.4307 311.528 93.6797C311.434 92.8913 310.645 92.3844 310.495 92.2717C309.444 91.5771 308.374 92.0652 307.961 91.3706C307.754 91.0514 307.942 90.8637 307.679 90.4695C307.36 90.0189 306.703 89.7185 306.403 89.9063C305.989 90.1879 306.59 91.2767 306.177 91.5959C305.99 91.7461 305.67 91.6897 304.488 91.1265C302.798 90.3381 302.272 89.8875 302.01 90.094C301.747 90.2817 302.122 90.7886 302.047 91.8212C302.028 92.0652 301.934 93.4169 301.015 94.2993C300.395 94.9 299.888 94.8249 299.663 95.4257C299.438 95.9889 299.738 96.4394 299.475 96.6459C299.137 96.9088 298.499 96.308 298.161 96.5521C297.898 96.7398 298.142 97.2279 298.123 98.3919C298.105 99.1053 298.086 99.462 297.842 99.706C297.485 100.044 296.809 100.025 296.34 99.7999C295.514 99.3869 295.439 98.3543 295.176 98.3919C294.932 98.4107 294.913 99.293 294.763 100.269C294.5 101.978 294.2 103.817 293.073 105.188C292.773 105.545 292.322 105.995 292.322 106.652C292.322 107.178 292.604 107.272 292.604 107.816C292.585 108.53 292.078 109.299 291.478 109.468C291.177 109.543 291.102 109.412 290.764 109.506C290.239 109.675 290.22 110.069 289.788 110.257C289.281 110.463 289.056 110.031 288.605 110.163C287.742 110.407 287.967 112.078 287.066 112.416C286.521 112.622 286.259 112.078 285.414 112.172C284.419 112.284 284.269 113.054 283.499 113.167C282.785 113.279 282.466 112.641 280.664 111.064L275.764 115.983L275.539 117.353L271.953 119.493L282.316 118.423L283.292 117.71L300.001 115.87L317.216 111.984L323.768 109.787C323.411 109.525 323.036 109.393 323.055 109.205C323.073 109.055 323.317 109.074 323.543 108.849C323.956 108.417 323.806 107.497 323.486 106.896C323.13 106.239 322.548 105.976 322.022 105.714C321.215 105.338 320.088 105.075 319.882 105.394C319.713 105.676 320.37 106.22 320.201 106.446C320.013 106.69 318.962 106.183 318.812 106.108C317.704 105.582 317.836 105.282 317.085 105C316.184 104.662 315.658 104.963 314.944 104.418C314.888 104.381 314.494 104.061 314.55 103.893C314.644 103.705 315.357 103.836 316.015 103.968C316.615 104.08 316.916 104.137 317.291 104.287C318.286 104.681 318.436 105.188 318.906 105.113C319.337 105.038 319.75 104.531 319.788 104.061C319.863 103.142 318.643 102.353 318.755 102.222C318.831 102.128 319.375 102.635 319.694 102.466C319.976 102.297 320.013 101.583 319.675 101.283C319.413 101.058 319.15 101.283 318.868 101.077C318.53 100.832 318.061 99.5746 316.728 99.3681C316.484 99.3306 316.39 99.2367 316.409 99.1241C315.958 98.8988 315.301 98.5796 314.456 98.3168C312.541 97.7724 311.302 97.885 310.908 97.059Z" fill="#11152C"/>
<path d="M321.271 101.189C321.271 101.527 321.252 103.404 321.89 103.573C322.284 103.686 322.941 103.123 322.979 102.578C322.998 102.24 322.754 102.165 322.566 101.734C322.19 100.795 322.772 99.6497 323.317 99.0302C323.561 98.7673 323.58 98.8237 323.711 98.6359C323.843 98.4294 323.918 98.2041 323.936 97.9601L321.627 98.6735C321.458 99.3493 321.289 100.232 321.271 101.189Z" fill="#11152C"/>
<path d="M325.59 92.4595C325.59 91.0515 325.534 90.1691 325.308 90.1316C325.196 90.1128 325.102 90.3381 324.895 90.3193C324.689 90.3005 324.482 90.0377 324.464 89.7936C324.445 89.4557 324.82 89.3618 324.82 89.0802C324.839 88.686 324.088 88.4795 323.262 87.9351C322.755 87.5971 322.398 87.2029 321.647 86.4144C320.746 85.457 321.009 85.5133 320.183 84.6309C319.545 83.9551 319.188 83.711 319.132 83.1854C319.113 83.0727 319.113 82.9601 319.132 82.8662L318.043 83.711L321.441 92.91L325.59 92.4595Z" fill="#11152C"/>
<path d="M321.441 92.9288L318.043 83.7298L317.799 83.9175L293.938 88.5546L294.951 93.2667L297.185 90.8637L298.255 90.8074L298.875 89.4369L300.658 89.3994L302.855 88.3293L306.253 90.2066C306.272 90.0752 306.309 89.9814 306.403 89.925C306.685 89.7373 307.361 90.0377 307.68 90.4882C307.943 90.8637 307.755 91.0514 307.961 91.3894C308.374 92.0652 309.444 91.5771 310.496 92.2905C310.646 92.4031 311.434 92.91 311.528 93.6985C311.622 94.4682 311.003 94.8249 310.871 95.9889C310.815 96.5333 310.777 96.7961 310.909 97.0777C311.303 97.9038 312.542 97.7911 314.438 98.3919C315.283 98.6547 315.94 98.9739 316.391 99.1992C316.466 98.6923 318.606 97.6034 318.437 97.3406C317.986 96.6272 317.066 96.5145 317.123 96.2142C317.16 95.9889 317.724 96.064 317.874 95.7448C318.024 95.4257 317.667 94.9563 316.841 93.9426C315.471 92.2717 315.302 92.1403 315.133 91.6522C315.001 91.2767 314.739 90.6009 314.851 89.7749C314.945 89.1178 315.208 88.7611 315.039 88.1791C314.908 87.7098 314.663 87.7285 314.607 87.3531C314.476 86.527 315.471 85.7573 315.677 85.5884C316.259 85.119 317.029 84.8374 317.142 84.9876C317.311 85.2129 315.79 86.1891 316.034 87.1466C316.128 87.522 316.447 87.6159 316.466 88.0665C316.484 88.5733 316.109 88.8737 316.259 89.1178C316.372 89.2867 316.578 89.1741 316.804 89.3243C317.254 89.6059 316.973 90.2817 317.329 90.8262C317.799 91.5583 319.038 91.5208 319.019 91.6522C319 91.7836 317.648 91.4081 317.123 92.0089C316.804 92.3844 316.822 93.0978 317.142 93.4732C317.442 93.8299 317.799 93.6046 318.418 93.9989C319.038 94.3931 319.113 94.8812 319.432 94.8437C319.826 94.8062 319.845 94.0552 320.239 93.9989C320.765 93.9238 321.591 95.2192 321.253 95.8575C321.103 96.1578 320.765 96.1766 320.727 96.477C320.709 96.7398 320.915 97.0402 321.178 97.1153C321.459 97.2279 321.647 97.0026 321.779 97.0777C321.985 97.1904 321.797 97.7911 321.591 98.6735L323.9 97.9601C323.994 97.2843 323.731 96.6084 323.994 96.477C324.069 96.4395 324.088 96.4958 324.276 96.477C324.276 96.477 324.595 96.4394 324.914 96.1203C325.477 95.5383 325.533 93.3043 325.533 93.3043C325.533 93.0039 325.533 92.7411 325.552 92.4782L321.441 92.9288Z" fill="#11152C"/>
<path d="M321.44 81.8712C321.797 81.3643 321.703 81.1766 322.098 80.5007C322.886 79.1303 323.843 78.8862 323.731 78.3981C323.581 77.7786 321.947 77.9851 321.572 77.0276C321.459 76.7273 321.497 76.4269 321.234 76.2204C320.952 76.0139 320.727 76.1641 320.389 75.9951C319.976 75.7886 319.732 75.2442 319.732 74.8124C319.732 74.0614 320.445 73.9488 320.483 73.1791C320.521 72.4657 319.901 72.2404 320.07 71.6772C320.201 71.2078 320.671 71.1891 320.783 70.6822C320.877 70.2879 320.652 70.0814 320.633 69.7811C320.596 69.3868 320.84 68.8612 321.985 68.1102L321.816 68.0539L320.07 67.6784L318.812 65.2379L317.629 64.9938L317.066 63.736L288.962 69.124L288.699 65.5946C288.305 65.8949 287.855 66.2329 287.348 66.6271C285.602 67.96 284.719 68.6171 284.288 68.8987C284.119 69.0113 283.969 69.1052 283.818 69.1991L287.855 89.7373L317.798 83.9175L319.113 82.8662C319.15 82.5095 319.3 82.2091 319.338 82.134C319.619 81.6271 319.901 81.7022 320.314 81.0639C320.464 80.8387 320.577 80.5946 320.727 80.5946C320.84 80.5946 320.915 80.726 320.952 80.7823C321.215 81.3455 319.432 82.1716 319.676 83.0915C319.676 83.1103 319.695 83.1478 319.695 83.1666C320.277 82.9601 320.952 82.5658 321.44 81.8712Z" fill="#11152C"/>
<path d="M328.893 76.1453C328.743 74.8311 328.555 73.2541 327.748 73.0101C327.241 72.8599 326.678 73.2541 326.584 73.0852C326.509 72.9538 326.847 72.7848 326.922 72.353C326.997 71.9963 326.809 71.8837 326.922 71.6209C327.035 71.3393 327.391 71.1515 327.692 71.1515L326.997 69.7247L321.984 68.0727C320.839 68.8048 320.595 69.3493 320.633 69.7435C320.67 70.0439 320.877 70.2692 320.783 70.6446C320.67 71.1703 320.201 71.1703 320.07 71.6396C319.901 72.2028 320.52 72.4281 320.483 73.1415C320.445 73.8924 319.732 74.0051 319.732 74.7748C319.732 75.2254 319.976 75.751 320.389 75.9575C320.727 76.1265 320.952 75.9575 321.234 76.1828C321.496 76.3893 321.459 76.6897 321.571 76.9901C321.947 77.9663 323.58 77.741 323.73 78.3605C323.843 78.8487 322.904 79.0927 322.097 80.4632C321.703 81.139 321.797 81.3268 321.44 81.8336C320.952 82.5283 320.276 82.9037 319.713 83.129C319.844 83.5045 320.295 83.8049 321.158 84.3868C322.529 85.3255 323.111 85.2316 323.28 85.1753C323.392 85.1566 323.43 85.119 323.749 85.0439C324.425 84.875 324.744 84.7811 324.894 84.8374C325.495 85.1002 325.138 86.9213 325.42 86.9776C325.551 86.9964 325.72 86.6209 325.758 86.527C326.19 85.5696 325.664 84.7248 326.171 84.4432C326.34 84.3493 326.622 84.3117 326.697 84.0865C326.772 83.88 326.603 83.7673 326.622 83.5233C326.659 83.0727 327.241 83.0539 327.372 82.5658C327.485 82.1528 327.091 81.9463 327.241 81.4957C327.316 81.2892 327.429 81.2517 327.617 81.0264C327.917 80.6509 327.992 80.2754 328.086 79.8624C328.33 78.6797 328.011 77.7786 328.199 77.7222C328.349 77.6659 328.593 78.2854 328.781 78.2479C329.043 78.2667 328.987 77.0464 328.893 76.1453Z" fill="#11152C"/>
<path d="M328.011 59.2867L328.199 53.0351L327.129 48.154C326.134 48.2103 325.739 47.9662 325.57 47.7222C325.12 47.0463 326.096 46.1077 325.702 45.0376C325.42 44.3242 324.895 44.5119 324.388 43.7797C323.505 42.5219 324.594 41.2829 323.956 39.0864C323.712 38.2228 323.505 38.2791 323.074 37.2653C322.679 36.3267 322.398 35.1815 322.398 33.7735L314.757 35.9324C314.156 36.0075 313.255 36.214 312.316 36.796C311.96 37.0213 311.509 37.4718 310.627 38.3918C309.106 39.95 308.336 40.7572 308.318 41.3955C308.299 42.0526 308.655 42.1277 308.543 42.7848C308.411 43.5732 307.773 44.1364 307.116 44.6997C306.215 45.4694 305.783 45.5257 305.652 46.0513C305.539 46.5395 305.746 47.1402 306.121 47.3279C306.628 47.572 307.323 47.0088 307.398 47.1214C307.473 47.2341 306.609 47.6283 306.421 48.3229C306.159 49.3743 307.642 50.2003 307.323 51.0263C307.172 51.4018 306.816 51.2892 306.065 51.8336C305.013 52.5845 305.22 53.1477 304.375 53.7297C303.662 54.2178 303.361 53.9174 301.784 54.4056C300.47 54.7998 300.639 55.0251 299.719 55.2691C298.349 55.6258 298.011 55.1377 295.589 55.2316C294.35 55.2691 293.693 55.4381 293.111 55.6634C292.473 55.9074 291.665 56.2266 291.421 56.9212C291.29 57.2967 291.459 57.8223 291.816 58.8736C292.266 60.2066 292.623 60.7885 292.341 61.1828C292.172 61.4081 291.985 61.333 291.684 61.6146C291.252 62.0276 291.252 62.6471 291.234 62.8724C291.177 63.5295 290.67 64.0739 288.699 65.6321L288.962 69.1615L317.066 63.7735L317.629 65.0314L318.812 65.2754L320.07 67.716L321.816 68.0914L326.978 69.7998L327.673 71.2266C327.729 71.2266 327.767 71.2266 327.804 71.2454C328.124 71.3393 328.124 71.6584 328.386 71.771C328.856 71.9776 329.419 71.1328 330.301 70.532C331.747 69.5182 332.366 70.2504 333.681 69.2366C334.488 68.6171 334.45 68.2041 335.37 67.6784C336.121 67.2654 336.309 67.4531 337.079 67.0589C338.336 66.4206 339.219 65.1628 339.012 64.8624C338.918 64.7122 338.562 64.8061 338.318 64.8624C337.172 65.144 336.553 66.0827 336.459 66.0076C336.346 65.9137 337.266 64.5996 337.135 64.4869C337.041 64.4118 336.515 64.975 335.746 65.5382C335.051 66.0639 334.488 66.3455 333.737 66.721C331.691 67.7535 331.428 67.3968 330.151 68.1665C328.63 69.0677 327.88 70.2128 327.729 70.1002C327.617 70.0063 328.011 69.3493 328.386 68.8048C328.649 68.4106 328.893 68.129 329.156 67.8849L328.875 64.4869L328.011 59.2867Z" fill="#11152C"/>
<path d="M359.363 23.9362C359.25 23.7672 358.893 23.7109 358.631 23.8235C358.349 23.9362 358.274 24.1802 358.161 24.1427C358.049 24.1051 358.03 23.8611 358.067 23.6358C358.142 23.204 358.48 23.1101 358.462 22.8848C358.424 22.6408 358.067 22.6408 357.767 22.3216C357.504 22.0588 357.429 21.7021 357.392 21.4393L355.89 21.1014L355.101 18.1915L354.256 18.5857L352.604 18.5482L348.38 7.8285L345.039 6.10133L343.161 7.88482L341.528 8.18519L340.251 6.85227L339.369 6.98369L336.609 19.3367L337.417 21.4581L336.797 21.9274L335.84 24.9499L336.29 26.2829L335.445 26.7334C335.445 26.7334 335.577 28.0663 335.445 28.0663C335.351 28.0663 334.769 27.7847 334.525 27.6721L340.589 45.5445L342.091 45.7322C342.316 44.4368 342.429 43.7234 342.654 42.9725C343.105 41.4331 343.349 41.3017 343.593 40.0438C343.818 38.8611 343.668 38.7672 343.912 38.3167C344.419 37.4343 345.264 37.547 346.991 36.6646C348.286 36.0075 349.901 34.8623 349.713 34.1114C349.619 33.7172 349.075 33.6233 349.056 33.1352C349.037 32.7222 349.432 32.572 349.356 32.1777C349.3 31.821 348.925 31.7835 348.831 31.4456C348.643 30.826 349.507 29.8874 349.788 30C350.107 30.1314 349.488 31.4831 350.014 31.8398C350.351 32.0651 351.121 31.7835 351.44 31.2954C351.853 30.6759 351.515 29.9061 351.759 29.8123C351.91 29.756 352.191 30 352.304 30.2628C352.492 30.6946 352.191 30.9762 352.36 31.2766C352.567 31.6333 353.28 31.6708 353.393 31.4831C353.487 31.2954 352.999 30.8824 353.092 30.7509C353.167 30.6383 353.468 30.8448 353.618 30.7134C353.749 30.6008 353.693 30.2816 353.562 30.0563C353.28 29.5494 352.679 29.587 352.642 29.2866C352.623 29.0989 352.792 28.8736 352.98 28.8361C353.562 28.7234 354.256 30.3943 354.482 30.3004C354.669 30.2253 354.313 29.0801 354.482 29.005C354.594 28.9675 354.782 29.3429 354.895 29.3054C355.101 29.2303 354.688 28.0663 355.082 27.7847C355.364 27.597 355.777 28.01 356.096 27.8035C356.453 27.5782 356.19 26.9212 356.565 26.6771C356.885 26.4706 357.279 26.7897 357.467 26.5645C357.654 26.3392 357.335 25.8511 357.467 25.7572C357.598 25.6821 357.88 26.1702 358.199 26.1327C358.443 26.0951 358.499 25.7947 358.968 24.8748C359.325 24.2741 359.475 24.0864 359.363 23.9362Z" fill="#11152C"/>
<path d="M331.841 39.7247L333.643 38.1102L333.681 36.3267L332.273 35.2003L331.916 31.0889L322.379 33.7923C322.398 35.2003 322.679 36.3454 323.055 37.2841C323.468 38.2979 323.674 38.2416 323.937 39.1052C324.575 41.3017 323.487 42.5407 324.369 43.7985C324.876 44.5307 325.401 44.343 325.683 45.0564C326.096 46.1264 325.101 47.0839 325.552 47.741C325.721 47.985 326.115 48.2291 327.11 48.1728L328.18 53.0539L328.142 54.0864L331.709 53.7485L331.803 53.7297L331.672 50.7447L331.841 39.7247Z" fill="#11152C"/>
<path d="M343.387 48.9237C343.387 48.8861 343.387 48.8486 343.368 48.8111C343.218 48.4919 342.542 48.8111 342.091 48.398C341.753 48.0789 341.772 47.5345 342.035 46.0513C342.054 45.9199 342.073 45.8073 342.091 45.6947L340.59 45.5069L334.526 27.6345C334.469 27.597 334.413 27.5782 334.413 27.5782L334 28.7985L332.517 28.4418L332.123 30.995L331.897 31.0513L332.254 35.1627L333.662 36.2891L333.625 38.0726L331.822 39.6871L331.653 50.6884L331.785 53.6734L340.289 51.6083L343.387 48.9237Z" fill="#11152C"/>
<path d="M349.263 53.373C348.793 52.6784 348.568 52.6784 348.493 52.6972C348.305 52.7347 348.155 52.96 348.117 53.1665C347.967 53.8799 349.075 54.3492 348.962 54.8373C348.831 55.363 347.273 55.7197 346.503 55.1189C346.052 54.7623 346.278 54.3868 345.752 53.8048C345.358 53.3542 344.851 53.1853 343.837 52.8098C342.898 52.4719 342.56 52.4907 342.354 52.134C342.129 51.7585 342.241 51.3079 342.316 50.9512C342.598 49.806 343.386 49.2992 343.386 48.9237L340.308 51.6458L331.709 53.7297L328.142 54.0676L327.992 59.2867L328.03 59.5683L340.908 57.0338L343.105 60.1127C343.95 59.587 344.663 59.0989 344.738 58.8736C344.851 58.5545 344.626 58.4043 344.663 57.9537C344.719 57.184 345.452 56.4143 345.94 56.4894C346.409 56.5645 345.151 58.6296 345.583 58.6484C345.865 58.6671 347.329 57.1277 347.667 56.7147C348.681 55.4944 349.826 55.7572 350.014 54.9875C350.107 54.6308 349.826 54.2178 349.263 53.373Z" fill="#11152C"/>
<path d="M343.124 60.1127L340.928 57.0338L338.487 57.5032L339.332 62.0651C339.501 62.0464 339.689 62.0276 339.895 61.9337C339.989 61.915 341.754 60.9763 343.124 60.1127Z" fill="#11152C"/>
<path d="M328.049 59.5495L328.875 64.4682L329.156 67.8662C329.832 67.1903 330.527 66.8524 331.747 65.6697C332.892 64.562 333.174 64.0176 334.075 63.8299C334.732 63.6797 334.882 63.905 335.502 63.7172C336.647 63.3605 336.591 62.4594 337.642 62.0652C338.374 61.7836 338.731 62.1027 339.35 62.0652L338.506 57.5032L328.049 59.5495Z" fill="#11152C"/>
<g opacity="0.32" filter="url(#filter0_f)">
<circle cx="18" cy="106" r="18" fill="#3856E1"/>
</g>
<circle opacity="0.32" cx="18" cy="106" r="15" fill="#3856E1"/>
<circle opacity="0.56" cx="18" cy="106" r="12" fill="#3856E1"/>
<circle cx="18" cy="106" r="9" fill="#3856E1"/>
</g>
<defs>
<filter id="filter0_f" x="-8" y="80" width="52" height="52" filterUnits="userSpaceOnUse" color-interpolation-filters="sRGB">
<feFlood flood-opacity="0" result="BackgroundImageFix"/>
<feBlend mode="normal" in="SourceGraphic" in2="BackgroundImageFix" result="shape"/>
<feGaussianBlur stdDeviation="4" result="effect1_foregroundBlur"/>
</filter>
<clipPath id="clip0">
<rect width="359.4" height="219.706" fill="white"/>
</clipPath>
</defs>
</svg>
