<svg width="344" height="267" viewBox="0 0 344 267" fill="none" xmlns="http://www.w3.org/2000/svg">
<g clip-path="url(#clip0)">
<path d="M277.222 0.553416C278.919 0.295158 280.727 0.184476 281.871 0.184476C283.715 0.147582 287.331 0.77478 289.065 1.32819C291.057 1.95539 294.341 4.57487 296.407 4.94381C298.657 5.34964 303.343 4.46418 305.63 4.02146C306.663 3.83698 308.582 2.91463 309.652 2.87774C311.46 2.84085 315.038 3.65251 316.551 4.46418C316.92 4.64865 317.363 5.01759 317.842 5.42343C318.802 6.27199 319.761 7.34192 320.167 8.0798C321.089 9.77692 321.532 13.6508 321.679 15.5324C321.864 17.6722 321.2 21.9888 321.421 24.1287C321.606 25.9734 322.122 29.8104 323.192 31.3599C324.077 32.6143 327.398 33.758 328.283 34.9755C329.722 36.8571 331.087 41.4689 331.235 43.7563C331.382 45.5641 330.276 49.1429 330.017 50.9507C329.759 53.0167 329.316 57.1858 329.279 59.2887C329.243 62.0558 330.312 67.553 329.944 70.32C329.648 72.6075 326.697 76.8872 326.955 79.1746C325.996 79.8018 324.373 80.7979 323.561 80.9086C322.491 81.0193 320.204 80.429 319.392 79.8018C318.58 79.1746 318.47 76.9241 317.621 76.2969C316.33 75.3745 312.64 74.4522 311.091 75.0794C310.058 75.4852 309.578 77.8464 308.766 78.5474C307.807 79.396 304.929 79.9863 304.007 80.9086C303.011 81.8679 301.941 84.3767 301.646 85.6311C301.166 87.5864 301.129 91.6448 301.424 93.6002C301.609 94.8915 302.162 97.5109 303.011 98.544C303.823 99.5032 306.627 100.13 307.512 101.016C308.176 101.68 308.619 103.598 309.283 104.263C310.021 105.037 311.976 106.144 313.046 106.513C314.78 107.103 318.58 107.509 320.462 107.288C321.458 107.177 323.524 106.624 324.225 105.96C325.074 105.111 324.926 102.565 325.59 101.606C326.254 100.647 328.505 99.3556 329.39 98.5809C329.796 98.2119 330.571 97.474 331.235 96.773C332.12 97.1051 333.485 97.2527 334.223 97.3265C335.994 97.5478 339.536 97.3265 341.344 97.3265C341.897 97.3265 342.82 97.3265 343.779 97.3265C343.742 97.8799 343.668 98.3964 343.594 98.8391C343.225 100.831 342.488 104.816 341.86 106.771C341.086 109.206 338.909 113.929 337.95 116.327C336.769 119.205 334.518 124.96 333.301 127.801C332.526 129.683 331.346 133.593 330.128 135.254C328.763 137.061 324.852 139.791 323.044 141.23C320.794 143.001 316.035 146.322 313.784 148.093C311.497 149.9 306.811 153.442 304.856 155.545C302.605 157.943 299.026 163.33 297.145 165.949C295.595 168.089 292.644 172.406 291.131 174.546C289.914 176.317 287.552 179.858 286.187 181.519C283.826 184.359 278.772 189.82 275.857 192.181C273.237 194.284 266.892 197.272 264.309 199.449C261.247 202.069 256.967 208.783 253.979 211.44C250.658 214.391 242.763 218.929 239.11 221.512C237.376 222.729 234.056 225.386 232.248 226.529C230.33 227.784 226.198 229.85 224.242 231.104C222.693 232.1 219.889 234.351 218.376 235.384C216.31 236.823 212.141 239.701 209.89 240.844C207.677 241.951 202.954 243.943 200.445 244.386C198.896 244.644 195.76 244.497 194.21 244.386C193.251 244.312 191.406 243.833 190.447 243.796C188.935 243.722 185.762 243.685 184.36 244.239C182.958 244.792 181.076 247.153 179.859 247.928C179.195 248.334 177.829 249.109 177.055 249.256C175.911 249.477 173.587 249.33 172.48 249.109C171.705 248.961 170.303 247.707 169.565 247.928C168.458 248.26 168.2 250.879 167.352 251.617C166.355 252.466 163.736 253.573 162.371 253.683C160.637 253.794 157.279 252.577 155.693 251.912C154.18 251.285 151.782 248.961 150.196 248.518C147.466 247.743 141.563 248.149 138.722 248.518C137.025 248.74 133.852 250.289 132.118 250.289C130.826 250.289 128.465 249.219 127.211 248.961C125.477 248.629 121.972 248.002 120.164 248.075C118.061 248.149 113.892 249.145 111.937 249.846C109.908 250.547 106.144 252.613 104.3 253.683C102.935 254.495 100.536 256.709 98.9869 257.225C97.216 257.852 93.3421 257.631 91.4236 257.815C90.4275 257.889 88.4721 258.184 87.476 258.258C84.34 258.553 77.8835 258.295 74.8582 259.144C73.53 259.513 71.095 260.841 70.062 261.652C68.992 262.501 67.8483 265.194 66.557 265.785C65.3026 266.338 62.3511 265.969 60.986 265.785C59.5841 265.6 56.7432 265.047 55.5995 264.309C54.05 263.313 52.4635 260.029 51.2829 258.701C50.7295 258.074 49.6596 256.709 48.8479 256.34C47.409 255.713 43.7565 256.635 42.4652 255.749C40.9895 254.753 41.3215 250.51 39.772 249.551C39.1448 249.145 37.3739 249.256 36.6729 249.551C35.8981 249.883 34.6806 251.175 34.4961 251.912C34.2748 252.909 36.4146 254.938 35.7505 255.749C35.4185 256.155 34.0903 255.971 33.6107 255.749C32.8728 255.381 32.3194 253.757 31.8398 253.093C31.2863 252.318 29.8106 250.916 29.5892 249.994C29.3679 249.109 29.8844 247.338 30.1426 246.452C30.6222 244.939 32.8728 242.246 32.8728 240.697C32.8728 240.254 32.3194 239.479 32.098 239.073C31.4339 237.967 29.6999 235.974 29.2203 234.794C28.5193 233.133 28.8882 229.333 27.8552 227.858C26.9328 226.566 22.6531 225.828 22.3211 224.316C22.1366 223.467 23.5017 221.807 24.3503 221.364C25.2726 220.885 27.6707 221.807 28.63 221.364C30.1426 220.7 32.098 218.007 32.799 216.642C33.7213 214.871 34.6068 210.923 34.5699 208.931C34.4961 207.16 33.0941 203.803 32.5407 202.106C32.1349 200.925 31.4339 198.49 30.8067 197.383C30.1795 196.202 28.4824 194.1 27.5969 193.103C26.8591 192.255 25.0144 190.89 24.3503 190.004C22.9114 187.938 21.4356 183.179 20.3657 180.965C19.1851 178.456 16.4549 173.55 15.2743 171.004C14.0937 168.532 11.5111 163.588 10.9946 160.895C10.6995 159.272 11.4374 155.951 11.1053 154.365C10.6626 152.299 8.15378 148.609 7.4528 146.617C6.8256 144.883 6.45666 141.12 5.5712 139.459C4.72264 137.615 2.17695 134.589 0.369141 133.224C1.32839 132.782 2.28763 132.376 2.80415 132.044C3.76339 131.49 5.82946 130.31 6.30908 129.35C6.93628 128.133 5.75567 125.218 6.38287 123.964C6.86249 123.005 8.74409 121.344 9.8878 121.123C10.6626 120.976 12.3966 121.455 12.8393 122.009C13.2821 122.599 12.249 124.333 12.8024 124.849C13.6879 125.661 16.8239 124.259 17.8938 124.849C18.8899 125.403 19.9599 127.543 19.9968 128.576C20.0337 129.424 18.521 130.863 18.4472 131.712C18.3734 132.782 18.9268 135.106 19.8861 135.733C21.2881 136.655 25.1988 135.18 26.8222 135.733C27.929 136.102 29.3679 138.057 30.4009 138.574C32.0611 139.423 35.7136 140.788 37.6321 140.64C38.8496 140.566 40.9157 139.017 42.0963 138.685C43.2031 138.39 45.5643 137.91 46.708 138.094C48.2945 138.316 50.8771 140.308 52.4266 140.64C54.3451 141.046 58.92 141.894 60.3219 140.64C60.8385 140.16 59.9899 138.537 60.3588 137.947C61.2812 136.545 65.3764 135.918 66.5201 134.663C67.2211 133.888 67.2211 131.675 67.8852 130.863C68.5124 130.088 70.6523 129.387 71.3902 128.723C72.128 128.022 73.7514 125.44 73.7514 125.44L77.4408 53.7915C78.7321 53.9391 79.9865 54.1236 80.6506 54.308C81.8312 54.6401 84.34 55.4148 85.0778 56.3372C86.3322 57.8498 85.7788 62.0558 86.6643 63.7529C87.2177 64.8228 89.6527 66.2248 90.0585 67.3685C90.5751 68.7336 89.5051 71.7589 89.6896 73.1978C89.911 75.1163 91.8295 78.695 92.0139 80.6135C92.1615 82.1261 91.9032 85.2252 91.3867 86.6641C90.8333 88.3243 87.8818 91.0176 87.808 92.7147C87.7711 93.8953 88.9886 96.2196 89.9479 96.9944C91.0547 97.843 94.1538 98.175 95.6295 98.3226C97.1791 98.5071 100.278 98.4333 101.828 98.3226C104.078 98.175 108.727 98.1012 110.756 97.2158C113.597 95.9245 117.471 91.0545 119.832 89.136C121.418 87.8447 124.591 85.2621 126.362 84.1922C128.65 82.8271 134.221 81.4989 136.102 79.6911C137.504 78.3629 139.017 74.7473 139.46 72.9395C139.865 71.2424 138.39 67.3316 139.607 65.9665C140.714 64.749 144.625 64.3801 146.322 64.6015C148.24 64.8966 151.376 67.184 152.926 68.2171C153.775 68.7705 155.14 70.32 156.099 70.689C157.501 71.2424 160.748 71.0579 162.297 71.3531C165.581 72.0172 171.779 74.5628 175.099 75.19C177.35 75.5959 181.962 76.1493 184.249 75.8541C186.942 75.5221 192.403 74.0832 194.506 72.4968C195.76 71.5375 197.383 68.7705 197.863 67.3316C198.416 65.5238 197.273 61.6499 198.047 59.9159C198.601 58.6615 200.925 56.743 202.106 55.8576C203.729 54.677 207.455 52.7585 209.374 52.0206C210.85 51.4672 214.318 51.3196 215.609 50.4341C217.159 49.4011 218.819 46.1175 219.704 44.568C220.627 43.0553 222.102 39.8456 222.84 38.2591C223.541 36.7465 224.537 33.5736 225.46 32.1716C226.382 30.7696 228.633 28.187 230.071 27.1909C231.178 26.453 233.871 25.7151 235.089 25.1617C237.376 24.0918 242.062 22.0257 243.907 20.4024C245.346 19.148 246.932 15.6431 248.297 14.3149C249.699 12.9129 252.909 10.1828 254.864 9.55556C257.225 8.81768 262.354 10.1828 264.789 9.77692C266.523 9.51867 270.101 8.6701 271.319 7.52639C272.5 6.41957 272.204 2.69327 273.459 1.66024C274.344 1.18061 275.746 0.77478 277.222 0.553416Z" fill="#11152C" stroke="#11152C"/>
<g opacity="0.32" filter="url(#filter0_f)">
<circle cx="241" cy="82" r="18" fill="#3856E1"/>
</g>
<circle opacity="0.32" cx="241" cy="82" r="15" fill="#3856E1"/>
<circle opacity="0.56" cx="241" cy="82" r="12" fill="#3856E1"/>
<circle cx="241" cy="82" r="9" fill="#3856E1"/>
</g>
<defs>
<filter id="filter0_f" x="215" y="56" width="52" height="52" filterUnits="userSpaceOnUse" color-interpolation-filters="sRGB">
<feFlood flood-opacity="0" result="BackgroundImageFix"/>
<feBlend mode="normal" in="SourceGraphic" in2="BackgroundImageFix" result="shape"/>
<feGaussianBlur stdDeviation="4" result="effect1_foregroundBlur"/>
</filter>
<clipPath id="clip0">
<rect width="344" height="266.154" fill="white"/>
</clipPath>
</defs>
</svg>
