<svg width="360" height="332" viewBox="0 0 360 332" fill="none" xmlns="http://www.w3.org/2000/svg">
<g clip-path="url(#clip0)">
<path d="M207.038 24.0321C210.126 22.5132 209.314 23.4354 211.156 24.0321C214.786 18.716 212.673 22.0793 213.432 18.9873C214.136 16.4377 215.924 15.7868 217.116 13.8882L214.895 12.4778C212.402 11.1759 212.944 13.4542 212.944 9.06029C210.993 10.0367 209.259 10.9046 208.067 12.6948C207.471 11.8811 207.471 13.9424 207.471 10.9046C206.225 11.5014 206.063 11.7183 204.491 12.0438C206.279 9.76549 205.467 12.0438 206.334 9.65699C202.27 10.6334 200.753 10.7419 198.477 12.6405C196.96 11.5556 196.093 11.6641 195.497 9.65699C192.517 9.92822 194.684 10.091 191.975 10.9046C190.403 9.81973 189.266 8.9518 187.152 8.40934V7.27018C183.955 7.54141 181.842 9.27727 179.133 6.18526C178.971 6.02253 177.833 3.96119 177.562 3.63571C175.34 4.23242 176.315 4.23242 174.582 5.42582C174.256 4.01543 173.877 3.31024 171.927 2.06259C170.951 1.46588 171.656 1.79136 170.68 1.62862L167.321 1.89985C166.887 2.06259 168.188 2.17108 165.533 2.44231V4.28666C167.809 4.82912 165.695 4.17817 167.213 4.99186C167.375 5.10035 167.483 5.15459 167.646 5.26309C167.754 5.26309 167.809 5.42582 168.025 5.42582C169.813 6.23951 169.976 5.42582 172.794 5.42582C173.39 7.70415 173.606 6.40225 173.931 10.9046L169.542 12.4235C169.434 12.532 169.272 12.5863 169.163 12.5863L163.799 13.183C161.523 12.9117 162.282 12.6405 161.415 10.9046C160.981 11.0674 160.331 11.4471 159.843 11.7183L158.326 12.5863C156.538 13.8882 159.193 13.1287 156.322 14.1594C155.238 14.5934 154.804 14.4306 153.612 14.4306C153.612 16.0037 153.612 15.9495 152.312 17.8481C151.066 19.6925 152.204 19.6382 149.386 19.8552C149.386 24.1949 149.819 21.6996 150.632 24.6288L148.682 25.334C145.701 26.0392 147.11 26.0392 146.026 29.0227C144.889 32.2775 143.48 29.8907 142.234 35.478C144.184 36.7799 144.618 36.7799 144.943 38.0275C145.322 39.004 145.214 39.2752 145.214 40.2516C139.47 39.8176 142.017 40.5771 139.904 40.0889C137.357 39.4922 136.273 39.004 133.185 39.004C133.076 43.3979 133.022 40.4143 131.939 41.5535C131.83 41.662 131.776 41.7162 131.668 41.8247L130.801 43.2351C130.909 39.1124 131.668 41.9875 131.939 38.4615C126.899 37.0511 127.116 31.6808 121.969 30.7586C117.851 29.9449 121.969 29.5109 117.58 29.4567C116.496 31.6808 117.146 32.1147 115.196 33.5794C115.792 30.7586 115.575 32.7114 115.196 31.7893C112.974 32.3317 113.895 32.386 112.216 33.5794C111.836 30.8671 111.511 31.3011 109.235 32.4402C109.669 34.2303 109.127 33.6879 111.023 34.2303C110.319 35.6407 109.94 35.8035 109.777 37.8648L106.255 34.8813C104.684 37.9733 106.635 36.8884 103.98 38.57L103.167 39.004C102.354 39.4379 102.191 39.7091 101.379 40.2516C102.246 43.5064 102.95 40.8483 101.975 43.2351C99.9699 43.5064 99.7532 44.1031 98.3444 45.9474C98.236 45.9474 98.1818 46.1102 98.0735 46.1102C97.9651 46.2729 97.6942 46.5441 97.64 46.6526C97.3691 46.9238 96.9356 47.2493 96.6647 47.5205C95.7977 48.3342 94.714 48.6597 94.4431 50.5041C94.3347 51.9144 95.1475 52.7824 95.9603 53.9215C94.6599 55.4947 94.8224 55.0065 94.714 57.556L92.059 56.6881C89.3498 56.0914 90.7586 58.207 89.9458 55.8201H86.9657C86.9657 59.8886 85.4485 58.9122 86.3697 60.7023C86.9657 61.8414 88.5912 62.2211 90 64.2282C88.4828 64.8249 89.4582 64.6622 87.6159 64.2282C87.8868 67.4287 88.3203 65.3132 87.6159 68.4594C85.7736 67.1575 86.7489 67.483 84.6358 63.5773C82.5226 59.7801 82.4142 62.2754 82.7935 58.207C80.301 58.9122 80.5178 60.1598 79.2715 61.8414L76.3456 64.9334C75.2619 66.1811 74.124 68.1882 73.9615 69.7071C73.8531 71.4972 75.0452 72.4193 75.0452 75.6198C76.0205 76.1623 73.9073 76.2165 76.8332 75.6198C76.4539 76.9217 76.7249 76.325 75.9663 77.193C75.8579 77.3015 75.5328 77.7354 75.4244 77.7897C74.5575 78.7661 75.0993 78.1694 74.4491 78.6576L73.4738 79.4713C73.3654 79.5798 73.2029 79.634 73.0945 79.7425L72.3901 80.285C70.873 81.5326 71.2523 81.6954 70.5479 83.2685L70.2769 84.0822C66.6466 93.6294 64.4792 93.6294 53.8049 97.6979C51.8001 98.4031 53.9133 98.1318 51.5834 98.2946C48.6574 98.5658 50.012 96.8842 47.5196 98.5658C45.2438 99.9762 47.0861 99.9762 45.1355 101.549C42.1553 103.936 41.7219 100.573 36.0325 106.323C35.0572 107.408 33.7568 107.842 32.348 107.842C29.2595 107.733 31.5352 106.052 27.5798 108.71C27.3089 105.509 28.1758 107.571 26.4419 106.865C25.9001 108.818 26.0084 108.439 24.4371 109.686C20.8067 112.398 23.7327 108.873 18.531 114.623C18.4226 114.731 18.0975 115.057 17.935 115.219L16.0927 117.498C15.9843 117.606 15.7134 118.04 15.5509 118.203C12.7333 121.403 6.66466 120.047 6.66466 129.703H4.8224C4.55148 127.208 4.22637 126.448 4.22637 123.085C1.13787 125.092 0.108368 130.3 0 133.88C1.95063 134.585 0.541842 132.903 1.57134 135.399C2.65503 138.057 2.38411 140.606 1.13787 142.83C0.541842 144.078 0.162553 144.837 0 146.085V150.425C0.162553 151.835 0.541842 151.401 1.95063 153.083C3.63034 155.307 2.38411 155.307 5.03913 158.399C5.1475 158.507 5.31005 158.562 5.36424 158.67C6.06863 159.538 6.177 159.809 6.8814 160.786C9.2655 163.878 10.2408 162.305 10.2408 169.411H8.99458C8.18182 165.722 6.01445 162.522 2.38411 161.545C2.38411 167.132 3.90126 163.39 4.22637 167.566C2.81758 166.698 3.63034 166.861 1.84226 166.427C1.57134 169.519 2.38411 167.512 0.596027 168.217C4.49729 174.022 10.5659 176.246 12.0831 183.732C12.6791 187.095 16.2011 188.831 17.4473 191.652C18.1517 193.225 17.1764 192.031 18.4226 193.604C19.0187 194.31 19.5605 194.689 20.2649 195.395C21.6737 197.076 21.8362 197.944 22.2697 200.602C24.2745 213.296 31.9687 215.954 32.7815 223.548L32.8898 228.05C32.4564 230.709 33.2149 230.275 33.8651 232.878C34.4612 235.265 33.4859 236.404 32.9982 238.466C31.2101 238.466 30.885 238.194 29.4762 237.923C29.4762 242.263 29.3137 246.223 33.1607 246.114C38.1999 246.006 39.9338 252.298 48.224 250.888C50.7706 250.454 55.1054 251.051 57.3811 249.749C59.7652 248.338 60.0361 246.928 60.9031 245.952C61.0114 245.843 61.0656 245.789 61.174 245.68L62.0409 244.704C62.1493 244.595 62.4744 244.161 62.5828 244.107L64.3709 243.022C65.7797 242.86 68.0012 243.022 68.5972 240.907C68.5972 240.907 68.7056 239.93 68.7056 239.768C69.5725 236.404 74.3408 236.513 77.4293 235.428L84.3107 234.451C84.8525 234.451 85.0151 234.56 85.7194 234.56C87.941 234.397 85.1234 234.18 87.2908 234.18L88.1577 234.451C88.2661 234.451 88.3203 234.56 88.4287 234.614C90.5418 235.591 86.8573 235.157 90.6502 235.428C91.1921 234.126 91.8965 233.421 95.6894 233.475C98.236 233.475 102.679 235.319 104.576 227.183C104.846 225.935 104.846 225.175 105.713 224.091C107.231 222.3 108.206 223.114 110.536 221.704C120.072 216.116 116.334 215.194 127.225 214.977C131.451 214.869 135.081 212.97 138.712 211.451C145.756 208.63 145.051 206.569 155.996 206.569C159.789 206.461 160.114 206.135 162.878 205.593C165.533 205.159 170.789 209.39 172.848 210.692C176.261 209.824 174.419 208.197 178.645 210.855C181.192 212.373 182.98 211.831 185.96 212.536C186.773 214.381 186.231 212.645 185.96 215.52C187.911 215.086 187.911 214.706 189.591 215.52C189.049 216.822 188.453 216.388 188.073 217.744L189.32 221.161C190.837 222.463 191.975 221.053 193.438 223.006C194.684 224.524 194.413 225.555 196.635 228.322C197.935 229.895 198.423 231.848 198.585 234.126C198.477 234.126 198.314 234.017 198.314 234.126C198.314 234.234 198.043 234.234 198.043 234.234C197.935 234.234 197.772 234.343 197.718 234.343L196.201 235.916C199.831 236.296 198.856 238.574 202.107 239.334C203.245 239.496 202.216 239.225 203.353 239.605C203.353 239.605 203.516 239.876 204.6 240.147L204.166 237.76C203.733 235.916 204.437 235.374 207.688 231.251C209.91 228.43 214.028 228.43 215.707 225.338C216.683 223.494 216.954 222.246 218.362 220.836C219.88 219.263 218.796 221.432 219.663 219.154C220.367 219.968 219.392 218.72 220.476 220.131C221.017 220.836 221.072 220.944 221.451 221.541C219.663 221.704 219.934 221.812 219.067 222.68C220.313 225.392 220.367 225.067 218.958 226.749C216.737 229.461 215.762 233.095 215.978 236.187C216.087 239.713 215.166 238.9 211.806 238.9C211.264 241.124 210.831 240.581 210.56 243.131C212.836 242.968 213.269 242.317 214.786 241.883C217.333 241.286 217.604 243.294 219.013 240.093L221.397 232.878L222.535 234.723C222.643 234.885 222.643 235.048 222.697 235.157L223.131 235.97C223.239 236.079 223.293 236.242 223.293 236.296C226.653 243.077 221.072 243.294 220.747 247.253H217.766V245.463C214.515 245.463 212.836 245.897 210.452 246.603C206.063 247.742 207.959 248.718 209.368 250.834C217.766 250.834 215.003 250.128 219.771 249.315C221.722 248.935 221.884 249.586 220.747 247.199C223.402 247.199 224.269 246.657 226.761 246.06C226.869 246.169 227.032 246.169 227.086 246.331C227.086 246.494 227.357 246.494 227.465 246.603C231.15 249.803 235.16 253.926 233.48 259.405C233.48 259.513 233.371 259.676 233.371 259.784L233.209 262.768C233.642 264.558 234.889 265.426 235.756 266.565L238.248 270.633C240.09 272.64 242.854 271.773 244.967 274.159L246.647 276.112C248.435 275.515 248.435 274.81 250.277 275.299L251.577 275.841C251.74 275.949 251.957 275.949 252.119 276.004C253.691 276.438 252.932 275.895 254.395 276.709C255.533 277.306 260.464 280.126 261.005 281.483C264.365 281.211 270.813 272.912 272.384 279.096C275.364 278.825 275.473 276.98 277.857 276.709L277.423 277.523C276.61 279.313 276.99 276.438 276.61 279.747L279.428 282.296C279.591 282.459 280.241 283.11 280.295 283.164L282.137 283.869C282.733 284.412 282.95 285.388 283.221 286.365C285.172 285.822 285.713 283.869 285.009 282.134C292.053 282.134 294.112 275.082 301.589 275.353C306.412 275.624 310.205 277.034 313.781 274.214L315.027 272.532C315.894 270.416 315.027 269.874 315.406 268.03L318.603 259.296C321.096 252.787 323.426 252.678 324.943 251.539C326.731 250.02 325.376 251.105 325.539 249.966C325.539 249.857 325.539 249.695 325.539 249.532L325.918 247.959C326.785 245.68 327.435 243.619 329.169 242.209C332.691 239.279 331.174 237.272 336.484 231.522L339.898 229.569C340.06 229.461 340.169 229.407 340.331 229.407L344.124 226.586C344.124 226.477 344.232 226.315 344.287 226.152C344.883 224.85 344.558 224.036 345.533 222.626C347.809 219.425 351.168 216.333 351.276 211.234C351.276 208.034 355.232 202.229 356.315 198.595C356.911 196.751 357.399 195.883 358.266 194.472C359.946 191.814 360.217 189.265 359.783 185.901C359.35 181.67 358.266 179.446 357.67 175.92C356.966 173.371 356.586 178.47 358.212 175.107C358.374 174.673 358.483 174.727 358.537 173.859C358.971 170.658 358.266 169.248 359.241 165.939C360.108 162.956 360.65 165.234 359.241 162.305C358.104 159.918 358.429 162.576 358.429 158.779C358.429 155.361 358.32 157.097 356.912 155.687C355.069 153.734 355.936 154.113 355.232 151.889C354.094 148.472 354.907 151.455 352.739 148.96C351.331 147.279 351.331 143.481 349.326 142.234L348.242 141.854C346.02 141.257 345.045 139.359 343.745 137.46C342.932 136.375 343.04 137.352 342.336 135.344C340.819 130.842 344.287 129.052 341.469 123.627C339.085 124.441 341.361 123.736 339.085 125.417C337.784 123.465 337.297 124.007 336.592 121.295C333.937 122 335.292 122.868 333.07 123.682C330.686 119.179 332.529 116.955 330.795 113.375C327.977 107.733 332.041 112.941 326.839 107.082C325.972 106.214 325.756 105.401 325.268 104.424H327.652C327.219 102.2 326.243 100.356 324.293 99.488C322.505 98.6743 323.426 99.6507 322.179 98.4031C322.071 98.4031 322.017 98.2403 321.908 98.1318L320.608 97.0469C318.495 95.745 318.82 97.4266 318.061 94.1177L317.249 94.5516C317.249 94.5516 316.978 94.6601 316.924 94.7144C315.623 95.0398 316.057 92.3275 314.81 90.8087C313.402 88.9643 315.352 91.9478 312.264 90.3747C310.584 89.561 312.372 90.3747 311.288 89.6695C310.421 89.0728 310.747 89.344 310.042 89.0728L308.958 88.8016C304.028 86.7945 304.895 85.9808 304.895 80.9359C300.668 79.7968 303.215 76.542 303.486 73.7755C304.028 69.3816 301.373 68.8391 302.456 64.0655C296.55 63.957 298.934 58.1527 297.255 51.806L296.984 46.0017C297.255 44.754 297.092 46.5441 297.688 44.32L296.117 43.5064C290.482 40.1431 291.62 37.4851 289.94 36.4544L285.822 37.7563C284.576 38.6242 285.822 38.353 283.98 38.8412C280.024 35.1525 281.866 27.3411 280.566 22.4048C280.024 20.2892 279.591 17.3599 276.773 16.6547C277.207 14.8103 277.748 14.2679 278.561 13.0202C277.152 12.315 276.448 12.4778 275.039 11.7726C275.039 7.97538 274.931 5.15459 273.197 2.17108C272.059 0.21823 272.818 0.0554925 270.217 -0.215736C269.512 2.60504 269.783 0.923425 267.237 2.17108C267.237 5.58856 266.803 8.46359 265.015 11.4471C265.015 11.5556 264.853 11.7183 264.853 11.8268L264.311 12.532C263.064 14.3764 262.035 16.058 261.818 18.4448H263.606C263.444 21.1571 263.444 19.584 262.306 21.2656C260.734 23.6524 261.601 21.1029 261.927 24.2491C262.306 27.4496 259.813 27.6123 260.084 30.9756C260.247 33.1997 261.06 32.4945 260.951 34.61C260.951 35.8577 260.355 36.4002 260.409 38.0818C260.572 42.5842 262.252 41.445 260.247 45.7847C258.134 50.2871 258.946 54.6267 256.183 59.1291C254.232 62.3296 253.799 64.4452 253.095 65.6386C252.228 67.049 248.489 68.6221 246.322 68.2967C244.804 68.1339 241.716 66.0726 240.253 65.3132C239.115 64.7165 238.248 64.3367 237.706 63.1976C237.002 61.9499 237.544 62.3839 237.002 61.4075C235.593 58.4239 231.638 58.6952 228.82 57.6103C225.894 56.3626 224.919 52.5112 218.037 49.7446L214.407 48.6055C214.299 48.6055 211.752 46.8153 211.589 46.6526L209.314 44.1031C208.609 43.5064 207.363 42.8012 206.496 42.096L203.949 40.5228C201.565 39.2209 201.945 40.5228 201.836 37.1596C203.137 36.7256 204.654 34.2303 205.792 32.6572C206.496 31.7893 205.954 32.5487 206.496 31.5723L207.038 30.2704C207.146 30.1619 207.146 29.9992 207.2 29.9449C207.58 29.077 208.067 27.7208 208.447 26.9614C205.954 25.985 208.555 27.3954 206.063 26.3647C206.767 25.0085 206.496 25.768 207.038 24.0321ZM265.774 293.688C265.774 289.457 266.207 289.782 263.986 288.318C263.39 290.813 263.823 288.426 263.173 290.27C262.197 293.145 262.143 295.641 265.774 293.688ZM292.812 294.285L295.196 299.655C296.279 299.112 295.9 299.221 297.58 299.112C297.58 295.424 297.688 296.726 296.334 294.881C295.521 293.796 295.521 293.471 293.949 293.091C293.516 294.827 294.925 294.122 292.812 294.285ZM267.616 303.94C267.616 306.598 268.32 309.256 269.404 311.263C270.217 312.837 270.542 312.348 270.488 314.627C270.379 318.966 269.892 320.214 271.734 323.794C272.709 325.801 274.66 328.025 274.931 330.304C279.157 330.304 278.561 330.141 279.049 331.551C283.004 331.443 280.458 330.683 282.679 330.304C282.842 330.304 286.743 331.28 285.659 326.181C288.639 326.995 287.231 328.568 289.181 328.405C290.753 328.242 289.994 326.886 290.265 325.042C290.427 322.818 289.452 324.499 292.27 323.198L291.674 319.563C291.674 315.332 292.649 319.563 294.058 320.16L295.846 307.466C296.008 306.49 297.146 306.924 294.708 303.344C291.999 303.723 293.57 303.778 292.92 303.94L284.901 305.079C283.221 305.351 281.975 306.056 280.945 305.947C277.857 305.785 276.285 302.042 271.951 301.174C270.867 301.011 271.951 301.337 270.379 300.631C268.266 299.763 270.921 300.36 268.374 299.655C268.104 302.53 267.616 301.716 267.616 303.94Z" fill="#DBDDE4"/>
<g opacity="0.32" filter="url(#filter0_f)">
<circle cx="252" cy="251" r="18" fill="#3856E1"/>
</g>
<circle opacity="0.32" cx="252" cy="251" r="15" fill="#3856E1"/>
<circle opacity="0.56" cx="252" cy="251" r="12" fill="#3856E1"/>
<circle cx="252" cy="251" r="9" fill="#3856E1"/>
</g>
<defs>
<filter id="filter0_f" x="226" y="225" width="52" height="52" filterUnits="userSpaceOnUse" color-interpolation-filters="sRGB">
<feFlood flood-opacity="0" result="BackgroundImageFix"/>
<feBlend mode="normal" in="SourceGraphic" in2="BackgroundImageFix" result="shape"/>
<feGaussianBlur stdDeviation="4" result="effect1_foregroundBlur"/>
</filter>
<clipPath id="clip0">
<rect width="360" height="331.55" fill="white"/>
</clipPath>
</defs>
</svg>
