<svg width="251" height="370" viewBox="0 0 251 370" fill="none" xmlns="http://www.w3.org/2000/svg">
<g clip-path="url(#clip0)">
<path d="M53.9567 206.619C65.0979 204.962 76.2392 203.581 87.3804 202.476C85.9072 203.949 84.0657 205.606 82.5924 207.08C84.2498 208.185 85.9072 209.289 87.5646 210.486C83.6053 211.868 79.5539 213.249 75.5946 214.538C74.766 214.814 73.8452 215.09 72.9244 215.09C72.1878 214.998 71.5433 214.814 70.8067 214.722C68.4127 214.446 66.387 216.379 64.9138 218.313C60.7704 223.561 57.5477 229.638 55.6141 235.992C57.3635 236.544 59.113 237.096 60.9545 237.741C59.2971 239.49 58.1001 241.7 57.7318 244.094C55.2458 244.923 54.9696 248.33 55.1537 251C52.1152 251.092 49.3529 252.842 46.8668 254.591C40.6057 259.011 34.6207 263.799 28.912 268.863C35.3573 267.758 41.5264 265.456 47.1431 262.141C47.8797 261.681 48.7084 261.22 49.537 261.128C50.3657 261.036 51.1944 261.22 52.0231 261.405C56.5349 262.51 61.2307 262.786 65.8346 262.325C65.9266 263.707 65.9266 264.996 66.0187 266.377C64.8217 265.088 62.704 265.272 61.0466 266.008C59.3892 266.745 57.916 267.85 56.1665 267.942C54.325 268.034 52.6676 267.113 50.9182 266.561C49.1687 266.008 47.051 265.916 45.854 267.205C44.4729 268.771 45.3015 271.257 44.7491 273.282C44.2887 274.848 43.0917 276.045 41.8026 277.058C38.2117 279.82 33.4237 281.017 28.912 280.464C29.3723 281.569 29.4644 282.858 29.2803 284.055C31.2139 283.687 33.2395 283.319 35.1731 282.95C35.6335 285.437 36.0018 287.83 36.4622 290.317C37.1067 293.815 33.6999 297.959 30.201 297.406C27.6229 297.038 25.2289 294.828 22.7428 295.657C21.6379 296.025 20.533 296.946 19.336 296.578C18.2311 296.209 17.8628 294.552 16.6658 294.184C15.9292 293.908 15.1926 294.184 14.5481 294.46C9.48386 296.578 3.8672 299.248 2.20983 304.496C1.5653 306.614 1.5653 309.1 0 310.573C3.59098 310.021 7.18195 309.468 10.6809 309.008C13.1669 308.64 15.653 308.271 18.139 307.903C18.6915 307.811 19.1519 307.719 19.7043 307.627C23.8478 306.982 27.9912 306.338 32.1346 305.785C33.1475 307.074 32.3188 309.1 31.1218 310.205C29.8327 311.31 28.2674 311.955 27.0704 313.152C26.6101 313.612 26.1497 314.164 25.5972 314.625C24.5844 315.269 23.3874 315.361 22.1904 315.361C17.0341 315.73 11.1412 318.584 10.6809 323.74C8.83932 323.096 6.81365 324.753 6.26119 326.687C5.80081 328.62 6.35326 330.646 7.08988 332.488C7.82649 334.329 8.65517 336.171 8.74725 338.104C9.66801 336.815 11.6937 336.355 13.0748 337.183C13.1669 335.802 13.9035 334.421 15.0084 333.592C17.0341 334.605 17.4945 337.828 15.9292 339.393C17.8628 340.866 19.5202 342.8 20.7172 345.01C27.0704 340.406 33.9762 336.723 41.3423 334.053C41.3423 334.881 41.3423 335.618 41.2502 336.447C37.5671 338.565 33.8841 340.774 30.201 342.892C28.7278 343.721 26.9784 345.102 27.4387 346.759C22.927 348.325 19.0598 351.455 16.6658 355.507C19.0598 357.256 22.3745 357.072 25.0448 355.875C27.715 354.678 29.8327 352.56 31.9505 350.534C32.1346 352.56 34.6207 353.941 36.4622 353.021C36.5543 350.811 38.58 349.153 40.6056 348.509C42.6313 347.772 44.9332 347.68 46.9589 346.851C48.5242 346.207 49.9974 345.102 51.6548 344.734C53.128 345.47 55.8903 346.483 56.5349 348.048C49.445 350.442 42.8155 354.31 37.2909 359.374C41.6185 359.374 45.9461 358.545 49.9974 357.072C45.2095 359.742 40.6056 362.689 36.0939 366.003C36.7384 367.108 37.4751 368.213 38.1196 369.318C45.3015 365.727 52.6676 362.689 60.31 360.018C59.5734 361.215 60.7704 363.057 62.1515 362.873C62.1515 364.714 62.2436 366.556 62.2436 368.397C63.993 367.2 66.0187 366.556 68.1365 366.372C69.0572 366.28 70.0701 366.279 70.8988 365.819C71.5433 365.451 71.9116 364.898 72.372 364.346C75.5026 360.663 79.8302 358.085 84.526 356.98C83.6053 358.361 84.2498 360.571 85.723 361.399C87.2883 362.228 89.314 361.584 90.3269 360.11C90.4189 358.545 90.511 356.98 90.8793 355.507C91.8001 355.415 92.8129 355.322 93.7337 355.23C94.1941 356.335 94.6544 357.532 95.0227 358.637C97.2326 358.177 99.4424 357.809 101.652 357.348C101.928 355.783 102.113 354.125 102.389 352.56C109.295 351.639 114.175 344.181 121.08 343.813C121.449 339.762 121.817 335.71 122.093 331.659C123.382 331.567 124.671 331.475 125.868 331.383C123.382 333.316 123.198 337.552 125.408 339.854C130.288 337.368 135.352 335.25 140.508 333.684C139.864 333.224 140.324 332.119 141.061 331.751C141.798 331.383 142.626 331.383 143.271 331.014C144.836 330.186 144.836 327.976 145.757 326.503C147.23 324.016 150.637 323.74 153.399 323.004C157.45 321.991 161.134 319.321 163.435 315.822C161.87 315.822 160.213 314.809 160.029 313.244C159.844 311.678 162.054 310.297 163.067 311.494C165.829 314.533 171.814 308.548 175.866 307.903C177.431 307.627 179.088 307.903 180.654 307.903C183.692 307.903 186.731 306.982 189.401 305.325C189.585 306.154 189.677 306.89 189.861 307.719C191.795 308.456 194.097 307.811 195.478 306.338C196.767 304.773 197.043 302.379 196.03 300.629C197.412 300.537 198.701 300.353 200.082 300.261C200.082 302.839 199.529 305.509 198.517 307.903C200.266 306.798 202.2 306.062 204.133 305.601C204.041 303.483 204.225 301.366 204.87 299.34C209.382 298.327 214.446 300.905 216.195 305.141C219.97 301.918 225.679 303.115 230.467 304.496C231.848 302.563 232.861 300.353 233.413 298.051C230.375 295.841 227.244 293.723 224.206 291.514C225.219 290.593 225.863 289.304 225.863 287.923C227.336 287.923 228.81 288.107 230.191 288.567C229.546 284.976 231.112 281.293 233.229 278.347C235.347 275.308 237.925 272.73 239.675 269.507C237.557 266.929 237.096 263.338 237.741 260.023C238.386 256.801 239.951 253.762 241.424 250.816C244.739 244.37 248.054 237.833 251.276 231.204C248.974 229.822 247.501 227.152 247.685 224.39C248.054 217.3 246.304 209.566 245.568 202.568C245.475 202.107 245.475 201.555 245.107 201.187C244.831 200.818 244.37 200.726 243.91 200.634C242.253 200.174 240.595 199.713 238.938 199.253C238.109 197.872 239.306 196.03 240.78 195.662C242.345 195.294 243.91 195.938 245.199 196.859C246.58 195.478 248.054 193.176 246.764 191.703C246.396 191.242 245.844 190.966 245.383 190.598C243.634 189.125 243.726 186.362 244.094 184.061C244.371 182.219 244.647 180.377 245.383 178.628C245.66 178.076 245.936 177.523 245.936 176.879C245.936 176.418 245.752 176.05 245.475 175.682C243.818 173.196 240.227 172.367 239.03 169.605C238.201 167.671 238.846 165.277 237.833 163.435C237.281 162.515 236.452 161.87 236.084 160.857C235.715 159.752 236.176 158.647 236.544 157.635C237.649 154.32 237.649 150.084 234.887 147.875C233.966 147.138 232.861 146.77 232.124 145.941C229.178 142.718 229.73 137.746 231.204 133.603C232.677 132.682 234.518 133.879 236.084 134.616C238.662 135.813 241.884 135.628 244.37 134.247C242.345 132.866 240.687 131.025 239.583 128.815C238.754 127.065 236.912 126.513 235.255 125.5C233.598 124.487 232.493 123.566 231.019 124.763C229.454 125.96 228.533 127.71 227.613 129.459C223.469 128.17 218.681 129.091 215.274 131.853C214.998 130.196 213.801 128.723 212.144 128.078C212.972 125.224 213.893 122.369 214.722 119.423C212.788 117.581 210.118 116.569 207.448 116.661C205.975 114.635 204.041 112.978 202.66 110.86C201.279 108.742 200.634 105.796 202.107 103.77C200.082 103.033 198.793 100.824 197.32 99.1662C195.846 97.5088 193.729 96.0356 191.703 96.6801C189.861 97.3246 188.941 99.3503 188.02 101.1C187.099 102.849 185.35 104.599 183.416 104.046C184.613 107.545 185.81 110.952 187.099 114.451C184.889 113.622 182.403 114.911 181.022 116.845C179.733 118.778 179.273 121.172 178.904 123.474C176.234 122.83 173.472 122.185 170.802 121.541C169.881 121.357 168.592 121.172 168.039 122.001C164.54 122.093 161.134 120.712 158.647 118.226C157.266 116.845 156.069 115.187 154.228 114.819C151.558 114.267 148.703 116.937 146.217 115.648C144.56 114.819 144.191 112.609 144.376 110.768C144.56 108.926 145.112 107.085 144.744 105.243C143.087 105.98 141.245 106.072 139.496 105.612C139.311 104.322 139.219 103.033 138.575 102.021C137.93 100.916 136.641 100.179 135.444 100.455C134.616 95.8514 132.314 91.5238 128.999 88.3012C130.38 87.9329 131.853 87.7487 133.234 87.6566C133.787 86.0913 134.339 84.6181 134.8 83.0528C139.311 85.0785 144.836 83.6973 148.887 80.843C150.913 79.3698 152.663 77.6203 154.044 75.5026C152.294 74.3056 149.992 74.4897 147.875 74.2135C145.757 74.0293 143.363 73.0165 142.994 70.8987C142.718 69.1493 144.099 67.4919 145.388 66.2029C147.322 66.2029 149.164 67.3078 150.176 68.8731C152.11 66.9395 154.136 65.0059 156.622 63.8089C159.108 62.6119 162.238 62.3357 164.54 63.8089C164.448 61.9673 164.448 60.1258 164.356 58.2843C167.026 57.0873 167.303 54.2329 167.763 51.3786C168.223 48.5242 167.671 45.5778 167.118 42.8155C168.131 42.7234 169.052 42.7234 170.065 42.6313C170.433 40.5136 170.802 38.3958 171.17 36.3701C173.748 35.7256 176.418 34.989 178.996 34.3445C179.088 31.2139 179.457 27.715 182.035 25.8734C182.771 25.321 183.6 25.0447 184.429 24.6764C188.848 23.0191 193.176 21.2696 197.596 19.6122C197.412 17.7707 197.596 15.8371 198.148 14.0877C195.018 13.0748 191.887 12.062 189.309 10.0363C186.731 8.10271 184.797 4.88004 185.073 1.65736C181.298 1.28906 177.615 0.828678 173.84 0.460373C173.38 4.14342 172.643 7.7344 171.63 11.2333C170.249 9.94423 167.855 10.2205 166.382 11.4175C164.909 12.6144 164.264 14.6401 164.172 16.4816C164.08 19.8885 165.737 23.1111 167.947 25.6893C165.645 28.4516 164.909 32.5029 166.29 35.9097C164.632 37.1988 163.067 38.4879 161.41 39.777C162.423 37.6592 161.041 34.989 161.686 32.7792C161.962 31.7663 162.607 30.9376 163.067 30.0169C164.725 26.7942 164.356 22.6508 162.054 19.7964C160.581 19.7964 159.937 17.8628 160.121 16.3896C160.305 14.9164 160.581 13.1669 159.568 12.1541C157.358 14.6401 154.044 16.1133 150.637 16.0213C148.703 15.9292 145.941 15.8371 145.573 17.7707C147.138 19.1519 148.703 20.533 150.269 21.8221C149.992 23.4794 147.782 24.0319 146.217 23.3874C144.652 22.8349 143.455 21.5458 141.89 20.9013C141.89 20.0726 141.798 19.1519 141.798 18.3232C139.864 18.2311 138.022 19.0598 136.733 20.4409C135.813 23.7557 132.682 26.2417 129.183 26.4259C128.354 25.0447 126.605 24.4923 125.04 24.6764C123.474 24.8606 122.093 25.6893 120.712 26.518C120.62 29.0961 120.62 31.7663 120.528 34.3445C118.778 33.9761 117.029 34.989 115.924 36.3701C114.819 37.7513 114.359 39.5007 113.806 41.2502C114.267 42.263 114.819 43.1838 115.28 44.1966C113.898 44.9332 112.241 46.3144 112.978 47.6955C114.083 49.9974 118.318 46.9589 120.067 48.8925C117.766 52.0231 114.083 54.325 110.215 54.9695C110.492 56.1665 110.676 57.4556 110.952 58.6526C108.926 62.0594 103.402 59.8496 99.8107 61.599C97.8771 62.5198 96.7722 64.6376 95.7594 66.5712C95.2069 67.8602 94.5624 69.1493 94.4703 70.5304C97.785 70.9908 100.547 74.4897 103.862 75.3184C105.335 75.6867 106.901 75.5946 108.374 75.4105C112.793 75.0422 117.213 74.5818 121.725 74.2135C124.855 73.9373 127.986 73.661 131.117 73.3848C129.183 77.252 127.249 81.1192 125.316 84.9864C124.487 86.5517 123.751 88.2091 122.461 89.4061C120.067 91.708 116.477 92.2604 113.162 92.5367C112.333 92.6288 111.412 92.7208 110.584 92.9971C109.755 93.2733 109.11 93.8257 108.466 94.2861C106.072 96.0356 103.586 97.785 101.192 99.5345C101.284 100.271 101.468 101.008 101.56 101.744C103.678 101.652 105.796 101.468 107.913 101.376C107.637 102.297 107.361 103.31 107.085 104.23C108.558 105.335 110.123 106.348 111.596 107.453C109.387 108.19 107.177 109.295 105.243 110.584C104.322 108.558 101.928 107.637 99.7186 107.821C97.5088 108.005 95.4831 109.11 93.5495 110.123C91.5238 107.637 88.9457 105.704 85.9072 104.599C83.5132 104.783 80.6588 105.335 79.646 107.545C78.9094 109.202 79.646 111.32 78.8173 112.886C77.6203 115.003 74.3056 114.635 72.6482 112.978C70.9908 111.228 70.6225 108.742 70.2542 106.348C67.584 106.164 65.0059 105.335 62.796 103.954C61.9674 105.888 59.2051 105.519 57.1794 105.059C53.2201 104.138 49.0767 103.954 45.0253 104.507C43.7362 104.691 42.263 104.875 41.3423 104.138C40.7898 103.678 40.5136 103.125 40.0532 102.665C38.7641 101.468 36.3701 102.205 35.8177 103.862C35.4494 105.059 36.0018 106.348 36.2781 107.545C35.1731 109.018 34.2524 111.412 33.1475 112.886C32.2267 110.676 30.9376 108.558 29.4644 106.716C26.7942 106.993 24.124 107.729 21.6379 108.926C20.9934 113.898 20.2568 118.778 19.6123 123.751C20.6251 123.935 21.6379 124.119 22.6508 124.395C22.8349 122.369 23.4795 120.344 24.4002 118.594C24.9527 117.581 25.5972 116.569 26.7021 116.016C27.715 115.556 29.1882 115.74 29.7406 116.753C29.4644 118.778 29.6486 120.896 30.201 122.83C29.3723 123.474 28.6357 124.119 27.807 124.671C28.6357 126.237 30.201 127.342 31.8584 127.802C32.595 131.117 33.4237 134.431 34.1603 137.746C31.398 137.838 28.912 135.168 29.1882 132.406C24.2161 132.037 19.0598 133.603 15.1926 136.733C15.5609 137.378 15.9292 138.022 16.2975 138.575C18.8756 138.114 21.4538 137.654 24.0319 137.286C23.8478 140.048 25.4131 142.81 27.6229 144.56C29.7406 146.309 32.4109 147.414 35.0811 148.427C36.8305 146.401 38.8562 144.56 41.066 143.087C45.0253 144.099 49.0767 144.836 53.128 145.112C52.5756 146.493 52.0231 147.782 51.5627 149.164C50.3657 148.703 49.0767 148.887 47.9718 149.532C49.0767 151.281 50.1816 153.123 51.2865 154.872C47.6955 155.056 44.1966 155.241 40.6056 155.425C39.1324 155.517 37.6592 155.609 36.3701 156.161C34.1603 157.174 32.7792 159.568 32.3188 162.054C31.8584 164.448 32.2267 167.026 32.6871 169.42C33.792 169.881 34.7128 170.894 34.989 171.999C33.6999 172.643 32.4109 173.38 31.1218 174.024C30.1089 172.091 27.3467 171.17 25.4131 172.183C23.3874 173.196 22.4666 175.866 23.3874 177.891C22.0062 177.063 20.0726 177.339 19.0598 178.628C19.2439 179.733 19.4281 180.838 19.6123 181.943C21.1775 182.956 23.1112 183.692 24.9527 183.876C24.4923 184.705 22.7428 186.731 22.2825 187.559C21.4538 187.283 20.4409 187.099 19.6123 187.467C18.7836 187.836 18.2311 188.848 18.5994 189.677C18.9677 190.506 19.9806 190.782 20.8092 190.69C21.6379 190.69 22.5587 190.506 23.3874 190.69C24.5844 190.966 25.4131 192.071 26.2417 192.992C27.0704 193.913 28.3595 194.649 29.4644 194.189C31.2139 193.452 30.9376 190.69 32.5029 189.493C33.0554 190.782 34.3445 191.703 35.7256 192.071C37.1068 192.439 38.4879 192.347 39.9611 192.255C37.9354 192.624 36.0018 193.268 34.2524 194.189C33.9762 194.373 33.6999 194.465 33.5158 194.741C33.3316 195.018 33.2395 195.478 33.1475 195.846C32.9633 197.32 32.7792 198.885 32.595 200.358C34.5286 200.266 36.4622 200.358 38.3037 200.726C39.3166 197.32 41.4343 195.386 44.3808 193.544C46.3144 196.03 47.8797 198.885 48.9846 201.831C47.6034 201.647 46.1302 201.371 44.7491 201.187C44.5649 201.187 44.2887 201.095 44.1045 201.279C44.0125 201.371 44.0125 201.463 43.9204 201.647C43.5521 202.936 43.1838 204.317 42.8155 205.606C42.7234 205.883 42.6313 206.251 42.7234 206.527C42.9076 207.08 43.5521 207.172 44.1045 207.264C46.0382 207.54 48.0638 207.816 49.9974 208.092C50.3657 206.527 51.1023 205.054 52.0231 203.765C52.2993 204.317 53.128 205.698 53.9567 206.619Z" fill="#DBDDE4"/>
<path d="M107.914 35.2652C108.19 36.3701 106.44 36.9226 105.98 37.9354C105.704 38.5799 105.888 39.4086 106.256 40.0532C106.809 41.066 107.637 41.9868 108.742 41.9868C109.663 41.9868 110.4 41.2502 110.768 40.5135C111.136 39.7769 111.228 38.8562 111.228 37.9354C109.939 37.383 108.742 36.4622 107.914 35.3573C107.914 35.6335 107.914 35.9097 107.914 36.278" fill="#DBDDE4"/>
<path d="M29.0962 150.545C27.623 150.453 26.0577 150.361 24.6765 151.005C23.2954 151.65 22.2825 153.215 22.835 154.688C24.3082 154.688 25.6894 154.78 27.1626 154.78C27.8071 154.78 28.5437 154.78 29.0041 154.412C29.9249 153.767 29.7407 152.386 29.5566 151.281" fill="#DBDDE4"/>
<path d="M39.6848 211.868C38.3037 212.88 37.0146 213.985 35.7256 215.182C35.5414 215.274 35.4493 215.458 35.4493 215.643C35.4493 215.919 35.7256 216.103 35.9097 216.195C38.0275 217.392 40.2373 218.497 42.4471 219.51C42.8154 219.694 43.1838 219.878 43.6441 219.786C44.0124 219.786 44.2887 219.602 44.5649 219.418C45.7619 218.865 46.8668 218.221 48.0638 217.668C47.143 217.116 47.051 215.827 46.2223 215.09C45.854 214.722 45.3936 214.538 44.9332 214.354C43.1837 213.709 41.4343 213.065 39.7769 212.42" fill="#DBDDE4"/>
<g opacity="0.32" filter="url(#filter0_f)">
<circle cx="233" cy="234" r="18" fill="#3856E1"/>
</g>
<circle opacity="0.32" cx="233" cy="234" r="15" fill="#3856E1"/>
<circle opacity="0.56" cx="233" cy="234" r="12" fill="#3856E1"/>
<circle cx="233" cy="234" r="9" fill="#3856E1"/>
</g>
<defs>
<filter id="filter0_f" x="207" y="208" width="52" height="52" filterUnits="userSpaceOnUse" color-interpolation-filters="sRGB">
<feFlood flood-opacity="0" result="BackgroundImageFix"/>
<feBlend mode="normal" in="SourceGraphic" in2="BackgroundImageFix" result="shape"/>
<feGaussianBlur stdDeviation="4" result="effect1_foregroundBlur"/>
</filter>
<clipPath id="clip0">
<rect width="251" height="369.226" fill="white"/>
</clipPath>
</defs>
</svg>
