<svg width="318" height="369" viewBox="0 0 318 369" fill="none" xmlns="http://www.w3.org/2000/svg">
<g clip-path="url(#clip0)">
<path d="M317.065 240.874C318.401 239.136 318.268 238.467 316.931 236.863C316.263 236.061 315.594 235.126 316.129 233.923C316.396 233.388 316.263 232.72 315.594 232.319C314.659 231.65 313.857 230.982 313.054 230.18C311.985 229.244 310.381 228.309 309.846 227.106C309.178 225.635 308.242 225.635 307.039 225.635C305.435 225.635 303.965 224.566 303.831 223.229C303.698 222.427 303.297 221.625 303.029 220.823C302.762 220.021 302.227 219.62 301.425 219.754C298.217 220.155 295.276 218.818 292.469 217.615C289.796 216.412 287.123 214.808 284.85 212.937C282.444 211.065 280.172 209.194 277.365 207.857C273.889 206.119 270.147 205.184 266.537 204.248C263.998 203.58 261.458 202.51 259.052 201.708C256.78 200.906 254.507 199.971 252.368 198.901C249.695 197.698 247.022 196.763 244.616 195.025C242.343 193.421 241.809 192.351 242.477 189.678C242.611 189.277 242.744 189.143 243.145 189.277C244.482 189.812 245.551 189.544 246.353 188.341C246.621 188.074 247.022 187.807 247.289 187.539C249.16 186.47 249.829 184.599 250.23 182.861C250.631 180.455 248.091 177.247 244.215 178.45C241.675 179.252 239.135 179.787 236.462 180.054C234.056 180.321 231.783 180.188 229.377 180.856C228.709 180.99 227.907 181.123 227.239 180.589C226.169 179.653 224.833 179.519 223.63 179.653C221.892 179.787 220.421 179.118 219.218 177.915C218.015 176.846 216.679 175.91 214.941 176.044C213.07 176.177 211.867 175.509 211.065 173.905C210.396 172.568 209.728 171.232 207.99 171.232C207.857 171.232 207.589 171.098 207.455 170.964C205.183 169.227 203.312 167.222 201.841 164.949C201.039 163.613 199.97 162.944 198.5 162.543C198.099 162.409 197.698 162.276 197.43 162.008C194.49 159.201 191.549 156.394 190.212 152.518C188.875 148.775 187.271 145.032 186.603 141.022C186.336 139.017 185.935 136.745 184.598 135.275C183.395 133.938 182.86 132.334 182.459 130.73C181.791 128.324 180.989 126.051 179.519 124.046C178.85 122.977 177.915 122.175 176.578 122.041C174.84 121.774 173.37 120.838 171.899 120.036C169.36 118.432 167.355 116.293 165.082 114.288C162.944 112.551 160.537 111.481 158.131 110.278C157.196 109.877 156.26 109.476 155.324 108.942C153.854 107.872 152.517 106.669 150.913 105.6C147.037 102.793 145.165 98.7828 144.23 94.238C143.695 91.5646 143.829 88.8912 142.893 86.3515C142.492 85.4158 142.358 84.2128 142.626 83.1434C142.893 82.3414 143.027 81.673 142.225 81.0047C141.957 80.871 142.091 80.6037 142.225 80.3363C142.893 79.4007 145.299 79.4007 145.7 80.47C145.834 80.7374 145.834 81.0047 146.235 81.0047C146.502 80.871 146.502 80.6037 146.502 80.3363C146.502 80.069 146.502 79.8017 146.368 79.4007C146.235 78.866 145.967 78.1976 146.769 77.9303C147.572 77.663 147.572 78.3313 147.705 78.866C147.839 79.1333 147.973 79.4007 148.374 79.4007C148.908 79.4007 148.775 78.866 148.775 78.5986C148.908 77.5293 148.908 76.4599 148.908 75.3906C149.176 73.1182 148.641 72.8509 146.502 72.5835C145.566 72.4498 145.7 73.5192 145.032 73.3855C144.764 72.8509 144.631 72.1825 144.631 71.5142C144.631 71.1132 144.497 70.8458 144.096 70.8458C143.294 70.8458 143.294 70.8458 143.695 70.1775C145.032 68.0387 143.962 65.6327 141.69 64.9643C141.022 64.8307 140.353 64.4297 140.353 63.6276C140.353 62.0236 139.685 60.1522 141.556 58.9492C141.824 58.8155 141.824 58.5482 141.957 58.2809C142.492 57.0778 143.027 55.7411 144.497 55.3401C145.967 54.9391 147.304 54.2708 148.106 52.8004C148.24 52.5331 148.507 52.5331 148.775 52.5331C149.443 52.9341 150.646 53.0678 150.78 53.7361C150.78 54.4044 149.71 54.8055 148.908 54.6718C148.106 54.6718 147.839 55.0728 147.705 55.7411C147.572 56.1422 147.572 56.6768 147.973 56.9442C148.507 57.2115 149.042 56.9442 149.443 56.6768C151.047 55.4738 152.785 54.5381 154.522 53.3351C155.191 52.9341 155.859 52.3994 156.795 52.3994C158.8 52.1321 159.468 50.7954 158.532 48.924C158.399 48.523 157.998 48.122 158.399 47.5873C158.933 47.8546 159.735 47.8546 159.869 48.924C159.869 49.4587 160.404 49.726 161.206 49.726C162.275 49.726 163.077 49.325 164.013 49.0577C164.681 48.924 165.216 48.2556 165.216 47.4536C165.216 46.7853 164.949 46.5179 164.28 46.2506C163.478 45.9833 163.879 45.4486 164.414 45.3149C165.617 44.7802 166.954 44.2456 168.29 44.7802C168.959 45.0476 169.627 45.3149 170.295 45.7159C171.365 46.1169 172.701 46.5179 172.434 48.2556C172.434 48.3893 172.434 48.6567 172.835 48.523C174.038 47.4536 174.706 46.1169 175.776 44.9139C177.38 46.1169 178.984 47.32 180.588 48.6567C181.256 49.1913 181.39 49.5923 180.454 49.9934C179.92 50.2607 179.251 50.528 179.786 51.4637C180.187 52.2657 180.855 52.5331 181.657 52.1321C183.662 51.33 184.598 48.122 183.261 46.3843C182.192 45.0476 180.989 43.9782 179.519 43.1762C178.449 42.6415 177.38 41.9732 177.514 40.5028C177.781 37.5621 177.781 37.4284 174.706 36.7601C173.904 36.6264 173.771 36.2254 174.172 35.557C174.706 34.6213 175.508 34.0867 176.31 33.552C176.979 33.0173 178.048 32.4826 177.781 31.2796C177.513 30.2102 176.845 29.5419 175.642 29.4082C174.84 29.2746 173.904 29.0072 173.102 28.8736C172.033 28.7399 170.964 28.4725 170.83 27.2695C170.696 26.4675 171.365 25.6655 172.033 25.1308C174.439 23.1258 176.845 21.2544 179.92 20.586C180.588 20.4524 180.722 19.9177 180.588 19.5167C180.588 19.1157 180.855 18.4473 180.187 18.3137C179.118 18.3137 178.182 17.6453 177.112 18.18C176.845 18.3137 176.31 18.3137 176.177 18.18C175.107 17.1106 173.637 17.5116 172.434 17.378C171.231 17.1106 169.894 16.7096 168.825 17.5116C168.691 17.6453 168.424 17.5116 168.157 17.5116C166.686 17.1106 165.35 16.8433 163.879 16.4423C161.74 16.0413 159.735 14.8382 157.463 15.6403C156.394 16.0413 155.324 16.1749 154.389 14.9719C154.121 14.7046 153.72 14.5709 153.186 14.5709C152.25 14.5709 151.181 14.4372 150.245 14.5709C148.24 14.9719 147.037 14.0362 146.235 12.4322C146.101 12.1648 145.967 11.8975 145.834 11.7638C145.032 10.8282 144.631 9.49146 143.16 9.22412C142.626 9.09045 142.091 8.55577 142.225 7.75375C142.492 6.68439 141.957 5.61504 141.022 5.3477C139.017 4.41201 138.215 3.20898 138.883 1.07027C139.15 0.268252 138.616 -0.266426 137.68 -0.266426C136.611 -0.266426 135.541 -0.266426 134.472 0.134583C133.002 0.669261 131.798 1.47128 130.462 2.40697C129.526 3.07531 128.59 3.87733 127.254 2.94164C126.452 2.2733 125.249 2.00596 124.046 2.00596C123.244 2.00596 122.709 2.54064 122.174 2.80798C119.635 3.87733 117.63 3.74366 115.758 4.011C113.218 4.41201 111.882 5.88238 111.347 8.4221C111.213 9.49146 110.812 10.8282 109.476 10.8282C108.406 10.9618 107.337 10.8282 106.268 10.6945C104.797 10.6945 104.53 9.89246 104.129 8.82311C103.728 7.75375 102.792 7.35274 101.723 7.62008C100.787 7.88742 99.8514 8.15476 98.7821 8.28843C96.777 8.55577 96.1087 9.62512 96.5097 11.6302C97.0444 13.7689 97.9801 15.7739 97.7127 18.0463C97.5791 18.8483 97.178 19.2493 96.5097 18.982C94.6383 18.4473 93.168 17.2443 92.0986 15.7739C91.8313 15.5066 91.5639 15.2392 91.2966 15.3729C90.2272 16.0413 89.0242 16.5759 88.0885 17.5116C86.8855 18.7147 87.2865 20.4524 86.4845 21.9227C86.2171 22.4574 86.7518 22.8584 87.2865 22.8584C88.0885 22.8584 88.8905 22.8584 89.6926 22.8584C90.0936 22.8584 90.4946 22.8584 90.6283 23.3931C90.7619 23.9278 90.3609 24.1951 89.9599 24.3288C89.0242 24.7298 88.6232 25.7991 88.7569 26.4675C88.8905 27.4032 88.6232 28.0715 88.6232 29.0072C88.6232 29.6756 88.0885 30.4776 87.2865 30.4776C86.7518 30.4776 86.6182 29.6756 86.6182 29.1409C86.4845 27.6705 85.0141 26.7348 84.7468 25.2645C84.7468 24.9971 84.3458 24.7298 84.0784 24.7298C83.2764 24.9971 82.2071 24.8635 81.6724 25.5318C80.4694 26.7348 78.999 27.1358 77.5286 27.8042C76.7266 28.0715 76.0583 27.8042 75.7909 27.1358C75.5236 26.4675 74.9889 25.7992 74.7216 24.9971C73.6522 22.5911 71.9145 20.7197 69.7758 19.2493C69.1074 18.8483 68.3054 18.8483 67.7707 19.1157C67.1024 19.383 67.3697 20.0514 67.3697 20.586C67.3697 21.7891 67.3697 22.9921 68.0381 24.1951C68.3054 24.7298 68.3054 25.3981 68.0381 25.7991C66.7014 27.6705 66.033 29.9429 64.429 31.6806C63.3596 32.75 62.5576 33.8193 62.825 35.4234C62.9586 35.958 62.424 36.2254 62.2903 36.4927C62.0229 37.2947 60.8199 37.8294 61.3546 38.8988C62.0229 39.9681 63.0923 40.7701 62.0229 42.2405C62.0229 42.2405 62.0229 42.3742 62.1566 42.5079C62.424 43.4435 62.1566 44.2456 61.2209 44.3792C59.3496 44.6466 57.7455 42.7752 57.4782 41.3048C57.3445 40.3691 57.2108 39.4334 56.9435 38.4978C56.6762 37.4284 56.2752 36.359 56.6762 35.156C57.0772 33.8193 56.4088 33.151 54.9385 33.6857C53.2007 34.2203 51.7304 33.953 50.661 32.349C49.9927 31.4133 49.057 30.4776 48.255 29.6756C47.1856 28.6062 47.052 27.5369 47.9876 26.3338C48.9233 25.1308 49.3243 23.6604 49.458 22.1901C49.5917 21.6554 49.1907 20.987 48.656 20.8534C47.052 20.4524 45.0469 21.2544 44.3786 22.9921C43.5765 25.3981 41.8388 26.4675 39.4328 26.4675C38.7644 26.4675 37.9624 26.4675 37.5614 27.1358C37.1604 27.8042 37.5614 28.6062 37.9624 29.4082C39.1654 31.5469 39.9675 32.4826 37.2941 34.354C35.69 35.4234 34.3533 36.7601 33.4176 38.6314C32.7493 40.1018 31.6799 40.3691 30.4769 40.2355C29.9422 40.1018 29.6749 39.7008 29.2739 39.4334C27.8035 38.4978 25.9321 38.6314 24.4618 37.6957C23.3924 37.0274 22.8577 37.5621 22.1894 38.2304C21.9221 38.4978 21.6547 38.7651 21.5211 39.1661C20.4517 40.3691 19.3823 41.3048 17.511 41.0375C16.1743 40.9038 14.8376 40.9038 13.5009 41.1712C12.9662 41.3048 12.5652 40.9038 12.4315 40.3691C12.1642 39.5671 11.7632 38.8988 10.8275 40.1018C10.4265 40.5028 9.8918 40.9038 9.22345 41.0375C7.88675 41.0375 6.68372 41.5722 5.34703 41.9732C4.41134 42.3742 4.27767 43.1762 4.67868 43.7109C5.74804 45.1812 6.95106 46.3843 8.42143 47.4536C8.95611 47.721 9.8918 47.1863 9.8918 48.3893C9.8918 49.0577 9.8918 49.726 9.75813 50.3944C9.75813 50.6617 9.62446 50.929 9.49079 51.0627C9.08978 51.8647 9.35712 52.5331 10.1591 52.9341C10.9612 53.4688 11.6295 53.8698 12.5652 54.2708C13.9019 54.8055 14.0356 55.4738 12.9662 56.4095C11.7632 57.4789 11.6295 58.5482 12.0305 60.0186C12.1642 60.5533 12.2978 61.0879 12.4315 61.6226C12.5652 62.0236 12.4315 62.1573 12.1642 62.291C9.8918 62.692 8.42143 64.4297 7.08473 66.0337C6.68372 66.4347 6.41639 66.5684 5.88171 66.5684C4.54501 66.5684 3.20831 66.5684 1.87162 66.5684C0.935931 66.5684 0.267583 66.9694 0.000244066 67.7714C-0.400765 68.5734 0.534923 68.9744 1.0696 69.3754C1.47061 69.6428 2.00529 69.7765 2.27263 70.3111C3.07465 71.9152 3.74299 73.5192 3.87666 75.2569C3.87666 75.5242 3.87666 75.7916 4.144 75.9253C5.07969 76.3263 6.01538 77.5293 7.08473 77.2619C9.22345 76.8609 10.0255 77.7966 10.4265 79.5343C10.4265 79.668 10.5601 79.668 10.5601 79.668C11.0948 80.6037 10.6938 81.5394 9.49079 81.8067C8.28776 82.0741 7.61941 82.8761 7.61941 84.0791C7.75308 85.6831 6.81739 86.4851 5.61437 87.1535C5.21336 87.4208 4.81235 87.4208 4.54501 87.9555C4.144 89.0249 4.41134 89.5596 6.28272 90.0942C6.81739 90.2279 7.35207 90.3616 7.35207 90.8962C7.35207 91.2973 6.81739 91.6983 6.28272 91.6983C5.4807 91.6983 5.34703 92.0993 5.4807 92.7676C5.88171 94.3717 6.14905 96.1094 7.75308 97.1787C10.5601 99.0501 13.6345 100.387 16.0406 102.793C16.5753 103.328 17.3773 103.461 17.912 103.194C19.7833 102.392 22.1894 103.06 23.6598 101.055C23.9271 100.654 24.4618 100.788 24.8628 101.055C25.1301 101.189 25.2638 101.456 25.1301 101.857C24.3281 103.194 24.9965 104.13 25.9321 105.065C26.4668 105.6 26.7342 106.268 25.7985 106.803C21.9221 109.343 20.9864 110.947 22.0557 115.09C22.3231 116.026 22.7241 116.16 23.5261 116.293C25.1301 116.427 26.6005 116.026 28.0709 115.759C30.2096 115.358 32.3483 115.09 34.086 113.887C35.5564 112.952 36.3584 111.214 37.8287 110.011C38.0961 109.744 38.2298 109.075 38.2298 108.541C38.0961 107.739 38.3634 107.204 39.0318 106.669C40.2348 105.6 41.3042 104.397 42.5072 103.328C42.7745 103.06 43.1755 102.927 43.7102 103.06C45.1806 103.461 45.8489 102.927 45.9826 101.322C46.1163 99.3174 48.255 96.644 50.1264 96.1094C51.5967 95.5747 53.0671 95.5747 54.4038 94.9063C54.9385 94.639 55.6068 94.639 56.1415 95.04C57.3445 95.7084 58.5475 95.7084 59.8842 95.7084C61.3546 95.5747 62.424 96.243 63.0923 97.5797C63.4933 98.2481 63.8943 99.1838 64.9637 99.0501C68.3054 98.6491 70.7115 100.921 73.5185 101.991C74.0532 102.258 74.5879 102.793 75.1226 103.328C76.1919 104.798 77.395 106.001 78.598 107.338C79.1327 108.006 79.801 108.14 80.603 107.471C81.1377 106.937 81.6724 106.803 82.3407 107.605C82.7417 108.14 83.4101 108.541 84.2121 108.808C86.0835 109.209 87.9548 110.145 88.7569 112.016C89.8262 114.155 90.8956 116.16 92.6333 117.898C93.0343 118.299 92.767 118.566 92.2323 118.7C90.8956 118.967 90.3609 119.635 90.8956 120.571C91.5639 121.64 91.6976 122.843 91.8313 124.046C91.9649 125.383 91.6976 126.987 92.3659 128.056C93.3016 129.527 94.1037 131.264 95.4404 132.467C96.5097 133.403 97.0444 134.606 97.5791 135.943C98.2474 137.814 97.9801 139.686 97.9801 141.423C97.9801 142.894 97.7127 144.23 97.0444 145.567C96.777 146.235 96.777 147.037 97.3117 147.572C97.8464 147.973 98.5147 147.973 98.9158 147.572C99.7178 147.037 100.386 147.305 101.054 147.84C101.455 148.107 101.723 148.508 102.391 148.508C103.193 148.374 103.995 148.642 104.396 149.31C104.797 149.978 104.129 150.513 103.594 151.048C102.792 151.85 103.193 152.518 104.263 152.785C104.931 152.919 105.466 153.053 106.134 153.454C108.005 154.389 108.941 156.261 110.679 157.196C112.015 157.998 113.352 158.934 114.02 160.271C114.689 161.607 116.293 162.944 114.421 164.682C113.887 165.217 114.288 166.42 115.223 166.687C116.159 166.954 117.229 167.222 118.298 167.088C120.169 166.687 122.174 166.821 124.046 167.623C127.12 169.093 128.858 172.034 130.328 174.841C130.595 175.375 130.996 176.044 130.863 176.712C130.729 178.183 131.798 178.985 132.734 179.519C135.541 180.99 138.749 181.792 141.155 183.93C141.289 184.064 141.556 184.064 141.69 184.198C142.626 184.732 143.16 185.534 143.294 186.604C143.294 187.138 143.294 187.673 143.294 188.208C143.294 189.812 144.096 190.614 145.7 190.48C147.17 190.48 148.106 190.881 148.775 192.218C149.042 192.619 149.577 193.02 149.844 193.421C150.512 194.357 151.448 195.292 151.849 196.362C152.651 198.099 153.319 199.837 155.458 200.505C156.394 200.906 157.463 200.639 158.399 201.04C160.805 201.976 162.81 203.312 164.013 205.852C164.548 207.189 165.483 207.59 166.82 207.189C168.023 206.788 169.226 206.253 170.429 205.852C171.365 205.585 172.434 204.783 173.236 205.184C174.172 205.718 175.107 206.253 176.043 206.654C177.513 207.189 179.118 208.124 180.454 206.387C180.588 206.253 180.855 206.119 181.123 206.119C183.128 205.585 186.737 207.456 187.539 210.263C187.94 211.466 188.474 212.402 189.009 213.605C189.276 214.407 189.811 214.942 190.479 215.209C192.217 215.744 192.618 217.08 192.618 218.684C192.618 219.353 192.618 220.288 193.153 220.689C194.49 221.759 195.96 223.095 197.698 222.694C199.836 222.293 201.44 223.095 203.044 224.299C204.381 225.234 204.247 226.17 202.911 226.838C202.643 226.972 202.376 226.972 202.242 227.106C201.44 227.507 200.906 228.843 201.307 229.645C201.708 230.715 202.643 230.715 203.579 230.581C204.114 230.447 204.782 230.046 205.317 229.779C206.52 229.111 207.723 228.442 209.06 228.843C210.797 229.378 212.134 228.71 213.07 227.373C213.471 226.838 214.139 226.705 214.674 227.106C216.545 228.843 218.416 230.581 219.619 232.987C219.753 233.388 220.02 233.789 219.619 233.923C218.283 234.591 217.614 235.259 218.283 236.997C218.55 237.665 218.149 238.869 217.08 239.403C216.812 239.537 216.144 239.938 216.278 240.339C216.411 240.874 217.08 240.874 217.614 240.874C218.149 240.874 218.684 240.874 219.085 240.874C219.887 240.74 220.555 241.141 220.822 241.943C221.223 242.879 221.892 243.146 222.694 243.547C224.699 244.616 227.506 244.75 228.308 247.557C228.308 247.691 228.442 247.691 228.575 247.824C231.249 249.562 232.853 249.295 234.858 246.755C235.259 246.22 235.793 245.686 236.194 245.819C238.066 246.621 240.071 247.156 240.606 249.562C240.739 250.23 241.007 250.765 241.408 251.433C242.744 253.438 243.413 255.577 243.546 257.85C243.546 258.785 243.814 259.587 244.616 260.122C245.15 260.657 245.819 261.191 245.819 261.993C245.819 262.662 246.086 263.063 246.487 263.464C247.423 264.399 248.225 265.469 248.759 266.672C249.428 268.276 250.497 269.746 250.764 271.484C251.032 272.687 251.032 273.89 251.299 274.959C251.834 276.964 252.235 279.103 252.636 281.108C253.037 283.514 253.705 285.252 255.978 286.321C256.245 286.455 256.379 286.722 256.646 287.123C257.314 288.326 257.181 289.529 256.646 290.866C256.111 292.203 254.24 293.673 252.903 293.406C251.7 293.138 250.764 293.406 249.695 293.94C248.626 294.475 247.824 295.277 247.022 296.213C245.819 297.416 245.819 297.683 247.289 298.752C248.225 299.555 249.027 300.357 249.561 301.426C249.962 302.094 249.829 302.629 249.561 303.297C248.759 305.169 247.155 306.639 246.754 308.644C246.621 309.58 245.819 310.114 244.749 310.114C244.215 310.114 243.68 310.114 243.279 310.114C241.809 310.114 241.14 310.916 241.675 312.387C241.942 313.322 242.477 314.258 242.744 315.328C243.145 316.664 243.413 318.001 242.477 319.338C242.076 320.006 241.809 320.808 242.744 321.343C243.814 321.877 245.284 322.546 246.353 322.145C248.626 321.343 250.898 321.61 253.17 322.011C255.176 322.412 257.448 320.541 257.715 318.402C257.983 316.664 258.384 314.793 259.587 313.456C260.121 312.921 260.522 312.387 260.656 311.718C261.191 309.58 262.928 308.778 264.666 308.109C266.404 307.441 267.874 306.372 269.077 304.901C269.478 304.5 269.612 303.966 269.746 303.297C270.013 300.089 268.81 297.282 268.409 294.208C268.409 294.074 268.275 293.94 268.142 293.94C267.473 293.406 267.473 293.005 268.275 292.47C268.543 292.336 268.81 291.802 268.81 291.401C268.944 289.797 269.879 288.995 271.082 288.193C271.35 288.059 271.35 287.925 271.483 287.792C272.553 286.856 273.355 285.519 274.825 285.252C277.097 284.851 279.37 285.519 281.776 285.252C282.711 285.118 283.914 285.519 284.316 284.717C284.85 283.648 284.984 282.177 284.449 280.974C283.647 279.37 282.31 278.034 282.177 276.029C281.909 273.623 280.706 271.217 282.177 268.811C282.578 268.142 282.177 267.741 281.508 267.474C280.305 266.939 279.236 266.538 278.3 265.602C277.365 264.533 276.295 263.731 275.092 263.196C273.756 262.528 272.553 261.726 271.35 260.79C270.681 260.256 269.746 259.587 268.542 259.988C267.74 260.256 266.938 259.855 266.136 259.32C264.131 257.983 264.532 255.711 263.864 253.973C263.864 253.84 263.998 253.572 264.131 253.438C265.067 252.77 265.735 251.701 266.537 250.899C267.607 249.829 267.74 248.894 267.072 247.691C266.136 246.087 266.404 244.483 267.339 243.413C268.676 241.676 269.746 239.938 270.28 237.799C270.949 235.259 272.553 233.121 273.889 230.848C274.691 229.512 275.761 228.041 277.766 228.309C278.969 228.576 280.172 229.111 281.642 229.512C280.84 230.046 280.305 230.314 279.637 230.581C279.102 230.848 279.102 231.116 279.102 231.65C279.102 232.185 279.503 232.051 279.904 232.051C280.706 232.319 281.508 232.319 282.444 232.319C283.513 232.319 284.583 232.586 285.385 233.121C286.588 233.789 287.657 234.457 288.994 234.725C290.197 235.126 291.4 235.259 292.603 234.858C297.148 233.522 299.821 233.789 301.425 237.398C301.826 238.334 303.163 238.869 302.896 239.938C302.495 241.676 304.767 243.012 303.831 244.884C303.831 244.884 303.965 245.151 304.099 245.151C306.104 246.889 308.109 248.493 310.916 248.493C311.985 248.493 313.054 248.359 313.857 249.428C314.391 250.097 315.461 249.696 315.995 249.295C316.664 248.894 316.53 248.092 316.263 247.423C316.129 247.022 315.862 246.755 315.594 246.354C315.06 245.418 314.926 244.616 315.728 243.681C315.594 242.745 316.263 241.809 317.065 240.874Z" fill="#DBDDE4"/>
<path d="M239.402 308.242C239.001 307.975 238.467 308.242 238.066 308.643C236.996 309.445 235.793 310.247 234.724 311.049C233.253 311.985 231.516 311.45 231.115 310.113C230.981 309.712 231.115 309.178 230.58 309.178C230.045 309.178 229.778 309.712 229.644 310.247C229.11 311.584 228.842 312.921 228.174 314.257C227.506 315.46 226.169 315.861 225.1 315.059C223.897 314.124 222.426 313.856 221.357 313.054C220.822 312.653 220.421 313.054 220.02 313.322C219.352 313.856 218.683 313.856 217.881 313.589C216.545 313.054 215.609 313.589 215.074 315.059C214.272 317.866 213.604 318.267 210.663 318.401C208.525 318.535 206.252 318.668 204.381 319.871C203.178 320.673 202.242 320.272 201.173 319.47C200.504 318.936 199.702 318.267 198.767 319.069C198.499 319.203 198.098 319.069 197.831 319.203C196.227 319.47 194.757 319.871 193.687 320.941C192.484 322.144 188.474 322.812 187.004 321.876C185.4 320.807 183.796 319.738 182.994 317.866C182.192 316.129 181.256 316.129 180.32 317.332C178.984 318.936 178.716 318.936 177.781 317.064C177.513 316.53 177.246 315.995 176.845 315.594C176.043 314.658 174.84 314.391 173.77 315.059C173.102 315.46 172.434 315.728 171.632 315.594C170.429 315.327 169.76 315.861 169.226 316.797C168.691 317.599 168.023 318.134 168.424 319.337C168.691 320.272 168.023 320.807 167.087 320.941C165.082 321.074 163.211 320.406 162.007 318.535C161.473 317.733 160.671 317.064 160.002 316.262C159.735 315.995 159.334 315.995 159.067 315.995C158.666 316.129 158.666 316.396 158.666 316.797C158.799 317.599 158.265 318.134 157.73 318.535C155.725 319.47 154.656 321.609 152.918 322.946C152.25 323.48 151.581 324.149 151.715 325.084C152.116 326.956 151.448 328.827 151.18 330.699C150.779 332.57 151.448 335.511 153.854 335.912C155.324 336.179 156.393 336.981 157.062 338.184C157.329 338.719 157.73 338.719 158.265 338.719C161.072 338.318 163.879 338.585 166.686 338.585C167.354 338.585 167.755 338.852 167.889 339.387C168.424 341.125 168.557 341.258 170.429 341.125C172.166 340.991 172.835 341.526 173.369 342.996C173.77 344.066 174.305 345.001 175.642 345.135C176.444 345.269 177.246 345.803 177.781 346.338C179.251 348.076 180.989 348.61 183.261 348.076C183.929 347.942 184.865 347.808 185.266 348.61C185.934 349.947 187.137 350.749 188.34 351.551C189.944 352.754 191.816 353.556 193.687 353.957C195.425 354.358 197.163 354.759 198.9 353.556C200.638 352.487 201.707 352.754 203.311 354.224C205.183 356.096 207.321 357.833 209.46 359.571C210.663 360.507 212 361.309 212.668 362.646C213.337 363.849 214.005 365.052 215.609 364.918C215.876 364.918 216.277 365.319 216.411 365.586C217.748 367.458 219.084 367.859 221.223 367.19C221.624 367.057 222.025 366.656 222.292 366.656C224.565 366.789 226.971 366.789 229.11 368.126C230.313 368.928 230.58 368.661 230.58 367.19C230.58 365.453 230.58 363.715 230.58 361.977C230.58 360.507 230.58 359.304 232.184 358.635C232.451 358.502 232.719 358.101 232.986 357.834C233.654 356.764 234.323 355.828 235.659 355.294C236.194 355.16 236.729 354.358 236.06 354.091C234.991 353.69 235.258 353.021 235.258 352.353C235.258 351.685 235.125 351.417 234.456 351.284C233.253 351.15 232.451 350.348 232.05 349.279C231.917 348.878 231.649 348.343 232.05 347.808C232.451 347.407 232.852 347.808 233.253 347.808C233.654 347.942 233.922 348.076 234.189 347.675C234.456 347.274 234.055 347.14 233.788 346.873C232.852 345.67 231.248 345.269 229.912 344.6C229.377 344.333 228.976 344.199 229.11 343.531C229.377 342.328 228.709 341.526 227.907 340.724C227.506 340.189 227.238 339.788 228.04 339.12C229.912 337.516 230.847 335.377 231.248 332.971C231.516 330.832 231.382 328.56 233.12 326.822C233.788 326.154 234.323 325.352 234.857 324.55C236.729 321.609 238.467 318.802 239.536 315.46C240.204 313.455 240.873 311.316 240.739 309.044C240.204 308.91 239.937 308.509 239.402 308.242Z" fill="#DBDDE4"/>
<path d="M77.7956 228.709C77.9293 226.971 77.3946 225.501 76.0579 224.297C75.2559 223.629 75.6569 222.159 76.4589 221.758C76.8599 221.624 77.5283 221.891 77.5283 221.223C77.5283 220.688 76.7263 220.688 76.3253 220.287C76.1916 220.154 75.7906 220.287 75.6569 220.154C74.7212 219.753 73.9192 219.352 74.1866 218.015C74.3202 217.079 74.1866 216.144 74.1866 215.208C74.1866 214.272 73.6519 213.738 72.8499 213.738C71.6468 213.871 71.7805 213.069 72.0478 212.535C72.3152 212 72.5825 211.599 72.3152 210.931C71.9142 209.594 70.7111 209.193 69.3745 209.861C68.0378 210.53 67.7704 210.396 67.5031 208.925C67.3694 208.123 66.9684 207.722 66.0327 207.589C65.3644 207.589 64.696 208.257 63.894 207.722C62.9583 207.054 62.0226 207.455 61.2206 208.257C60.6859 208.925 60.0176 209.594 59.2156 209.861C57.3442 210.396 55.6065 210.931 54.5371 212.936C53.8688 214.406 52.6657 215.609 51.9974 216.946C51.0617 218.951 51.1954 218.951 49.0567 218.951C47.72 218.951 46.1159 218.55 45.0466 219.619C43.5762 220.956 41.8385 220.956 40.1008 220.688C37.9621 220.421 36.3581 219.619 35.6897 217.347C35.556 216.812 35.155 216.144 34.6203 215.876C33.952 215.475 33.6847 215.609 33.6847 216.411C33.6847 217.213 34.0857 218.149 33.4173 218.817C32.749 219.619 32.6153 220.555 32.348 221.624C32.0806 222.693 32.0806 223.629 32.749 224.698C33.4173 226.035 32.348 226.971 31.8133 228.174C31.6796 228.441 31.5459 228.709 31.8133 228.842C32.2143 229.11 32.4816 228.842 32.6153 228.441C32.749 228.04 32.4816 227.372 33.2837 227.372C34.2193 227.506 33.6847 228.174 33.8183 228.709C33.952 228.842 33.952 229.11 33.952 229.243C34.2193 229.778 34.353 230.179 35.0214 230.179C35.6897 230.179 35.8234 229.778 35.8234 229.243C35.8234 229.11 35.8234 228.976 36.0907 228.842C36.3581 228.842 36.4917 228.842 36.4917 229.11C37.0264 230.179 37.5611 231.248 37.9621 232.318C38.3631 233.654 39.1651 234.991 37.9621 236.328C37.6947 236.595 37.9621 236.862 38.0958 236.996C39.9671 238.6 40.2345 240.739 40.1008 242.878C40.1008 244.081 40.2345 245.284 40.9028 246.353C41.3038 246.888 41.4375 247.823 40.1008 247.957C39.4325 247.957 38.6304 248.091 37.9621 248.224C37.4274 248.224 36.6254 248.625 37.0264 249.16C37.9621 250.497 37.8284 251.967 37.9621 253.437C38.0958 254.106 37.8284 255.175 38.6304 255.443C39.4325 255.71 39.6998 254.64 40.2345 254.239C40.6355 253.972 40.9028 253.036 41.5712 253.437C41.9722 253.705 42.1058 254.507 41.9722 255.175C41.8385 255.442 41.7048 255.844 41.4375 255.977C40.9028 256.512 40.9028 257.18 41.1702 257.715C41.4375 258.517 41.7048 259.319 42.1058 259.987C42.3732 260.522 43.0415 261.19 42.3732 261.591C41.8385 261.992 41.1702 261.324 40.7691 260.789C40.5018 260.522 40.3681 260.121 40.1008 259.854C39.6998 259.453 39.5661 258.651 38.7641 258.651C38.7641 259.453 38.7641 260.255 38.8978 261.057C39.0314 262.928 39.8335 264.933 38.0958 266.804C37.5611 267.339 36.6254 268.542 37.2937 269.344C38.0958 270.28 37.9621 270.948 37.2937 271.75C37.1601 271.884 37.0264 272.285 37.1601 272.419C38.0958 273.889 37.8284 275.493 37.4274 276.963C37.4274 277.097 37.5611 277.231 37.5611 277.364C38.0958 279.637 39.6998 281.374 40.1008 283.647C40.2345 284.048 40.6355 284.181 40.9028 284.315C42.7742 285.384 43.7099 287.657 43.1752 289.662C43.0415 290.33 42.9079 290.865 43.4425 291.132C44.1109 291.4 44.9129 291.533 45.4476 290.731C45.7149 290.33 45.9823 289.929 46.3833 289.528C46.7843 288.994 47.9873 288.994 48.2546 289.528C49.0567 290.731 49.8587 291.132 51.3291 290.598C53.6014 289.796 54.9381 288.058 56.4085 286.32C56.8095 285.785 56.8095 285.251 56.5422 284.582C56.1412 283.379 55.2055 282.043 55.7401 280.84C56.2748 279.77 55.7401 279.102 55.4728 278.3C55.2055 277.632 54.4035 276.83 55.0718 276.295C56.0075 275.76 56.4085 276.963 57.0768 277.498C57.0768 277.498 57.0768 277.632 57.2105 277.765C57.8789 279.102 58.4135 279.236 59.8839 278.567C62.0226 277.498 62.0226 277.498 63.493 279.503C63.7603 279.77 63.894 280.038 64.1613 280.305C64.8297 281.107 65.7654 281.642 66.8347 281.775C67.5031 281.909 68.1714 282.043 68.5724 282.577C69.1071 283.112 69.6418 283.112 70.0428 282.31C70.7111 280.973 71.5132 279.637 71.6468 278.033C71.9142 275.894 72.0478 273.755 73.1172 271.884C73.3845 271.349 73.2509 270.414 72.9835 269.745C72.8499 269.344 72.5825 269.077 72.8499 268.676C73.7855 266.804 73.7855 264.799 74.0529 262.794C74.5876 260.255 74.4539 257.581 74.9886 255.041C75.3896 252.903 75.7906 250.764 77.261 249.026C77.662 248.492 77.5283 248.091 77.1273 247.556C76.0579 246.487 74.9886 245.284 73.9192 244.081C73.1172 243.279 72.9835 242.477 73.3845 241.407C73.6519 240.605 74.3202 239.937 74.9886 239.536C75.9243 238.734 76.7263 237.664 77.5283 236.595C78.1966 235.526 78.063 234.323 78.7313 233.253C79.667 231.917 79.667 230.58 78.464 229.243C77.9293 229.912 77.7956 229.243 77.7956 228.709Z" fill="#DBDDE4"/>
<path d="M93.9696 149.175C93.1676 149.309 92.7666 149.977 93.1676 150.646C93.5686 151.448 93.3013 151.849 92.3656 151.715C91.9646 151.715 91.6973 151.715 91.0289 151.581C89.6922 151.18 88.4892 152.25 87.2862 153.052C86.7515 153.453 86.0831 154.255 86.4841 155.057C86.8851 155.725 87.4198 155.992 88.2218 155.859C89.2912 155.591 90.4942 155.324 91.5636 154.789C92.4993 154.255 93.034 154.121 93.5686 155.19C93.9696 155.992 94.9053 155.992 95.5737 155.725C96.242 155.324 95.44 154.789 95.44 154.255C95.44 154.121 95.44 153.987 95.3063 153.854C94.638 153.185 94.9053 152.918 95.7073 152.517C96.5094 152.116 97.3114 151.448 96.7767 150.512C96.242 149.71 95.3063 149.041 93.9696 149.175Z" fill="#DBDDE4"/>
<path d="M38.7642 282.978C39.0316 282.577 38.4969 281.508 37.9622 281.508C37.1602 281.909 36.7592 282.711 36.0908 283.379C36.0908 283.379 36.0908 283.78 36.2245 283.78C37.4275 284.85 37.6949 286.187 37.5612 287.791C37.5612 288.192 37.6949 288.325 37.9622 288.459C38.3632 288.593 38.4969 288.459 38.7642 288.192C39.1652 287.657 39.2989 284.449 38.7642 283.914C38.3632 283.513 38.4969 283.379 38.7642 282.978Z" fill="#DBDDE4"/>
<path d="M36.759 210.396C35.8234 210.129 35.8234 211.198 35.4223 211.733C34.8877 212.535 34.2193 213.203 34.353 214.139C34.4867 214.941 35.0213 215.208 35.4223 215.609C35.556 215.743 36.2244 215.876 36.2244 215.475C36.4917 214.406 37.5611 213.47 37.2937 212.267C37.5611 211.465 37.6947 210.53 36.759 210.396Z" fill="#DBDDE4"/>
<path d="M106.668 164.146C105.465 164.146 104.797 164.815 104.797 165.884C104.797 166.686 106 167.488 107.069 167.488C108.139 167.488 108.673 166.953 108.673 165.884C108.673 164.681 108.005 164.146 106.668 164.146Z" fill="#DBDDE4"/>
<path d="M33.5509 278.968C33.1499 278.968 32.0806 278.701 32.0806 280.038C32.0806 281.107 33.2836 282.31 34.2193 282.31C35.6896 282.177 35.2886 280.973 35.4223 280.171C35.6896 278.835 34.754 278.835 33.5509 278.968Z" fill="#DBDDE4"/>
<path d="M219.619 302.895C219.886 303.831 220.154 304.9 220.956 305.569C221.223 305.836 221.624 305.97 221.758 305.702C222.025 304.9 222.426 303.965 222.292 303.163C222.159 302.494 221.758 301.826 220.956 301.559C220.287 301.96 219.352 302.227 219.619 302.895Z" fill="#DBDDE4"/>
<path d="M87.1524 157.329C86.7514 157.195 85.4147 158.933 85.5484 159.468C85.8158 160.403 86.7514 160.27 87.2861 160.403C88.0881 160.403 88.7565 160.403 88.4891 159.601C88.2218 158.799 88.0881 157.73 87.1524 157.329Z" fill="#DBDDE4"/>
<path d="M69.9092 208.524C70.8449 208.257 70.7112 207.455 70.9786 206.92C71.1122 206.519 69.6419 205.049 69.1072 205.049C68.5725 205.183 68.3052 205.717 68.4388 205.985C68.5725 207.589 69.1072 208.658 69.9092 208.524Z" fill="#DBDDE4"/>
<path d="M91.1626 165.884C90.628 165.483 90.0933 165.082 89.5586 164.547C89.2913 164.414 88.8903 164.28 88.8903 164.547C88.7566 165.082 88.6229 165.884 89.0239 166.419C89.4249 166.953 89.6923 167.488 90.4943 167.488C90.8953 167.622 91.2963 167.354 91.5637 166.953C91.6973 166.419 91.43 166.151 91.1626 165.884Z" fill="#DBDDE4"/>
<path d="M78.7314 146.101C78.464 146.101 78.1967 146.101 77.9294 146.234C77.3947 146.502 76.86 146.903 76.9937 147.705C77.1273 148.507 77.7957 148.24 78.3304 148.24C78.7314 148.24 79.1324 147.972 79.5334 147.838C80.4691 147.571 80.4691 147.17 79.8007 146.635C79.5334 146.101 79.2661 145.967 78.7314 146.101Z" fill="#DBDDE4"/>
<path d="M217.213 299.153C216.678 299.019 216.277 298.885 216.01 299.42C215.743 299.955 216.144 300.356 216.545 300.623C217.614 301.291 218.684 301.158 219.887 299.821C218.817 299.955 218.149 299.42 217.213 299.153Z" fill="#DBDDE4"/>
<path d="M224.03 310.514C224.832 310.113 224.03 309.178 223.897 308.509C223.763 307.975 223.496 307.707 222.827 307.574C222.025 307.975 222.159 308.509 222.56 309.044C223.095 309.712 223.362 310.915 224.03 310.514Z" fill="#DBDDE4"/>
<g opacity="0.32" filter="url(#filter0_f)">
<circle cx="131" cy="64" r="18" fill="#3856E1"/>
</g>
<circle opacity="0.32" cx="131" cy="64" r="15" fill="#3856E1"/>
<circle opacity="0.56" cx="131" cy="64" r="12" fill="#3856E1"/>
<circle cx="131" cy="64" r="9" fill="#3856E1"/>
</g>
<defs>
<filter id="filter0_f" x="105" y="38" width="52" height="52" filterUnits="userSpaceOnUse" color-interpolation-filters="sRGB">
<feFlood flood-opacity="0" result="BackgroundImageFix"/>
<feBlend mode="normal" in="SourceGraphic" in2="BackgroundImageFix" result="shape"/>
<feGaussianBlur stdDeviation="4" result="effect1_foregroundBlur"/>
</filter>
<clipPath id="clip0">
<rect width="318" height="368.527" fill="white"/>
</clipPath>
</defs>
</svg>
