<svg width="369" height="308" viewBox="0 0 369 308" fill="none" xmlns="http://www.w3.org/2000/svg">
<g clip-path="url(#clip0)">
<path d="M198.344 232.727C198.428 232.727 198.512 232.81 198.595 232.81C198.512 232.727 198.428 232.727 198.344 232.727ZM202.527 220.011C202.527 220.179 202.527 220.262 202.527 220.43C202.694 220.095 202.862 219.844 203.029 219.509C202.862 219.677 202.694 219.844 202.527 220.011ZM193.241 199.349C193.409 199.181 193.492 199.014 193.66 198.847C193.576 198.847 193.576 198.763 193.492 198.763C193.409 198.93 193.325 199.098 193.241 199.349ZM206.459 226.202C206.459 226.285 206.459 226.369 206.459 226.453C206.542 226.453 206.542 226.453 206.626 226.453C206.542 226.369 206.459 226.285 206.459 226.202ZM170.989 189.477C170.738 189.561 170.487 189.645 170.236 189.728C170.236 189.812 170.236 189.896 170.236 189.979C170.571 189.812 170.906 189.728 171.24 189.728C171.157 189.645 171.073 189.561 170.989 189.477ZM191.736 170.237C191.903 170.07 192.154 169.819 192.405 169.651C192.154 169.735 191.903 169.902 191.736 170.237ZM179.355 145.893C178.685 145.726 178.1 145.726 177.431 146.061C178.016 146.144 178.685 146.061 179.355 145.893ZM187.887 170.07C188.055 169.149 188.222 168.313 188.306 167.644C187.553 169.317 186.967 170.906 187.804 171.157C187.804 170.906 187.887 170.488 187.887 170.07ZM133.261 174.838C133.512 175.089 133.847 175.172 134.6 174.838C134.181 174.838 133.679 174.838 133.261 174.838ZM224.695 238.834C224.695 239.001 224.779 239.252 224.863 239.419C224.946 239.336 224.946 239.085 224.695 238.834ZM191.234 215.243C191.401 215.327 191.568 215.494 191.736 215.661C191.652 215.41 191.568 215.076 191.568 214.825C191.401 214.992 191.317 215.159 191.234 215.243ZM269.702 266.69C269.785 266.44 269.953 266.272 270.036 266.021C269.785 266.021 269.534 266.021 269.283 266.021C269.451 266.272 269.618 266.44 269.702 266.69ZM251.465 260.082C251.381 259.914 251.298 259.747 251.214 259.58C251.298 259.747 251.381 259.914 251.465 260.082ZM166.639 239.503C165.635 239.001 164.715 238.666 164.046 238.499C164.966 239.001 165.803 239.335 166.639 239.503ZM159.863 208.885C160.114 208.885 160.281 208.885 160.532 208.969C160.532 208.885 160.532 208.802 160.532 208.718C160.281 208.718 160.114 208.802 159.863 208.885ZM212.231 185.629C211.813 185.713 211.394 185.88 211.06 186.048C211.227 186.131 211.394 186.215 211.478 186.299C211.729 186.048 211.98 185.797 212.231 185.629ZM155.68 127.824C155.764 127.573 155.764 127.322 155.764 127.071C155.597 127.489 155.513 128.075 155.43 128.995C155.513 128.577 155.597 128.242 155.68 127.824ZM207.797 146.061C207.714 146.061 207.63 146.061 207.546 146.061C207.63 146.144 207.714 146.061 207.797 146.061ZM151.832 114.858C151.832 114.941 151.832 115.109 151.832 115.192C152 115.276 152.167 115.36 152.251 115.443C152.167 115.276 152 115.109 151.832 114.858ZM228.293 248.956C229.045 248.454 229.38 247.366 229.715 246.112L229.631 246.028C229.38 247.032 228.878 248.036 228.293 248.956ZM142.296 157.019C142.881 152.92 144.722 151.331 149.323 148.905C153.924 146.563 160.198 148.152 161.118 146.395C161.536 145.559 161.202 144.22 160.867 142.882C158.274 145.141 156.684 146.144 155.011 143.886C152.753 140.791 151.581 141.209 151.581 136.691C151.581 132.425 154.091 134.349 155.346 128.912C155.346 127.991 155.513 127.406 155.68 126.988C156.266 122.136 154.509 118.204 152.251 115.443C152.083 115.36 151.916 115.276 151.832 115.192C151.916 116.28 151.079 116.029 147.566 114.858C141.292 112.766 144.303 123.474 138.866 118.455C133.512 113.519 132.425 123.641 129.413 116.029C126.401 108.333 125.649 112.766 122.051 110.089C118.454 107.412 120.462 115.192 116.697 115.443C112.933 115.694 112.598 123.223 109.001 124.645C107.245 125.398 105.906 125.649 105.07 125.565C103.564 128.577 101.974 131.672 104.735 134.851C107.579 138.03 106.994 139.452 108.667 142.296C110.423 145.141 108.416 144.555 112.096 144.806C115.777 145.057 116.279 145.893 116.447 149.24C116.614 152.669 117.45 154.844 117.701 158.693C117.952 162.541 121.131 161.453 121.215 163.879C121.215 164.046 121.215 164.13 121.215 164.297C122.386 163.294 123.892 162.708 125.816 164.883C129.413 168.898 128.995 168.313 128.66 170.321C128.242 172.328 131.504 170.99 132.341 172.328C132.843 173.165 132.759 174.42 133.177 174.922C133.596 174.922 134.014 174.922 134.516 174.922C134.683 174.838 134.851 174.838 134.934 174.754C135.603 173.165 136.356 170.99 136.356 168.313C136.44 162.122 141.794 161.119 142.296 157.019ZM27.3545 8.03081C27.4381 8.03081 27.4381 8.03081 27.5218 8.03081C27.6891 7.77985 27.3545 8.03081 27.3545 8.03081ZM25.7651 8.28177C26.1833 7.8635 26.7689 7.8635 27.3545 7.94715L0.166778 -2.28882e-05C0.166778 -2.28882e-05 -0.92073 4.60097 1.75621 6.19041C4.43316 7.8635 5.43701 10.2895 3.84758 12.7155C2.3418 15.2251 1.67256 17.9857 3.51296 20.0771C5.35336 22.1684 5.10239 24.1761 5.10239 26.2675C5.10239 28.3589 8.11396 27.6896 7.69568 30.5339C7.36106 33.3781 4.09854 34.0474 6.94279 36.7243C9.78705 39.4012 4.76778 43.5003 8.19761 45.508C11.6274 47.5157 12.0457 48.6032 15.1409 52.8696C18.2362 57.136 25.9324 63.2428 23.5064 68.8476L38.0623 70.6044C37.644 69.9351 37.0584 69.3496 36.3055 68.8476C32.2065 66.0034 38.3132 65.4178 32.5411 61.3187C26.7689 57.2197 23.5064 50.0254 22.7535 42.8311C22.0843 35.6368 20.5785 19.8261 23.59 18.9059C24.3429 18.6549 24.5939 18.2367 24.5102 17.7347C19.7419 13.3847 24.2593 9.62024 25.7651 8.28177ZM23.5064 69.1822C20.7458 74.8708 19.3237 75.7073 21.7496 77.3804C24.1756 78.9698 26.016 81.3121 23.6737 80.7266C21.415 80.2246 19.1563 75.1217 18.6544 76.4602C17.8179 78.8025 17.3996 76.2929 15.5592 76.3765C13.7188 76.3765 6.44087 73.6996 11.7948 79.3044C17.1486 84.9093 20.7458 94.0276 26.8526 93.693C32.9593 93.3584 33.5449 96.6209 34.967 99.9671C36.3892 103.313 40.6556 102.728 40.9065 107.245C41.1575 111.762 33.043 120.211 41.9104 129.413C50.7777 138.615 59.8124 145.81 59.1432 151.582C58.474 157.354 59.0595 160.868 63.3259 158.274C67.5923 155.681 72.8625 155.514 70.0183 150.996C67.174 146.479 66.9231 141.962 64.8317 139.87C62.7403 137.779 62.4057 135.939 61.4855 137.11C60.5653 138.281 58.3903 140.958 58.0557 137.444C57.7211 134.014 54.6259 133.345 57.6374 128.242C60.649 123.139 58.223 123.307 55.1278 118.789C52.0326 114.188 50.4431 114.523 51.6143 110.759C52.8691 106.994 50.4431 94.8642 48.9374 96.0353C47.5152 97.2065 45.8421 104.066 45.7585 96.2027C45.6748 88.3391 44.8383 92.9401 43.2488 88.5901C41.6594 84.2401 38.7315 85.0766 38.9825 80.8102C39.1498 77.3804 40.07 73.6996 38.2296 70.939L23.6737 69.1822C23.59 69.0149 23.5064 69.0986 23.5064 69.1822ZM117.869 171.324C119.96 169.484 117.534 165.971 118.956 166.138C119.542 166.221 120.378 165.05 121.382 164.214C121.382 164.13 121.382 163.963 121.382 163.795C121.298 161.37 118.203 162.457 117.869 158.609C117.618 154.761 116.697 152.502 116.614 149.156C116.447 145.726 116.028 144.973 112.264 144.722C108.583 144.471 110.507 145.057 108.834 142.213C107.077 139.368 107.663 137.946 104.902 134.767C102.142 131.672 103.731 128.493 105.237 125.482C104.4 125.398 103.982 124.896 104.149 123.976C104.4 122.136 104.317 119.208 99.2137 118.455C94.0271 117.702 96.6204 109.169 94.0271 105.405C92.2704 102.895 91.0156 103.481 89.8444 103.313L80.0568 109.922C80.0568 109.922 80.1405 109.671 80.2241 109.169C78.802 110.842 77.5472 112.683 76.5433 114.188C74.7029 116.949 82.3991 123.139 83.5703 122.554C84.7415 121.968 86.1636 125.649 89.3425 128.661C92.5213 131.672 91.8521 129.915 92.9396 135.269C93.9435 140.623 94.4454 140.121 96.2858 139.954C98.2098 139.787 97.3733 140.289 97.7916 143.133C98.2098 145.977 99.13 145.893 101.807 147.148C104.484 148.403 106.826 155.095 108.834 158.86C110.842 162.624 113.1 163.879 112.933 166.891C112.766 169.233 115.024 170.655 117.45 171.826C117.367 171.826 117.618 171.575 117.869 171.324ZM187.469 153.171C190.648 159.445 187.386 160.7 189.477 162.206C190.564 162.959 189.393 165.469 188.473 167.644C188.389 168.313 188.222 169.149 188.055 170.07C187.971 170.488 187.971 170.822 187.971 171.157C188.055 171.241 188.222 171.241 188.389 171.241C189.31 171.241 190.397 171.157 191.401 171.157C191.401 170.906 191.568 170.571 191.819 170.237C191.987 169.902 192.238 169.735 192.488 169.651C196.253 166.974 191.066 164.297 195.249 163.461C199.432 162.624 201.523 163.712 200.519 161.035C199.515 158.358 197.173 154.51 202.109 150.996C207.044 147.483 202.945 146.646 207.546 146.144C207.546 146.144 207.546 146.144 207.63 146.144C207.714 146.144 207.797 146.144 207.881 146.144C212.315 145.559 214.657 144.639 214.824 142.296C214.992 139.87 216.999 135.269 214.741 134.014C212.482 132.76 207.379 133.847 206.961 128.912C206.542 123.976 206.375 124.729 204.953 123.976C203.531 123.223 202.36 121.383 202.025 118.204C201.69 114.941 201.439 113.101 201.439 113.101C201.439 113.101 201.356 111.344 201.774 109.922C201.356 110.006 200.854 109.922 200.268 109.587C197.508 107.914 195.667 104.317 193.492 109.922C191.317 115.443 187.637 111.428 189.895 116.447C192.07 121.383 191.485 121.885 188.306 123.39C185.127 124.896 182.115 124.896 185.378 129.246C188.64 133.596 185.545 136.775 189.226 139.117C192.907 141.46 190.146 142.631 188.055 144.053C186.549 145.141 186.967 150.327 186.131 151.582C186.549 151.666 186.967 152.251 187.469 153.171ZM184.541 150.829L184.458 150.745L184.374 150.662C184.374 150.745 184.374 150.829 184.374 150.829C184.458 150.829 184.541 150.829 184.541 150.829ZM201.69 109.838C201.189 111.26 201.356 113.017 201.356 113.017C201.356 113.017 201.607 114.941 201.941 118.12C202.276 121.383 203.447 123.139 204.869 123.892C206.291 124.645 206.459 123.892 206.877 128.828C207.295 133.764 212.398 132.676 214.657 133.931C216.916 135.186 214.908 139.787 214.741 142.213C214.573 144.555 212.315 145.559 207.797 146.061C207.714 146.061 207.63 146.061 207.546 146.061C207.546 146.061 207.546 146.061 207.463 146.061C202.778 146.563 206.961 147.399 202.025 150.913C197.089 154.426 199.432 158.274 200.436 160.951C201.439 163.628 199.264 162.541 195.165 163.377C190.983 164.214 196.169 166.891 192.405 169.568C192.154 169.735 191.903 169.986 191.736 170.153C191.485 170.488 191.317 170.822 191.317 171.073C193.409 171.157 195.165 171.91 194.914 175.34C194.58 180.359 193.743 180.024 196.42 179.188C199.014 178.268 201.774 180.024 204.535 182.701C206.375 184.458 209.303 184.876 211.143 185.964C211.478 185.797 211.896 185.629 212.315 185.546C213.486 184.793 215.577 184.709 217.836 184.96C218.923 185.044 219.593 185.546 220.011 186.215C220.345 186.299 220.513 186.299 220.513 186.299C220.513 186.299 220.429 183.705 221.098 181.279C221.768 178.937 223.357 176.678 223.608 171.408C223.859 166.138 224.194 160.617 224.779 157.521C225.365 154.426 226.536 149.491 226.62 147.232C226.703 144.973 225.616 144.89 228.293 144.639C230.97 144.388 235.069 139.87 235.487 136.524C235.905 133.178 233.73 135.353 230.217 136.775C226.703 138.114 225.867 134.098 222.855 133.847C219.843 133.68 221.182 131.923 218.087 131.589C214.908 131.17 217.334 129.832 214.406 129.246C211.478 128.661 211.227 128.828 210.14 125.733C209.052 122.554 207.881 121.299 207.63 118.287C207.463 115.276 206.459 114.356 206.877 112.348C207.295 110.34 207.044 107.663 204.033 107.663C203.698 107.663 203.447 107.747 203.196 107.831C202.862 109.002 202.443 109.671 201.69 109.838ZM118.873 196.504C121.717 194.915 128.995 192.573 130.5 196.421C132.006 200.269 135.436 193.66 135.687 192.74C135.938 191.82 131.588 190.314 133.177 186.884C134.767 183.454 130.668 180.275 132.257 178.686C133.01 177.933 133.596 177.515 134.265 177.264C134.265 176.678 134.683 175.925 135.018 174.838C134.934 174.838 134.767 174.922 134.6 175.005C133.847 175.34 133.512 175.256 133.261 175.005C132.843 174.503 132.926 173.332 132.425 172.412C131.588 171.073 128.325 172.496 128.744 170.404C129.162 168.396 129.497 168.982 125.899 164.967C123.975 162.792 122.47 163.377 121.298 164.381C120.295 165.218 119.542 166.389 118.873 166.305C117.534 166.138 119.876 169.651 117.785 171.492C117.534 171.743 117.283 171.994 117.116 172.161C114.773 175.005 118.789 176.511 119.542 178.602C120.378 180.777 116.363 176.511 115.694 181.949C115.024 187.302 120.378 188.725 120.546 190.649C120.713 192.656 118.873 193.326 115.443 195.082C112.431 196.672 115.694 198.93 116.53 199.432C117.116 198.345 117.283 197.341 118.873 196.504ZM170.906 185.629C170.906 185.629 173.248 181.028 171.408 181.781C169.483 182.534 165.552 181.447 164.297 178.519C162.958 175.591 159.278 167.058 164.381 165.134C169.4 163.21 172.662 162.792 175.925 158.693C178.267 155.765 181.613 150.913 184.458 150.745C184.458 150.662 184.458 150.578 184.458 150.578C182.617 148.236 180.944 146.395 179.355 145.893C178.685 146.061 178.016 146.144 177.431 146.061C177.18 146.144 176.929 146.312 176.761 146.563C174.419 148.738 168.982 136.273 164.213 140.121C162.958 141.125 161.871 142.129 160.951 142.882C161.202 144.22 161.62 145.559 161.202 146.395C160.281 148.068 154.091 146.479 149.406 148.905C144.805 151.247 142.881 152.837 142.379 157.019C141.794 161.119 136.44 162.122 136.44 168.313C136.44 170.99 135.687 173.165 135.018 174.754C134.6 175.758 134.265 176.595 134.265 177.18C135.018 176.929 135.771 176.929 136.775 177.013C138.699 177.264 137.862 172.663 139.284 172.328C140.706 171.91 138.113 177.348 139.702 178.268C141.376 179.188 140.957 174.503 142.379 175.256C143.802 176.009 141.125 179.69 143.3 180.61C145.391 181.53 146.813 174.42 149.49 178.017C152.251 181.53 151.079 183.622 148.654 185.127C146.228 186.633 145.391 188.892 144.053 190.314C142.798 191.652 137.778 191.067 139.87 193.744C141.961 196.337 146.395 199.181 147.148 197.174C147.901 195.166 147.231 194.246 150.829 194.246C154.426 194.246 150.243 186.717 153.255 185.713C155.513 184.96 155.011 186.8 155.43 188.306C155.68 187.386 156.099 186.299 156.768 185.044L156.852 184.458C156.852 184.458 154.76 181.279 157.27 181.279C159.696 181.279 159.027 177.849 161.536 179.272C163.209 180.192 165.803 183.287 166.974 185.797C168.647 183.036 169.316 186.131 169.818 187.637C170.069 188.39 170.153 189.059 170.236 189.812C170.487 189.728 170.738 189.645 170.989 189.561C169.985 188.474 169.567 187.051 170.906 185.629ZM161.536 179.188C159.027 177.766 159.78 181.196 157.27 181.196C154.844 181.196 156.852 184.374 156.852 184.374L156.768 184.96C156.099 186.215 155.68 187.302 155.43 188.223C155.597 188.725 155.764 189.226 156.266 189.477C158.19 190.732 163.544 193.576 165.97 187.721C166.305 186.884 166.639 186.215 166.89 185.797C165.803 183.203 163.126 180.108 161.536 179.188ZM175.841 158.693C172.579 162.792 169.316 163.21 164.297 165.134C159.278 167.058 162.958 175.591 164.213 178.519C165.552 181.447 169.483 182.534 171.324 181.781C173.248 181.028 170.822 185.629 170.822 185.629C169.483 187.051 169.902 188.474 170.906 189.477C170.989 189.561 171.073 189.645 171.157 189.728C173.081 189.645 175.841 190.816 177.18 191.234C179.271 191.903 179.857 197.006 182.785 193.576C185.629 190.147 190.313 195.501 192.823 196.253C193.827 196.588 193.827 197.592 193.409 198.679C193.492 198.679 193.492 198.763 193.576 198.763C195.249 196.588 196.839 193.827 197.675 195.25C199.014 197.592 206.04 195.835 205.12 197.759C204.953 198.094 204.451 198.847 203.615 199.767C203.865 199.767 204.2 199.851 204.451 199.934C205.873 200.269 206.877 202.862 208.132 201.607C208.383 201.44 208.55 201.273 208.801 201.105C208.299 200.603 208.048 200.269 207.546 199.934C206.626 199.265 207.212 198.345 207.965 196.253C208.801 194.078 210.809 190.481 210.892 187.637C210.892 187.051 211.06 186.55 211.394 186.131C211.227 186.048 211.06 185.964 210.976 185.88C209.136 184.876 206.208 184.458 204.367 182.618C201.607 179.941 198.93 178.184 196.253 179.104C193.66 180.024 194.413 180.275 194.747 175.256C194.998 171.826 193.241 171.157 191.15 170.99C190.146 170.906 189.142 171.073 188.138 171.073C187.971 171.073 187.804 171.073 187.72 170.99C186.884 170.655 187.469 169.149 188.222 167.476C189.142 165.301 190.313 162.792 189.226 162.039C187.135 160.533 190.397 159.278 187.218 153.004C186.8 152.168 186.298 151.582 185.796 151.164C185.545 151.582 185.043 151.582 184.29 150.662C184.207 150.662 184.207 150.662 184.123 150.662C181.53 150.996 178.267 155.765 175.841 158.693ZM329.515 257.07C329.515 252.72 328.929 243.435 329.18 241.343C329.347 240.005 328.427 237.328 329.933 234.567C323.157 223.19 326.336 229.297 320.564 222.27C319.643 221.182 319.141 220.095 318.89 219.175C317.887 218.422 317.803 219.258 317.468 221.935C317.05 225.616 315.795 230.384 314.791 232.894C313.788 235.404 311.863 239.921 306.593 242.514C301.407 245.108 303.331 246.697 305.338 248.37C307.346 250.043 302.16 250.629 299.985 250.713C297.893 250.796 296.889 249.876 296.973 248.119C297.057 246.446 296.889 245.442 290.448 246.53C289.611 246.697 289.026 246.864 288.691 247.199C289.444 247.115 290.113 247.283 290.699 247.785C293.208 249.876 292.205 249.039 295.384 252.302C298.228 255.23 297.726 257.405 300.403 255.983C303.08 254.477 309.27 254.561 309.437 259.329C309.437 259.496 309.437 259.58 309.437 259.747C314.289 261.169 326.921 261.671 329.766 261.169C330.1 261.086 330.351 260.835 330.602 260.333C330.016 259.915 329.515 258.911 329.515 257.07ZM329.933 234.651C330.686 233.229 332.108 231.89 334.701 230.635C342.23 227.122 361.973 219.426 356.535 210.391C356.535 210.391 357.288 209.638 358.543 209.304C358.208 209.136 357.706 208.969 356.953 208.885C353.105 208.383 348.922 205.79 345.158 208.3C341.393 210.809 330.351 209.387 327.423 210.475C324.997 211.311 317.636 214.072 318.807 219.258C319.058 220.179 319.56 221.266 320.48 222.354C326.419 229.381 323.157 223.274 329.933 234.651ZM363.813 207.379C360.885 207.045 363.729 210.14 361.052 209.387C360.132 209.136 359.296 209.136 358.626 209.304C357.372 209.638 356.619 210.391 356.619 210.391C362.056 219.426 342.314 227.122 334.785 230.635C332.191 231.807 330.769 233.229 330.016 234.651C328.511 237.328 329.431 240.088 329.264 241.427C329.013 243.435 329.515 252.804 329.598 257.154C329.598 258.994 330.1 259.914 330.769 260.416C331.606 261.086 332.777 261.002 333.279 261.253C334.199 261.671 333.028 258.743 336.458 257.99C339.888 257.321 338.8 260.249 340.892 256.819C342.983 253.473 348.337 248.203 351.181 248.036C354.025 247.785 351.181 252.469 352.687 255.063C354.193 257.572 357.455 243.351 358.459 241.092C359.463 238.834 357.957 239.754 356.535 239.837C355.113 239.921 357.79 237.913 359.63 236.91C361.471 235.906 358.041 236.575 356.117 235.069C354.193 233.563 358.626 233.396 358.961 230.134C359.379 226.871 361.889 223.357 365.151 220.681C368.414 218.004 368.581 214.574 368.999 210.977C369.418 207.379 366.657 207.714 363.813 207.379ZM268.781 268.447C269.032 267.862 269.367 267.276 269.702 266.69C269.618 266.44 269.451 266.272 269.283 266.021C268.029 266.021 266.606 265.938 265.184 265.687C259.412 264.85 257.237 266.691 253.891 264.348C251.967 263.01 251.967 261.253 251.465 260.082C251.381 259.914 251.298 259.747 251.214 259.58C250.796 258.994 249.959 258.66 248.286 258.911C243.434 259.58 241.008 257.739 242.012 255.23C243.016 252.72 243.183 249.96 239.251 250.294C235.32 250.629 233.145 240.59 231.973 244.689C231.388 246.697 230.719 246.864 229.715 246.195C229.38 247.45 229.045 248.454 228.293 249.039C227.707 249.96 227.121 250.796 226.536 251.298C224.444 253.055 222.771 252.72 218.589 251.214C214.406 249.625 211.311 251.047 211.311 251.047C210.725 251.214 210.223 251.298 209.721 251.298C209.889 251.549 209.889 251.884 209.889 252.218C209.47 255.481 206.961 254.644 210.056 259.915C213.151 265.185 212.482 268.698 210.223 269.869C207.965 270.957 208.801 274.889 208.801 274.889C208.801 274.889 205.957 273.885 203.531 272.797C203.698 273.216 204.116 273.718 204.953 274.303C208.968 277.064 207.797 279.657 213.569 280.243C219.342 280.828 219.342 279.657 222.604 282.585C225.867 285.513 228.125 287.437 233.646 286.182C239.251 284.927 250.879 275.14 253.389 277.733C255.899 280.243 255.815 282.083 258.325 280.828C259.747 280.159 262.089 279.992 263.929 279.908C262.926 276.478 266.774 272.546 268.781 268.447ZM224.779 241.929C221.098 239.085 224.528 240.088 224.863 239.419C224.779 239.252 224.695 239.001 224.695 238.834C224.612 238.75 224.612 238.666 224.528 238.583C222.437 236.408 223.692 236.324 226.787 236.073C229.882 235.738 223.608 230.217 222.27 228.544C220.931 226.871 223.943 226.369 224.695 224.194C225.448 222.019 226.034 221.684 225.281 219.509C224.528 217.334 223.357 219.844 220.429 220.848C217.501 221.852 218.505 218.506 218.087 217.083C217.669 215.661 220.764 215.912 222.771 215.243C224.779 214.657 222.269 213.486 220.513 212.315C218.672 211.144 219.593 210.391 217.752 210.893C215.912 211.395 217.25 214.072 215.744 214.992C215.661 215.076 215.577 215.076 215.493 215.159C215.243 216.832 215.075 218.422 215.242 219.175C215.744 220.932 213.235 222.605 213.737 223.441C213.904 223.692 213.82 224.027 213.569 224.445C214.824 224.529 216.246 225.031 217.167 226.285C218.84 228.711 221.182 229.632 221.182 230.97C221.182 232.309 220.764 233.647 218.17 234.484C215.577 235.32 213.82 236.24 213.235 235.655C212.649 235.069 208.048 237.328 208.55 232.392V232.141C208.55 232.141 207.463 231.305 206.459 230.217C206.459 230.97 206.375 231.639 206.375 232.392C206.375 233.731 205.957 234.651 205.455 235.236C206.291 235.32 207.044 235.32 206.961 236.24C206.793 237.913 206.375 238.75 207.463 241.26C208.55 243.769 206.877 245.442 203.865 245.442C201.858 245.442 200.938 244.94 199.934 244.606C202.36 247.701 208.717 248.872 209.805 251.214C210.307 251.131 210.809 251.047 211.394 250.963C211.394 250.963 214.573 249.625 218.672 251.131C222.855 252.72 224.528 252.971 226.62 251.214C227.205 250.713 227.874 249.876 228.376 248.956C228.962 248.036 229.38 247.032 229.715 246.028C228.544 245.359 227.038 243.686 224.779 241.929ZM211.562 226.787C209.387 228.879 207.797 227.959 206.626 226.453C206.542 226.453 206.542 226.453 206.459 226.453C206.459 227.54 206.375 228.795 206.291 230.134C207.295 231.221 208.383 232.058 208.383 232.058V232.309C207.881 237.328 212.482 235.069 213.067 235.571C213.653 236.157 215.493 235.236 218.003 234.4C220.596 233.563 221.015 232.141 221.015 230.886C221.015 229.548 218.672 228.628 216.999 226.202C216.079 224.947 214.657 224.445 213.402 224.361C212.9 225.449 211.562 226.787 211.562 226.787ZM195.416 234.4C194.58 233.061 194.496 230.468 196.253 231.054C197.508 231.472 197.34 232.392 198.344 232.727C198.428 232.727 198.512 232.81 198.595 232.81C198.93 232.894 199.264 232.894 199.766 232.81C202.443 232.643 202.443 231.974 203.447 233.982C203.865 234.818 204.618 235.069 205.288 235.153C205.79 234.567 206.124 233.731 206.208 232.309C206.208 231.556 206.208 230.803 206.291 230.134C206.375 228.795 206.375 227.624 206.459 226.453C206.459 226.369 206.459 226.285 206.459 226.202C206.375 226.034 206.291 225.951 206.208 225.783C204.953 223.943 205.706 223.943 202.611 223.776C200.519 223.692 201.607 222.019 202.611 220.346C202.611 220.179 202.611 220.095 202.611 219.928C201.858 220.597 201.439 220.848 201.021 220.011C200.017 218.171 199.097 220.179 197.006 222.019C195.333 223.441 192.739 218.924 191.819 215.494C191.652 215.327 191.485 215.159 191.317 215.076C190.648 216.163 190.146 217 189.895 217.585C189.393 219.342 188.724 219.76 188.138 219.677C188.306 220.848 188.389 222.103 188.138 223.357C187.386 226.871 182.701 230.719 181.279 232.643C180.61 233.563 179.689 234.567 178.853 235.571C180.275 238.164 178.016 242.849 181.53 241.176C185.211 239.419 190.397 234.567 193.158 237.16C194.413 236.575 196.002 235.236 195.416 234.4ZM181.613 206.125C183.37 204.452 183.119 203.197 185.545 203.699C187.971 204.117 188.64 200.687 190.815 201.022C191.485 201.105 192.321 200.353 193.158 199.349C193.241 199.098 193.325 198.93 193.409 198.679C193.827 197.592 193.827 196.588 192.823 196.253C190.313 195.417 185.712 190.063 182.785 193.576C179.94 197.006 179.271 191.903 177.18 191.234C175.841 190.816 173.164 189.645 171.157 189.728C170.738 189.728 170.404 189.812 170.153 189.979C170.153 190.983 170.069 192.154 169.818 193.827C169.483 196.755 166.054 198.261 163.711 200.52C161.369 202.778 163.377 206.794 161.202 208.3C161.034 208.467 160.783 208.551 160.365 208.718C160.365 208.802 160.365 208.885 160.365 208.969C161.787 209.136 162.958 209.471 163.711 210.056C165.803 211.813 165.552 208.383 168.312 210.558C171.073 212.65 168.898 215.745 171.073 214.657C173.248 213.57 175.172 213.57 177.514 215.41C179.773 217.251 181.111 217.251 181.697 215.912C181.948 215.327 182.617 214.741 183.454 214.323C182.366 213.57 179.857 207.798 181.613 206.125ZM156.433 243.267C157.605 240.507 160.532 241.845 160.449 240.172C160.365 238.499 158.023 236.24 160.951 237.16C162.038 237.495 163.042 238.081 164.046 238.583C164.715 238.75 165.635 239.085 166.639 239.586C167.308 239.67 167.978 239.586 168.647 239.252C171.073 237.913 171.24 240.088 174.335 240.758C177.431 241.427 175.005 232.894 178.016 234.902C178.351 235.153 178.685 235.487 178.853 235.822C179.689 234.818 180.61 233.898 181.279 232.894C182.617 230.886 187.386 227.122 188.138 223.608C188.389 222.354 188.306 221.099 188.138 219.928C187.553 219.844 187.051 219.258 187.051 219.258C187.051 219.258 184.876 214.992 183.621 214.406C182.868 214.825 182.115 215.41 181.864 215.996C181.195 217.334 179.94 217.334 177.682 215.494C175.423 213.654 173.415 213.654 171.24 214.741C169.065 215.829 171.24 212.733 168.48 210.642C165.719 208.551 165.97 211.897 163.879 210.14C163.209 209.554 161.955 209.22 160.532 209.053C160.281 209.053 160.114 209.053 159.863 208.969C155.513 210.391 144.387 212.064 147.064 213.905C150.159 215.996 150.996 213.821 150.41 217.251C149.825 220.681 152.167 218.004 152 221.35C151.832 224.696 149.406 222.856 146.729 225.616C144.638 227.708 141.627 229.046 140.288 228.377C138.113 230.384 135.52 232.392 134.934 232.81C136.022 235.738 145.558 242.598 148.988 244.271C151.581 245.442 154.928 245.191 156.935 244.857C156.517 244.02 156.35 243.518 156.433 243.267ZM131.588 215.745C135.436 217.083 133.094 219.175 135.603 218.589C138.029 218.087 142.045 214.49 142.798 218.338C143.551 222.186 141.292 222.605 143.049 223.943C143.885 224.529 142.296 226.369 140.372 228.126C141.71 228.795 144.722 227.457 146.813 225.365C149.49 222.605 151.916 224.445 152.083 221.099C152.251 217.753 149.908 220.43 150.494 217C151.079 213.57 150.243 215.745 147.148 213.654C144.471 211.897 155.513 210.224 159.947 208.718C160.198 208.634 160.449 208.551 160.616 208.467C160.951 208.3 161.202 208.216 161.453 208.049C163.628 206.459 161.536 202.444 163.962 200.269C166.305 198.01 169.734 196.504 170.069 193.576C170.236 191.987 170.404 190.816 170.404 189.728C170.404 189.645 170.404 189.561 170.404 189.477C170.404 188.725 170.236 188.055 169.985 187.302C169.483 185.797 168.814 182.701 167.141 185.462C166.89 185.964 166.556 186.55 166.221 187.386C163.795 193.242 158.525 190.314 156.517 189.143C156.015 188.808 155.764 188.39 155.68 187.888C155.262 186.382 155.848 184.542 153.505 185.295C150.41 186.299 154.677 193.827 151.079 193.827C147.482 193.827 148.152 194.748 147.399 196.755C146.646 198.763 142.128 196.002 140.121 193.326C138.029 190.732 143.049 191.318 144.303 189.896C145.558 188.557 146.395 186.215 148.904 184.709C151.33 183.203 152.502 181.112 149.741 177.598C146.98 174.085 145.642 181.112 143.551 180.192C141.459 179.272 144.136 175.591 142.63 174.838C141.208 174.085 141.627 178.77 139.953 177.849C138.28 176.929 140.957 171.575 139.535 171.91C138.113 172.328 138.95 176.846 137.026 176.595C136.022 176.427 135.269 176.427 134.516 176.762C133.847 177.013 133.261 177.431 132.508 178.184C130.919 179.773 135.101 182.952 133.428 186.382C131.839 189.812 136.189 191.318 135.938 192.238C135.687 193.158 132.257 199.767 130.751 195.919C129.246 192.071 121.968 194.413 119.123 196.002C117.534 196.923 117.367 197.843 116.781 198.847C116.363 199.6 115.61 200.436 113.77 201.189C110.089 202.778 120.211 216.916 123.223 221.015C123.641 219.509 127.74 214.49 131.588 215.745ZM143.049 224.027C141.292 222.688 143.551 222.27 142.798 218.422C142.045 214.574 138.029 218.087 135.603 218.673C133.177 219.175 134.516 217.167 130.584 215.829C126.736 214.49 121.8 219.593 120.964 221.601C120.964 223.608 133.094 232.058 133.847 232.81C133.847 232.81 134.349 232.81 134.432 232.727C135.018 232.309 137.862 230.301 140.037 228.293C142.045 226.369 143.802 224.612 143.049 224.027ZM210.223 269.786C212.482 268.698 213.151 265.101 210.056 259.831C206.961 254.561 209.47 255.397 209.889 252.135C209.889 251.8 209.889 251.549 209.721 251.214C208.634 248.872 202.276 247.617 199.85 244.606C199.348 244.438 198.846 244.355 198.261 244.355C196.337 244.438 196.504 243.518 195.082 242.514C193.576 241.511 190.648 241.343 191.903 238.164C191.903 238.164 192.488 237.83 193.158 237.328C190.397 234.735 185.211 239.586 181.53 241.343C178.016 243.016 180.191 238.248 178.853 235.738C178.685 235.404 178.351 235.069 178.016 234.818C175.088 232.81 177.514 241.343 174.335 240.674C171.24 240.005 171.073 237.746 168.647 239.168C167.978 239.586 167.308 239.586 166.639 239.503C165.803 239.335 164.966 239.001 164.046 238.499C163.126 237.997 162.122 237.411 160.951 237.077C158.023 236.157 160.365 238.415 160.449 240.088C160.532 241.761 157.605 240.423 156.433 243.184C156.266 243.518 156.433 243.936 156.852 244.522C159.78 249.039 176.51 260.165 179.271 260.751C182.366 261.42 182.115 261.504 184.541 264.599C186.967 267.694 192.572 268.615 195.082 268.949C197.591 269.284 198.846 269.869 200.436 271.041C201.021 271.459 202.192 272.044 203.531 272.63C205.957 273.718 208.801 274.721 208.801 274.721C208.801 274.721 207.965 270.873 210.223 269.786ZM207.379 241.176C206.291 238.666 206.793 237.83 206.877 236.157C206.961 235.153 206.208 235.236 205.371 235.153C204.702 235.069 204.033 234.818 203.531 233.982C202.527 231.974 202.527 232.559 199.85 232.81C199.348 232.81 198.93 232.81 198.679 232.81C198.595 232.81 198.512 232.727 198.428 232.727C197.508 232.392 197.675 231.556 196.337 231.054C194.58 230.468 194.58 233.061 195.5 234.4C196.086 235.236 194.496 236.575 193.241 237.411C192.572 237.913 191.987 238.248 191.987 238.248C190.732 241.427 193.66 241.594 195.165 242.598C196.671 243.602 196.42 244.522 198.344 244.438C198.93 244.438 199.432 244.522 199.934 244.689C200.938 245.024 201.858 245.526 203.865 245.526C206.71 245.442 208.466 243.769 207.379 241.176ZM189.812 217.753C189.979 217.167 190.481 216.247 191.234 215.243C191.317 215.076 191.401 214.992 191.485 214.825C191.401 214.239 191.317 213.737 191.317 213.319C191.401 210.475 194.831 211.73 195.165 208.634C195.416 205.455 197.842 208.634 198.261 204.953C198.679 201.189 201.021 203.615 201.439 201.607C201.774 200.018 202.694 199.767 203.698 199.851C204.451 198.847 205.037 198.177 205.204 197.843C206.124 195.919 199.014 197.676 197.759 195.333C196.922 193.911 195.333 196.672 193.66 198.847C193.492 199.014 193.409 199.181 193.241 199.349C192.405 200.353 191.568 201.189 190.899 201.022C188.724 200.687 188.055 204.117 185.629 203.699C183.203 203.28 183.454 204.535 181.697 206.125C179.94 207.714 182.366 213.57 183.621 214.239C184.876 214.825 187.051 219.091 187.051 219.091C187.051 219.091 187.469 219.677 188.138 219.76C188.64 219.928 189.31 219.509 189.812 217.753ZM204.535 200.018C204.2 199.934 203.949 199.851 203.698 199.851C202.611 199.767 201.774 200.018 201.439 201.607C201.021 203.615 198.763 201.189 198.261 204.953C197.842 208.718 195.416 205.539 195.165 208.634C194.914 211.813 191.485 210.475 191.317 213.319C191.317 213.737 191.401 214.239 191.485 214.825C191.568 215.076 191.568 215.327 191.652 215.661C192.656 219.091 195.249 223.608 196.839 222.186C198.93 220.346 199.85 218.255 200.854 220.179C201.272 221.015 201.774 220.681 202.443 220.095C202.611 219.928 202.778 219.76 202.945 219.593C203.196 219.091 203.447 218.589 203.447 218.171C203.698 216.08 206.124 215.243 207.965 216.08C208.885 216.498 209.972 215.578 211.143 214.49C210.809 214.741 210.474 214.992 210.056 215.076C207.881 215.912 209.721 211.98 210.056 209.805C210.391 207.63 212.231 209.638 214.071 208.383C215.912 207.045 214.322 205.204 211.311 203.28C209.889 202.36 209.219 201.775 208.717 201.356C208.466 201.44 208.299 201.607 208.048 201.858C206.961 202.946 205.957 200.353 204.535 200.018ZM208.048 215.996C206.208 215.159 203.782 215.996 203.531 218.087C203.447 218.506 203.28 219.007 203.029 219.509C202.862 219.76 202.694 220.095 202.527 220.43C201.523 222.103 200.436 223.776 202.527 223.859C205.622 224.027 204.869 224.027 206.124 225.867C206.208 226.034 206.291 226.118 206.375 226.285C206.459 226.369 206.459 226.453 206.542 226.536C207.714 228.042 209.303 228.962 211.478 226.871C211.478 226.871 212.817 225.532 213.318 224.445C213.486 224.027 213.569 223.692 213.486 223.441C212.984 222.605 215.577 220.932 214.992 219.175C214.741 218.422 214.992 216.832 215.242 215.159C214.071 215.745 214.573 214.239 214.155 212.65C213.737 211.228 212.733 213.235 211.143 214.49C210.14 215.494 208.968 216.414 208.048 215.996ZM301.658 264.766C299.985 262.591 296.806 258.576 294.631 259.496C292.456 260.5 289.611 263.01 286.767 264.265C283.839 265.519 283.254 262.006 281.831 259.998C280.493 258.074 278.736 255.063 277.063 257.907C275.808 260.082 274.721 263.512 273.466 264.683C273.215 265.519 271.96 265.938 270.204 266.105C270.12 266.356 269.953 266.523 269.869 266.774C269.534 267.36 269.283 267.945 268.949 268.531C266.941 272.63 263.093 276.562 264.013 279.908C264.18 280.577 264.599 281.163 265.184 281.748L282.25 298.897L289.277 307.598L291.87 300.069L290.281 296.221L297.308 285.596C297.308 285.596 315.042 285.764 315.21 285.429C315.377 285.011 315.795 280.494 315.795 280.494C315.795 280.494 310.274 273.383 306.008 268.029C303.916 267.276 302.996 266.523 301.658 264.766ZM300.486 256.066C297.81 257.572 298.311 255.314 295.467 252.386C292.288 249.123 293.376 249.96 290.783 247.868C290.197 247.366 289.444 247.199 288.775 247.283C286.516 247.534 283.839 249.876 280.828 250.545C276.812 251.465 274.219 248.872 269.702 249.876C267.945 250.294 266.857 250.796 266.104 251.465C267.192 251.549 267.276 253.389 266.941 255.397C266.439 258.158 268.53 258.66 272.128 262.173C273.131 263.177 273.466 263.93 273.299 264.516C274.637 263.344 275.641 259.914 276.896 257.739C278.569 254.895 280.326 257.907 281.664 259.831C283.086 261.922 283.672 265.436 286.6 264.097C289.528 262.842 292.288 260.333 294.463 259.329C296.638 258.325 299.817 262.424 301.49 264.599C302.912 266.356 303.749 267.192 305.757 267.778C306.175 267.945 306.593 268.029 307.095 268.196C310.023 268.949 309.605 264.265 309.437 259.664C309.437 259.496 309.437 259.413 309.437 259.245C309.437 254.644 303.247 254.561 300.486 256.066ZM217.752 185.044C215.493 184.793 213.486 184.793 212.231 185.629C211.98 185.797 211.729 186.048 211.478 186.299C211.227 186.717 211.06 187.135 210.976 187.804C210.809 190.565 208.801 194.246 208.048 196.421C207.212 198.596 206.71 199.432 207.63 200.102C208.132 200.436 208.299 200.771 208.885 201.273C209.387 201.691 210.056 202.277 211.478 203.197C214.49 205.121 216.079 206.961 214.239 208.3C212.398 209.638 210.558 207.547 210.223 209.722C209.889 211.897 208.048 215.912 210.223 214.992C210.641 214.825 210.976 214.657 211.311 214.406C212.9 213.152 213.904 211.144 214.322 212.566C214.741 214.155 214.239 215.661 215.41 215.076C215.493 215.076 215.577 214.992 215.661 214.908C217.167 213.988 215.828 211.311 217.669 210.809C219.509 210.307 218.589 211.06 220.429 212.231C222.269 213.403 224.779 214.574 222.688 215.159C220.68 215.745 217.585 215.494 218.003 217C218.421 218.422 217.418 221.852 220.345 220.764C223.273 219.76 224.361 217.167 225.197 219.426C225.95 221.601 225.365 221.935 224.612 224.11C223.859 226.285 220.847 226.704 222.186 228.46C223.524 230.134 229.798 235.655 226.703 235.989C223.608 236.324 222.353 236.324 224.444 238.499C224.528 238.583 224.612 238.666 224.612 238.75C224.863 239.001 224.863 239.252 224.779 239.336C224.361 240.005 220.931 239.001 224.695 241.845C226.954 243.602 228.46 245.191 229.547 246.028L229.631 246.112C230.635 246.781 231.304 246.53 231.89 244.606C233.061 240.59 235.236 250.629 239.168 250.211C243.099 249.876 242.932 252.637 241.928 255.146C240.924 257.656 243.35 259.496 248.202 258.827C249.875 258.576 250.712 258.911 251.13 259.496C251.214 259.664 251.298 259.747 251.381 259.998C251.883 261.169 251.883 262.926 253.807 264.265C257.153 266.607 259.328 264.766 265.101 265.603C266.606 265.854 268.028 265.938 269.2 265.938C269.451 265.938 269.702 265.938 269.953 265.938C271.709 265.854 273.048 265.352 273.215 264.516C273.382 263.93 273.048 263.177 272.044 262.173C268.447 258.66 266.355 258.158 266.857 255.397C267.192 253.389 267.108 251.465 266.021 251.465C265.686 251.465 265.184 251.633 264.599 252.051C262.256 253.891 260.249 254.561 259.077 251.8C257.906 249.039 256.401 245.442 252.385 244.522C248.453 243.602 244.271 246.781 240.423 238.75C236.491 230.719 233.061 222.103 228.711 215.41C224.361 208.718 223.441 205.121 224.528 202.444C225.699 199.767 222.939 198.177 221.768 194.999C221.768 194.999 220.68 193.576 220.596 191.82C220.596 190.565 220.847 187.888 219.676 186.215C219.509 185.629 218.84 185.127 217.752 185.044ZM97.457 46.0936C95.7839 50.7783 99.7993 60.4822 95.5329 66.6726C91.1829 72.863 93.9435 78.1333 94.2781 82.8179C94.6127 87.5862 90.179 82.6506 87.2511 82.1487C84.3232 81.5631 88.6732 90.7651 90.43 94.3623C92.2704 97.9594 90.3463 102.979 90.3463 102.979L89.7607 103.397C90.9319 103.564 92.1867 102.979 93.9435 105.488C96.4531 109.169 93.9435 117.786 99.1301 118.538C104.317 119.291 104.317 122.136 104.066 124.06C103.982 124.98 104.317 125.482 105.153 125.565C105.99 125.649 107.245 125.314 109.085 124.645C112.598 123.223 113.017 115.778 116.781 115.443C120.546 115.192 118.538 107.412 122.135 110.089C125.732 112.766 126.485 108.333 129.497 116.029C132.508 123.725 133.596 113.519 138.95 118.455C144.303 123.39 141.376 112.766 147.65 114.858C151.163 116.029 152 116.28 151.916 115.192C151.916 115.109 151.916 115.025 151.916 114.858C151.247 114.105 150.578 113.435 149.992 112.85C149.992 112.85 146.144 104.317 152.251 94.3623C155.011 89.8449 157.354 87.5862 159.445 86.1641C159.696 85.9131 159.863 85.7458 160.114 85.4949L161.034 84.491C161.034 84.491 158.441 81.0612 156.266 80.2246C154.091 79.3881 155.095 77.2967 152.836 77.5477C150.578 77.7987 148.486 76.1256 147.231 72.3611C145.977 68.6803 145.224 67.0909 144.471 62.4899C143.718 57.8889 146.395 60.3149 141.459 54.961C136.44 49.6907 128.158 38.3137 126.318 37.8955C124.477 37.4772 104.735 35.2185 104.735 35.2185L104.233 39.0666C104.233 39.0666 99.632 38.3137 97.2896 38.8993C98.4608 39.8195 98.9627 41.9945 97.457 46.0936ZM89.6771 103.397L90.2627 102.979C90.2627 102.979 92.1867 97.9594 90.3463 94.3623C88.5059 90.7651 84.2395 81.6468 87.1674 82.1487C90.0954 82.7343 94.6127 87.5862 94.1944 82.8179C93.8598 78.0496 91.0992 72.863 95.4492 66.6726C99.7993 60.4822 95.7002 50.7783 97.3733 46.0936C98.8791 41.9945 98.3772 39.8195 97.1223 39.0666C96.955 38.983 96.7877 38.8993 96.6204 38.8993C94.9473 38.481 71.2731 34.4656 71.2731 34.4656L30.4497 9.62024C30.4497 9.62024 28.9439 8.36543 27.5218 8.03081C27.4381 8.03081 27.4381 8.03081 27.3545 8.03081C26.7689 7.94715 26.1833 7.94715 25.7651 8.36543C24.2593 9.7039 19.7419 13.3847 24.5939 17.7347C24.5939 17.7347 24.5939 17.7347 24.6775 17.8184C29.6132 22.1684 32.1228 26.2675 35.0507 24.6781C38.0623 23.1723 37.9786 28.4425 40.4046 29.6137C42.9142 30.8685 44.2527 29.1117 44.42 35.1349C44.5873 41.158 45.0056 43.8349 46.4277 49.2725C47.8498 54.71 46.2604 58.0562 49.7739 63.1591C53.2874 68.262 49.272 65.9197 52.8691 70.2698C56.4663 74.6198 55.0441 78.6352 59.3942 81.3958C63.7442 84.1564 66.5884 80.9775 66.5048 84.9093C66.4211 88.8411 61.3182 93.2747 66.9231 95.2825C72.5279 97.2902 74.0337 96.8719 73.95 100.469C73.8664 104.066 76.5433 102.477 78.6347 104.819C79.3876 105.656 79.8059 106.576 79.9732 107.412C80.1405 108.165 80.0568 108.751 80.0568 109.253C79.9732 109.755 79.8895 110.006 79.8895 110.006L89.6771 103.397ZM152.167 94.4459C146.06 104.401 149.908 112.934 149.908 112.934C150.578 113.519 151.247 114.188 151.832 114.941C152 115.109 152.167 115.36 152.334 115.527C154.593 118.371 156.35 122.303 155.764 127.071C155.764 127.322 155.68 127.573 155.68 127.824C155.597 128.242 155.513 128.577 155.43 128.995C154.175 134.516 151.665 132.592 151.665 136.775C151.665 141.292 152.836 140.874 155.095 143.969C156.768 146.228 158.274 145.224 160.951 142.966C161.871 142.129 162.958 141.209 164.213 140.205C168.982 136.273 174.419 148.738 176.761 146.646C177.012 146.395 177.263 146.312 177.431 146.144C178.016 145.81 178.685 145.81 179.355 145.977C180.944 146.479 182.617 148.319 184.458 150.662L184.541 150.745L184.625 150.829C185.378 151.749 185.796 151.749 186.131 151.331C186.967 150.076 186.549 144.89 188.055 143.802C190.146 142.38 192.907 141.209 189.226 138.866C185.545 136.524 188.557 133.345 185.378 128.995C182.115 124.645 185.127 124.645 188.306 123.139C191.485 121.634 192.07 121.132 189.895 116.196C187.72 111.26 191.317 115.276 193.492 109.671C195.667 104.15 197.508 107.747 200.268 109.336C200.854 109.671 201.356 109.755 201.774 109.671C202.527 109.504 202.945 108.834 203.196 107.914C203.447 106.827 203.364 105.488 202.945 104.401C201.941 101.808 196.922 104.401 197.173 96.2027C197.424 88.0045 191.485 82.567 187.218 76.0419C182.952 69.5169 186.214 78.1333 179.689 73.4486C173.164 68.6803 176.845 73.4486 172.244 73.2813C167.559 73.114 168.229 78.2169 165.384 81.8141C163.795 83.7381 161.871 84.3237 159.445 86.0805C157.27 87.6699 154.928 89.9286 152.167 94.4459Z" fill="#DBDDE4"/>
<g opacity="0.32" filter="url(#filter0_f)">
<circle cx="61" cy="144" r="18" fill="#3856E1"/>
</g>
<circle opacity="0.32" cx="61" cy="144" r="15" fill="#3856E1"/>
<circle opacity="0.56" cx="61" cy="144" r="12" fill="#3856E1"/>
<circle cx="61" cy="144" r="9" fill="#3856E1"/>
</g>
<defs>
<filter id="filter0_f" x="35" y="118" width="52" height="52" filterUnits="userSpaceOnUse" color-interpolation-filters="sRGB">
<feFlood flood-opacity="0" result="BackgroundImageFix"/>
<feBlend mode="normal" in="SourceGraphic" in2="BackgroundImageFix" result="shape"/>
<feGaussianBlur stdDeviation="4" result="effect1_foregroundBlur"/>
</filter>
<clipPath id="clip0">
<rect width="369" height="307.43" fill="white"/>
</clipPath>
</defs>
</svg>
