<svg width="390" height="186" viewBox="0 0 390 186" fill="none" xmlns="http://www.w3.org/2000/svg">
<g clip-path="url(#clip0)">
<path d="M17.3103 0V7.4428L14.7871 8.47183V12.4892C15.351 13.1941 16.2108 14.2372 17.3103 15.4635C19.9745 18.4519 20.5807 18.6211 21.5533 20.1576C22.9206 22.3284 23.2448 24.4146 23.4986 26.0075C23.8933 28.4744 24.147 30.1236 23.273 31.7447C22.6951 32.8019 22.0608 33.0838 22.0185 33.9155C21.948 35.2687 23.4845 36.4669 24.7672 37.2422V44.4595L26.1487 46.8699L25.6835 50.5349L23.9637 51.9164L25.6835 58.1046L29.2357 60.1626L31.6462 62.4603L32.3369 66.5905L31.6462 68.8882L32.9007 71.1859V74.8509L31.4065 78.5159L32.9007 81.1519L34.0425 83.4496L37.9331 84.7042V87.5657H36.4389L37.2424 92.4994L39.9911 93.5284V95.5864L48.7026 101.324V103.96L55.356 109.457L57.992 112.431L59.1338 117.591L59.9373 120.565L58.5559 122.172L56.8361 123.088L57.0617 125.724L59.0069 126.415L62.3336 127.669L65.8859 131.56L70.6927 133.054L75.9788 134.196L77.2333 136.945L78.6148 139.693H81.8287L83.9995 142.329L90.5261 146.46L97.1795 148.757L101.07 150.252L103.819 153.353L106.229 154.156L108.287 157.257H113.094L116.985 161.388L121.002 162.078L125.471 164.714L133.957 167.928V170.79L137.396 175.723H139.13L144.402 171.48L148.532 169.761L152.084 169.648L154.833 171.029L155.749 168.971L156.327 166.913L158.047 166.688L158.625 168.52L157.131 168.985L157.821 170.705L160.796 173.919L164.926 173.228L166.758 169.563V165.898L163.093 159.372L161.035 155.594L158.865 150.322L155.763 146.079L153.353 140.582L150.604 138.284L150.491 134.844L148.997 132.321L142.922 129.798L139.031 125.907L136.029 121.481L136.832 114.955L136.494 108.992L136.719 104.975L137.861 103.368L133.167 97.6304L133.28 93.9654L134.083 93.5002L134.309 90.399L135.563 88.6793L134.873 84.4363L137.283 78.5864L136.48 60.8252L130.066 53.3824L125.372 43.9802L121.594 39.5117L117.238 36.185L113.686 35.2687L108.076 30.6875L102.339 26.811L100.281 20.9611L94.2052 15.4635L87.3262 14.6601L85.2682 16.7181L85.381 19.4669L79.9962 23.2588L80.109 27.6145L76.895 29.5598L74.9498 28.3052L72.6521 28.9959L70.594 24.9785H67.1545L65.4348 26.2331L62.4605 26.1203L60.4025 27.7273L55.5957 28.7563L55.1305 32.5341L53.0724 32.9992L49.9713 30.5888L49.055 27.4876L53.1852 25.5423V24.0481L52.3817 23.1319L52.4945 20.7214L52.8328 19.2272L51.5782 18.7621L52.6073 17.3806L52.2689 13.9412H49.055L47.6736 12.6866L46.1794 13.6028L42.8527 14.068L42.5144 8.5705L39.6528 6.96353L38.2714 5.5821L36.2134 7.75292L31.9704 6.37149L29.1089 5.11693L25.4438 5.00416L23.6113 0H17.3103Z" fill="#DBDDE4"/>
<path d="M0 9.16254C0.577945 9.04977 4.80681 7.90797 4.80681 7.90797C4.80681 7.90797 9.04977 10.0788 8.69736 10.0788C8.34496 10.0788 7.55557 13.8566 7.55557 13.8566H3.43948L2.18491 15.1111L0.803484 14.3077L0 9.16254Z" fill="#DBDDE4"/>
<path d="M17.3101 40.1178H21.6658L23.3855 45.5026L18.5646 47.4479L17.3101 40.1178Z" fill="#DBDDE4"/>
<path d="M201.237 163.77L198.136 166.631L198.475 168.126L200.42 169.38L200.758 172.242L204.536 175.907H206.834V177.161L208.088 177.5V178.994L211.866 180.023L213.473 182.772L215.305 183.349L217.025 185.069L220.239 185.647L222.072 184.731L224.242 184.618L225.497 182.786L229.627 182.56L231.121 181.757L232.954 181.418L235.012 182.912H236.844L237.31 182.222H238.113V183.025H239.495L239.833 181.644L242.934 182.109L243.399 182.912L244.654 182.8L246.825 180.051L250.264 179.938L251.18 176.964L252.209 176.499V175.582H251.406L251.519 174.666L253.013 173.637L255.536 173.75L256.114 172.834L263.444 173.299L264.586 172.834H266.644V173.75L265.953 174.088L266.644 175.117L269.858 175.343L270.196 176.259L272.832 176.372L273.974 177.401H278.33L279.711 178.655L280.853 178.43L285.321 174.652L289.099 174.427L289.903 175.23L291.157 175.005L291.495 174.201H292.637L293.441 173.623L294.244 173.849L296.189 174.652L297.444 174.99L298.473 173.849V172.82L300.531 170.762L301.222 169.62V167.562L303.167 166.871L303.505 163.77L302.124 161.134L302.702 160.218H304.083L305.465 159.992V158.611H307.072L308.453 157.116L310.173 156.651L310.976 154.015L308.453 152.986V150.012L311.428 147.489L315.558 147.15L317.39 144.853L317.052 143.246V140.835L318.081 139.806H319.11V136.254H318.081L318.419 133.392L319.11 132.702V131.673L318.081 131.334V130.193L318.772 129.854L319.801 127.796V126.189H321.633L323.015 125.048L323.353 123.793H325.073L325.538 124.822H326.919L328.865 123.328H332.755L334.01 124.709L335.391 124.484L336.082 123.342H339.409L347.894 123.92L350.643 123.807L352.025 124.723L353.519 124.949L353.857 126.091H356.719L357.522 125.174V123.342L358.551 122.877L359.933 123.68L358.551 124.258V125.64L359.933 125.865H363.147L363.372 124.836L367.389 124.949L369.109 123.92H370.716L374.268 123.455L375.875 122.877L377.708 121.495L376.566 119.663L374.846 119.437L373.352 117.717L370.829 117.252L368.531 113.587L369.335 112.558L371.393 111.642H372.647L373.451 112.784L378.61 112.897L381.359 111.642L383.995 111.177L385.376 110.261L388.351 109.922L389.605 108.541L389.943 105.214L388.336 103.607H382.261L374.015 97.5317L368.278 96.7282L366.896 98.7863H363.569L363.908 97.87L365.515 97.7572L366.769 97.1793L366.995 95.6851L364.697 92.1329L362.977 93.6271L360.454 94.4305L360.341 95.6851H357.705L357.48 94.3037H358.509L358.622 91.5549L357.818 90.977L358.044 90.1735L359.763 89.7083L359.989 85.3526L357.015 84.098L356.098 82.04L354.957 82.3783L354.491 83.4073H353.462L352.659 82.3783L350.826 82.04L350.939 79.8691L350.136 79.0657L350.474 77.9239V76.6693L348.98 76.0914H346.457L344.962 77.3459L345.428 79.8691L344.399 81.1237L344.06 82.2655L341.424 82.9562L341.763 81.3492L342.679 80.5458L342.792 79.404H341.41L342.214 77.5715L342.679 76.8808L341.875 76.5424C341.875 76.5424 341.537 76.0773 341.41 76.0773C341.283 76.0773 339.916 76.4156 339.916 76.4156L339.112 77.3318L337.971 78.9388L337.506 80.3202L337.618 81.8144C337.618 81.8144 336.702 82.04 336.476 82.2796C336.251 82.5051 335.222 83.9993 335.222 83.9993L334.884 85.4935L332.826 86.297L331.444 87.6785L331.219 89.2854H328.808L328.583 90.54L327.328 91.2307L326.75 92.8377L327.554 93.6412L326.976 94.3319L326.863 95.7133L326.398 96.8551L324.452 97.5458L322.845 101.324L321.591 102.014L315.981 101.549L314.148 103.494L312.894 105.792L313.471 106.708L314.613 107.512L316.333 108.09V109.697L314.613 111.755L313.006 112.558L311.399 112.333C310.934 111.994 309.341 112.22 309.341 112.22L308.425 113.362L308.89 114.616L310.145 115.871L310.835 119.085L311.864 121.495V122.75L310.145 122.412L307.396 120.241L306.818 117.027L307.396 115.772L307.283 115.082L305.676 113.94L302.462 114.743L300.052 116.688L301.081 118.295L301.306 121.27L302.561 122.073L302.223 122.989L301.419 123.215L301.645 126.993L299.347 127.909L298.092 127.684L294.879 124.47H293.624L293.962 122.975L290.748 118.169L285.138 118.394L284.8 123.892L281.825 127.909L277.47 131.236L274.369 133.068L273.227 135.126L272.311 137.65L270.013 139.595L267.151 141.089L266.348 143.725L262.908 144.98L249.728 147.954L246.176 148.983L241.482 148.87L237.239 151.041L235.068 152.422L234.956 154.029L234.843 155.749L235.646 157.004L235.759 158.258L234.504 158.033L233.25 157.567L232.108 156.538L231.079 157.116L230.966 158.498L230.388 160.556L230.854 162.276L231.77 162.966L231.657 163.995L229.599 166.744L228.908 168.126L229.021 169.845L227.879 170.071L226.737 171.213L227.315 172.016L227.09 173.271L225.708 172.932L224.214 171.678L223.411 171.903L223.298 172.369L220.888 172.256L219.971 171.452H218.477L218.703 169.155L216.067 168.929L214.572 167.322L212.965 167.66L212.74 169.606L206.439 169.718L205.057 167.421L202.76 166.617L201.731 165.236L202.069 163.742H201.237V163.77Z" fill="#DBDDE4"/>
<path d="M309.539 104.058H310.807L311.611 104.862V106.116L310.342 107.159H308.975L308.51 106.356L309.2 104.975L309.539 104.058Z" fill="#DBDDE4"/>
<path d="M345.639 70.9463V73.3567L346.555 74.273H348.162L348.853 73.1312H349.544L350.686 72.5532V69.8045L349.544 69.3393C349.544 69.3393 348.402 69.5648 348.162 69.6776C347.937 69.7904 345.639 70.9463 345.639 70.9463Z" fill="#DBDDE4"/>
<path d="M149.293 169.704L148.532 169.733L144.402 171.452L139.13 175.695H137.41L133.971 170.762V167.9L125.485 164.686L121.016 162.05L116.999 161.359L113.108 157.229H108.301L106.243 154.128L103.833 153.325L101.084 150.237L97.1936 148.743L90.5402 146.446L84.0137 142.315L81.8429 139.679H78.6289L77.2475 136.931L75.9788 134.196L70.7069 133.054L65.9001 131.56L62.3478 127.669L59.0211 126.415L57.0758 125.724L56.8503 123.088L58.57 122.172L59.9514 120.565L59.148 117.591L58.0062 112.431L55.3702 109.457L48.7168 103.96V101.324L40.0053 95.5864V93.5284L37.2565 92.4994L36.4531 87.5657H37.9473V84.7042L34.0567 83.4496L32.9149 81.1519L31.4207 78.5159L32.9149 74.8509V71.1859L31.6603 68.8882L32.3511 66.5905L31.6603 62.4603L29.2499 60.1626L25.6976 58.1046L23.9779 51.9164L25.6976 50.5349L26.1628 46.8699L24.7814 44.4595V37.2422C23.4986 36.4669 21.9481 35.2828 22.0326 33.9155C22.0749 33.0697 22.7233 32.7878 23.2872 31.7447C24.1612 30.1236 23.9074 28.4885 23.5127 26.0075C23.259 24.4146 22.9348 22.3284 21.5675 20.1576C20.5948 18.6211 20.0028 18.4519 17.3245 15.4635C16.225 14.2372 15.3651 13.1941 14.8013 12.4892V8.48592L17.3245 7.4569V0H23.6255L25.458 5.04644L28.0658 5.13102L90.8644 123.779L149.293 169.704Z" fill="#DBDDE4"/>
<path d="M359.862 89.7365L358.34 90.1453L359.89 89.0599L359.862 89.7365Z" fill="#DBDDE4"/>
<path d="M390 105.2L389.647 108.527L388.393 109.908L385.419 110.246L384.037 111.163L381.401 111.628L378.652 112.882L373.493 112.77L372.69 111.628H371.435L369.363 112.544L368.56 113.573L370.857 117.238L373.38 117.703L374.875 119.423L376.58 119.649L377.736 121.481L375.904 122.849L374.297 123.426L370.744 123.892H369.137L367.418 124.921L363.414 124.808L363.175 125.837H359.975L358.594 125.611V124.23L359.975 123.652L358.594 122.849L357.565 123.314V125.146L356.761 126.062H353.9L353.547 124.921L352.067 124.695L350.686 123.779L347.937 123.892L339.451 123.314H336.138L335.448 124.455L334.066 124.695L332.812 123.314H328.907L326.962 124.808H325.594L325.129 123.779H323.409L323.071 125.033L321.69 126.175H319.857V127.782L318.828 129.84L318.137 130.193V131.334L319.166 131.673V132.716L318.49 133.392L318.137 136.268H319.166V139.82H318.137L317.108 140.849V143.26L317.447 144.853L315.614 147.15L311.498 147.503L308.51 150.012V153L311.033 154.029L310.229 156.665L308.51 157.116L307.142 158.611H305.535V159.992L304.154 160.218H302.787L302.209 161.134L303.59 163.77L303.238 166.857L301.292 167.548V169.62L300.602 170.762L298.544 172.82V173.849L297.515 175.005L296.246 174.652L294.301 173.849L293.497 173.623L292.694 174.201H291.552L291.214 175.005L289.945 175.23L289.141 174.427L285.364 174.652L280.895 178.444L279.753 178.67L278.372 177.401H274.016L272.874 176.372L270.238 176.259L269.886 175.343L266.686 175.117L265.995 174.088L266.686 173.736V172.82H264.614L263.472 173.285L256.142 172.82L255.564 173.736L253.041 173.623L251.561 174.652L251.448 175.568H252.238V176.485L251.209 176.95L250.292 179.924L246.853 180.037L244.682 182.8L243.413 182.912L242.962 182.109L239.861 181.644L239.523 183.025H238.141V182.222H237.338L236.887 182.912H235.054L232.996 181.418L231.15 181.757L229.67 182.56L225.539 182.8L224.285 184.632L222.1 184.745L220.267 185.661L217.053 185.083L215.334 183.364L213.501 182.8L211.908 180.037L208.116 179.008V177.514L206.862 177.175V175.921H204.564L200.786 172.242L200.448 169.38L198.489 168.126L198.15 166.631L201.252 163.77H202.154L201.815 165.264L202.844 166.631L205.142 167.435L206.524 169.733L209.399 169.676L220.408 185.577L284.645 148.743L311.385 122.623L311.949 122.736V122.242L350.714 107.174L358.1 90.3004L357.903 90.9911L358.706 91.569L358.594 94.3178H357.565L357.79 95.6992H360.426L360.539 94.4306L363.062 93.6271L364.782 92.147L367.079 95.6992L366.84 97.1793L365.585 97.7573L363.978 97.87L363.64 98.7863H366.967L368.334 96.7282L374.071 97.5317L382.317 103.607H388.393L390 105.2Z" fill="#DBDDE4"/>
<path d="M358.34 90.1453L358.1 90.3007L358.143 90.1877L358.34 90.1453Z" fill="#DBDDE4"/>
<g opacity="0.32" filter="url(#filter0_f)">
<circle cx="64" cy="100" r="18" fill="#3856E1"/>
</g>
<circle opacity="0.32" cx="64" cy="100" r="15" fill="#3856E1"/>
<circle opacity="0.56" cx="64" cy="100" r="12" fill="#3856E1"/>
<circle cx="64" cy="100" r="9" fill="#3856E1"/>
</g>
<defs>
<filter id="filter0_f" x="38" y="74" width="52" height="52" filterUnits="userSpaceOnUse" color-interpolation-filters="sRGB">
<feFlood flood-opacity="0" result="BackgroundImageFix"/>
<feBlend mode="normal" in="SourceGraphic" in2="BackgroundImageFix" result="shape"/>
<feGaussianBlur stdDeviation="4" result="effect1_foregroundBlur"/>
</filter>
<clipPath id="clip0">
<rect width="390" height="185.661" fill="white"/>
</clipPath>
</defs>
</svg>
