<svg width="373" height="215" viewBox="0 0 373 215" fill="none" xmlns="http://www.w3.org/2000/svg">
<g clip-path="url(#clip0)">
<path d="M373 107.099C373 107.099 372.501 107.348 372.109 106.849L371.486 106.475L370.613 106.351C370.613 106.351 369.989 105.335 369.722 105.21C369.472 105.086 369.223 104.961 369.223 104.961L367.833 103.696L366.568 102.68C366.568 102.68 365.552 102.555 365.428 102.555C365.303 102.555 364.287 101.665 364.287 101.54C364.287 101.415 360.51 99.5266 360.51 99.5266C360.51 99.5266 360.136 98.903 360.011 98.7783C359.887 98.6535 359.637 98.2794 359.513 98.1547C359.388 98.03 358.622 97.6558 358.622 97.6558L357.357 96.9075L356.341 96.5333L355.45 96.1592L355.076 95.1436L354.185 94.0033L352.795 93.3797L352.172 92.6314V91.1169L350.159 89.6025V85.95L349.268 85.4511H348.127C348.127 85.4511 347.379 85.077 347.753 84.5781C347.931 84.3465 348.502 84.4534 348.644 84.2039C348.769 83.9545 348.644 83.5803 348.769 83.3131C348.894 83.0636 349.143 82.9389 349.143 82.9389C349.143 82.9389 349.642 82.44 349.642 81.7986L349.517 81.0503L349.392 79.6606V77.8967L350.141 76.6317C350.141 76.6317 349.517 75.6161 349.392 75.4914C349.268 75.3667 347.878 75.1172 347.878 75.1172L347.13 74.2264V72.0883L346.631 68.9347L345.615 68.0438L345.366 66.5294L345.74 63.8747L346.364 63.5005L346.613 62.3602L345.348 61.2199L342.444 58.8324L341.303 56.9438L341.927 55.4294L340.413 55.0552L339.397 56.4449L338.898 57.9594L341.41 60.3647L342.426 60.6141V61.6297L341.286 61.3803V65.0328L342.426 66.5472V69.4514C342.426 69.4514 341.41 69.4514 341.286 69.4514C341.161 69.4514 341.517 68.3824 341.535 68.3111L340.27 68.9347L339.896 67.9191H339.148L338.773 66.4047L337.259 65.5138L337.134 66.9036L334.996 67.4024L334.747 69.5405L333.731 70.2888L333.357 71.5538L332.609 71.6785L332.484 72.6941L334.123 74.2085V75.723L334.497 77.3622L334.622 80.6405L335.121 81.7808L335.62 83.7941L336.885 84.0436L337.633 82.9033H339.272L339.522 83.9188L338.381 84.4177L338.132 85.3086L336.493 85.9322C336.493 85.9322 336.493 88.1949 336.493 88.3197C336.493 88.4444 335.745 88.4444 335.745 88.4444C335.745 88.4444 335.495 88.5691 335.37 88.9433C335.246 89.3174 335.37 89.6916 335.37 89.6916C335.37 89.6916 334.996 90.0657 334.747 90.1904C334.497 90.3152 333.998 90.814 333.998 90.814L332.858 90.6893L332.484 90.0657L333.357 89.8163L333.981 89.1927V87.803L333.232 88.6938C333.232 88.6938 332.484 88.8185 331.843 88.3197L331.094 88.4444L330.346 89.5847L329.598 89.2105L327.958 89.9588L326.569 91.8474L327.958 93.1124V93.8608H326.693L325.553 94.6091L324.413 95.7494H322.898L322.649 97.0144L323.148 98.03L322.774 98.5288L322.025 98.1547C322.025 98.1547 322.025 97.1391 321.901 97.1391C321.776 97.1391 320.137 97.5133 320.137 97.5133L317.732 100.542L314.703 102.947L314.453 109.754L314.079 113.798L313.188 120.23C313.188 120.23 313.313 120.604 313.313 120.978C313.313 121.352 313.188 121.869 313.313 122.119C313.438 122.368 313.313 123.134 313.313 123.134L313.188 123.633C313.188 123.633 312.814 124.257 312.565 124.898C312.458 125.165 312.44 125.147 312.19 126.163C311.941 127.179 311.941 126.537 311.941 126.911C311.941 127.286 311.941 127.286 312.066 127.535C312.19 127.784 312.066 128.034 312.066 128.283C312.066 128.533 312.066 129.032 311.816 129.299L311.478 129.352L311.068 129.424C311.068 129.424 310.569 129.798 309.803 130.172C309.696 130.225 309.803 130.796 309.803 130.796C309.803 130.796 309.803 131.544 310.052 131.686C310.302 131.811 310.925 132.061 311.068 132.185C311.193 132.31 311.193 132.559 311.816 132.31C312.44 132.061 312.565 132.185 312.565 132.185L313.188 131.811C313.188 131.811 313.438 131.936 313.687 131.936C313.936 131.936 314.311 131.686 314.56 131.562C314.81 131.437 314.685 131.312 314.934 130.813L315.558 131.187L316.057 131.811L316.431 132.559C316.431 132.559 316.556 132.809 316.556 133.058C316.556 133.308 317.304 134.199 317.304 134.199H317.927V133.7L317.553 132.31L317.304 131.936V131.045L317.803 130.546L318.551 130.172L318.426 131.063L318.551 131.954L319.567 132.078L319.068 133.343L319.193 134.359L320.582 134.234L321.081 133.219L321.206 131.954L322.596 132.203C322.596 132.203 322.72 131.579 322.845 131.455C322.97 131.33 322.346 130.314 322.346 130.314L321.847 129.424L321.509 129.352L321.224 129.299L320.974 128.8L322.613 128.675L322.988 128.052L324.751 127.678L326.515 129.067L327.656 128.818L329.224 129.388L329.419 129.459L330.809 130.35L331.183 131.49L332.199 132.363L333.339 133.379L333.963 134.644L333.589 138.546L338.132 144.978L340.021 148.132L339.771 153.815L340.021 158.483L340.27 164.915L339.771 170.848L339.397 171.222L338.898 172.986L339.397 173.36V174.109L338.381 174.732V179.4L336.742 182.554L335.994 184.318L334.48 184.817L334.105 186.456L332.84 186.705L331.076 186.581L330.827 185.957L329.811 185.583L329.562 186.331L329.063 186.456L328.689 185.832L327.941 186.331L328.065 190.376L326.551 190.75L324.787 190.376L324.288 189.877L324.538 189.129L324.787 189.503L326.177 189.253C326.177 189.253 326.302 188.38 326.302 188.113C326.302 187.846 326.302 186.474 326.302 186.474L325.553 184.71L322.774 180.042L323.397 179.294L324.021 178.545L323.522 177.155C323.522 177.155 325.803 177.155 326.052 177.155C326.302 177.155 328.19 176.906 328.19 176.906L328.315 176.015L328.19 174.75L328.689 174.127L328.19 173.111L327.567 171.347L328.707 171.222L328.083 168.835L327.584 168.336L327.21 166.198L326.337 165.699L325.838 164.808L327.602 163.668V162.278L326.212 162.029V159L324.573 158.626L323.308 160.764L322.043 162.777L320.404 163.525L320.155 165.289L319.264 166.162L317.25 167.053L316.752 168.069L316.253 167.57L315.237 167.32L314.614 166.18L313.349 164.416L312.458 163.027L311.709 163.65L309.179 163.775L308.68 162.635H306.542L304.903 162.759L303.139 163.508L301.001 163.133L299.487 160.603L296.084 156.434L290.792 151.267L287.888 150.893L285.875 151.641L284.734 151.143L282.472 151.267L280.458 152.283L279.069 152.408L276.164 154.421L274.151 156.06L273.527 157.45L275.416 158.964L276.164 159.98V161.868L275.665 162.492L275.042 163.757L274.543 165.521V169.298L275.291 170.438V171.828L274.151 172.576L272.637 173.2L272.013 174.715C272.013 174.715 269.732 174.465 269.625 174.465C269.501 174.465 267.487 173.717 267.487 173.717L265.474 173.467L263.96 174.732L262.695 174.608L261.305 173.592C261.305 173.592 259.666 173.093 259.666 172.968C259.666 172.844 258.525 174.483 258.525 174.483L256.138 175.623L255.764 177.761L255.265 178.51L251.612 179.008L250.597 179.632L249.082 180.772L247.443 180.523L245.804 181.414L244.913 180.523C244.913 180.523 242.9 180.523 242.775 180.523C242.65 180.523 240.12 180.024 240.12 180.024L238.731 178.51L236.468 178.26L235.203 177.245L231.087 176.211L229.448 176.585L227.435 177.975C227.435 177.975 224.905 178.599 224.78 178.599C224.655 178.599 223.016 178.1 223.016 178.1L221.502 175.57L220.361 173.04L218.597 171.775L216.21 171.151L213.43 170.26L211.542 169.245L210.152 169.12L209.529 170.011L208.513 171.026L206.999 172.291L206.5 175.445L207.889 178.225L206.5 179.49L204.985 180.755L203.97 180.38L201.19 179.507L199.8 179.258H197.912L196.647 178.242L195.898 177.102C195.898 177.102 194.758 175.588 194.509 175.588C194.259 175.588 192.371 175.588 192.371 175.588L190.732 175.837H189.983V174.697L188.718 174.447L186.313 174.821L183.658 176.211L181.395 177.351L180.772 176.853L179.632 176.977L179.257 178.118L177.992 179.008L175.088 180.523L169.28 184.443V186.83L167.391 189.093L165.128 189.342L163.988 188.719L162.973 187.578L161.583 187.703L158.554 189.841L156.79 192.87L155.525 195.525L154.011 196.915L152.746 196.291L149.592 194.402L147.579 194.028L146.955 194.919L150.233 200.603V202.117L147.454 206.162L146.189 206.536L142.536 206.162L141.913 205.538L141.289 204.273L139.9 202.883L129.174 199.854C129.174 199.854 128.301 199.48 128.033 199.356C127.784 199.231 126.893 199.231 126.644 199.106C126.394 198.981 126.02 198.607 126.02 198.607C126.02 198.607 125.147 198.857 125.147 199.106C125.147 199.356 124.773 199.48 124.773 199.73C124.773 199.979 124.025 200.621 124.025 200.621H123.401L122.385 200.371L121.37 199.747L120.479 199.124C120.479 199.124 119.98 197.984 119.855 197.609C119.731 197.235 119.232 197.111 119.356 196.986C119.481 196.861 118.216 196.986 118.091 196.861C117.967 196.736 117.343 196.736 117.076 196.736C116.826 196.736 115.936 196.986 115.811 196.986C115.686 196.986 115.312 197.235 114.671 197.485C114.51 197.556 114.421 197.859 114.296 198.233C114.296 198.233 114.296 198.233 114.421 198.732C114.421 198.732 114.296 199.106 113.922 199.48L113.174 199.73L112.55 199.605C112.55 199.605 111.802 199.73 111.659 199.854C111.535 199.979 111.285 200.87 111.285 200.87L112.8 200.995L113.94 201.119L114.564 201.618L115.455 202.117L118.483 205.146L119.374 206.91L118.234 208.549L116.096 209.048L114.581 208.923L112.818 208.3L111.677 206.91L111.054 205.52L109.04 203.881H106.902L104.64 204.897L103.375 206.91L102.11 208.3L100.969 207.926L99.7042 206.411L98.6887 205.271L97.4236 204.897L96.6753 205.021L96.5506 206.785L96.8 208.175L97.4236 209.44V211.329L96.2834 214.482C96.2834 214.482 92.2389 214.607 91.8647 214.482C91.4906 214.357 91.1164 213.092 91.1164 212.968C91.1164 212.843 90.3681 211.329 90.3681 211.329C90.3681 211.329 89.4951 209.565 89.2278 209.565C88.9784 209.565 88.0875 208.549 88.0875 208.549C88.0875 208.549 86.1989 207.658 85.9495 207.658C85.7 207.658 84.5597 206.393 84.5597 206.393L82.6711 204.006L80.9072 201.6L80.5331 198.696V195.792L81.7981 193.512V192.122L78.2703 188.843L76.1323 188.594L76.0076 187.454L76.8984 186.189V184.55L76.2748 183.409C76.2748 183.409 76.2748 181.645 76.2748 181.521C76.2748 181.396 75.384 180.006 75.384 180.006L75.0098 177.993L73.6201 177.868L71.7315 178.759L70.7159 178.135L69.3262 177.761L67.687 178.902L67.0634 180.79L66.3151 181.289L66.1904 181.538L64.4265 180.915L63.8029 178.51L61.2728 176.87V173.343H59.0101L56.4801 169.815C56.4801 169.815 57.3531 169.067 58.2439 168.675C58.2439 168.675 57.6203 166.412 56.4801 165.77C55.8921 165.432 55.7317 165.272 55.0903 165.022C54.4667 164.773 54.342 163.882 54.1995 163.508C54.0748 163.133 54.1995 162.243 54.1995 162.243C54.1995 162.243 54.9478 160.479 54.8231 159.338L54.9478 158.198L56.2128 156.434C56.2128 156.434 56.2128 156.434 56.4622 157.45L57.7273 158.198L58.1014 155.918L58.2261 154.278C58.2261 154.278 59.4911 154.154 60.7562 155.027L62.2706 155.918C62.2706 155.918 64.1592 156.541 64.9253 157.058L66.3151 158.198L67.3306 157.058C67.3306 157.058 67.4554 156.042 67.7048 155.045L69.5934 153.904C69.5934 153.904 69.5934 153.013 69.5934 152.514C69.5934 152.016 68.079 151.891 68.079 151.891C68.079 151.891 67.7048 151 67.4554 150.127C67.2059 149.236 67.0812 149.628 66.1904 148.363C66.1725 148.345 66.1547 148.31 66.1369 148.292L66.1904 148.363C66.1725 148.345 66.1369 148.238 65.9409 147.864C65.6915 147.365 65.1926 146.849 64.6759 146.599C64.177 146.35 63.7851 146.475 62.912 146.475C62.0212 146.475 62.1637 146.475 60.382 145.851C59.7762 145.637 59.6337 145.726 58.4934 145.601C57.3531 145.477 58.4934 145.601 57.4778 145.726C56.4622 145.851 57.4778 145.726 56.8542 144.978C56.8542 144.978 56.9789 144.087 57.4778 142.965C57.4778 142.965 58.2261 142.074 58.9923 141.575L60.2573 139.686L60.9343 137.37L60.186 134.715L59.0457 130.813L58.3152 129.352L57.0324 126.769L59.0457 119.197V117.183L55.0012 118.074V119.838L52.7385 121.103L51.0993 121.352L49.8343 122.742L50.8499 123.241L51.0993 124.381L49.7096 125.646L52.7385 128.426H51.3488V132.72L50.2085 131.971L49.1929 132.096L51.3309 135.749L47.6784 135.374L46.5381 134.751L43.7587 134.003L41.3712 134.626L37.202 135.517V140.559L35.3134 141.7L33.799 142.448L32.7834 144.978V150.145H29.0062C29.0062 150.145 27.367 148.506 27.2423 148.88C27.1176 149.254 27.367 142.947 27.367 142.947L26.3514 140.541L27.367 139.401C27.367 139.401 27.2423 138.778 25.1042 135.357L22.5742 133.343L22.1288 129.37L22.0753 128.8L19.4206 126.021L18.6723 122.867L16.5342 119.838L16.2848 108.738V106.208C16.2848 106.208 17.5498 106.457 17.4251 107.473L19.7057 108.738L21.9684 107.99L24.2312 108.738L23.9818 106.208L24.9973 105.192L26.3871 107.206L28.5251 107.954H29.6654L28.6498 106.19L26.1198 103.037H23.0909L22.3426 101.023L19.189 98.4932L16.8015 98.119L14.5387 95.4643V99.5088L13.149 100.4L12.6501 103.054L10.7615 102.306H8.19584L5.68364 99.776L9.21142 97.1213L7.94641 94.8407L8.57 93.5757L11.3495 96.1057L12.8639 95.2327L10.2092 91.0635L10.9575 89.2996L12.4719 91.0635L13.7369 89.4243L12.3472 88.676V86.6627H10.0845L5.91526 85.9144L4.27609 84.7741L2.13805 85.9144L2.26277 83.6338L0.748316 83.0102L0 81.2285L2.77946 79.3399L6.43196 76.9346L10.0845 71.8923V69.879H7.94641L6.93083 67.4737L4.66807 66.3334L5.29167 63.6787V61.4159L4.02665 59.652V57.2467C4.02665 57.2467 4.77497 56.4984 4.91751 56.4984C5.04223 56.4984 5.41638 56.3737 5.66582 56.3737C5.91526 56.3737 6.1647 57.2645 6.1647 57.2645L6.7883 57.3892L7.92859 57.514C7.92859 57.514 8.6769 56.7656 8.94416 56.6231C9.1936 56.4984 9.56776 56.3737 9.56776 56.3737L10.8328 55.8748L11.3316 56.1242L12.4719 56.3737L14.1111 56.6231H15.6256L16.3739 57.2467L17.3894 57.6209L18.9039 57.3714L20.1689 56.2311L21.0598 54.7167L22.8236 54.592C22.8236 54.592 22.8236 53.8437 23.3225 53.4517L23.572 52.8281C23.572 52.8281 24.0708 52.0798 24.1956 51.9372C24.3203 51.8125 24.8192 51.8125 24.9439 51.8125C25.0686 51.8125 26.583 52.4361 26.583 52.4361L27.4739 52.935L28.8636 53.0597V51.5452L29.1131 50.0308L29.8614 49.9061L31.9994 49.6566L33.5139 48.7658V47.3761L33.2644 46.2358L32.7656 45.4875L32.2667 43.8483L31.1264 42.4586L30.2534 40.0711L30.1286 39.0555L30.7522 38.8061V39.6791L31.7678 39.4297L32.2667 38.8061L33.015 38.4319L33.7633 39.5722L33.888 41.4608L35.0283 41.5855L39.055 39.0555L41.4603 40.0711L41.8344 42.3338L43.2242 44.0977L43.8478 47.1266L44.8633 48.0175L45.2375 49.1578L44.3466 49.9061L43.2064 53.6833L47.3755 56.0708C47.3755 56.0708 49.9056 55.0552 50.0303 54.9305C50.155 54.8058 50.2797 54.4316 50.155 54.3069C50.0303 54.1822 50.7786 52.7924 51.0459 52.7924C51.2953 52.7924 51.9367 53.1666 51.9367 53.1666L52.8276 52.4183L53.5759 51.1533L54.4667 50.9038L55.7317 51.0286L55.4823 51.6522L54.734 52.2758L55.3576 53.2913L56.9968 52.9172L57.1215 50.9038L59.3842 49.3894L60.2573 48.8905L61.5223 48.6411V49.1399L62.2706 49.3894L62.3953 48.6411L62.52 47.7502L63.5356 47.5008L65.4242 48.7658L66.6892 50.0308L66.9387 51.2958L68.2037 51.4205L68.3284 50.9217V50.0486L68.079 49.5497L67.1881 49.0509L66.8139 48.3026L67.1881 47.0375L68.7026 46.7881L68.3284 46.1645L66.9387 45.9151L67.3128 45.4162L71.8562 45.9151L81.9406 47.3048L83.4551 46.6812L82.9562 44.7926V43.4029L83.3304 42.2626L86.1098 42.0131L85.9851 40.8728C85.9851 40.8728 86.8759 40.374 87.0007 40.374C87.1254 40.374 88.141 40.4987 88.141 40.4987L88.3904 39.8751L88.6398 39.002L88.0162 38.7526L87.7668 38.129L88.6577 37.7549L89.406 38.3784L91.1699 36.7393L94.4482 36.2404L94.6976 33.9776L96.5862 32.5879L100.239 32.4632L101.379 31.5902L102.003 30.5746L101.878 28.686L102.893 27.421L104.408 27.2962L105.798 26.156L107.437 26.4054L107.312 27.2784L109.076 28.5434L109.967 28.294L111.107 28.1693L110.484 29.1849L111.499 29.4343L112.889 29.8084L113.014 31.4476L112.265 31.5723L111.891 30.824L111.267 30.3251L110.893 31.9643L111.766 32.2138L111.392 32.8373L109.878 33.3362V33.8351L111.891 33.9598L112.016 35.4743L113.281 37.6123L112.907 45.3093V48.9618L110.377 51.7412L108.239 51.9907C108.239 51.9907 105.085 51.3671 104.96 51.2424C104.836 51.1176 103.196 48.5876 103.196 48.5876L103.072 47.3226L102.698 45.6834C102.698 45.6834 102.074 45.1846 101.807 45.1846C101.557 45.1846 102.181 44.6857 102.181 44.6857L101.931 43.1712V41.7815L101.183 40.9085L101.682 38.6279L102.056 37.8796L101.432 37.1313L99.918 39.5366L99.1697 40.4096V44.4541C99.1697 44.4541 98.1542 44.7035 98.0294 44.8282C97.9047 44.9529 97.0139 45.3271 97.0139 45.3271L95.9983 46.0754L95.1253 46.9663L94.3769 47.5899C94.3769 47.5899 93.6286 47.8393 93.3614 48.0887C93.1119 48.3382 92.4705 49.229 92.4705 49.229C92.4705 49.229 92.3458 49.7279 92.4705 49.9774C92.5952 50.2268 92.8447 50.9929 92.8447 50.9929V52.1332C92.8447 52.1332 92.8447 53.0241 92.9694 53.2735C93.0941 53.5229 93.2188 54.4138 93.2188 54.4138L94.1097 55.0374L95.1253 54.6632C95.1253 54.6632 95.3747 54.1644 95.4994 54.0396C95.6241 53.9149 95.9983 52.7746 95.9983 52.7746C95.9983 52.7746 96.2477 51.5096 96.3724 51.3849C96.4972 51.2602 96.8713 50.7613 96.8713 50.7613C96.8713 50.7613 98.1363 50.6366 98.3858 50.6366C98.6352 50.6366 98.5105 51.5274 98.5105 51.5274L98.3858 52.6677L97.6375 52.543L97.0139 53.2913L98.2789 53.5408L98.7777 56.6944C98.7777 56.6944 101.628 57.2645 101.807 57.318C101.718 57.2289 102.822 54.0396 102.947 54.0396C103.072 54.0396 103.963 54.0396 103.963 54.0396H104.853C104.853 54.0396 105.352 53.9149 105.602 53.9149C105.851 53.9149 106.493 54.0396 106.493 54.0396L107.508 54.6632C107.758 54.788 107.758 54.788 108.132 54.788C108.274 54.788 108.31 54.788 108.31 54.788H108.381C108.631 54.788 108.88 54.9127 108.88 54.9127C108.88 54.9127 109.254 54.5385 110.02 54.6632C110.02 54.6632 110.394 54.9127 110.644 55.0374C110.893 55.1621 110.769 55.7857 110.769 55.7857C110.769 55.7857 110.893 56.1421 111.25 56.5162C111.268 56.534 111.267 56.534 111.285 56.5518C111.339 56.6053 111.392 56.6587 111.392 56.6587C111.57 56.8369 111.303 56.6053 111.41 56.926C111.41 56.926 111.036 56.926 110.519 57.1754L110.644 58.0663C110.644 58.0663 111.018 58.0663 111.392 58.0663C111.766 58.0663 111.766 58.0663 112.016 58.0663C112.265 58.0663 112.39 58.191 112.639 58.0663C112.889 57.9416 112.889 57.9416 113.014 57.8169C113.138 57.6921 113.263 57.4427 113.263 57.1933C113.263 56.9438 113.388 56.4449 113.388 56.4449H114.011L114.902 55.9461C114.902 55.9461 115.027 55.3225 115.027 55.0552C115.027 54.8058 114.777 54.6811 114.902 54.3069C115.027 53.9327 115.401 53.808 116.167 53.6833C116.417 53.6477 116.666 53.4339 116.666 53.4339H117.29C117.29 53.4339 117.913 53.3091 118.181 53.1844C118.181 53.1844 118.056 52.4361 118.056 52.2936C118.056 52.1688 118.555 51.9194 118.555 51.9194H119.57L119.695 50.9038L119.446 50.013L120.319 49.6388V50.3871L121.334 51.278L122.082 52.2936L121.708 55.8213L120.693 56.5697L120.568 55.9461L119.677 55.0552L118.537 54.8058L116.524 55.4294L116.399 58.0841L117.022 59.5986L120.176 60.8636L120.675 59.848L120.924 58.975L121.548 58.7255L122.296 59.3491L123.561 59.4738L123.686 58.7255L124.702 58.6008L124.826 59.9905L128.354 59.8658L128.603 60.6141L130.866 60.7389L130.617 61.6119L131.632 61.7366L131.757 60.5963L135.285 60.721L135.41 61.5941L134.786 61.7188H133.895L133.147 61.9682V62.9838L132.007 62.8591L132.131 63.7499L133.895 64.3735L133.646 65.3891L134.269 65.6385L134.768 64.7477L136.906 64.623L138.296 66.3869L140.951 66.6363V65.888L142.839 66.1374L142.465 66.761V67.7766L141.2 68.2755L140.826 69.291H142.715V68.2398H143.73V68.9882L145.245 68.4893L145.993 67.2243V65.4604L147.882 65.2109L152.3 69.7543L152.425 72.409L154.83 77.4512L155.97 78.0748L158.251 76.311L157.752 75.1707L157.253 74.5471L157.627 73.4068L158.126 73.1573L158.251 72.2665H157.752L157.378 71.0015L156.754 69.9859L159.017 68.8456L159.142 67.2064V64.3023L162.545 63.9281L166.964 59.1353L167.979 58.6364C167.979 58.6364 168.229 59.5273 168.229 59.3848C168.229 59.26 170.883 60.2756 170.883 60.2756L171.258 63.1798L168.603 66.2087L167.587 66.3334L167.338 67.8479L168.353 69.2376L167.979 70.752L166.839 71.5004L165.449 74.4045L164.558 77.3087L163.81 78.5737L164.434 79.1973L164.932 80.8365L163.169 81.2106L162.919 83.6159L161.405 84.3643L159.641 86.1282H158.126L156.113 87.5179L154.474 86.2529L153.726 85.2373L152.71 85.6115L153.601 87.7495L155.864 89.0145L158.269 89.6381L162.046 88.2484L164.451 85.3442L166.091 84.3286L167.106 81.0503L168.87 80.4267L170.26 81.6917L170.883 84.5959L169.369 85.7362L169.494 87.7495L172.273 88.4978L172.772 90.137V90.7606L173.52 90.8853L173.77 90.137L173.645 89.3887C173.645 89.3887 173.271 88.7651 173.146 88.6404C173.021 88.5156 172.897 87.7495 172.897 87.7495C172.897 87.7495 172.273 87.3753 172.006 87.3753C171.756 87.3753 171.258 87.3753 171.258 87.3753L170.509 86.3598C170.509 86.3598 171.258 85.7362 171.525 85.4689C171.774 85.2195 172.54 84.5781 172.54 84.5781L172.79 82.6895L172.291 79.91C172.291 79.91 172.041 79.4111 171.667 79.2864C171.293 79.1617 170.652 79.037 170.153 78.7875C169.654 78.5381 169.405 78.4134 169.262 78.4134C169.137 78.4134 168.763 78.4134 168.122 78.5381L167.623 77.7898C167.623 77.7898 167.498 77.4156 167.498 77.1662C167.498 76.9167 167.249 76.6673 167.249 76.2753C167.249 75.9012 167.249 75.9012 167.373 75.6517C167.498 75.4023 167.748 75.1528 167.872 75.0281C167.997 74.9034 167.997 74.7787 168.122 74.654C168.246 74.5293 168.621 74.0304 168.621 74.0304C168.621 74.0304 168.621 73.7809 168.745 73.2821C168.87 72.7832 169.119 72.7832 169.119 72.7832C169.119 72.7832 169.369 72.0349 170.01 71.5182C170.206 71.3578 170.509 70.8946 170.509 70.8946C170.509 70.8946 170.634 70.271 170.509 70.0037C170.384 69.7543 170.384 69.2554 170.26 69.1129C170.135 68.9881 170.135 68.4893 170.01 67.9726C169.886 67.4737 169.761 67.0817 169.761 66.957C169.761 66.8323 170.135 66.4581 170.135 66.4581C170.135 66.4581 170.759 66.2087 171.151 66.084C171.525 65.9593 171.899 65.9593 172.291 65.8345C172.665 65.7098 173.431 65.3357 173.431 65.3357L174.055 64.9615L174.429 64.3379C174.429 64.3379 174.554 63.9637 174.554 63.7143C174.554 63.4649 174.803 62.6987 174.803 62.6987L175.694 63.0729V63.8212C175.694 64.0706 175.569 64.3201 175.569 64.3201L175.32 65.0684C175.32 65.0684 174.946 65.5673 174.821 65.692C174.696 65.8167 174.447 65.9414 173.805 66.1909V68.4536C173.805 68.4536 173.93 69.0772 173.93 69.3445C173.93 69.5939 174.055 70.0928 174.18 70.2353C174.304 70.3601 174.678 70.6095 174.678 70.6095L175.302 71.1084L175.676 71.8567L176.549 72.997L177.565 73.3711L178.313 73.2464L178.438 72.6228C178.438 72.6228 178.188 71.9992 178.064 71.8745C177.939 71.7498 176.923 70.8589 176.923 70.8589C176.923 70.8589 176.3 70.1106 176.175 69.8434C176.05 69.5939 175.284 68.9525 175.284 68.8278C175.284 68.7031 174.963 68.2398 174.963 68.2398L175.462 67.4915C175.462 67.4915 175.961 66.8679 176.086 66.8679C176.211 66.8679 177.226 67.1174 177.226 67.1174L177.102 68.5071C177.102 68.5071 177.725 68.8812 177.85 68.8812C177.975 68.8812 179.115 68.6318 179.115 68.6318L178.224 66.4938C178.224 66.4938 178.473 66.369 178.723 66.369C178.972 66.369 179.097 66.1196 179.471 65.8702C179.845 65.6207 179.97 65.7454 180.219 65.8702C180.469 65.9949 180.843 66.6185 180.843 66.6185L182.233 67.8835L182.607 68.6318V69.6474L182.856 70.5382L183.355 70.9124C183.355 70.9124 184.371 70.9124 184.994 71.0371C184.994 71.0371 185.119 71.536 185.119 71.6607C185.119 71.7854 184.496 72.1596 184.496 72.1596C184.496 72.1596 183.872 72.2843 183.747 72.2843C183.623 72.2843 183.747 73.0326 183.747 73.0326L183.872 74.1729C183.872 74.1729 183.997 74.6718 184.246 75.1885L184.121 75.6874C184.121 75.6874 183.623 76.0615 183.373 76.7029C183.373 76.7029 182.999 77.3265 182.75 77.5938C182.5 77.8432 182.625 78.3421 182.625 78.3421L183.124 79.7318L183.498 80.9968L184.513 81.6204L185.262 82.1193L186.01 81.7452V78.5915C186.01 78.5915 185.636 77.0771 185.761 76.7029C185.885 76.3288 185.885 75.8121 185.885 75.8121C185.885 75.8121 185.636 73.7988 185.636 73.4068C185.636 73.0326 186.01 72.6585 186.01 72.6585L186.384 71.9101C186.384 71.9101 186.509 71.536 186.384 71.2866C186.259 71.0371 186.01 70.3957 186.01 70.3957V69.6474L185.636 68.6318L185.262 68.0082L184.121 67.6341C184.121 67.6341 183.997 67.1352 184.121 67.0105C184.246 66.8857 184.246 65.9949 184.246 65.9949L183.747 64.3557L183.997 62.966L184.496 61.701L186.01 61.8257L189.912 62.574L192.691 62.4493L192.068 62.9482L193.707 63.839L195.596 63.2154L195.471 62.1999L195.221 60.0618L196.237 57.799L197.751 55.661L198.892 55.1621C198.892 55.1621 201.03 55.1621 201.155 55.1621C201.279 55.1621 203.168 54.5385 203.168 54.5385L204.041 54.2891H205.555L205.68 53.6655L205.431 52.9172H208.085L208.584 54.1822L210.223 53.9327L210.473 52.6677L211.613 52.543H212.504L212.629 53.4339L213.769 53.6833L213.52 52.6677L213.021 52.0441V51.1533L214.286 51.0286L215.675 52.543H216.94L216.691 51.4027L215.177 50.5119L215.301 48.748L217.831 45.8438L218.847 45.2202V45.8438H220.611L221.11 46.5921L220.219 47.091L219.346 47.5899L219.221 48.6054L222.624 48.4807L222.874 49.229L222.375 49.4785L222 50.2268L224.014 50.3515L224.139 49.3359L227.791 49.0865L228.29 50.7257L230.82 51.0998L231.711 52.9884L230.82 53.3626L229.929 53.2379L230.179 54.3782L231.942 55.269L232.067 56.534L227.898 60.5607L223.853 65.7276L222.214 67.1174L221.84 68.6318L223.355 68.7565L223.729 66.9926H225.742L227.506 65.6029L229.644 63.3401L230.392 62.8413L230.891 63.4649H232.406L232.53 62.7165L232.156 62.0929C232.156 62.0929 232.655 61.8435 232.78 61.8435C232.905 61.8435 233.403 62.7344 233.403 62.7344L233.029 63.8747L233.279 65.1397L234.668 65.5138V64.3735H233.92V63.7499L235.435 63.5005L236.575 61.986H241.368L241.617 62.4849L240.993 62.3602L241.243 63.8747L245.537 64.2488L247.675 63.1085L248.94 62.7344L248.815 61.2199L247.8 59.7055L249.314 58.6899C249.314 58.6899 250.33 59.4382 250.33 59.1888C250.33 58.9393 252.984 59.064 252.984 59.064L253.875 57.3002L258.169 61.0774L257.421 61.5763L258.436 61.8257L258.561 62.966L257.047 62.7165V64.8546L258.561 65.104L258.811 63.9637L259.684 64.3379L260.058 66.4759L263.087 67.6162L265.225 67.8657L264.975 66.3512L264.476 63.6965L263.977 62.3068L264.476 61.5584L265.1 62.6987L268.254 62.574L268.752 61.309L269.501 60.4181L269.75 59.7946L270.641 60.8101L272.53 61.1843L274.044 60.9348L274.543 60.1865L272.904 59.4382L273.029 58.1732H274.917V57.5496L274.792 57.0507L274.169 56.6766L273.545 56.053L274.044 55.5541L273.795 54.6632L273.171 54.5385V55.1621C273.171 55.1621 272.423 55.1621 272.28 55.4116C272.155 55.661 272.405 54.788 272.405 54.788L272.031 53.7724L272.779 53.8971L273.67 53.1488L273.545 52.1332L272.53 51.7591L272.654 50.886L274.792 51.0107L278.962 48.9974L281.1 47.8571L281.848 49.2469L280.583 51.1355L281.207 52.4005L282.721 51.3849L282.222 47.091C282.222 47.091 285.5 45.826 285.625 45.826C285.75 45.826 287.14 45.9507 287.389 46.4496C287.389 46.4496 286.89 46.8237 286.765 46.9485C286.641 47.0732 286.017 47.6968 286.017 47.6968H287.157L289.046 47.5721L288.797 46.8237C288.797 46.8237 290.186 46.5743 290.311 46.5743C290.436 46.5743 291.576 46.5743 291.576 46.5743L291.701 47.1979L292.592 47.3226L294.231 46.699L295.496 44.4362L296.119 42.2982L298.008 41.5499L298.257 40.0354L302.926 39.4118L304.565 41.7993H308.467L308.966 39.786L309.34 38.0221L310.48 37.3985L310.355 35.6346H312.493L313.883 33.746C313.883 33.746 314.507 31.3585 314.774 31.216C315.023 31.0913 316.164 31.7149 316.164 31.7149C316.164 31.7149 316.413 31.7149 316.912 31.3407L317.785 31.0913L318.676 30.5924L319.424 30.7171L320.048 30.8418L320.796 30.4677L321.42 29.5946L320.796 28.8463L319.531 27.8308L318.017 27.706L317.001 28.7216V26.7083L315.985 26.4588H314.97L314.845 25.568L315.861 25.1938L317.001 25.3186L317.25 24.303V23.5547L318.141 23.3052L318.89 22.5391L319.139 21.3988L319.513 20.6505L320.012 19.136L321.776 18.1205L323.789 15.341L325.803 15.2163L330.845 12.4368C330.845 12.4368 334.747 9.65736 335.014 9.53264C335.263 9.40792 335.263 9.28321 335.513 9.03377C335.762 8.78433 335.762 8.41017 336.012 8.28545C336.261 8.16073 336.511 8.28545 336.511 8.28545L337.651 8.16073C337.651 8.16073 338.399 7.66185 338.791 7.91129C338.791 7.91129 339.29 8.16073 339.932 8.65961L340.555 8.53489L341.179 8.90905L342.052 9.2832L342.8 8.90905L343.424 8.16073V7.53713L342.408 7.16298L341.66 7.03826L340.769 7.28769L340.145 6.78882L340.52 5.77324L341.393 6.02268L341.268 4.50823L340.644 3.88464L342.034 2.74435L345.312 1.99603L346.061 0.606299L347.201 0.107422V1.49715L347.7 1.99603H348.323L348.573 2.74435H347.308C347.308 2.74435 347.183 3.51048 347.433 3.51048C347.682 3.51048 348.448 3.26104 348.448 3.26104H349.464L348.965 4.00936L348.715 5.27437C348.715 5.27437 348.466 5.27437 348.216 5.02493C347.967 4.77549 347.468 5.02493 347.468 5.02493L347.219 5.91578C347.219 5.91578 349.357 6.0405 349.482 5.91578C349.606 5.79106 351.121 5.91578 351.121 5.91578L351.62 7.67967L352.243 8.05383L352.617 7.43023H353.882L353.758 8.4458L352.493 9.58609L353.116 10.4769H352.101L350.337 11.8667L349.588 13.1317H348.448L347.949 12.6328H346.31L344.92 17.0514L342.782 17.1762L341.393 17.0514L341.018 16.0359H340.27L340.145 17.5503L341.036 19.3142L342.177 19.9378L342.675 18.9222L343.691 18.6728L345.704 22.9667V24.6059L343.174 26.7439L341.909 27.3675L341.785 29.3808L344.172 28.882L347.326 27.1181H352.885V26.3698L353.758 25.9956L354.381 27.1359C354.381 27.1359 355.771 26.7617 355.771 26.8864C355.771 27.0112 356.662 26.8864 356.662 26.8864L356.911 27.902H357.285L357.909 28.4009L356.893 29.0245L355.379 29.8975L354.631 31.9109L354.381 33.3006L354.631 36.8284L355.521 44.6501L356.911 44.8995V45.7903L356.412 46.0398L357.036 50.8326H358.55L359.049 51.8481H354.506L354.381 53.3626L353.366 53.9862C353.366 53.9862 353.366 55.8748 353.241 56.1242C353.116 56.3737 352.617 58.0128 352.617 58.0128L353.633 59.1531V60.2934L352.885 59.9193L352.51 58.779L350.996 58.5295L351.245 61.8079L352.136 62.3068L352.386 63.0551L350.372 62.8056V64.0706L349.482 64.6942L349.98 66.8323L352.51 68.7209L353.651 72.2487L354.15 73.7631L355.415 73.8878L356.555 74.3867L357.178 73.8878L356.555 73.5137C356.555 73.5137 356.68 72.7654 356.804 72.6228C356.929 72.4981 357.428 72.1239 357.677 72.1239C357.927 72.1239 358.426 71.7498 358.426 71.7498L358.8 72.7654C358.8 72.7654 359.049 74.1551 359.049 74.4045C359.049 74.654 359.673 74.9034 359.673 74.9034L361.187 75.2776H362.702L363.593 75.6517L364.733 76.4L364.858 77.1484L364.483 77.8967L363.218 77.5225L362.203 78.2708C362.203 78.2708 364.733 82.1728 364.858 82.2975C364.982 82.4222 366.123 82.5469 366.123 82.5469H367.138L368.154 83.5625L368.403 84.3108L368.528 85.5758C368.528 85.5758 368.403 86.0747 368.154 86.0747C367.904 86.0747 367.281 86.5736 367.281 86.5736V87.5891C367.281 87.5891 367.156 88.48 367.156 88.7294C367.156 88.9789 367.031 90.3686 367.031 90.3686L368.296 91.2595L369.686 91.8831C369.686 91.8831 370.826 93.0234 370.434 93.1481L369.935 93.7717L369.312 95.785L368.421 95.5356L368.67 96.4264L370.185 97.2994L371.699 99.58L372.59 102.734L373 107.099Z" fill="#DBDDE4"/>
<g opacity="0.32" filter="url(#filter0_f)">
<circle cx="121" cy="176" r="18" fill="#3856E1"/>
</g>
<circle opacity="0.32" cx="121" cy="176" r="15" fill="#3856E1"/>
<circle opacity="0.56" cx="121" cy="176" r="12" fill="#3856E1"/>
<circle cx="121" cy="176" r="9" fill="#3856E1"/>
</g>
<defs>
<filter id="filter0_f" x="95" y="150" width="52" height="52" filterUnits="userSpaceOnUse" color-interpolation-filters="sRGB">
<feFlood flood-opacity="0" result="BackgroundImageFix"/>
<feBlend mode="normal" in="SourceGraphic" in2="BackgroundImageFix" result="shape"/>
<feGaussianBlur stdDeviation="4" result="effect1_foregroundBlur"/>
</filter>
<clipPath id="clip0">
<rect width="373" height="214.5" fill="white"/>
</clipPath>
</defs>
</svg>
