<svg width="370" height="208" viewBox="0 0 370 208" fill="none" xmlns="http://www.w3.org/2000/svg">
<g clip-path="url(#clip0)">
<path d="M366.1 95.8L359.6 91.8L361.1 83L365.7 82.1L369.4 77.6L369.2 72.2L366.2 70.6L364.3 65.9L360.9 69L354.1 67.8L348.2 64.6L343.5 65.3L339.2 63L333.2 62.9L325.2 61.3L322 64L320 60L313 56.1L308 46.1L304.5 46.6L296.9 51.9L292.1 51L286.9 52.3L280.6 49.3L276.5 53.3L266.3 44.5L263.9 37.9V32.4L259.7 31.8L259.1 27.5L254.6 24L242.1 25.6L236 18.3L238.5 13.8L233.9 10.2L230.5 0.9L225.3 0.6L219.6 3.3H208.2L196.9 0L193.6 2.8L194.1 7.1L188.9 8.1L184.7 7.2L175.1 9.4L168.5 10L165.4 17.7L164.9 24.6L160 25.2L156.1 22.1L149.6 23.9L145.9 21.5L141.2 21.8L137 26.4L133.3 25.3L132.4 21.4L126.3 20.7L119.3 24.6L116.2 23.3L109.4 22.4L107.4 24.1L104.4 24.2L100.7 21.2L93 24L92 21.6L86.5 19.1L73.6 17.4L68.1 14.6L65.2 14.5L60.6 18L53.5 18.3L37.9 20.3L34 22.2L26.7 18.9L23.1 19.3L22.8 22.6L23.1 32L26 34.6L28.5 40.5L33.9 43.7L32 45.9L32.6 49L34.2 51.6L33 57.6L29.3 57.7L26 61L24 67.1L10.2 80.9L11.1 86.5L10.8 92.6L6.5 92.4L1.9 101.3L1 108.2L0 108.6L5.3 113.2L11 116.6L12.6 120.3L17 120.1L19.9 117.7H24.2L32.4 121.8L38.7 122L44.7 124.4L46.7 127.8L51.4 129.7L58.5 127.8L63.2 127.4L66.9 123.5L81.9 121.1L87.1 118.2L92.4 117.4L91.4 112.4L92.3 110L91.3 104.6L94.9 105.9L95.9 104.6L100.2 107L101.7 104.9H106.5L108.3 103.3L111.6 108H117.3L124.3 113.7L131.6 114.4L132.7 112H134.8L141.8 118.4L147.4 121L148.8 128.1L148.4 132.9L153.4 135.3L154.2 137.5L159.6 142L166.1 145.5L167 149.2L166 152.5L168.7 156L167.9 158.2L161.3 158.4L157.8 155.8L151.9 157.5L147.6 157.6L146.9 165L147 169.9L144.8 169.6L140.6 176.7L140.4 180.3L136.8 179.3L133.5 181.4L137.1 187L143.2 188.2L151.5 188.4L155.2 186L162.1 185.4L165.9 188.2H166L166.8 184.7L164.6 182.2L165.1 179.7L165.3 176.8L167.2 179.4H170.1L178.5 170.2L177.1 167.6H179.5L184.1 162.2V157.2L187.4 154.9L192.6 154.6L196.9 149.5L199.5 151.6L199.3 152.8H203.4L205.3 150.5L207.2 147.7L208.7 150L211.4 151.8L214.8 152.9L221.6 151.3L216.9 154L213.9 155.3L210 154.2L202.1 155.1H197.2L199.1 157.6H207.2L213.8 159.6L212.9 161.1L210.5 162.5L213.7 165.1L216.9 165.3L220.9 167.5L225.7 165.3L231 164.4L236.1 166.4L239.7 168.3L241.4 165.3L243.5 166.2L244.5 171.3L247 174L245.1 175.1L238.5 176.2L230.6 180.5L226 186.8L229.9 188.3L233 186L237.9 188.2L240.4 187.8L247.6 192.9L247.9 195.9L245.1 203.1L243.9 204.7L247.9 207.4L256 207.8L263.8 204.6L274.2 197.5L281.3 197.7L285.2 192.7L290.4 190.2L299.3 191.5L306.9 190.9L309.6 188L307.6 184.3L309.8 182.6L311.5 180L305.6 179.7L298.4 180.5L296.8 184.7L292.5 182.2L290 182.3L286.2 185.8L283.6 184.9L272.8 174.2L271.2 168.8L267.7 164.5L265.9 165.6L268.1 170.8L275.8 179.4L283.3 185.8L281.1 186.9L276.1 185.5L273.4 183.1L272.5 178.5L270.1 177.1L267.4 179.4L268.1 176.2H266L264 177.4L263.8 175.6L266 173.2L264.5 171.1L262 172.4L259.3 170.5L256.6 167.6L249.4 168.1L246.6 166.4L247.2 164.7L252.1 165.4L254.8 163.1L258.1 165.3H262.7L263.5 162.8L267.6 162.2L274.3 155.8L275.2 153.5L277.6 154.9L278.3 156.5L273.9 161.3L272.1 162.2L273.2 164L275.8 162.7L280.6 156.5L281.6 154L279.1 151.1L277.7 148.6L279.8 148.4L282.7 152.9L285.5 153.3L290.1 150.7L296.1 151.9L299.8 149.3L304.4 148.9L306 149.3L310.8 144.8L313.2 141.7L318.1 141.4L320 137.9L322.9 135.9L328.5 136.3L334.1 134.2L336.5 134.5L337 136.7L341.1 135.3L342.4 125.8L345.3 124.6L350.3 117.7L361.1 117L365.1 114.3L364.3 109.2L366.9 101.7L366.1 95.8Z" fill="#DBDDE4"/>
<g opacity="0.32" filter="url(#filter0_f)">
<circle cx="177" cy="58" r="18" fill="#3856E1"/>
</g>
<circle opacity="0.32" cx="177" cy="58" r="15" fill="#3856E1"/>
<circle opacity="0.56" cx="177" cy="58" r="12" fill="#3856E1"/>
<circle cx="177" cy="58" r="9" fill="#3856E1"/>
</g>
<defs>
<filter id="filter0_f" x="151" y="32" width="52" height="52" filterUnits="userSpaceOnUse" color-interpolation-filters="sRGB">
<feFlood flood-opacity="0" result="BackgroundImageFix"/>
<feBlend mode="normal" in="SourceGraphic" in2="BackgroundImageFix" result="shape"/>
<feGaussianBlur stdDeviation="4" result="effect1_foregroundBlur"/>
</filter>
<clipPath id="clip0">
<rect width="369.4" height="207.8" fill="white"/>
</clipPath>
</defs>
</svg>
