<svg width="360" height="284" viewBox="0 0 360 284" fill="none" xmlns="http://www.w3.org/2000/svg">
<g clip-path="url(#clip0)">
<path d="M257.642 17.6419C256.944 16.2445 257.293 15.8952 258.69 15.3712C259.913 15.0218 259.913 15.5458 260.262 16.5939C260.437 17.6419 260.262 18.6899 258.865 18.5153C258.516 18.6899 258.341 17.6419 257.992 17.9912C257.468 18.5153 257.642 17.8166 257.642 17.6419ZM204.542 145.677C205.066 146.725 206.463 144.105 206.463 143.93C206.813 142.707 207.162 141.834 206.114 140.786C205.765 140.437 203.843 138.865 203.319 139.738C202.795 140.437 204.717 141.31 204.717 142.009C204.367 141.659 201.922 140.611 202.271 141.834C202.97 143.231 203.843 144.454 204.542 145.677ZM199.651 72.1397C200 71.7904 199.127 69.5196 199.127 69.1703C198.952 68.4716 197.38 68.2969 197.031 68.9956C196.158 70.393 196.507 70.393 197.555 71.7904C197.555 71.6157 199.651 72.1397 199.651 72.1397ZM265.852 72.8384C265.677 71.965 266.027 71.0917 266.201 70.393C266.376 70.0436 266.551 69.345 266.725 68.9956C266.9 68.6463 267.599 68.4716 267.249 68.8209C267.773 68.2969 268.472 67.7729 269.171 67.5982C269.695 67.5982 271.616 68.2969 271.267 68.4716C273.188 69.6943 270.743 73.1878 270.743 73.1878C270.568 73.0131 270.917 73.0131 270.917 72.8384C270.568 72.4891 270.743 72.6637 270.568 72.1397C270.568 72.3144 269.52 72.1397 269.345 72.1397C269.345 72.3144 269.695 72.6637 269.52 72.8384C270.044 72.8384 270.044 72.8384 270.393 73.1878C271.441 73.0131 269.52 74.0611 269.171 74.2358C268.647 74.7598 267.075 74.4105 266.725 73.7118C266.551 74.5851 265.852 72.8384 265.852 72.8384ZM268.297 72.6637C268.297 72.6637 268.297 72.8384 268.297 72.6637C268.297 72.8384 268.297 72.8384 268.297 72.6637C268.821 73.3624 267.773 73.3624 267.249 73.0131C267.075 73.1877 267.075 73.3624 266.725 73.3624C267.424 73.5371 267.424 74.2358 268.472 74.0611C268.821 73.8864 268.996 73.8864 269.171 73.5371C269.345 73.5371 269.345 73.7118 269.345 73.7118C269.52 73.7118 269.52 73.7118 269.695 73.5371C269.52 73.7118 268.297 73.0131 268.297 72.6637ZM271.092 71.0917C270.917 71.0917 270.568 70.7423 270.568 70.917C270.917 71.2663 270.568 71.7904 270.743 71.965L271.092 71.0917ZM271.616 71.7904C271.267 71.965 271.267 72.1397 271.092 72.3144C271.092 72.4891 271.092 72.6637 271.092 72.6637C271.267 72.4891 271.441 72.1397 271.616 71.7904ZM271.791 70.7423C271.441 70.917 271.616 70.917 271.267 71.0917C271.441 71.2663 271.616 71.2663 271.616 71.6157C271.791 71.441 271.791 71.2663 271.791 71.0917C271.791 70.917 271.791 70.7423 271.791 70.7423ZM266.725 73.7118C266.725 73.5371 266.725 73.5371 266.725 73.7118C266.027 73.3624 266.725 71.0917 266.9 70.7423C266.376 69.5196 269.52 71.441 268.123 71.7904C268.647 71.965 268.297 72.1397 268.472 72.4891C268.821 72.4891 268.996 72.3144 269.345 72.1397C268.996 71.6157 267.773 70.7423 268.647 70.2183C268.472 70.0436 268.472 68.8209 268.996 68.9956C268.996 68.9956 270.219 67.7729 269.869 68.6463C270.393 68.2969 270.917 69.345 270.743 69.6943C270.917 69.6943 270.917 69.6943 271.267 69.6943C270.568 69.1703 271.616 68.8209 271.616 69.6943C271.791 69.6943 271.791 69.6943 271.965 69.6943C271.267 67.0742 269.171 68.6463 267.599 69.345C267.424 69.345 267.424 69.1703 267.424 68.9956C266.9 70.5677 265.503 71.965 266.725 73.7118ZM260.612 86.9869C262.009 86.1135 260.786 85.0655 260.088 86.1135C259.214 86.2882 259.214 87.8602 260.612 86.9869ZM197.031 146.9C197.555 147.424 198.079 148.472 198.778 148.472C199.476 148.472 200.175 148.297 200.874 147.948C202.271 147.074 202.271 146.55 201.223 145.502C200.175 144.279 199.302 141.31 197.555 142.009C196.332 142.358 193.712 144.105 195.11 145.677C195.459 146.026 196.682 146.376 197.031 146.9ZM34.2362 151.266C34.4109 149.869 32.6642 150.044 32.1401 151.092C31.9655 151.79 31.4414 153.362 31.7908 153.712C33.3628 154.934 34.5856 152.314 34.2362 151.266ZM153.887 158.079C154.935 158.603 156.158 158.603 157.38 158.603C158.603 158.603 159.476 159.301 160.524 159.825C162.62 160.699 165.066 161.397 167.337 160.349C167.861 160.175 169.782 159.127 169.258 158.603C168.734 158.079 169.957 156.157 170.83 158.253C171.005 158.777 170.306 158.952 171.179 159.301C171.703 159.476 172.402 159.825 173.101 160C173.8 160.349 175.546 160.349 176.245 160C177.992 159.476 178.166 159.301 179.04 157.729C179.389 157.205 178.865 155.109 178.341 154.76C176.07 153.886 173.101 153.712 171.354 151.79C171.179 151.441 170.481 150.742 170.83 150.393C171.005 150.218 171.179 150.044 171.005 149.694C170.306 147.948 170.131 149.694 168.909 150.218C167.686 150.742 166.813 151.266 165.765 152.14C164.542 153.188 164.367 152.314 162.97 152.14C160.874 152.14 159.826 153.886 158.079 154.76C157.555 154.76 152.14 157.38 153.887 158.079ZM11.5288 124.541C11.7035 126.114 12.7515 124.192 12.7515 123.668C12.9262 122.62 12.7515 122.271 11.8781 121.572C11.1794 121.048 9.95673 122.271 10.6554 122.969C11.5288 123.144 11.3541 123.493 11.5288 124.541ZM359.302 88.3842C359.476 89.2576 360.524 91.0043 359.302 91.179C357.904 91.3537 356.332 91.179 355.284 92.227C354.76 92.7511 354.935 94.6725 354.935 95.5458C354.76 96.7685 354.76 97.6419 353.712 98.5153C352.664 99.214 351.791 100.087 350.743 100.961C350.044 101.659 348.996 102.882 347.948 103.057C346.725 103.406 345.503 103.231 344.28 103.755C343.407 104.105 343.407 106.201 342.883 106.9C342.009 108.122 341.66 108.996 340.961 110.218C340.437 111.79 337.293 111.965 335.896 111.441C335.372 111.441 333.625 109.869 333.45 109.52C332.926 108.122 332.402 106.725 331.878 105.327C331.354 103.93 330.83 103.406 329.607 102.358C329.083 102.009 327.861 100.786 328.035 100.087C327.861 96.7685 332.402 99.738 333.276 100.437C333.101 99.2139 332.926 97.9912 332.577 96.7685C332.227 94.3231 331.529 92.0524 328.734 91.703C325.59 91.179 323.669 92.0524 321.048 93.6244C319.651 94.4978 316.856 97.1179 316.332 98.8646C315.459 101.834 315.983 104.279 316.158 107.424C316.332 109.869 315.459 112.14 316.332 114.585C316.856 115.808 317.38 116.856 317.555 118.253C317.73 119.651 316.158 119.825 315.459 120.873C314.76 122.096 315.284 123.319 314.236 124.367C313.363 125.415 313.014 126.114 313.188 127.511C313.363 128.734 314.236 129.956 314.062 131.004C314.062 132.402 313.887 133.974 313.887 135.371C313.712 137.642 317.031 137.642 316.856 139.913C316.856 141.135 317.031 142.707 316.507 143.93C315.983 145.153 315.459 146.201 314.76 147.249C313.887 148.821 311.092 152.489 314.062 153.013C315.459 153.362 317.031 153.886 318.428 153.886C319.826 153.886 321.048 153.362 322.446 152.664C325.241 151.441 326.463 153.712 327.337 156.157C327.686 157.38 327.686 158.777 328.385 159.825C329.083 161.223 329.957 162.62 330.655 164.017C332.053 166.638 326.813 166.987 325.415 167.336C322.621 168.035 320 169.607 317.38 170.655C314.935 171.703 314.062 168.734 311.791 169.607C309.345 170.48 307.075 169.083 304.629 169.607C301.834 170.131 299.564 171.354 297.118 172.751C296.245 173.275 294.848 173.799 293.8 173.974C292.402 174.323 290.83 173.974 290.481 175.371C289.957 177.642 294.324 178.69 295.197 180.087C296.769 182.358 296.594 184.803 296.594 187.424C296.769 190.393 296.245 191.266 294.673 193.886C293.276 195.982 292.227 197.729 291.703 200.175C291.179 202.62 291.005 206.288 289.607 208.384C288.21 210.655 286.114 212.402 284.717 214.672C283.494 216.594 283.319 220.262 282.795 222.358C282.271 224.978 281.572 227.424 280.699 230.044C280 232.314 278.254 234.41 277.031 236.506C275.808 238.603 274.062 240.873 273.363 243.144C272.664 245.764 271.267 248.559 271.092 251.179C270.743 253.974 271.092 256.594 271.092 259.389C271.267 265.153 270.917 270.568 270.568 276.332C270.393 278.428 267.599 280.699 266.376 282.271C265.677 283.144 265.328 283.843 264.105 283.668C258.166 282.969 252.402 282.096 246.463 281.397C217.992 277.555 109.52 263.231 84.0179 259.738C81.5724 259.389 79.127 259.039 76.8563 258.69C74.5855 258.341 73.0135 257.118 71.6161 255.371C66.0266 248.035 1.74712 165.415 0.873759 163.144C-0.174276 161.223 0.524414 157.729 0.524414 155.633C0.524414 154.236 0.524414 152.838 0.175069 151.441C0.000396609 149.869 0.524414 149.52 1.39778 148.297C1.74712 147.424 1.74712 145.327 1.57245 144.454C1.39778 143.755 -0.174276 141.834 0.349742 141.31C0.524414 141.135 1.57245 139.563 1.92179 139.738C2.27114 139.738 2.62048 140.961 2.62048 141.135C3.1445 142.009 4.01786 142.882 4.36721 143.93C4.89123 146.55 4.54188 149.345 4.89123 151.965C5.0659 153.188 6.63795 153.712 6.81262 152.14C6.9873 151.616 7.33664 148.472 7.68599 148.297C9.08337 148.297 8.21 153.188 10.4807 153.013C11.7035 152.838 11.0048 152.314 11.1794 151.965C11.7035 150.917 12.0528 149.694 12.5768 148.646C13.6249 146.201 15.7209 148.472 15.8956 149.869C16.0703 152.14 15.7209 154.061 15.3716 156.332C15.0222 158.428 15.8956 160.524 16.2449 162.62C16.769 164.716 16.0703 166.463 16.9436 168.384C17.293 169.083 17.293 170.48 17.9917 171.004C18.5157 171.528 19.9131 171.528 20.6118 171.528C23.0572 171.528 24.2799 171.703 26.0266 173.45C26.2013 173.624 27.0746 174.323 27.2493 173.799C27.424 173.624 26.9 173.1 26.9 172.926C26.7253 171.703 27.948 171.878 28.996 171.878C30.2187 171.878 32.1401 171.703 33.1882 171.878C33.8869 171.703 35.2842 173.1 35.9829 173.45C37.555 174.148 38.4283 173.799 40.1751 173.45C40.6991 173.275 40.8738 173.275 41.5724 173.45C42.0965 173.624 42.7952 173.1 42.9698 173.275C43.3192 173.275 43.4939 173.799 43.8432 173.624C44.1925 173.45 44.3672 173.275 44.7166 173.1C45.0659 172.926 45.7646 172.926 46.2886 173.1C47.5113 173.275 48.5594 173.1 49.7821 172.751C50.8301 172.402 51.7035 171.004 52.9262 170.83C54.1489 170.48 55.3716 170.83 56.5943 170.655C57.817 170.48 58.341 169.432 59.389 168.734C60.4371 167.86 61.1358 167.686 62.5331 167.336C63.7559 167.162 64.9786 166.288 65.6773 165.24C66.3759 163.843 66.7253 163.843 68.1227 163.144C70.2187 162.271 71.4414 159.825 73.7122 159.127C75.2842 158.603 75.1096 157.555 75.2842 156.157C75.2842 154.76 75.6336 154.41 76.8563 153.712C78.603 152.664 81.5724 157.904 82.2711 158.777C82.9698 159.825 83.4938 158.603 84.3672 158.428C85.2406 158.079 86.4633 158.603 87.162 158.777C88.5593 159.127 89.9567 159.651 91.3541 159.476C92.4021 159.301 93.1008 158.428 94.3235 158.428C95.3716 158.428 96.0703 158.952 97.1183 159.127C98.6904 159.301 100.437 159.476 102.009 159.476C103.232 159.651 104.105 159.301 105.153 158.777C105.677 158.603 106.201 158.428 106.551 158.079C106.9 157.729 106.376 157.205 107.075 157.205C107.948 157.205 108.123 158.079 108.647 158.603C109.345 159.301 110.743 160.699 111.791 160.699C113.013 160.699 114.062 159.127 115.284 159.651C116.158 160 117.555 161.223 118.603 160.699C117.73 160.349 117.555 159.476 117.555 158.777C117.555 157.38 117.206 157.38 118.778 157.031C120.175 156.681 122.271 158.428 123.145 159.476C123.843 160.349 124.717 161.921 125.415 162.62C126.463 163.319 128.21 162.969 129.258 163.144C131.878 163.319 135.022 162.096 137.642 161.572C138.341 161.397 139.564 160.873 140.262 161.397C141.136 161.921 141.66 163.144 142.708 163.493C143.756 163.668 145.328 162.969 146.027 163.493C146.725 164.017 148.123 164.541 148.647 165.065C149.695 166.113 149.695 167.336 151.441 167.336C152.489 167.336 153.363 166.463 154.411 166.638C154.76 166.812 155.459 167.336 155.983 167.162C156.682 166.812 157.38 166.463 158.079 166.113C159.302 165.589 159.476 165.24 160.699 165.764C163.145 166.812 166.638 166.113 169.258 166.113C170.131 166.113 171.703 166.288 172.402 165.939C173.276 165.589 174.324 164.541 175.197 164.192C176.245 163.668 177.118 162.969 178.166 162.795C179.564 162.62 181.136 162.445 182.358 162.096C184.629 161.397 186.551 160.175 188.996 159.825C191.092 159.476 193.363 157.729 194.236 155.808C194.586 155.109 195.11 154.76 195.634 154.41C195.634 154.236 195.459 154.061 195.459 154.061C194.935 153.188 193.188 150.742 192.14 150.568C191.441 150.393 189.695 149.869 189.52 149.345C189.345 148.821 188.472 147.424 188.821 146.9C189.52 145.677 189.695 145.327 191.092 144.803C192.315 144.279 194.935 147.773 195.459 148.646C195.634 148.996 197.73 151.616 198.603 153.886C199.302 153.712 199.826 153.537 200.35 153.188C201.572 152.314 202.795 151.441 204.018 150.393C204.542 150.044 204.717 150.393 205.066 149.694C205.415 149.17 205.415 149.17 205.939 149.17C207.337 149.17 208.385 149.869 209.782 150.393C209.607 150.393 212.227 148.122 212.402 148.122C214.498 146.55 215.372 143.93 216.594 141.659C217.293 140.087 217.642 139.913 217.293 138.166C217.293 137.991 217.293 137.991 217.293 137.991C217.468 137.991 217.642 137.991 217.642 137.817C217.468 137.817 217.468 137.991 217.293 137.991C215.546 138.166 210.306 135.895 210.131 135.895C209.433 135.72 206.463 135.196 206.463 134.498C206.463 132.751 207.686 132.227 208.909 131.004C209.433 130.48 210.655 128.384 211.179 128.734C210.83 128.734 211.005 131.528 211.354 132.052C211.878 132.751 216.594 135.196 217.817 136.769C217.992 136.594 218.166 136.419 218.516 136.419C217.293 136.07 217.468 135.022 218.865 135.196C219.913 135.371 220.612 136.07 221.66 136.245C221.485 135.72 218.516 132.227 220.612 133.1C221.485 133.45 222.358 133.799 223.232 134.148C223.756 134.323 223.931 135.022 224.28 135.022C224.105 133.799 224.28 133.275 223.232 132.751C222.358 132.402 221.66 132.576 220.786 132.402C218.69 131.878 217.468 131.179 215.721 129.956C214.848 129.432 211.179 128.384 213.45 127.686C213.974 127.511 215.022 126.113 215.372 126.113C215.546 125.939 216.07 127.336 216.245 127.511C216.07 126.638 216.769 125.764 217.293 125.24C218.166 124.017 218.516 126.638 218.69 126.987C219.214 128.908 221.136 131.004 223.232 130.655C222.708 130.131 221.31 128.908 223.057 129.432C224.28 129.607 224.979 130.655 225.677 129.258C226.9 127.162 227.948 125.065 229.171 122.969C228.647 122.795 226.201 121.223 227.948 120.699C229.869 120.349 229.695 119.651 230.219 117.904C230.393 117.38 231.441 117.555 231.616 117.031C231.791 116.507 231.092 116.332 230.917 115.982C230.568 115.284 229.695 113.362 230.393 112.664C229.171 111.965 228.996 110.393 230.393 109.345C231.267 108.821 232.14 108.122 233.013 107.598C233.538 107.249 233.538 106.55 234.062 106.026C235.284 104.978 236.507 107.074 238.079 106.55C238.603 106.376 239.476 105.677 239.476 104.803C239.476 104.454 238.079 103.581 238.603 103.406C241.747 101.659 244.891 99.9126 247.686 97.8166C250.306 95.8952 252.577 93.2751 255.721 92.227C255.197 92.227 254.324 92.2271 253.45 91.5284C252.926 92.2271 252.926 90.8297 253.276 90.8297C253.276 90.3056 252.926 89.7816 253.101 89.2576C253.275 88.5589 253.974 87.3362 254.673 86.9869C255.546 86.6375 256.944 86.9869 257.642 87.3362C257.992 87.5109 259.564 88.7336 258.69 88.5589C258.69 89.7816 257.992 90.131 257.817 91.0043C258.166 90.8297 259.738 90.131 259.738 89.7816C259.214 87.6856 259.913 88.0349 261.834 87.6856C262.184 87.6856 262.184 88.0349 262.358 87.6856C262.708 87.1615 263.232 86.8122 263.581 86.2882C264.629 85.0655 265.677 83.6681 266.9 82.4454C267.249 82.096 266.725 82.096 266.376 82.096C263.232 82.4454 264.629 77.2052 267.424 78.2533C268.297 78.6026 268.123 80.6987 268.821 79.8253C270.917 77.2052 272.839 74.5851 274.935 71.965C276.158 70.393 275.284 67.2489 278.254 67.7729C279.127 67.9476 279.826 69.6943 280 70.393C280.35 71.2663 279.476 72.3144 278.952 73.0131C280.524 72.4891 281.223 71.965 280.699 70.2183C280.35 68.9956 279.127 67.7729 278.952 66.5502C278.603 64.9781 281.223 61.834 283.145 62.1834C282.621 61.1353 282.795 59.738 283.843 59.0393C284.717 58.5153 284.717 59.5633 285.415 59.0393C285.939 58.5153 286.463 58.1659 286.987 57.4672C287.337 56.9432 289.258 53.7991 289.607 55.1965C290.306 57.4672 290.306 53.2751 291.354 54.6725C291.878 53.1004 292.227 50.8297 293.625 49.9563C292.402 49.607 293.101 48.7336 293.625 48.0349C295.022 45.9388 295.197 43.4934 296.944 41.572C297.642 40.6987 299.214 40 298.341 41.7467C297.992 42.4454 296.594 43.6681 296.944 44.3668C297.468 45.7642 298.516 45.7642 299.913 45.2402C300.786 44.8908 302.708 44.8908 303.232 44.0174C303.931 42.9694 303.931 41.572 304.629 40.524C305.328 39.3013 306.027 38.4279 307.075 37.5546C307.948 36.6812 308.821 36.1572 310.044 35.8078C311.092 35.4585 311.441 34.9345 311.965 34.0611C312.664 33.1878 313.188 32.1397 314.411 31.965C315.634 31.7904 315.983 30.917 317.031 30.393C318.254 29.6943 319.302 29.869 320.35 28.8209C321.223 28.1222 321.922 27.4236 322.62 26.5502C322.795 26.2009 327.337 20.0873 328.035 20.6113C328.035 20.6113 327.162 23.0567 327.162 23.2314C327.162 23.2314 325.939 25.6768 326.987 25.1528C327.686 24.8035 328.035 20.9607 328.21 20.0873C328.385 18.6899 330.83 17.1179 331.878 16.2445C333.101 15.1965 333.45 13.4498 333.8 11.8777C333.625 12.0524 332.053 14.8471 331.354 13.9738C331.179 13.7991 332.227 12.4017 332.227 12.2271C333.625 9.95631 334.673 7.68557 335.372 5.06548C335.546 4.19212 335.721 1.74671 336.594 1.04802C336.594 0.873343 339.564 0.523998 339.913 0.349326C340.262 0.174653 343.057 -0.873382 343.407 -1.92821e-05C343.756 1.22269 344.455 2.27072 344.629 3.49343C345.153 5.76417 344.28 8.03491 344.105 10.4803C343.931 13.4498 344.28 16.0698 342.708 18.5153C342.009 19.5633 341.31 20.6113 342.009 22.0087C342.533 23.0567 343.581 23.7554 343.931 24.8035C344.455 26.2009 343.232 26.5502 342.358 27.4236C341.485 28.2969 341.66 29.1703 341.834 30.393C342.009 31.2664 341.834 33.3624 342.533 34.0611C343.407 34.7598 344.455 34.2358 345.328 35.1091C346.551 35.9825 345.852 37.2052 347.424 37.5546C348.472 37.9039 350.219 37.0305 351.092 36.6812C352.315 36.3319 353.188 37.3799 354.236 37.7292C355.459 38.2533 356.332 38.0786 357.031 39.3013C357.73 40.3493 357.904 42.2707 358.254 43.4934C358.603 44.3668 358.603 44.8908 358.603 45.9388C358.428 48.5589 358.079 51.3537 358.254 53.9738C358.254 54.6725 358.603 55.3712 358.428 56.0698C358.428 56.5939 357.904 56.9432 357.73 57.4672C357.555 58.3406 358.603 59.738 358.952 60.6113C360.175 62.5327 359.127 65.5022 358.778 67.5982C358.603 69.869 358.079 71.965 358.079 74.4105C358.079 77.2052 357.904 80.1746 357.904 82.9694C358.079 85.0655 358.952 86.9869 359.302 88.3842ZM257.468 89.7816C257.468 90.3056 256.944 90.131 256.594 89.7816C256.769 90.131 257.293 90.8297 257.468 91.179C257.642 90.655 258.166 89.7816 258.166 89.0829C258.166 88.5589 257.992 88.2096 257.642 87.8602C257.293 87.5109 255.896 87.5109 255.721 87.3362C254.673 87.8602 253.101 88.5589 253.625 90.3056C253.974 90.4803 254.324 91.3537 255.022 91.3537C255.721 91.5284 255.896 92.0524 256.594 91.703C256.42 91.5284 255.896 90.4803 255.896 90.3056C256.07 91.8777 254.149 91.179 254.324 90.3056C253.8 90.3056 253.974 90.3056 253.974 89.9563C253.974 89.607 253.8 89.607 254.149 89.2576C253.8 88.9083 253.974 89.0829 254.324 88.7336C253.974 88.3843 254.673 88.0349 255.022 88.2096C255.197 87.3362 256.42 87.8602 256.42 88.0349C256.594 88.0349 257.293 87.6856 257.118 88.2096C257.642 88.3843 257.468 88.5589 256.944 88.7336C258.166 88.2096 257.817 89.4323 257.468 89.7816ZM267.424 81.048C267.249 80.8733 267.075 80.8733 266.9 80.6987C266.9 80.8733 266.725 81.048 266.551 81.048C266.551 81.048 266.9 81.048 267.075 81.048C267.424 81.3974 267.075 81.2227 267.424 81.048ZM268.297 80C268.123 80 267.948 79.8253 268.123 79.6506V79.476C268.123 79.6506 267.948 79.8253 267.773 80V80.1747C267.948 80 268.123 80 268.297 80.1747C268.123 80.1747 268.123 80.1746 268.297 80ZM356.856 65.8515C357.206 63.9301 354.76 65.5022 354.062 64.2794C352.839 62.5327 352.839 62.1834 350.568 62.0087C350.044 62.3581 348.821 62.8821 348.647 63.4061C348.472 63.9301 348.996 64.9781 348.996 65.5022C349.171 66.5502 349.695 66.0262 348.821 67.0742C348.472 67.5982 347.599 67.7729 347.075 67.9476C346.551 68.2969 346.201 70.2183 346.551 70.7423C347.424 71.965 349.345 71.2663 350.219 70.5677C351.267 69.6943 352.315 68.8209 353.538 68.2969C355.284 67.9476 356.507 67.5982 356.856 65.8515ZM55.8956 132.402C57.1183 131.878 57.817 130.655 57.4676 129.432C57.1183 128.21 56.0703 126.463 54.6729 127.336C54.1489 127.686 52.5768 129.956 53.2755 130.655C53.7995 131.179 55.1969 132.751 55.8956 132.402ZM126.987 148.996C127.686 148.646 127.162 147.598 128.035 148.122C128.559 148.472 128.909 148.646 129.433 148.646C130.83 148.821 130.655 150.917 131.703 149.17C132.227 148.297 131.878 147.249 133.45 147.074C134.848 146.9 135.546 146.201 136.769 145.677C138.166 144.978 139.04 144.629 139.913 143.581C140.262 143.231 140.786 140.262 140.437 140.087C139.738 138.865 138.516 139.389 138.341 137.817C138.166 136.769 136.594 138.69 136.245 139.039C135.721 139.913 133.974 141.659 133.8 142.533C133.625 142.882 135.372 145.327 133.625 145.327C132.577 145.327 132.751 143.581 131.529 143.581C130.655 143.581 128.734 144.803 127.861 145.153C126.813 145.502 125.939 146.201 125.066 146.725C123.843 147.249 122.62 146.026 121.398 146.376C120.699 146.201 120.35 148.297 120.699 148.821C120.699 148.646 126.987 148.821 126.987 148.996ZM113.363 99.5633C113.712 97.4672 110.568 96.9432 111.616 99.5633C112.14 101.31 113.363 102.009 113.363 99.5633ZM76.5069 150.742C77.031 150.742 78.4283 148.821 78.9524 148.472C80.6991 146.9 81.5724 144.978 80.6991 142.533C80.1751 140.087 77.031 140.262 75.8083 142.009C75.2842 142.707 73.8869 143.93 73.8869 144.629C73.7122 146.201 74.0615 146.725 74.5855 148.122C74.7602 148.646 75.8083 150.742 76.5069 150.742Z" fill="#DBDDE4"/>
<g opacity="0.32" filter="url(#filter0_f)">
<circle cx="171" cy="160" r="18" fill="#3856E1"/>
</g>
<circle opacity="0.32" cx="171" cy="160" r="15" fill="#3856E1"/>
<circle opacity="0.56" cx="171" cy="160" r="12" fill="#3856E1"/>
<circle cx="171" cy="160" r="9" fill="#3856E1"/>
</g>
<defs>
<filter id="filter0_f" x="145" y="134" width="52" height="52" filterUnits="userSpaceOnUse" color-interpolation-filters="sRGB">
<feFlood flood-opacity="0" result="BackgroundImageFix"/>
<feBlend mode="normal" in="SourceGraphic" in2="BackgroundImageFix" result="shape"/>
<feGaussianBlur stdDeviation="4" result="effect1_foregroundBlur"/>
</filter>
<clipPath id="clip0">
<rect width="360" height="283.668" fill="white"/>
</clipPath>
</defs>
</svg>
